ISO-10303-21;
HEADER;
/* Generated by software containing ST-Developer
 * from STEP Tools, Inc. (www.steptools.com) 
 */

FILE_DESCRIPTION(
/* description */ (''),
/* implementation_level */ '2;1');

FILE_NAME(
/* name */ 'Armteil01_V2.stp',
/* time_stamp */ '2026-09-06T18:57:48+02:00',
/* author */ ('bluhm'),
/* organization */ (''),
/* preprocessor_version */ 'ST-DEVELOPER v20.1',
/* originating_system */ 'Autodesk Inventor 2026',
/* authorisation */ '');

FILE_SCHEMA (('AUTOMOTIVE_DESIGN { 1 0 10303 214 3 1 1 }'));
ENDSEC;

DATA;
#10=MECHANICAL_DESIGN_GEOMETRIC_PRESENTATION_REPRESENTATION('',(#13),#1382);
#11=SHAPE_REPRESENTATION_RELATIONSHIP('SRR','None',#1389,#12);
#12=ADVANCED_BREP_SHAPE_REPRESENTATION('',(#14),#1381);
#13=STYLED_ITEM('',(#1398),#14);
#14=MANIFOLD_SOLID_BREP('Volumenk\X\F6rper1',#739);
#15=TOROIDAL_SURFACE('',#783,10.,4.);
#16=B_SPLINE_CURVE_WITH_KNOTS('',3,(#1193,#1194,#1195,#1196,#1197,#1198,
#1199,#1200,#1201,#1202,#1203,#1204),.UNSPECIFIED.,.F.,.F.,(4,1,1,1,1,1,
1,2,4),(-1.01538538207797,-0.913846843870169,-0.812308305662372,-0.710769767454576,
-0.609231229246779,-0.507692691038983,-0.406154152831186,0.,0.00128724371502702),
 .UNSPECIFIED.);
#17=B_SPLINE_CURVE_WITH_KNOTS('',3,(#1205,#1206,#1207,#1208,#1209,#1210,
#1211,#1212,#1213,#1214,#1215,#1216),.UNSPECIFIED.,.F.,.F.,(4,2,1,1,1,1,
1,1,4),(-0.00128724371502702,0.,0.406154152831186,0.507692691038983,0.609231229246779,
0.710769767454576,0.812308305662372,0.913846843870169,1.01538538207797),
 .UNSPECIFIED.);
#18=B_SPLINE_CURVE_WITH_KNOTS('',3,(#1284,#1285,#1286,#1287,#1288,#1289,
#1290,#1291,#1292,#1293,#1294,#1295),.UNSPECIFIED.,.F.,.F.,(4,1,1,1,1,1,
1,2,4),(0.,0.203077076415534,0.304615614623301,0.406154152831067,0.507692691038834,
0.609231229246601,0.812308305662135,1.01538538207767,1.01667262579288),
 .UNSPECIFIED.);
#19=B_SPLINE_CURVE_WITH_KNOTS('',3,(#1296,#1297,#1298,#1299,#1300,#1301,
#1302,#1303,#1304,#1305,#1306,#1307),.UNSPECIFIED.,.F.,.F.,(4,2,1,1,1,1,
1,1,4),(-1.01667262579288,-1.01538538207767,-0.812308305662135,-0.609231229246601,
-0.507692691038834,-0.406154152831067,-0.304615614623301,-0.203077076415534,
0.),.UNSPECIFIED.);
#20=B_SPLINE_SURFACE_WITH_KNOTS('',3,3,((#1129,#1130,#1131,#1132,#1133,
#1134,#1135,#1136,#1137,#1138,#1139,#1140),(#1141,#1142,#1143,#1144,#1145,
#1146,#1147,#1148,#1149,#1150,#1151,#1152),(#1153,#1154,#1155,#1156,#1157,
#1158,#1159,#1160,#1161,#1162,#1163,#1164),(#1165,#1166,#1167,#1168,#1169,
#1170,#1171,#1172,#1173,#1174,#1175,#1176),(#1177,#1178,#1179,#1180,#1181,
#1182,#1183,#1184,#1185,#1186,#1187,#1188)),.UNSPECIFIED.,.F.,.F.,.F.,(4,
1,4),(4,2,1,1,1,1,1,1,4),(0.,0.571428571428571,1.),(-0.00128724371502702,
0.,0.406154152831186,0.507692691038983,0.609231229246779,0.710769767454576,
0.812308305662372,0.913846843870169,1.01538538207797),.UNSPECIFIED.);
#21=B_SPLINE_SURFACE_WITH_KNOTS('',3,3,((#1223,#1224,#1225,#1226,#1227,
#1228,#1229,#1230,#1231,#1232,#1233,#1234),(#1235,#1236,#1237,#1238,#1239,
#1240,#1241,#1242,#1243,#1244,#1245,#1246),(#1247,#1248,#1249,#1250,#1251,
#1252,#1253,#1254,#1255,#1256,#1257,#1258),(#1259,#1260,#1261,#1262,#1263,
#1264,#1265,#1266,#1267,#1268,#1269,#1270),(#1271,#1272,#1273,#1274,#1275,
#1276,#1277,#1278,#1279,#1280,#1281,#1282)),.UNSPECIFIED.,.F.,.F.,.F.,(4,
1,4),(4,1,1,1,1,1,1,2,4),(0.,0.571428571428571,1.),(0.,0.203077076415534,
0.304615614623301,0.406154152831067,0.507692691038834,0.609231229246601,
0.812308305662135,1.01538538207767,1.01667262579288),.UNSPECIFIED.);
#22=FACE_BOUND('',#101,.T.);
#23=FACE_BOUND('',#115,.T.);
#24=FACE_BOUND('',#118,.T.);
#25=FACE_BOUND('',#122,.T.);
#26=PLANE('',#765);
#27=PLANE('',#769);
#28=PLANE('',#770);
#29=PLANE('',#771);
#30=PLANE('',#772);
#31=PLANE('',#773);
#32=PLANE('',#774);
#33=PLANE('',#775);
#34=PLANE('',#776);
#35=PLANE('',#777);
#36=PLANE('',#778);
#37=PLANE('',#779);
#38=PLANE('',#780);
#39=PLANE('',#787);
#40=PLANE('',#790);
#41=PLANE('',#791);
#42=PLANE('',#792);
#43=PLANE('',#793);
#44=PLANE('',#794);
#45=PLANE('',#795);
#46=PLANE('',#799);
#47=PLANE('',#800);
#48=PLANE('',#801);
#49=PLANE('',#805);
#50=PLANE('',#809);
#51=PLANE('',#813);
#52=PLANE('',#814);
#53=PLANE('',#815);
#54=FACE_OUTER_BOUND('',#93,.T.);
#55=FACE_OUTER_BOUND('',#94,.T.);
#56=FACE_OUTER_BOUND('',#95,.T.);
#57=FACE_OUTER_BOUND('',#96,.T.);
#58=FACE_OUTER_BOUND('',#97,.T.);
#59=FACE_OUTER_BOUND('',#98,.T.);
#60=FACE_OUTER_BOUND('',#99,.T.);
#61=FACE_OUTER_BOUND('',#100,.T.);
#62=FACE_OUTER_BOUND('',#102,.T.);
#63=FACE_OUTER_BOUND('',#103,.T.);
#64=FACE_OUTER_BOUND('',#104,.T.);
#65=FACE_OUTER_BOUND('',#105,.T.);
#66=FACE_OUTER_BOUND('',#106,.T.);
#67=FACE_OUTER_BOUND('',#107,.T.);
#68=FACE_OUTER_BOUND('',#108,.T.);
#69=FACE_OUTER_BOUND('',#109,.T.);
#70=FACE_OUTER_BOUND('',#110,.T.);
#71=FACE_OUTER_BOUND('',#111,.T.);
#72=FACE_OUTER_BOUND('',#112,.T.);
#73=FACE_OUTER_BOUND('',#113,.T.);
#74=FACE_OUTER_BOUND('',#114,.T.);
#75=FACE_OUTER_BOUND('',#116,.T.);
#76=FACE_OUTER_BOUND('',#117,.T.);
#77=FACE_OUTER_BOUND('',#119,.T.);
#78=FACE_OUTER_BOUND('',#120,.T.);
#79=FACE_OUTER_BOUND('',#121,.T.);
#80=FACE_OUTER_BOUND('',#123,.T.);
#81=FACE_OUTER_BOUND('',#124,.T.);
#82=FACE_OUTER_BOUND('',#125,.T.);
#83=FACE_OUTER_BOUND('',#126,.T.);
#84=FACE_OUTER_BOUND('',#127,.T.);
#85=FACE_OUTER_BOUND('',#128,.T.);
#86=FACE_OUTER_BOUND('',#129,.T.);
#87=FACE_OUTER_BOUND('',#130,.T.);
#88=FACE_OUTER_BOUND('',#131,.T.);
#89=FACE_OUTER_BOUND('',#132,.T.);
#90=FACE_OUTER_BOUND('',#133,.T.);
#91=FACE_OUTER_BOUND('',#134,.T.);
#92=FACE_OUTER_BOUND('',#135,.T.);
#93=EDGE_LOOP('',(#486,#487,#488,#489));
#94=EDGE_LOOP('',(#490));
#95=EDGE_LOOP('',(#491,#492,#493,#494));
#96=EDGE_LOOP('',(#495));
#97=EDGE_LOOP('',(#496,#497,#498,#499));
#98=EDGE_LOOP('',(#500,#501,#502,#503));
#99=EDGE_LOOP('',(#504,#505,#506,#507,#508,#509,#510,#511));
#100=EDGE_LOOP('',(#512,#513,#514,#515,#516,#517,#518,#519));
#101=EDGE_LOOP('',(#520,#521,#522,#523));
#102=EDGE_LOOP('',(#524,#525,#526,#527,#528,#529,#530,#531));
#103=EDGE_LOOP('',(#532,#533,#534,#535));
#104=EDGE_LOOP('',(#536,#537,#538,#539));
#105=EDGE_LOOP('',(#540,#541,#542,#543));
#106=EDGE_LOOP('',(#544,#545,#546,#547));
#107=EDGE_LOOP('',(#548,#549,#550,#551));
#108=EDGE_LOOP('',(#552,#553,#554,#555,#556,#557,#558,#559,#560,#561,#562,
#563,#564,#565,#566,#567));
#109=EDGE_LOOP('',(#568,#569,#570));
#110=EDGE_LOOP('',(#571,#572,#573,#574));
#111=EDGE_LOOP('',(#575,#576,#577));
#112=EDGE_LOOP('',(#578,#579,#580,#581));
#113=EDGE_LOOP('',(#582,#583,#584,#585,#586,#587));
#114=EDGE_LOOP('',(#588,#589,#590,#591));
#115=EDGE_LOOP('',(#592));
#116=EDGE_LOOP('',(#593,#594,#595,#596));
#117=EDGE_LOOP('',(#597,#598,#599,#600));
#118=EDGE_LOOP('',(#601));
#119=EDGE_LOOP('',(#602,#603,#604,#605));
#120=EDGE_LOOP('',(#606,#607,#608,#609));
#121=EDGE_LOOP('',(#610,#611,#612,#613,#614,#615,#616,#617));
#122=EDGE_LOOP('',(#618,#619,#620,#621));
#123=EDGE_LOOP('',(#622,#623,#624,#625,#626,#627));
#124=EDGE_LOOP('',(#628,#629,#630,#631,#632,#633));
#125=EDGE_LOOP('',(#634,#635,#636,#637,#638,#639));
#126=EDGE_LOOP('',(#640,#641,#642,#643,#644,#645));
#127=EDGE_LOOP('',(#646,#647,#648,#649));
#128=EDGE_LOOP('',(#650,#651,#652,#653));
#129=EDGE_LOOP('',(#654,#655,#656,#657));
#130=EDGE_LOOP('',(#658,#659,#660,#661));
#131=EDGE_LOOP('',(#662,#663));
#132=EDGE_LOOP('',(#664,#665,#666,#667));
#133=EDGE_LOOP('',(#668,#669,#670,#671));
#134=EDGE_LOOP('',(#672,#673,#674,#675));
#135=EDGE_LOOP('',(#676,#677,#678,#679,#680,#681,#682,#683,#684,#685,#686,
#687,#688,#689,#690,#691));
#136=LINE('',#1013,#218);
#137=LINE('',#1020,#219);
#138=LINE('',#1026,#220);
#139=LINE('',#1028,#221);
#140=LINE('',#1030,#222);
#141=LINE('',#1031,#223);
#142=LINE('',#1035,#224);
#143=LINE('',#1037,#225);
#144=LINE('',#1039,#226);
#145=LINE('',#1040,#227);
#146=LINE('',#1043,#228);
#147=LINE('',#1045,#229);
#148=LINE('',#1047,#230);
#149=LINE('',#1049,#231);
#150=LINE('',#1051,#232);
#151=LINE('',#1053,#233);
#152=LINE('',#1054,#234);
#153=LINE('',#1057,#235);
#154=LINE('',#1059,#236);
#155=LINE('',#1061,#237);
#156=LINE('',#1063,#238);
#157=LINE('',#1065,#239);
#158=LINE('',#1066,#240);
#159=LINE('',#1068,#241);
#160=LINE('',#1070,#242);
#161=LINE('',#1071,#243);
#162=LINE('',#1074,#244);
#163=LINE('',#1076,#245);
#164=LINE('',#1078,#246);
#165=LINE('',#1080,#247);
#166=LINE('',#1082,#248);
#167=LINE('',#1084,#249);
#168=LINE('',#1085,#250);
#169=LINE('',#1088,#251);
#170=LINE('',#1089,#252);
#171=LINE('',#1092,#253);
#172=LINE('',#1093,#254);
#173=LINE('',#1096,#255);
#174=LINE('',#1097,#256);
#175=LINE('',#1101,#257);
#176=LINE('',#1102,#258);
#177=LINE('',#1103,#259);
#178=LINE('',#1106,#260);
#179=LINE('',#1107,#261);
#180=LINE('',#1110,#262);
#181=LINE('',#1111,#263);
#182=LINE('',#1113,#264);
#183=LINE('',#1115,#265);
#184=LINE('',#1117,#266);
#185=LINE('',#1119,#267);
#186=LINE('',#1123,#268);
#187=LINE('',#1125,#269);
#188=LINE('',#1127,#270);
#189=LINE('',#1128,#271);
#190=LINE('',#1310,#272);
#191=LINE('',#1311,#273);
#192=LINE('',#1312,#274);
#193=LINE('',#1315,#275);
#194=LINE('',#1317,#276);
#195=LINE('',#1320,#277);
#196=LINE('',#1321,#278);
#197=LINE('',#1324,#279);
#198=LINE('',#1325,#280);
#199=LINE('',#1328,#281);
#200=LINE('',#1329,#282);
#201=LINE('',#1331,#283);
#202=LINE('',#1333,#284);
#203=LINE('',#1336,#285);
#204=LINE('',#1337,#286);
#205=LINE('',#1341,#287);
#206=LINE('',#1345,#288);
#207=LINE('',#1346,#289);
#208=LINE('',#1347,#290);
#209=LINE('',#1350,#291);
#210=LINE('',#1352,#292);
#211=LINE('',#1353,#293);
#212=LINE('',#1356,#294);
#213=LINE('',#1358,#295);
#214=LINE('',#1359,#296);
#215=LINE('',#1373,#297);
#216=LINE('',#1375,#298);
#217=LINE('',#1376,#299);
#218=VECTOR('',#822,0.8);
#219=VECTOR('',#831,0.8);
#220=VECTOR('',#838,10.);
#221=VECTOR('',#839,10.);
#222=VECTOR('',#840,10.);
#223=VECTOR('',#841,10.);
#224=VECTOR('',#844,10.);
#225=VECTOR('',#845,10.);
#226=VECTOR('',#846,10.);
#227=VECTOR('',#847,10.);
#228=VECTOR('',#850,10.);
#229=VECTOR('',#851,10.);
#230=VECTOR('',#852,10.);
#231=VECTOR('',#853,10.);
#232=VECTOR('',#854,10.);
#233=VECTOR('',#855,10.);
#234=VECTOR('',#856,10.);
#235=VECTOR('',#859,10.);
#236=VECTOR('',#860,10.);
#237=VECTOR('',#861,10.);
#238=VECTOR('',#862,10.);
#239=VECTOR('',#863,10.);
#240=VECTOR('',#864,10.);
#241=VECTOR('',#865,10.);
#242=VECTOR('',#866,10.);
#243=VECTOR('',#867,10.);
#244=VECTOR('',#870,10.);
#245=VECTOR('',#871,10.);
#246=VECTOR('',#872,10.);
#247=VECTOR('',#873,10.);
#248=VECTOR('',#874,10.);
#249=VECTOR('',#875,10.);
#250=VECTOR('',#876,10.);
#251=VECTOR('',#879,10.);
#252=VECTOR('',#880,10.);
#253=VECTOR('',#883,10.);
#254=VECTOR('',#884,10.);
#255=VECTOR('',#887,10.);
#256=VECTOR('',#888,10.);
#257=VECTOR('',#891,10.);
#258=VECTOR('',#892,10.);
#259=VECTOR('',#893,10.);
#260=VECTOR('',#896,10.);
#261=VECTOR('',#897,10.);
#262=VECTOR('',#900,10.);
#263=VECTOR('',#901,10.);
#264=VECTOR('',#902,10.);
#265=VECTOR('',#903,10.);
#266=VECTOR('',#904,10.);
#267=VECTOR('',#905,10.);
#268=VECTOR('',#908,10.);
#269=VECTOR('',#909,10.);
#270=VECTOR('',#910,10.);
#271=VECTOR('',#911,10.);
#272=VECTOR('',#924,10.);
#273=VECTOR('',#925,10.);
#274=VECTOR('',#926,10.);
#275=VECTOR('',#929,10.);
#276=VECTOR('',#932,10.);
#277=VECTOR('',#935,10.);
#278=VECTOR('',#936,10.);
#279=VECTOR('',#939,10.);
#280=VECTOR('',#940,10.);
#281=VECTOR('',#943,10.);
#282=VECTOR('',#944,10.);
#283=VECTOR('',#947,10.);
#284=VECTOR('',#950,10.);
#285=VECTOR('',#955,10.);
#286=VECTOR('',#956,10.);
#287=VECTOR('',#961,10.);
#288=VECTOR('',#964,10.);
#289=VECTOR('',#965,10.);
#290=VECTOR('',#966,10.);
#291=VECTOR('',#969,10.);
#292=VECTOR('',#970,10.);
#293=VECTOR('',#971,10.);
#294=VECTOR('',#974,10.);
#295=VECTOR('',#975,10.);
#296=VECTOR('',#976,10.);
#297=VECTOR('',#999,10.);
#298=VECTOR('',#1002,10.);
#299=VECTOR('',#1003,10.);
#300=CIRCLE('',#763,0.8);
#301=CIRCLE('',#764,0.8);
#302=CIRCLE('',#767,0.8);
#303=CIRCLE('',#768,0.8);
#304=CIRCLE('',#781,14.);
#305=CIRCLE('',#782,3.99999999999999);
#306=CIRCLE('',#784,4.);
#307=CIRCLE('',#785,14.);
#308=CIRCLE('',#786,10.);
#309=CIRCLE('',#789,8.00000000000001);
#310=CIRCLE('',#798,8.);
#311=CIRCLE('',#803,5.);
#312=CIRCLE('',#804,5.);
#313=CIRCLE('',#807,5.);
#314=CIRCLE('',#808,5.);
#315=CIRCLE('',#811,5.);
#316=CIRCLE('',#812,5.);
#317=VERTEX_POINT('',#1010);
#318=VERTEX_POINT('',#1012);
#319=VERTEX_POINT('',#1017);
#320=VERTEX_POINT('',#1019);
#321=VERTEX_POINT('',#1024);
#322=VERTEX_POINT('',#1025);
#323=VERTEX_POINT('',#1027);
#324=VERTEX_POINT('',#1029);
#325=VERTEX_POINT('',#1033);
#326=VERTEX_POINT('',#1034);
#327=VERTEX_POINT('',#1036);
#328=VERTEX_POINT('',#1038);
#329=VERTEX_POINT('',#1042);
#330=VERTEX_POINT('',#1044);
#331=VERTEX_POINT('',#1046);
#332=VERTEX_POINT('',#1048);
#333=VERTEX_POINT('',#1050);
#334=VERTEX_POINT('',#1052);
#335=VERTEX_POINT('',#1056);
#336=VERTEX_POINT('',#1058);
#337=VERTEX_POINT('',#1060);
#338=VERTEX_POINT('',#1062);
#339=VERTEX_POINT('',#1064);
#340=VERTEX_POINT('',#1067);
#341=VERTEX_POINT('',#1069);
#342=VERTEX_POINT('',#1073);
#343=VERTEX_POINT('',#1075);
#344=VERTEX_POINT('',#1077);
#345=VERTEX_POINT('',#1079);
#346=VERTEX_POINT('',#1081);
#347=VERTEX_POINT('',#1083);
#348=VERTEX_POINT('',#1087);
#349=VERTEX_POINT('',#1091);
#350=VERTEX_POINT('',#1095);
#351=VERTEX_POINT('',#1099);
#352=VERTEX_POINT('',#1100);
#353=VERTEX_POINT('',#1105);
#354=VERTEX_POINT('',#1109);
#355=VERTEX_POINT('',#1112);
#356=VERTEX_POINT('',#1114);
#357=VERTEX_POINT('',#1116);
#358=VERTEX_POINT('',#1118);
#359=VERTEX_POINT('',#1120);
#360=VERTEX_POINT('',#1122);
#361=VERTEX_POINT('',#1124);
#362=VERTEX_POINT('',#1126);
#363=VERTEX_POINT('',#1189);
#364=VERTEX_POINT('',#1190);
#365=VERTEX_POINT('',#1192);
#366=VERTEX_POINT('',#1218);
#367=VERTEX_POINT('',#1219);
#368=VERTEX_POINT('',#1283);
#369=VERTEX_POINT('',#1309);
#370=VERTEX_POINT('',#1314);
#371=VERTEX_POINT('',#1319);
#372=VERTEX_POINT('',#1323);
#373=VERTEX_POINT('',#1327);
#374=VERTEX_POINT('',#1339);
#375=VERTEX_POINT('',#1343);
#376=VERTEX_POINT('',#1344);
#377=VERTEX_POINT('',#1349);
#378=VERTEX_POINT('',#1351);
#379=VERTEX_POINT('',#1355);
#380=VERTEX_POINT('',#1357);
#381=VERTEX_POINT('',#1369);
#382=VERTEX_POINT('',#1371);
#383=EDGE_CURVE('',#317,#317,#300,.T.);
#384=EDGE_CURVE('',#317,#318,#136,.T.);
#385=EDGE_CURVE('',#318,#318,#301,.T.);
#386=EDGE_CURVE('',#319,#319,#302,.T.);
#387=EDGE_CURVE('',#319,#320,#137,.T.);
#388=EDGE_CURVE('',#320,#320,#303,.T.);
#389=EDGE_CURVE('',#321,#322,#138,.T.);
#390=EDGE_CURVE('',#323,#321,#139,.T.);
#391=EDGE_CURVE('',#324,#323,#140,.T.);
#392=EDGE_CURVE('',#322,#324,#141,.T.);
#393=EDGE_CURVE('',#325,#326,#142,.T.);
#394=EDGE_CURVE('',#327,#325,#143,.T.);
#395=EDGE_CURVE('',#328,#327,#144,.T.);
#396=EDGE_CURVE('',#328,#326,#145,.T.);
#397=EDGE_CURVE('',#329,#321,#146,.T.);
#398=EDGE_CURVE('',#322,#330,#147,.T.);
#399=EDGE_CURVE('',#331,#330,#148,.T.);
#400=EDGE_CURVE('',#332,#331,#149,.T.);
#401=EDGE_CURVE('',#333,#332,#150,.T.);
#402=EDGE_CURVE('',#334,#333,#151,.T.);
#403=EDGE_CURVE('',#329,#334,#152,.T.);
#404=EDGE_CURVE('',#324,#335,#153,.T.);
#405=EDGE_CURVE('',#336,#335,#154,.T.);
#406=EDGE_CURVE('',#336,#337,#155,.T.);
#407=EDGE_CURVE('',#338,#337,#156,.T.);
#408=EDGE_CURVE('',#339,#338,#157,.T.);
#409=EDGE_CURVE('',#339,#330,#158,.T.);
#410=EDGE_CURVE('',#340,#325,#159,.T.);
#411=EDGE_CURVE('',#340,#341,#160,.T.);
#412=EDGE_CURVE('',#341,#327,#161,.T.);
#413=EDGE_CURVE('',#342,#323,#162,.T.);
#414=EDGE_CURVE('',#342,#343,#163,.T.);
#415=EDGE_CURVE('',#343,#344,#164,.T.);
#416=EDGE_CURVE('',#345,#344,#165,.T.);
#417=EDGE_CURVE('',#346,#345,#166,.T.);
#418=EDGE_CURVE('',#346,#347,#167,.T.);
#419=EDGE_CURVE('',#347,#324,#168,.T.);
#420=EDGE_CURVE('',#348,#326,#169,.T.);
#421=EDGE_CURVE('',#348,#340,#170,.T.);
#422=EDGE_CURVE('',#349,#339,#171,.T.);
#423=EDGE_CURVE('',#349,#331,#172,.T.);
#424=EDGE_CURVE('',#350,#349,#173,.T.);
#425=EDGE_CURVE('',#332,#350,#174,.T.);
#426=EDGE_CURVE('',#351,#352,#175,.T.);
#427=EDGE_CURVE('',#351,#334,#176,.T.);
#428=EDGE_CURVE('',#352,#333,#177,.T.);
#429=EDGE_CURVE('',#353,#351,#178,.T.);
#430=EDGE_CURVE('',#353,#329,#179,.T.);
#431=EDGE_CURVE('',#338,#354,#180,.T.);
#432=EDGE_CURVE('',#354,#353,#181,.T.);
#433=EDGE_CURVE('',#352,#355,#182,.T.);
#434=EDGE_CURVE('',#355,#356,#183,.T.);
#435=EDGE_CURVE('',#357,#356,#184,.T.);
#436=EDGE_CURVE('',#357,#358,#185,.T.);
#437=EDGE_CURVE('',#358,#359,#304,.T.);
#438=EDGE_CURVE('',#360,#359,#186,.T.);
#439=EDGE_CURVE('',#361,#360,#187,.T.);
#440=EDGE_CURVE('',#362,#361,#188,.T.);
#441=EDGE_CURVE('',#362,#350,#189,.T.);
#442=EDGE_CURVE('',#363,#364,#305,.T.);
#443=EDGE_CURVE('',#364,#365,#16,.T.);
#444=EDGE_CURVE('',#365,#363,#17,.T.);
#445=EDGE_CURVE('',#366,#367,#306,.T.);
#446=EDGE_CURVE('',#367,#364,#307,.T.);
#447=EDGE_CURVE('',#363,#366,#308,.T.);
#448=EDGE_CURVE('',#366,#368,#18,.T.);
#449=EDGE_CURVE('',#368,#367,#19,.T.);
#450=EDGE_CURVE('',#363,#369,#190,.T.);
#451=EDGE_CURVE('',#369,#335,#191,.T.);
#452=EDGE_CURVE('',#366,#335,#192,.T.);
#453=EDGE_CURVE('',#370,#365,#193,.T.);
#454=EDGE_CURVE('',#370,#342,#309,.T.);
#455=EDGE_CURVE('',#323,#369,#194,.T.);
#456=EDGE_CURVE('',#371,#348,#195,.T.);
#457=EDGE_CURVE('',#341,#371,#196,.T.);
#458=EDGE_CURVE('',#337,#372,#197,.T.);
#459=EDGE_CURVE('',#354,#372,#198,.T.);
#460=EDGE_CURVE('',#373,#336,#199,.T.);
#461=EDGE_CURVE('',#372,#373,#200,.T.);
#462=EDGE_CURVE('',#373,#369,#201,.T.);
#463=EDGE_CURVE('',#371,#328,#202,.T.);
#464=EDGE_CURVE('',#368,#359,#203,.T.);
#465=EDGE_CURVE('',#358,#365,#204,.T.);
#466=EDGE_CURVE('',#347,#374,#310,.T.);
#467=EDGE_CURVE('',#374,#368,#205,.T.);
#468=EDGE_CURVE('',#375,#376,#206,.T.);
#469=EDGE_CURVE('',#375,#370,#207,.T.);
#470=EDGE_CURVE('',#376,#357,#208,.T.);
#471=EDGE_CURVE('',#360,#377,#209,.T.);
#472=EDGE_CURVE('',#374,#378,#210,.T.);
#473=EDGE_CURVE('',#378,#377,#211,.T.);
#474=EDGE_CURVE('',#379,#362,#212,.T.);
#475=EDGE_CURVE('',#380,#361,#213,.T.);
#476=EDGE_CURVE('',#379,#380,#214,.T.);
#477=EDGE_CURVE('',#378,#379,#311,.T.);
#478=EDGE_CURVE('',#377,#380,#312,.T.);
#479=EDGE_CURVE('',#343,#346,#313,.T.);
#480=EDGE_CURVE('',#344,#345,#314,.T.);
#481=EDGE_CURVE('',#381,#375,#315,.T.);
#482=EDGE_CURVE('',#382,#376,#316,.T.);
#483=EDGE_CURVE('',#381,#382,#215,.T.);
#484=EDGE_CURVE('',#355,#381,#216,.T.);
#485=EDGE_CURVE('',#356,#382,#217,.T.);
#486=ORIENTED_EDGE('',*,*,#383,.F.);
#487=ORIENTED_EDGE('',*,*,#384,.T.);
#488=ORIENTED_EDGE('',*,*,#385,.T.);
#489=ORIENTED_EDGE('',*,*,#384,.F.);
#490=ORIENTED_EDGE('',*,*,#385,.F.);
#491=ORIENTED_EDGE('',*,*,#386,.F.);
#492=ORIENTED_EDGE('',*,*,#387,.T.);
#493=ORIENTED_EDGE('',*,*,#388,.T.);
#494=ORIENTED_EDGE('',*,*,#387,.F.);
#495=ORIENTED_EDGE('',*,*,#388,.F.);
#496=ORIENTED_EDGE('',*,*,#389,.F.);
#497=ORIENTED_EDGE('',*,*,#390,.F.);
#498=ORIENTED_EDGE('',*,*,#391,.F.);
#499=ORIENTED_EDGE('',*,*,#392,.F.);
#500=ORIENTED_EDGE('',*,*,#393,.F.);
#501=ORIENTED_EDGE('',*,*,#394,.F.);
#502=ORIENTED_EDGE('',*,*,#395,.F.);
#503=ORIENTED_EDGE('',*,*,#396,.T.);
#504=ORIENTED_EDGE('',*,*,#397,.T.);
#505=ORIENTED_EDGE('',*,*,#389,.T.);
#506=ORIENTED_EDGE('',*,*,#398,.T.);
#507=ORIENTED_EDGE('',*,*,#399,.F.);
#508=ORIENTED_EDGE('',*,*,#400,.F.);
#509=ORIENTED_EDGE('',*,*,#401,.F.);
#510=ORIENTED_EDGE('',*,*,#402,.F.);
#511=ORIENTED_EDGE('',*,*,#403,.F.);
#512=ORIENTED_EDGE('',*,*,#398,.F.);
#513=ORIENTED_EDGE('',*,*,#392,.T.);
#514=ORIENTED_EDGE('',*,*,#404,.T.);
#515=ORIENTED_EDGE('',*,*,#405,.F.);
#516=ORIENTED_EDGE('',*,*,#406,.T.);
#517=ORIENTED_EDGE('',*,*,#407,.F.);
#518=ORIENTED_EDGE('',*,*,#408,.F.);
#519=ORIENTED_EDGE('',*,*,#409,.T.);
#520=ORIENTED_EDGE('',*,*,#410,.F.);
#521=ORIENTED_EDGE('',*,*,#411,.T.);
#522=ORIENTED_EDGE('',*,*,#412,.T.);
#523=ORIENTED_EDGE('',*,*,#394,.T.);
#524=ORIENTED_EDGE('',*,*,#391,.T.);
#525=ORIENTED_EDGE('',*,*,#413,.F.);
#526=ORIENTED_EDGE('',*,*,#414,.T.);
#527=ORIENTED_EDGE('',*,*,#415,.T.);
#528=ORIENTED_EDGE('',*,*,#416,.F.);
#529=ORIENTED_EDGE('',*,*,#417,.F.);
#530=ORIENTED_EDGE('',*,*,#418,.T.);
#531=ORIENTED_EDGE('',*,*,#419,.T.);
#532=ORIENTED_EDGE('',*,*,#393,.T.);
#533=ORIENTED_EDGE('',*,*,#420,.F.);
#534=ORIENTED_EDGE('',*,*,#421,.T.);
#535=ORIENTED_EDGE('',*,*,#410,.T.);
#536=ORIENTED_EDGE('',*,*,#422,.F.);
#537=ORIENTED_EDGE('',*,*,#423,.T.);
#538=ORIENTED_EDGE('',*,*,#399,.T.);
#539=ORIENTED_EDGE('',*,*,#409,.F.);
#540=ORIENTED_EDGE('',*,*,#424,.F.);
#541=ORIENTED_EDGE('',*,*,#425,.F.);
#542=ORIENTED_EDGE('',*,*,#400,.T.);
#543=ORIENTED_EDGE('',*,*,#423,.F.);
#544=ORIENTED_EDGE('',*,*,#426,.F.);
#545=ORIENTED_EDGE('',*,*,#427,.T.);
#546=ORIENTED_EDGE('',*,*,#402,.T.);
#547=ORIENTED_EDGE('',*,*,#428,.F.);
#548=ORIENTED_EDGE('',*,*,#429,.F.);
#549=ORIENTED_EDGE('',*,*,#430,.T.);
#550=ORIENTED_EDGE('',*,*,#403,.T.);
#551=ORIENTED_EDGE('',*,*,#427,.F.);
#552=ORIENTED_EDGE('',*,*,#424,.T.);
#553=ORIENTED_EDGE('',*,*,#422,.T.);
#554=ORIENTED_EDGE('',*,*,#408,.T.);
#555=ORIENTED_EDGE('',*,*,#431,.T.);
#556=ORIENTED_EDGE('',*,*,#432,.T.);
#557=ORIENTED_EDGE('',*,*,#429,.T.);
#558=ORIENTED_EDGE('',*,*,#426,.T.);
#559=ORIENTED_EDGE('',*,*,#433,.T.);
#560=ORIENTED_EDGE('',*,*,#434,.T.);
#561=ORIENTED_EDGE('',*,*,#435,.F.);
#562=ORIENTED_EDGE('',*,*,#436,.T.);
#563=ORIENTED_EDGE('',*,*,#437,.T.);
#564=ORIENTED_EDGE('',*,*,#438,.F.);
#565=ORIENTED_EDGE('',*,*,#439,.F.);
#566=ORIENTED_EDGE('',*,*,#440,.F.);
#567=ORIENTED_EDGE('',*,*,#441,.T.);
#568=ORIENTED_EDGE('',*,*,#442,.T.);
#569=ORIENTED_EDGE('',*,*,#443,.T.);
#570=ORIENTED_EDGE('',*,*,#444,.T.);
#571=ORIENTED_EDGE('',*,*,#445,.T.);
#572=ORIENTED_EDGE('',*,*,#446,.T.);
#573=ORIENTED_EDGE('',*,*,#442,.F.);
#574=ORIENTED_EDGE('',*,*,#447,.T.);
#575=ORIENTED_EDGE('',*,*,#448,.T.);
#576=ORIENTED_EDGE('',*,*,#449,.T.);
#577=ORIENTED_EDGE('',*,*,#445,.F.);
#578=ORIENTED_EDGE('',*,*,#447,.F.);
#579=ORIENTED_EDGE('',*,*,#450,.T.);
#580=ORIENTED_EDGE('',*,*,#451,.T.);
#581=ORIENTED_EDGE('',*,*,#452,.F.);
#582=ORIENTED_EDGE('',*,*,#444,.F.);
#583=ORIENTED_EDGE('',*,*,#453,.F.);
#584=ORIENTED_EDGE('',*,*,#454,.T.);
#585=ORIENTED_EDGE('',*,*,#413,.T.);
#586=ORIENTED_EDGE('',*,*,#455,.T.);
#587=ORIENTED_EDGE('',*,*,#450,.F.);
#588=ORIENTED_EDGE('',*,*,#411,.F.);
#589=ORIENTED_EDGE('',*,*,#421,.F.);
#590=ORIENTED_EDGE('',*,*,#456,.F.);
#591=ORIENTED_EDGE('',*,*,#457,.F.);
#592=ORIENTED_EDGE('',*,*,#386,.T.);
#593=ORIENTED_EDGE('',*,*,#431,.F.);
#594=ORIENTED_EDGE('',*,*,#407,.T.);
#595=ORIENTED_EDGE('',*,*,#458,.T.);
#596=ORIENTED_EDGE('',*,*,#459,.F.);
#597=ORIENTED_EDGE('',*,*,#406,.F.);
#598=ORIENTED_EDGE('',*,*,#460,.F.);
#599=ORIENTED_EDGE('',*,*,#461,.F.);
#600=ORIENTED_EDGE('',*,*,#458,.F.);
#601=ORIENTED_EDGE('',*,*,#383,.T.);
#602=ORIENTED_EDGE('',*,*,#460,.T.);
#603=ORIENTED_EDGE('',*,*,#405,.T.);
#604=ORIENTED_EDGE('',*,*,#451,.F.);
#605=ORIENTED_EDGE('',*,*,#462,.F.);
#606=ORIENTED_EDGE('',*,*,#395,.T.);
#607=ORIENTED_EDGE('',*,*,#412,.F.);
#608=ORIENTED_EDGE('',*,*,#457,.T.);
#609=ORIENTED_EDGE('',*,*,#463,.T.);
#610=ORIENTED_EDGE('',*,*,#430,.F.);
#611=ORIENTED_EDGE('',*,*,#432,.F.);
#612=ORIENTED_EDGE('',*,*,#459,.T.);
#613=ORIENTED_EDGE('',*,*,#461,.T.);
#614=ORIENTED_EDGE('',*,*,#462,.T.);
#615=ORIENTED_EDGE('',*,*,#455,.F.);
#616=ORIENTED_EDGE('',*,*,#390,.T.);
#617=ORIENTED_EDGE('',*,*,#397,.F.);
#618=ORIENTED_EDGE('',*,*,#396,.F.);
#619=ORIENTED_EDGE('',*,*,#463,.F.);
#620=ORIENTED_EDGE('',*,*,#456,.T.);
#621=ORIENTED_EDGE('',*,*,#420,.T.);
#622=ORIENTED_EDGE('',*,*,#449,.F.);
#623=ORIENTED_EDGE('',*,*,#464,.T.);
#624=ORIENTED_EDGE('',*,*,#437,.F.);
#625=ORIENTED_EDGE('',*,*,#465,.T.);
#626=ORIENTED_EDGE('',*,*,#443,.F.);
#627=ORIENTED_EDGE('',*,*,#446,.F.);
#628=ORIENTED_EDGE('',*,*,#448,.F.);
#629=ORIENTED_EDGE('',*,*,#452,.T.);
#630=ORIENTED_EDGE('',*,*,#404,.F.);
#631=ORIENTED_EDGE('',*,*,#419,.F.);
#632=ORIENTED_EDGE('',*,*,#466,.T.);
#633=ORIENTED_EDGE('',*,*,#467,.T.);
#634=ORIENTED_EDGE('',*,*,#468,.F.);
#635=ORIENTED_EDGE('',*,*,#469,.T.);
#636=ORIENTED_EDGE('',*,*,#453,.T.);
#637=ORIENTED_EDGE('',*,*,#465,.F.);
#638=ORIENTED_EDGE('',*,*,#436,.F.);
#639=ORIENTED_EDGE('',*,*,#470,.F.);
#640=ORIENTED_EDGE('',*,*,#471,.F.);
#641=ORIENTED_EDGE('',*,*,#438,.T.);
#642=ORIENTED_EDGE('',*,*,#464,.F.);
#643=ORIENTED_EDGE('',*,*,#467,.F.);
#644=ORIENTED_EDGE('',*,*,#472,.T.);
#645=ORIENTED_EDGE('',*,*,#473,.T.);
#646=ORIENTED_EDGE('',*,*,#474,.T.);
#647=ORIENTED_EDGE('',*,*,#440,.T.);
#648=ORIENTED_EDGE('',*,*,#475,.F.);
#649=ORIENTED_EDGE('',*,*,#476,.F.);
#650=ORIENTED_EDGE('',*,*,#477,.T.);
#651=ORIENTED_EDGE('',*,*,#476,.T.);
#652=ORIENTED_EDGE('',*,*,#478,.F.);
#653=ORIENTED_EDGE('',*,*,#473,.F.);
#654=ORIENTED_EDGE('',*,*,#471,.T.);
#655=ORIENTED_EDGE('',*,*,#478,.T.);
#656=ORIENTED_EDGE('',*,*,#475,.T.);
#657=ORIENTED_EDGE('',*,*,#439,.T.);
#658=ORIENTED_EDGE('',*,*,#479,.T.);
#659=ORIENTED_EDGE('',*,*,#417,.T.);
#660=ORIENTED_EDGE('',*,*,#480,.F.);
#661=ORIENTED_EDGE('',*,*,#415,.F.);
#662=ORIENTED_EDGE('',*,*,#416,.T.);
#663=ORIENTED_EDGE('',*,*,#480,.T.);
#664=ORIENTED_EDGE('',*,*,#481,.T.);
#665=ORIENTED_EDGE('',*,*,#468,.T.);
#666=ORIENTED_EDGE('',*,*,#482,.F.);
#667=ORIENTED_EDGE('',*,*,#483,.F.);
#668=ORIENTED_EDGE('',*,*,#484,.T.);
#669=ORIENTED_EDGE('',*,*,#483,.T.);
#670=ORIENTED_EDGE('',*,*,#485,.F.);
#671=ORIENTED_EDGE('',*,*,#434,.F.);
#672=ORIENTED_EDGE('',*,*,#470,.T.);
#673=ORIENTED_EDGE('',*,*,#435,.T.);
#674=ORIENTED_EDGE('',*,*,#485,.T.);
#675=ORIENTED_EDGE('',*,*,#482,.T.);
#676=ORIENTED_EDGE('',*,*,#425,.T.);
#677=ORIENTED_EDGE('',*,*,#441,.F.);
#678=ORIENTED_EDGE('',*,*,#474,.F.);
#679=ORIENTED_EDGE('',*,*,#477,.F.);
#680=ORIENTED_EDGE('',*,*,#472,.F.);
#681=ORIENTED_EDGE('',*,*,#466,.F.);
#682=ORIENTED_EDGE('',*,*,#418,.F.);
#683=ORIENTED_EDGE('',*,*,#479,.F.);
#684=ORIENTED_EDGE('',*,*,#414,.F.);
#685=ORIENTED_EDGE('',*,*,#454,.F.);
#686=ORIENTED_EDGE('',*,*,#469,.F.);
#687=ORIENTED_EDGE('',*,*,#481,.F.);
#688=ORIENTED_EDGE('',*,*,#484,.F.);
#689=ORIENTED_EDGE('',*,*,#433,.F.);
#690=ORIENTED_EDGE('',*,*,#428,.T.);
#691=ORIENTED_EDGE('',*,*,#401,.T.);
#692=CYLINDRICAL_SURFACE('',#762,0.8);
#693=CYLINDRICAL_SURFACE('',#766,0.8);
#694=CYLINDRICAL_SURFACE('',#788,8.00000000000001);
#695=CYLINDRICAL_SURFACE('',#796,14.);
#696=CYLINDRICAL_SURFACE('',#797,8.);
#697=CYLINDRICAL_SURFACE('',#802,5.);
#698=CYLINDRICAL_SURFACE('',#806,5.);
#699=CYLINDRICAL_SURFACE('',#810,5.);
#700=ADVANCED_FACE('',(#54),#692,.F.);
#701=ADVANCED_FACE('',(#55),#26,.T.);
#702=ADVANCED_FACE('',(#56),#693,.F.);
#703=ADVANCED_FACE('',(#57),#27,.T.);
#704=ADVANCED_FACE('',(#58),#28,.F.);
#705=ADVANCED_FACE('',(#59),#29,.F.);
#706=ADVANCED_FACE('',(#60),#30,.F.);
#707=ADVANCED_FACE('',(#61,#22),#31,.F.);
#708=ADVANCED_FACE('',(#62),#32,.T.);
#709=ADVANCED_FACE('',(#63),#33,.F.);
#710=ADVANCED_FACE('',(#64),#34,.F.);
#711=ADVANCED_FACE('',(#65),#35,.F.);
#712=ADVANCED_FACE('',(#66),#36,.F.);
#713=ADVANCED_FACE('',(#67),#37,.F.);
#714=ADVANCED_FACE('',(#68),#38,.T.);
#715=ADVANCED_FACE('',(#69),#20,.F.);
#716=ADVANCED_FACE('',(#70),#15,.T.);
#717=ADVANCED_FACE('',(#71),#21,.F.);
#718=ADVANCED_FACE('',(#72),#39,.T.);
#719=ADVANCED_FACE('',(#73),#694,.T.);
#720=ADVANCED_FACE('',(#74,#23),#40,.F.);
#721=ADVANCED_FACE('',(#75),#41,.F.);
#722=ADVANCED_FACE('',(#76,#24),#42,.F.);
#723=ADVANCED_FACE('',(#77),#43,.F.);
#724=ADVANCED_FACE('',(#78),#44,.F.);
#725=ADVANCED_FACE('',(#79,#25),#45,.F.);
#726=ADVANCED_FACE('',(#80),#695,.T.);
#727=ADVANCED_FACE('',(#81),#696,.T.);
#728=ADVANCED_FACE('',(#82),#46,.T.);
#729=ADVANCED_FACE('',(#83),#47,.T.);
#730=ADVANCED_FACE('',(#84),#48,.T.);
#731=ADVANCED_FACE('',(#85),#697,.T.);
#732=ADVANCED_FACE('',(#86),#49,.T.);
#733=ADVANCED_FACE('',(#87),#698,.T.);
#734=ADVANCED_FACE('',(#88),#50,.T.);
#735=ADVANCED_FACE('',(#89),#699,.T.);
#736=ADVANCED_FACE('',(#90),#51,.T.);
#737=ADVANCED_FACE('',(#91),#52,.T.);
#738=ADVANCED_FACE('',(#92),#53,.F.);
#739=CLOSED_SHELL('',(#700,#701,#702,#703,#704,#705,#706,#707,#708,#709,
#710,#711,#712,#713,#714,#715,#716,#717,#718,#719,#720,#721,#722,#723,#724,
#725,#726,#727,#728,#729,#730,#731,#732,#733,#734,#735,#736,#737,#738));
#740=DERIVED_UNIT_ELEMENT(#743,1.);
#741=DERIVED_UNIT_ELEMENT(#1384,-3.);
#742=DIMENSIONAL_EXPONENTS(0.,1.,0.,0.,0.,0.,0.);
#743=(
CONVERSION_BASED_UNIT('gram',#745)
MASS_UNIT()
NAMED_UNIT(#742)
);
#744=(
MASS_UNIT()
NAMED_UNIT(*)
SI_UNIT(.KILO.,.GRAM.)
);
#745=MASS_MEASURE_WITH_UNIT(MASS_MEASURE(0.001),#744);
#746=DERIVED_UNIT((#740,#741));
#747=MEASURE_REPRESENTATION_ITEM('density measure',
POSITIVE_RATIO_MEASURE(1.),#746);
#748=PROPERTY_DEFINITION_REPRESENTATION(#753,#750);
#749=PROPERTY_DEFINITION_REPRESENTATION(#754,#751);
#750=REPRESENTATION('material name',(#752),#1381);
#751=REPRESENTATION('density',(#747),#1381);
#752=DESCRIPTIVE_REPRESENTATION_ITEM('Generisch','Generisch');
#753=PROPERTY_DEFINITION('material property','material name',#1391);
#754=PROPERTY_DEFINITION('material property','density of part',#1391);
#755=DATE_TIME_ROLE('creation_date');
#756=APPLIED_DATE_AND_TIME_ASSIGNMENT(#757,#755,(#1391));
#757=DATE_AND_TIME(#758,#759);
#758=CALENDAR_DATE(2026,1,4);
#759=LOCAL_TIME(0,0,0.,#760);
#760=COORDINATED_UNIVERSAL_TIME_OFFSET(0,0,.BEHIND.);
#761=AXIS2_PLACEMENT_3D('',#1008,#816,#817);
#762=AXIS2_PLACEMENT_3D('',#1009,#818,#819);
#763=AXIS2_PLACEMENT_3D('',#1011,#820,#821);
#764=AXIS2_PLACEMENT_3D('',#1014,#823,#824);
#765=AXIS2_PLACEMENT_3D('',#1015,#825,#826);
#766=AXIS2_PLACEMENT_3D('',#1016,#827,#828);
#767=AXIS2_PLACEMENT_3D('',#1018,#829,#830);
#768=AXIS2_PLACEMENT_3D('',#1021,#832,#833);
#769=AXIS2_PLACEMENT_3D('',#1022,#834,#835);
#770=AXIS2_PLACEMENT_3D('',#1023,#836,#837);
#771=AXIS2_PLACEMENT_3D('',#1032,#842,#843);
#772=AXIS2_PLACEMENT_3D('',#1041,#848,#849);
#773=AXIS2_PLACEMENT_3D('',#1055,#857,#858);
#774=AXIS2_PLACEMENT_3D('',#1072,#868,#869);
#775=AXIS2_PLACEMENT_3D('',#1086,#877,#878);
#776=AXIS2_PLACEMENT_3D('',#1090,#881,#882);
#777=AXIS2_PLACEMENT_3D('',#1094,#885,#886);
#778=AXIS2_PLACEMENT_3D('',#1098,#889,#890);
#779=AXIS2_PLACEMENT_3D('',#1104,#894,#895);
#780=AXIS2_PLACEMENT_3D('',#1108,#898,#899);
#781=AXIS2_PLACEMENT_3D('',#1121,#906,#907);
#782=AXIS2_PLACEMENT_3D('',#1191,#912,#913);
#783=AXIS2_PLACEMENT_3D('',#1217,#914,#915);
#784=AXIS2_PLACEMENT_3D('',#1220,#916,#917);
#785=AXIS2_PLACEMENT_3D('',#1221,#918,#919);
#786=AXIS2_PLACEMENT_3D('',#1222,#920,#921);
#787=AXIS2_PLACEMENT_3D('',#1308,#922,#923);
#788=AXIS2_PLACEMENT_3D('',#1313,#927,#928);
#789=AXIS2_PLACEMENT_3D('',#1316,#930,#931);
#790=AXIS2_PLACEMENT_3D('',#1318,#933,#934);
#791=AXIS2_PLACEMENT_3D('',#1322,#937,#938);
#792=AXIS2_PLACEMENT_3D('',#1326,#941,#942);
#793=AXIS2_PLACEMENT_3D('',#1330,#945,#946);
#794=AXIS2_PLACEMENT_3D('',#1332,#948,#949);
#795=AXIS2_PLACEMENT_3D('',#1334,#951,#952);
#796=AXIS2_PLACEMENT_3D('',#1335,#953,#954);
#797=AXIS2_PLACEMENT_3D('',#1338,#957,#958);
#798=AXIS2_PLACEMENT_3D('',#1340,#959,#960);
#799=AXIS2_PLACEMENT_3D('',#1342,#962,#963);
#800=AXIS2_PLACEMENT_3D('',#1348,#967,#968);
#801=AXIS2_PLACEMENT_3D('',#1354,#972,#973);
#802=AXIS2_PLACEMENT_3D('',#1360,#977,#978);
#803=AXIS2_PLACEMENT_3D('',#1361,#979,#980);
#804=AXIS2_PLACEMENT_3D('',#1362,#981,#982);
#805=AXIS2_PLACEMENT_3D('',#1363,#983,#984);
#806=AXIS2_PLACEMENT_3D('',#1364,#985,#986);
#807=AXIS2_PLACEMENT_3D('',#1365,#987,#988);
#808=AXIS2_PLACEMENT_3D('',#1366,#989,#990);
#809=AXIS2_PLACEMENT_3D('',#1367,#991,#992);
#810=AXIS2_PLACEMENT_3D('',#1368,#993,#994);
#811=AXIS2_PLACEMENT_3D('',#1370,#995,#996);
#812=AXIS2_PLACEMENT_3D('',#1372,#997,#998);
#813=AXIS2_PLACEMENT_3D('',#1374,#1000,#1001);
#814=AXIS2_PLACEMENT_3D('',#1377,#1004,#1005);
#815=AXIS2_PLACEMENT_3D('',#1378,#1006,#1007);
#816=DIRECTION('axis',(0.,0.,1.));
#817=DIRECTION('refdir',(1.,0.,0.));
#818=DIRECTION('center_axis',(-1.,0.,0.));
#819=DIRECTION('ref_axis',(0.,0.,-1.));
#820=DIRECTION('center_axis',(-1.,0.,0.));
#821=DIRECTION('ref_axis',(0.,0.,-1.));
#822=DIRECTION('',(-1.,0.,0.));
#823=DIRECTION('center_axis',(-1.,0.,0.));
#824=DIRECTION('ref_axis',(0.,0.,-1.));
#825=DIRECTION('center_axis',(1.,0.,0.));
#826=DIRECTION('ref_axis',(0.,0.,-1.));
#827=DIRECTION('center_axis',(-1.,0.,0.));
#828=DIRECTION('ref_axis',(0.,0.,-1.));
#829=DIRECTION('center_axis',(-1.,0.,0.));
#830=DIRECTION('ref_axis',(0.,0.,-1.));
#831=DIRECTION('',(-1.,0.,0.));
#832=DIRECTION('center_axis',(-1.,0.,0.));
#833=DIRECTION('ref_axis',(0.,0.,-1.));
#834=DIRECTION('center_axis',(1.,0.,0.));
#835=DIRECTION('ref_axis',(0.,0.,-1.));
#836=DIRECTION('center_axis',(0.,0.,-1.));
#837=DIRECTION('ref_axis',(-1.,0.,0.));
#838=DIRECTION('',(0.,-1.,0.));
#839=DIRECTION('',(1.,0.,0.));
#840=DIRECTION('',(0.,1.,0.));
#841=DIRECTION('',(-1.,0.,0.));
#842=DIRECTION('center_axis',(1.,0.,0.));
#843=DIRECTION('ref_axis',(0.,-1.,0.));
#844=DIRECTION('',(0.,1.,0.));
#845=DIRECTION('',(0.,0.,-1.));
#846=DIRECTION('',(0.,-1.,0.));
#847=DIRECTION('',(0.,0.,-1.));
#848=DIRECTION('center_axis',(-1.,0.,0.));
#849=DIRECTION('ref_axis',(0.,0.,1.));
#850=DIRECTION('',(0.,0.,-1.));
#851=DIRECTION('',(0.,0.,1.));
#852=DIRECTION('',(0.,1.,-5.55111512312578E-17));
#853=DIRECTION('',(0.,-3.70074341541719E-16,1.));
#854=DIRECTION('',(0.,-1.,0.));
#855=DIRECTION('',(0.,1.77635683940025E-15,-1.));
#856=DIRECTION('',(0.,1.,-5.55111512312578E-17));
#857=DIRECTION('center_axis',(0.,-1.,0.));
#858=DIRECTION('ref_axis',(0.,0.,1.));
#859=DIRECTION('',(0.,0.,1.));
#860=DIRECTION('',(-1.,0.,0.));
#861=DIRECTION('',(0.,0.,1.));
#862=DIRECTION('',(-1.,0.,0.));
#863=DIRECTION('',(0.,0.,1.));
#864=DIRECTION('',(-1.,0.,0.));
#865=DIRECTION('',(-1.,0.,0.));
#866=DIRECTION('',(0.,0.,1.));
#867=DIRECTION('',(-1.,0.,0.));
#868=DIRECTION('center_axis',(-1.,0.,0.));
#869=DIRECTION('ref_axis',(0.,-1.,0.));
#870=DIRECTION('',(0.,0.,1.));
#871=DIRECTION('',(0.,-1.,0.));
#872=DIRECTION('',(0.,0.,1.));
#873=DIRECTION('',(0.,1.,0.));
#874=DIRECTION('',(0.,0.,1.));
#875=DIRECTION('',(0.,-1.,0.));
#876=DIRECTION('',(0.,0.,1.));
#877=DIRECTION('center_axis',(0.,0.,1.));
#878=DIRECTION('ref_axis',(0.,1.,0.));
#879=DIRECTION('',(-1.,0.,0.));
#880=DIRECTION('',(0.,-1.,0.));
#881=DIRECTION('center_axis',(0.,5.55111512312578E-17,1.));
#882=DIRECTION('ref_axis',(0.,1.,-5.55111512312578E-17));
#883=DIRECTION('',(0.,1.,-5.55111512312578E-17));
#884=DIRECTION('',(-1.,0.,0.));
#885=DIRECTION('center_axis',(0.,-1.,-3.70074341541719E-16));
#886=DIRECTION('ref_axis',(0.,-3.70074341541719E-16,1.));
#887=DIRECTION('',(0.,-3.70074341541719E-16,1.));
#888=DIRECTION('',(1.,0.,0.));
#889=DIRECTION('center_axis',(0.,1.,1.77635683940025E-15));
#890=DIRECTION('ref_axis',(0.,1.77635683940025E-15,-1.));
#891=DIRECTION('',(0.,1.77635683940025E-15,-1.));
#892=DIRECTION('',(-1.,0.,0.));
#893=DIRECTION('',(-1.,0.,0.));
#894=DIRECTION('center_axis',(0.,5.55111512312578E-17,1.));
#895=DIRECTION('ref_axis',(0.,1.,-5.55111512312578E-17));
#896=DIRECTION('',(0.,1.,-5.55111512312578E-17));
#897=DIRECTION('',(-1.,0.,0.));
#898=DIRECTION('center_axis',(1.,0.,0.));
#899=DIRECTION('ref_axis',(0.,1.,0.));
#900=DIRECTION('',(0.,1.,0.));
#901=DIRECTION('',(0.,0.,-1.));
#902=DIRECTION('',(0.,1.,0.));
#903=DIRECTION('',(0.,0.,1.));
#904=DIRECTION('',(0.,1.,0.));
#905=DIRECTION('',(0.,0.,1.));
#906=DIRECTION('center_axis',(1.,0.,0.));
#907=DIRECTION('ref_axis',(0.,1.,0.));
#908=DIRECTION('',(0.,0.,1.));
#909=DIRECTION('',(0.,1.,0.));
#910=DIRECTION('',(0.,0.,1.));
#911=DIRECTION('',(0.,1.,0.));
#912=DIRECTION('center_axis',(2.22044604925052E-16,0.800000000000074,-0.599999999999901));
#913=DIRECTION('ref_axis',(-1.,2.7755575615629E-16,0.));
#914=DIRECTION('center_axis',(-1.,0.,0.));
#915=DIRECTION('ref_axis',(0.,0.,1.));
#916=DIRECTION('center_axis',(0.,0.8,0.6));
#917=DIRECTION('ref_axis',(-1.,0.,0.));
#918=DIRECTION('center_axis',(-1.,0.,0.));
#919=DIRECTION('ref_axis',(0.,2.83276944882399E-16,1.));
#920=DIRECTION('center_axis',(1.,0.,0.));
#921=DIRECTION('ref_axis',(0.,2.83276944882399E-16,1.));
#922=DIRECTION('center_axis',(-1.,0.,0.));
#923=DIRECTION('ref_axis',(0.,-1.,0.));
#924=DIRECTION('',(0.,0.,-1.));
#925=DIRECTION('',(0.,-1.,0.));
#926=DIRECTION('',(0.,0.,-1.));
#927=DIRECTION('center_axis',(0.,0.,1.));
#928=DIRECTION('ref_axis',(-2.77555756156289E-16,1.,0.));
#929=DIRECTION('',(0.,0.,1.));
#930=DIRECTION('center_axis',(0.,0.,1.));
#931=DIRECTION('ref_axis',(-2.77555756156289E-16,1.,0.));
#932=DIRECTION('',(0.,0.,1.));
#933=DIRECTION('center_axis',(-1.,0.,0.));
#934=DIRECTION('ref_axis',(0.,0.,1.));
#935=DIRECTION('',(0.,0.,-1.));
#936=DIRECTION('',(0.,1.,0.));
#937=DIRECTION('center_axis',(0.,0.,1.));
#938=DIRECTION('ref_axis',(0.,1.,0.));
#939=DIRECTION('',(0.,1.,0.));
#940=DIRECTION('',(-1.,0.,0.));
#941=DIRECTION('center_axis',(-1.,0.,0.));
#942=DIRECTION('ref_axis',(0.,0.,1.));
#943=DIRECTION('',(0.,-1.,0.));
#944=DIRECTION('',(0.,0.,-1.));
#945=DIRECTION('center_axis',(0.,0.,1.));
#946=DIRECTION('ref_axis',(0.,1.,0.));
#947=DIRECTION('',(-1.,0.,0.));
#948=DIRECTION('center_axis',(0.,0.,-1.));
#949=DIRECTION('ref_axis',(0.,-1.,0.));
#950=DIRECTION('',(-1.,0.,0.));
#951=DIRECTION('center_axis',(0.,1.,0.));
#952=DIRECTION('ref_axis',(0.,0.,-1.));
#953=DIRECTION('center_axis',(-1.,0.,0.));
#954=DIRECTION('ref_axis',(0.,1.,0.));
#955=DIRECTION('',(1.,1.30614473485313E-16,0.));
#956=DIRECTION('',(-1.,0.,0.));
#957=DIRECTION('center_axis',(0.,0.,1.));
#958=DIRECTION('ref_axis',(-1.,4.16333634234434E-16,0.));
#959=DIRECTION('center_axis',(0.,0.,1.));
#960=DIRECTION('ref_axis',(-1.,4.16333634234434E-16,0.));
#961=DIRECTION('',(0.,0.,1.));
#962=DIRECTION('center_axis',(0.,1.,0.));
#963=DIRECTION('ref_axis',(-1.,0.,0.));
#964=DIRECTION('',(0.,0.,1.));
#965=DIRECTION('',(-1.,0.,0.));
#966=DIRECTION('',(1.,0.,0.));
#967=DIRECTION('center_axis',(1.30614473485313E-16,-1.,0.));
#968=DIRECTION('ref_axis',(1.,1.30614473485313E-16,0.));
#969=DIRECTION('',(-1.,-1.30614473485313E-16,0.));
#970=DIRECTION('',(1.,1.30614473485313E-16,0.));
#971=DIRECTION('',(0.,0.,1.));
#972=DIRECTION('center_axis',(0.,-1.,0.));
#973=DIRECTION('ref_axis',(1.,0.,0.));
#974=DIRECTION('',(1.,0.,0.));
#975=DIRECTION('',(1.,0.,0.));
#976=DIRECTION('',(0.,0.,1.));
#977=DIRECTION('center_axis',(0.,0.,1.));
#978=DIRECTION('ref_axis',(-1.,0.,0.));
#979=DIRECTION('center_axis',(0.,0.,1.));
#980=DIRECTION('ref_axis',(-1.,0.,0.));
#981=DIRECTION('center_axis',(0.,0.,1.));
#982=DIRECTION('ref_axis',(-1.,0.,0.));
#983=DIRECTION('center_axis',(0.,0.,1.));
#984=DIRECTION('ref_axis',(1.,0.,0.));
#985=DIRECTION('center_axis',(0.,0.,1.));
#986=DIRECTION('ref_axis',(0.,1.,0.));
#987=DIRECTION('center_axis',(0.,0.,1.));
#988=DIRECTION('ref_axis',(0.,1.,0.));
#989=DIRECTION('center_axis',(0.,0.,1.));
#990=DIRECTION('ref_axis',(0.,1.,0.));
#991=DIRECTION('center_axis',(0.,0.,1.));
#992=DIRECTION('ref_axis',(1.,0.,0.));
#993=DIRECTION('center_axis',(0.,0.,1.));
#994=DIRECTION('ref_axis',(1.,0.,0.));
#995=DIRECTION('center_axis',(0.,0.,1.));
#996=DIRECTION('ref_axis',(1.,0.,0.));
#997=DIRECTION('center_axis',(0.,0.,1.));
#998=DIRECTION('ref_axis',(1.,0.,0.));
#999=DIRECTION('',(0.,0.,1.));
#1000=DIRECTION('center_axis',(0.,1.,0.));
#1001=DIRECTION('ref_axis',(-1.,0.,0.));
#1002=DIRECTION('',(-1.,0.,0.));
#1003=DIRECTION('',(-1.,0.,0.));
#1004=DIRECTION('center_axis',(0.,0.,1.));
#1005=DIRECTION('ref_axis',(1.,0.,0.));
#1006=DIRECTION('center_axis',(0.,0.,1.));
#1007=DIRECTION('ref_axis',(1.,0.,0.));
#1008=CARTESIAN_POINT('',(0.,0.,0.));
#1009=CARTESIAN_POINT('Origin',(-6.,4.71844785465692E-15,44.7979589711327));
#1010=CARTESIAN_POINT('',(-6.,4.8164195985887E-15,45.5979589711327));
#1011=CARTESIAN_POINT('Origin',(-6.,4.71844785465692E-15,44.7979589711327));
#1012=CARTESIAN_POINT('',(-11.5,4.8164195985887E-15,45.5979589711327));
#1013=CARTESIAN_POINT('',(-6.,4.8164195985887E-15,45.5979589711327));
#1014=CARTESIAN_POINT('Origin',(-11.5,4.71844785465692E-15,44.7979589711327));
#1015=CARTESIAN_POINT('Origin',(-11.5,4.71844785465692E-15,44.7979589711327));
#1016=CARTESIAN_POINT('Origin',(-6.,4.71844785465692E-15,16.7979589711327));
#1017=CARTESIAN_POINT('',(-6.,4.8164195985887E-15,17.5979589711327));
#1018=CARTESIAN_POINT('Origin',(-6.,4.71844785465692E-15,16.7979589711327));
#1019=CARTESIAN_POINT('',(-11.5,4.8164195985887E-15,17.5979589711327));
#1020=CARTESIAN_POINT('',(-6.,4.8164195985887E-15,17.5979589711327));
#1021=CARTESIAN_POINT('Origin',(-11.5,4.71844785465692E-15,16.7979589711327));
#1022=CARTESIAN_POINT('Origin',(-11.5,4.71844785465692E-15,16.7979589711327));
#1023=CARTESIAN_POINT('Origin',(-18.5,4.44089209850063E-15,13.7979589711327));
#1024=CARTESIAN_POINT('',(-20.,6.,13.7979589711327));
#1025=CARTESIAN_POINT('',(-20.,-5.99999999999999,13.7979589711327));
#1026=CARTESIAN_POINT('',(-20.,3.33066907387547E-15,13.7979589711327));
#1027=CARTESIAN_POINT('',(-25.,6.,13.7979589711327));
#1028=CARTESIAN_POINT('',(-12.,6.,13.7979589711327));
#1029=CARTESIAN_POINT('',(-25.,-5.99999999999999,13.7979589711327));
#1030=CARTESIAN_POINT('',(-25.,3.,13.7979589711327));
#1031=CARTESIAN_POINT('',(-25.,-5.99999999999999,13.7979589711327));
#1032=CARTESIAN_POINT('Origin',(-12.,6.,18.7979589711327));
#1033=CARTESIAN_POINT('',(-12.,-5.99999999999999,14.7979589711327));
#1034=CARTESIAN_POINT('',(-12.,6.,14.7979589711327));
#1035=CARTESIAN_POINT('',(-12.,3.88578058618805E-15,14.7979589711327));
#1036=CARTESIAN_POINT('',(-12.,-5.99999999999999,18.7979589711327));
#1037=CARTESIAN_POINT('',(-12.,-5.99999999999999,18.7979589711327));
#1038=CARTESIAN_POINT('',(-12.,6.,18.7979589711327));
#1039=CARTESIAN_POINT('',(-12.,6.,18.7979589711327));
#1040=CARTESIAN_POINT('',(-12.,6.,18.7979589711327));
#1041=CARTESIAN_POINT('Origin',(-20.,2.22044604925031E-15,11.));
#1042=CARTESIAN_POINT('',(-20.,6.00000000000001,14.75));
#1043=CARTESIAN_POINT('',(-20.,6.,14.8989794855664));
#1044=CARTESIAN_POINT('',(-20.,-6.,14.75));
#1045=CARTESIAN_POINT('',(-20.,-5.99999999999999,14.8989794855664));
#1046=CARTESIAN_POINT('',(-20.,-10.,14.75));
#1047=CARTESIAN_POINT('',(-20.,10.,14.75));
#1048=CARTESIAN_POINT('',(-20.,-10.,7.));
#1049=CARTESIAN_POINT('',(-20.,-10.,14.75));
#1050=CARTESIAN_POINT('',(-20.,10.,7.));
#1051=CARTESIAN_POINT('',(-20.,8.25,7.));
#1052=CARTESIAN_POINT('',(-20.,10.,14.75));
#1053=CARTESIAN_POINT('',(-20.,10.,7.25000000000001));
#1054=CARTESIAN_POINT('',(-20.,10.,14.75));
#1055=CARTESIAN_POINT('Origin',(0.,-6.,18.7979589711327));
#1056=CARTESIAN_POINT('',(-25.,-6.,42.7979589711327));
#1057=CARTESIAN_POINT('',(-25.,-6.,7.));
#1058=CARTESIAN_POINT('',(-6.,-6.,42.7979589711327));
#1059=CARTESIAN_POINT('',(0.,-6.,42.7979589711327));
#1060=CARTESIAN_POINT('',(-6.,-6.,46.7979589711327));
#1061=CARTESIAN_POINT('',(-6.,-6.,46.7979589711327));
#1062=CARTESIAN_POINT('',(0.,-6.,46.7979589711327));
#1063=CARTESIAN_POINT('',(0.,-6.,46.7979589711327));
#1064=CARTESIAN_POINT('',(0.,-6.,14.75));
#1065=CARTESIAN_POINT('',(0.,-5.99999999999999,10.875));
#1066=CARTESIAN_POINT('',(0.,-6.,14.75));
#1067=CARTESIAN_POINT('',(-6.,-6.,14.7979589711327));
#1068=CARTESIAN_POINT('',(0.,-6.,14.7979589711327));
#1069=CARTESIAN_POINT('',(-6.,-5.99999999999999,18.7979589711327));
#1070=CARTESIAN_POINT('',(-6.,-6.,46.7979589711327));
#1071=CARTESIAN_POINT('',(0.,-5.99999999999999,18.7979589711327));
#1072=CARTESIAN_POINT('Origin',(-25.,6.,7.));
#1073=CARTESIAN_POINT('',(-25.,6.,7.));
#1074=CARTESIAN_POINT('',(-25.,6.,7.));
#1075=CARTESIAN_POINT('',(-25.,5.,7.));
#1076=CARTESIAN_POINT('',(-25.,6.,7.));
#1077=CARTESIAN_POINT('',(-25.,5.,11.));
#1078=CARTESIAN_POINT('',(-25.,5.,7.));
#1079=CARTESIAN_POINT('',(-25.,-5.,11.));
#1080=CARTESIAN_POINT('',(-25.,-6.,11.));
#1081=CARTESIAN_POINT('',(-25.,-5.,7.));
#1082=CARTESIAN_POINT('',(-25.,-5.,7.));
#1083=CARTESIAN_POINT('',(-25.,-6.,7.));
#1084=CARTESIAN_POINT('',(-25.,6.,7.));
#1085=CARTESIAN_POINT('',(-25.,-6.,7.));
#1086=CARTESIAN_POINT('Origin',(0.,-6.,14.7979589711327));
#1087=CARTESIAN_POINT('',(-6.,6.,14.7979589711327));
#1088=CARTESIAN_POINT('',(0.,6.00000000000001,14.7979589711327));
#1089=CARTESIAN_POINT('',(-6.,-6.,14.7979589711327));
#1090=CARTESIAN_POINT('Origin',(0.,-10.,14.75));
#1091=CARTESIAN_POINT('',(0.,-10.,14.75));
#1092=CARTESIAN_POINT('',(0.,2.,14.75));
#1093=CARTESIAN_POINT('',(0.,-10.,14.75));
#1094=CARTESIAN_POINT('Origin',(0.,-10.,7.));
#1095=CARTESIAN_POINT('',(0.,-10.,7.));
#1096=CARTESIAN_POINT('',(0.,-10.,7.));
#1097=CARTESIAN_POINT('',(-4.25,-10.,7.));
#1098=CARTESIAN_POINT('Origin',(0.,10.,14.75));
#1099=CARTESIAN_POINT('',(0.,10.,14.75));
#1100=CARTESIAN_POINT('',(0.,10.,7.));
#1101=CARTESIAN_POINT('',(0.,10.,10.875));
#1102=CARTESIAN_POINT('',(0.,10.,14.75));
#1103=CARTESIAN_POINT('',(-4.25,10.,7.));
#1104=CARTESIAN_POINT('Origin',(0.,6.00000000000001,14.75));
#1105=CARTESIAN_POINT('',(0.,6.00000000000001,14.75));
#1106=CARTESIAN_POINT('',(0.,10.,14.75));
#1107=CARTESIAN_POINT('',(0.,6.00000000000001,14.75));
#1108=CARTESIAN_POINT('Origin',(0.,14.,7.));
#1109=CARTESIAN_POINT('',(0.,6.,46.7979589711327));
#1110=CARTESIAN_POINT('',(0.,4.,46.7979589711327));
#1111=CARTESIAN_POINT('',(0.,6.00000000000001,10.8989794855664));
#1112=CARTESIAN_POINT('',(0.,19.,7.));
#1113=CARTESIAN_POINT('',(0.,-19.,7.));
#1114=CARTESIAN_POINT('',(0.,19.,11.));
#1115=CARTESIAN_POINT('',(0.,19.,7.));
#1116=CARTESIAN_POINT('',(0.,14.,11.));
#1117=CARTESIAN_POINT('',(0.,14.,11.));
#1118=CARTESIAN_POINT('',(0.,14.,37.));
#1119=CARTESIAN_POINT('',(0.,14.,7.));
#1120=CARTESIAN_POINT('',(0.,-14.,37.));
#1121=CARTESIAN_POINT('Origin',(0.,2.4980018054066E-15,37.));
#1122=CARTESIAN_POINT('',(0.,-14.,11.));
#1123=CARTESIAN_POINT('',(0.,-14.,7.));
#1124=CARTESIAN_POINT('',(0.,-19.,11.));
#1125=CARTESIAN_POINT('',(0.,-19.,11.));
#1126=CARTESIAN_POINT('',(0.,-19.,7.));
#1127=CARTESIAN_POINT('',(0.,-19.,7.));
#1128=CARTESIAN_POINT('',(0.,-19.,7.));
#1129=CARTESIAN_POINT('Ctrl Pts',(-17.,14.,37.));
#1130=CARTESIAN_POINT('Ctrl Pts',(-17.0045870704061,14.,37.0036263975784));
#1131=CARTESIAN_POINT('Ctrl Pts',(-17.0091748949262,13.9999954752547,37.0072530742254));
#1132=CARTESIAN_POINT('Ctrl Pts',(-18.4607421221412,13.9977612667591,38.1549627750727));
#1133=CARTESIAN_POINT('Ctrl Pts',(-20.3070348877349,13.4994458057447,39.6115220321345));
#1134=CARTESIAN_POINT('Ctrl Pts',(-22.2057989434581,12.1137064531942,41.2717489542204));
#1135=CARTESIAN_POINT('Ctrl Pts',(-23.0797771295623,11.2504303544232,42.0892360386886));
#1136=CARTESIAN_POINT('Ctrl Pts',(-23.8499500523602,10.2036394541002,42.8882580999478));
#1137=CARTESIAN_POINT('Ctrl Pts',(-24.4669442452904,8.98326459375352,43.6480720650275));
#1138=CARTESIAN_POINT('Ctrl Pts',(-24.8890708160544,7.58898128722343,44.3603941388421));
#1139=CARTESIAN_POINT('Ctrl Pts',(-25.0000000000001,6.54153887043968,44.7969229235852));
#1140=CARTESIAN_POINT('Ctrl Pts',(-25.,5.99999999999804,45.0000000000007));
#1141=CARTESIAN_POINT('Ctrl Pts',(-17.,14.,37.));
#1142=CARTESIAN_POINT('Ctrl Pts',(-17.0041497021956,13.9999893474399,37.0039027710455));
#1143=CARTESIAN_POINT('Ctrl Pts',(-17.0083017550947,14.0000093813133,37.0078053972907));
#1144=CARTESIAN_POINT('Ctrl Pts',(-18.3214628021674,13.9947497163575,38.2431772088824));
#1145=CARTESIAN_POINT('Ctrl Pts',(-19.9927293805668,13.6027494311897,39.809878191474));
#1146=CARTESIAN_POINT('Ctrl Pts',(-21.8195188831404,12.4369403795571,41.6341444828847));
#1147=CARTESIAN_POINT('Ctrl Pts',(-22.6910238455727,11.6939159196039,42.5434858108421));
#1148=CARTESIAN_POINT('Ctrl Pts',(-23.4993059078561,10.7681116144715,43.4470862545853));
#1149=CARTESIAN_POINT('Ctrl Pts',(-24.1976503902738,9.65054592690607,44.3251713323633));
#1150=CARTESIAN_POINT('Ctrl Pts',(-24.7411528774599,8.32061164457205,45.1707088925647));
#1151=CARTESIAN_POINT('Ctrl Pts',(-24.9514153948617,7.27362700612539,45.70534679646));
#1152=CARTESIAN_POINT('Ctrl Pts',(-25.0000000000002,6.71807832081851,45.957437761095));
#1153=CARTESIAN_POINT('Ctrl Pts',(-17.,14.,37.));
#1154=CARTESIAN_POINT('Ctrl Pts',(-17.0033849759125,13.9999893353845,37.0043878561309));
#1155=CARTESIAN_POINT('Ctrl Pts',(-17.0067725046321,14.0000105585409,37.0087706663355));
#1156=CARTESIAN_POINT('Ctrl Pts',(-18.0782483329363,13.9950826048925,38.3975568060972));
#1157=CARTESIAN_POINT('Ctrl Pts',(-19.4402276352742,13.7051539566654,40.1571149644624));
#1158=CARTESIAN_POINT('Ctrl Pts',(-20.9835558589595,12.8057729434054,42.2679041518426));
#1159=CARTESIAN_POINT('Ctrl Pts',(-21.7367354119566,12.2227085689888,43.3372475842139));
#1160=CARTESIAN_POINT('Ctrl Pts',(-22.4586174231548,11.4802393962953,44.4222809411692));
#1161=CARTESIAN_POINT('Ctrl Pts',(-23.1137178369948,10.5565630031689,45.5044503118322));
#1162=CARTESIAN_POINT('Ctrl Pts',(-23.6648487402299,9.41500426412172,46.5782968578717));
#1163=CARTESIAN_POINT('Ctrl Pts',(-23.9175163501222,8.47388919365192,47.2794767552788));
#1164=CARTESIAN_POINT('Ctrl Pts',(-23.9950822039561,7.96099109016082,47.6146547868848));
#1165=CARTESIAN_POINT('Ctrl Pts',(-17.,14.,37.));
#1166=CARTESIAN_POINT('Ctrl Pts',(-17.0026201410346,13.9999946500533,37.004870301319));
#1167=CARTESIAN_POINT('Ctrl Pts',(-17.0052438337392,14.0000037060569,37.0097391598116));
#1168=CARTESIAN_POINT('Ctrl Pts',(-17.8345962426197,13.9967812375731,38.5511267317577));
#1169=CARTESIAN_POINT('Ctrl Pts',(-18.8895594279626,13.6824409125152,40.5065368163122));
#1170=CARTESIAN_POINT('Ctrl Pts',(-20.0170475476118,12.7686745347453,42.790108135138));
#1171=CARTESIAN_POINT('Ctrl Pts',(-20.5488282265529,12.1902776201475,43.9294311148324));
#1172=CARTESIAN_POINT('Ctrl Pts',(-21.0348431416512,11.4749577122688,45.06221155915));
#1173=CARTESIAN_POINT('Ctrl Pts',(-21.4471303987823,10.6186985805252,46.1625971770169));
#1174=CARTESIAN_POINT('Ctrl Pts',(-21.7599531700302,9.60803648716465,47.220306640146));
#1175=CARTESIAN_POINT('Ctrl Pts',(-21.8744337300555,8.81802822419681,47.8865204032033));
#1176=CARTESIAN_POINT('Ctrl Pts',(-21.8975979010257,8.39999999999848,48.2000000000011));
#1177=CARTESIAN_POINT('Ctrl Pts',(-17.,14.,37.));
#1178=CARTESIAN_POINT('Ctrl Pts',(-17.0022935351991,14.,37.0050769566037));
#1179=CARTESIAN_POINT('Ctrl Pts',(-17.0045874474631,13.9999968326783,37.0101543039156));
#1180=CARTESIAN_POINT('Ctrl Pts',(-17.7303710610705,13.9984328867313,38.6169478851032));
#1181=CARTESIAN_POINT('Ctrl Pts',(-18.6535174438674,13.6496120640213,40.6561308449883));
#1182=CARTESIAN_POINT('Ctrl Pts',(-19.602899471729,12.6795945172359,42.9804485359087));
#1183=CARTESIAN_POINT('Ctrl Pts',(-20.0398885647812,12.0753012480963,44.1249304541641));
#1184=CARTESIAN_POINT('Ctrl Pts',(-20.4249750261801,11.3425476178702,45.243561339927));
#1185=CARTESIAN_POINT('Ctrl Pts',(-20.7334721226452,10.4882852156275,46.3073008910385));
#1186=CARTESIAN_POINT('Ctrl Pts',(-20.9445354080272,9.5122869010564,47.3045517943789));
#1187=CARTESIAN_POINT('Ctrl Pts',(-21.0000000000001,8.77907720930781,47.9156920930192));
#1188=CARTESIAN_POINT('Ctrl Pts',(-21.,8.39999999999862,48.200000000001));
#1189=CARTESIAN_POINT('',(-25.,5.99999999999902,45.0000000000007));
#1190=CARTESIAN_POINT('',(-21.,8.39999999999862,48.200000000001));
#1191=CARTESIAN_POINT('Origin',(-21.,5.99999999999902,45.0000000000007));
#1192=CARTESIAN_POINT('',(-17.,14.,37.));
#1193=CARTESIAN_POINT('Ctrl Pts',(-21.,8.39999999999862,48.200000000001));
#1194=CARTESIAN_POINT('Ctrl Pts',(-21.0000000000001,8.77907720930781,47.9156920930192));
#1195=CARTESIAN_POINT('Ctrl Pts',(-20.9445354080272,9.5122869010564,47.3045517943789));
#1196=CARTESIAN_POINT('Ctrl Pts',(-20.7334721226452,10.4882852156275,46.3073008910385));
#1197=CARTESIAN_POINT('Ctrl Pts',(-20.4249750261801,11.3425476178702,45.243561339927));
#1198=CARTESIAN_POINT('Ctrl Pts',(-20.0398885647812,12.0753012480963,44.1249304541641));
#1199=CARTESIAN_POINT('Ctrl Pts',(-19.602899471729,12.6795945172359,42.9804485359087));
#1200=CARTESIAN_POINT('Ctrl Pts',(-18.6535174438674,13.6496120640213,40.6561308449883));
#1201=CARTESIAN_POINT('Ctrl Pts',(-17.7303710610705,13.9984328867313,38.6169478851032));
#1202=CARTESIAN_POINT('Ctrl Pts',(-17.0045874474631,13.9999968326783,37.0101543039156));
#1203=CARTESIAN_POINT('Ctrl Pts',(-17.0022935351991,14.,37.0050769566037));
#1204=CARTESIAN_POINT('Ctrl Pts',(-17.,14.,37.));
#1205=CARTESIAN_POINT('Ctrl Pts',(-17.,14.,37.));
#1206=CARTESIAN_POINT('Ctrl Pts',(-17.0045870704061,14.,37.0036263975784));
#1207=CARTESIAN_POINT('Ctrl Pts',(-17.0091748949262,13.9999954752547,37.0072530742254));
#1208=CARTESIAN_POINT('Ctrl Pts',(-18.4607421221412,13.9977612667591,38.1549627750727));
#1209=CARTESIAN_POINT('Ctrl Pts',(-20.3070348877349,13.4994458057447,39.6115220321345));
#1210=CARTESIAN_POINT('Ctrl Pts',(-22.2057989434581,12.1137064531942,41.2717489542204));
#1211=CARTESIAN_POINT('Ctrl Pts',(-23.0797771295623,11.2504303544232,42.0892360386886));
#1212=CARTESIAN_POINT('Ctrl Pts',(-23.8499500523602,10.2036394541002,42.8882580999478));
#1213=CARTESIAN_POINT('Ctrl Pts',(-24.4669442452904,8.98326459375352,43.6480720650275));
#1214=CARTESIAN_POINT('Ctrl Pts',(-24.8890708160544,7.58898128722343,44.3603941388421));
#1215=CARTESIAN_POINT('Ctrl Pts',(-25.0000000000001,6.54153887043968,44.7969229235852));
#1216=CARTESIAN_POINT('Ctrl Pts',(-25.,5.99999999999804,45.0000000000007));
#1217=CARTESIAN_POINT('Origin',(-21.,2.4980018054066E-15,37.));
#1218=CARTESIAN_POINT('',(-25.,-5.99999999999999,45.));
#1219=CARTESIAN_POINT('',(-21.,-8.39999999999999,48.2));
#1220=CARTESIAN_POINT('Origin',(-21.,-5.99999999999999,45.));
#1221=CARTESIAN_POINT('Origin',(-21.,2.4980018054066E-15,37.));
#1222=CARTESIAN_POINT('Origin',(-25.,2.4980018054066E-15,37.));
#1223=CARTESIAN_POINT('Ctrl Pts',(-25.,-6.,45.));
#1224=CARTESIAN_POINT('Ctrl Pts',(-25.,-7.08307774088285,44.5938458471689));
#1225=CARTESIAN_POINT('Ctrl Pts',(-24.6715133260451,-8.58046599277353,43.8998240004317));
#1226=CARTESIAN_POINT('Ctrl Pts',(-23.8500164556629,-10.2025597540397,42.888496597577));
#1227=CARTESIAN_POINT('Ctrl Pts',(-23.0795101252422,-11.2510006620843,42.0889398626291));
#1228=CARTESIAN_POINT('Ctrl Pts',(-22.205441450763,-12.1137540709351,41.271621855087));
#1229=CARTESIAN_POINT('Ctrl Pts',(-20.9400826935395,-13.0374996353372,40.1648887167463));
#1230=CARTESIAN_POINT('Ctrl Pts',(-19.197263119487,-13.799803380774,38.7369774362301));
#1231=CARTESIAN_POINT('Ctrl Pts',(-17.7374723139066,-13.9987164262948,37.5830183456846));
#1232=CARTESIAN_POINT('Ctrl Pts',(-17.0091739216928,-13.999996173514,37.0072526440333));
#1233=CARTESIAN_POINT('Ctrl Pts',(-17.0045870704207,-14.,37.0036263975768));
#1234=CARTESIAN_POINT('Ctrl Pts',(-17.,-14.,37.));
#1235=CARTESIAN_POINT('Ctrl Pts',(-25.,-6.71807832082053,45.957437761094));
#1236=CARTESIAN_POINT('Ctrl Pts',(-24.9000612710296,-7.82993590867343,45.4519756580323));
#1237=CARTESIAN_POINT('Ctrl Pts',(-24.4274732474604,-9.28358370473575,44.6152188218712));
#1238=CARTESIAN_POINT('Ctrl Pts',(-23.4966835526849,-10.767160164753,43.4464017477941));
#1239=CARTESIAN_POINT('Ctrl Pts',(-22.6877954566216,-11.6943258794326,42.5421381657356));
#1240=CARTESIAN_POINT('Ctrl Pts',(-21.8163736906774,-12.4360961868511,41.6331422589089));
#1241=CARTESIAN_POINT('Ctrl Pts',(-20.5996783282743,-13.2135927234484,40.4172256202473));
#1242=CARTESIAN_POINT('Ctrl Pts',(-18.9866242032977,-13.8379240520583,38.8688870734671));
#1243=CARTESIAN_POINT('Ctrl Pts',(-17.6670842309205,-13.9989000325812,37.6273889315993));
#1244=CARTESIAN_POINT('Ctrl Pts',(-17.0083008756765,-13.9999971651074,37.0078054424826));
#1245=CARTESIAN_POINT('Ctrl Pts',(-17.0041502065713,-14.,37.0039026945353));
#1246=CARTESIAN_POINT('Ctrl Pts',(-17.,-14.,37.));
#1247=CARTESIAN_POINT('Ctrl Pts',(-23.9960000871285,-7.96146226731855,47.6152830230914));
#1248=CARTESIAN_POINT('Ctrl Pts',(-23.8410135107825,-8.98681117147519,46.9451355322046));
#1249=CARTESIAN_POINT('Ctrl Pts',(-23.330007688398,-10.2523273935393,45.8624466307726));
#1250=CARTESIAN_POINT('Ctrl Pts',(-22.460141272714,-11.4791784303029,44.4236054585951));
#1251=CARTESIAN_POINT('Ctrl Pts',(-21.7369971052959,-12.2234165438823,43.3371656420653));
#1252=CARTESIAN_POINT('Ctrl Pts',(-20.9840526155152,-12.8056314711279,42.2682829824028));
#1253=CARTESIAN_POINT('Ctrl Pts',(-19.9551220762787,-13.4058676189536,40.8608475436962));
#1254=CARTESIAN_POINT('Ctrl Pts',(-18.6220203944846,-13.8787790235966,39.1010483846183));
#1255=CARTESIAN_POINT('Ctrl Pts',(-17.5443618954162,-13.9992483151368,37.705194009743));
#1256=CARTESIAN_POINT('Ctrl Pts',(-17.006771068883,-13.9999975340442,37.0087721627682));
#1257=CARTESIAN_POINT('Ctrl Pts',(-17.0033856948348,-14.,37.0043862142126));
#1258=CARTESIAN_POINT('Ctrl Pts',(-17.,-14.,37.));
#1259=CARTESIAN_POINT('Ctrl Pts',(-21.8975979010257,-8.40000000000001,48.2));
#1260=CARTESIAN_POINT('Ctrl Pts',(-21.8518545269627,-9.23533398596843,47.5724881278625));
#1261=CARTESIAN_POINT('Ctrl Pts',(-21.5835917537327,-10.3359963467133,46.5266035357683));
#1262=CARTESIAN_POINT('Ctrl Pts',(-21.0358729611064,-11.4734977154436,45.0621655802618));
#1263=CARTESIAN_POINT('Ctrl Pts',(-20.5493716069432,-12.1902628945641,43.9284345887636));
#1264=CARTESIAN_POINT('Ctrl Pts',(-20.0176465301029,-12.7681435439273,42.7894543684423));
#1265=CARTESIAN_POINT('Ctrl Pts',(-19.2659911639647,-13.3776663018228,41.2672610723028));
#1266=CARTESIAN_POINT('Ctrl Pts',(-18.2559258224737,-13.8714031955196,39.3322447742401));
#1267=CARTESIAN_POINT('Ctrl Pts',(-17.4214567368055,-13.9991574659824,37.7828819726516));
#1268=CARTESIAN_POINT('Ctrl Pts',(-17.0052420511662,-13.9999976149332,37.009739388087));
#1269=CARTESIAN_POINT('Ctrl Pts',(-17.0026211830983,-14.,37.00486973389));
#1270=CARTESIAN_POINT('Ctrl Pts',(-17.,-14.,37.));
#1271=CARTESIAN_POINT('Ctrl Pts',(-21.,-8.40000000000001,48.2));
#1272=CARTESIAN_POINT('Ctrl Pts',(-21.,-9.15815441861792,47.6313841860366));
#1273=CARTESIAN_POINT('Ctrl Pts',(-20.8357566630226,-10.2063261949415,46.6597536006044));
#1274=CARTESIAN_POINT('Ctrl Pts',(-20.4250082278315,-11.3417918278278,45.2438952366077));
#1275=CARTESIAN_POINT('Ctrl Pts',(-20.0397550626211,-12.075700463459,44.1245158076807));
#1276=CARTESIAN_POINT('Ctrl Pts',(-19.6027207253815,-12.6796278496546,42.9802705971218));
#1277=CARTESIAN_POINT('Ctrl Pts',(-18.9700413467698,-13.3262497447361,41.4308442034447));
#1278=CARTESIAN_POINT('Ctrl Pts',(-18.0986315597435,-13.8598623665418,39.4317684107222));
#1279=CARTESIAN_POINT('Ctrl Pts',(-17.3687361569536,-13.9991014984064,37.816225683958));
#1280=CARTESIAN_POINT('Ctrl Pts',(-17.0045869608464,-13.9999973214598,37.0101537016467));
#1281=CARTESIAN_POINT('Ctrl Pts',(-17.0022935352113,-14.,37.0050769566089));
#1282=CARTESIAN_POINT('Ctrl Pts',(-17.,-14.,37.));
#1283=CARTESIAN_POINT('',(-17.,-14.,37.));
#1284=CARTESIAN_POINT('Ctrl Pts',(-25.,-6.,45.));
#1285=CARTESIAN_POINT('Ctrl Pts',(-25.,-7.08307774088285,44.5938458471689));
#1286=CARTESIAN_POINT('Ctrl Pts',(-24.6715133260451,-8.58046599277353,43.8998240004317));
#1287=CARTESIAN_POINT('Ctrl Pts',(-23.8500164556629,-10.2025597540397,42.888496597577));
#1288=CARTESIAN_POINT('Ctrl Pts',(-23.0795101252422,-11.2510006620843,42.0889398626291));
#1289=CARTESIAN_POINT('Ctrl Pts',(-22.205441450763,-12.1137540709351,41.271621855087));
#1290=CARTESIAN_POINT('Ctrl Pts',(-20.9400826935395,-13.0374996353372,40.1648887167463));
#1291=CARTESIAN_POINT('Ctrl Pts',(-19.197263119487,-13.799803380774,38.7369774362301));
#1292=CARTESIAN_POINT('Ctrl Pts',(-17.7374723139066,-13.9987164262948,37.5830183456846));
#1293=CARTESIAN_POINT('Ctrl Pts',(-17.0091739216928,-13.999996173514,37.0072526440333));
#1294=CARTESIAN_POINT('Ctrl Pts',(-17.0045870704207,-14.,37.0036263975768));
#1295=CARTESIAN_POINT('Ctrl Pts',(-17.,-14.,37.));
#1296=CARTESIAN_POINT('Ctrl Pts',(-17.,-14.,37.));
#1297=CARTESIAN_POINT('Ctrl Pts',(-17.0022935352113,-14.,37.0050769566089));
#1298=CARTESIAN_POINT('Ctrl Pts',(-17.0045869608464,-13.9999973214598,37.0101537016467));
#1299=CARTESIAN_POINT('Ctrl Pts',(-17.3687361569536,-13.9991014984064,37.816225683958));
#1300=CARTESIAN_POINT('Ctrl Pts',(-18.0986315597435,-13.8598623665418,39.4317684107222));
#1301=CARTESIAN_POINT('Ctrl Pts',(-18.9700413467698,-13.3262497447361,41.4308442034447));
#1302=CARTESIAN_POINT('Ctrl Pts',(-19.6027207253815,-12.6796278496546,42.9802705971218));
#1303=CARTESIAN_POINT('Ctrl Pts',(-20.0397550626211,-12.075700463459,44.1245158076807));
#1304=CARTESIAN_POINT('Ctrl Pts',(-20.4250082278315,-11.3417918278278,45.2438952366077));
#1305=CARTESIAN_POINT('Ctrl Pts',(-20.8357566630226,-10.2063261949415,46.6597536006044));
#1306=CARTESIAN_POINT('Ctrl Pts',(-21.,-9.15815441861792,47.6313841860366));
#1307=CARTESIAN_POINT('Ctrl Pts',(-21.,-8.40000000000001,48.2));
#1308=CARTESIAN_POINT('Origin',(-25.,6.,7.));
#1309=CARTESIAN_POINT('',(-25.,6.,42.7979589711327));
#1310=CARTESIAN_POINT('',(-25.,6.,37.));
#1311=CARTESIAN_POINT('',(-25.,1.66533453693773E-15,42.7979589711327));
#1312=CARTESIAN_POINT('',(-25.,-5.99999999999999,37.));
#1313=CARTESIAN_POINT('Origin',(-17.,6.,7.));
#1314=CARTESIAN_POINT('',(-17.,14.,7.));
#1315=CARTESIAN_POINT('',(-17.,14.,7.));
#1316=CARTESIAN_POINT('Origin',(-17.,6.,7.));
#1317=CARTESIAN_POINT('',(-25.,6.,7.));
#1318=CARTESIAN_POINT('Origin',(-6.,4.44089209850063E-15,16.8989794855664));
#1319=CARTESIAN_POINT('',(-6.,6.,18.7979589711327));
#1320=CARTESIAN_POINT('',(-6.,6.,14.7979589711327));
#1321=CARTESIAN_POINT('',(-6.,3.,18.7979589711327));
#1322=CARTESIAN_POINT('Origin',(0.,-6.,46.7979589711327));
#1323=CARTESIAN_POINT('',(-6.,6.,46.7979589711327));
#1324=CARTESIAN_POINT('',(-6.,10.,46.7979589711327));
#1325=CARTESIAN_POINT('',(0.,6.,46.7979589711327));
#1326=CARTESIAN_POINT('Origin',(-6.,3.33066907387547E-15,44.8989794855664));
#1327=CARTESIAN_POINT('',(-6.,6.,42.7979589711327));
#1328=CARTESIAN_POINT('',(-6.,-3.,42.7979589711327));
#1329=CARTESIAN_POINT('',(-6.,6.,14.7979589711327));
#1330=CARTESIAN_POINT('Origin',(0.,-6.,42.7979589711327));
#1331=CARTESIAN_POINT('',(0.,6.,42.7979589711327));
#1332=CARTESIAN_POINT('Origin',(0.,6.,18.7979589711327));
#1333=CARTESIAN_POINT('',(0.,6.,18.7979589711327));
#1334=CARTESIAN_POINT('Origin',(0.,6.,42.7979589711327));
#1335=CARTESIAN_POINT('Origin',(0.,2.4980018054066E-15,37.));
#1336=CARTESIAN_POINT('',(-17.,-14.,37.));
#1337=CARTESIAN_POINT('',(0.,14.,37.));
#1338=CARTESIAN_POINT('Origin',(-17.,-6.,7.));
#1339=CARTESIAN_POINT('',(-17.,-14.,7.));
#1340=CARTESIAN_POINT('Origin',(-17.,-6.,7.));
#1341=CARTESIAN_POINT('',(-17.,-14.,7.));
#1342=CARTESIAN_POINT('Origin',(0.,14.,7.));
#1343=CARTESIAN_POINT('',(-13.5,14.,7.));
#1344=CARTESIAN_POINT('',(-13.5,14.,11.));
#1345=CARTESIAN_POINT('',(-13.5,14.,7.));
#1346=CARTESIAN_POINT('',(0.,14.,7.));
#1347=CARTESIAN_POINT('',(-17.,14.,11.));
#1348=CARTESIAN_POINT('Origin',(-17.,-14.,7.));
#1349=CARTESIAN_POINT('',(-13.5,-14.,11.));
#1350=CARTESIAN_POINT('',(0.,-14.,11.));
#1351=CARTESIAN_POINT('',(-13.5,-14.,7.));
#1352=CARTESIAN_POINT('',(-17.,-14.,7.));
#1353=CARTESIAN_POINT('',(-13.5,-14.,7.));
#1354=CARTESIAN_POINT('Origin',(-8.5,-19.,7.));
#1355=CARTESIAN_POINT('',(-8.5,-19.,7.));
#1356=CARTESIAN_POINT('',(-8.5,-19.,7.));
#1357=CARTESIAN_POINT('',(-8.5,-19.,11.));
#1358=CARTESIAN_POINT('',(-8.5,-19.,11.));
#1359=CARTESIAN_POINT('',(-8.5,-19.,7.));
#1360=CARTESIAN_POINT('Origin',(-8.5,-14.,7.));
#1361=CARTESIAN_POINT('Origin',(-8.5,-14.,7.));
#1362=CARTESIAN_POINT('Origin',(-8.5,-14.,11.));
#1363=CARTESIAN_POINT('Origin',(-8.5,-16.5,11.));
#1364=CARTESIAN_POINT('Origin',(-25.,0.,7.));
#1365=CARTESIAN_POINT('Origin',(-25.,0.,7.));
#1366=CARTESIAN_POINT('Origin',(-25.,0.,11.));
#1367=CARTESIAN_POINT('Origin',(-27.5,0.,11.));
#1368=CARTESIAN_POINT('Origin',(-8.5,14.,7.));
#1369=CARTESIAN_POINT('',(-8.5,19.,7.));
#1370=CARTESIAN_POINT('Origin',(-8.5,14.,7.));
#1371=CARTESIAN_POINT('',(-8.5,19.,11.));
#1372=CARTESIAN_POINT('Origin',(-8.5,14.,11.));
#1373=CARTESIAN_POINT('',(-8.5,19.,7.));
#1374=CARTESIAN_POINT('Origin',(0.,19.,7.));
#1375=CARTESIAN_POINT('',(0.,19.,7.));
#1376=CARTESIAN_POINT('',(0.,19.,11.));
#1377=CARTESIAN_POINT('Origin',(-8.5,16.5,11.));
#1378=CARTESIAN_POINT('Origin',(-8.5,16.5,7.));
#1379=UNCERTAINTY_MEASURE_WITH_UNIT(LENGTH_MEASURE(0.01),#1383,
'DISTANCE_ACCURACY_VALUE',
'Maximum model space distance between geometric entities at asserted c
onnectivities');
#1380=UNCERTAINTY_MEASURE_WITH_UNIT(LENGTH_MEASURE(0.01),#1383,
'DISTANCE_ACCURACY_VALUE',
'Maximum model space distance between geometric entities at asserted c
onnectivities');
#1381=(
GEOMETRIC_REPRESENTATION_CONTEXT(3)
GLOBAL_UNCERTAINTY_ASSIGNED_CONTEXT((#1379))
GLOBAL_UNIT_ASSIGNED_CONTEXT((#1383,#1385,#1386))
REPRESENTATION_CONTEXT('','3D')
);
#1382=(
GEOMETRIC_REPRESENTATION_CONTEXT(3)
GLOBAL_UNCERTAINTY_ASSIGNED_CONTEXT((#1380))
GLOBAL_UNIT_ASSIGNED_CONTEXT((#1383,#1385,#1386))
REPRESENTATION_CONTEXT('','3D')
);
#1383=(
LENGTH_UNIT()
NAMED_UNIT(*)
SI_UNIT(.MILLI.,.METRE.)
);
#1384=(
LENGTH_UNIT()
NAMED_UNIT(*)
SI_UNIT(.CENTI.,.METRE.)
);
#1385=(
NAMED_UNIT(*)
PLANE_ANGLE_UNIT()
SI_UNIT($,.RADIAN.)
);
#1386=(
NAMED_UNIT(*)
SI_UNIT($,.STERADIAN.)
SOLID_ANGLE_UNIT()
);
#1387=SHAPE_DEFINITION_REPRESENTATION(#1388,#1389);
#1388=PRODUCT_DEFINITION_SHAPE('',$,#1391);
#1389=SHAPE_REPRESENTATION('',(#761),#1381);
#1390=PRODUCT_DEFINITION_CONTEXT('part definition',#1395,'design');
#1391=PRODUCT_DEFINITION('Armteil01_V2','Armteil01_V2',#1392,#1390);
#1392=PRODUCT_DEFINITION_FORMATION('',$,#1397);
#1393=PRODUCT_RELATED_PRODUCT_CATEGORY('Armteil01_V2','Armteil01_V2',(#1397));
#1394=APPLICATION_PROTOCOL_DEFINITION('international standard',
'automotive_design',2009,#1395);
#1395=APPLICATION_CONTEXT(
'Core Data for Automotive Mechanical Design Process');
#1396=PRODUCT_CONTEXT('part definition',#1395,'mechanical');
#1397=PRODUCT('Armteil01_V2','Armteil01_V2',$,(#1396));
#1398=PRESENTATION_STYLE_ASSIGNMENT((#1399));
#1399=SURFACE_STYLE_USAGE(.BOTH.,#1402);
#1400=SURFACE_STYLE_RENDERING_WITH_PROPERTIES($,#1406,(#1401));
#1401=SURFACE_STYLE_TRANSPARENT(0.);
#1402=SURFACE_SIDE_STYLE('',(#1403,#1400));
#1403=SURFACE_STYLE_FILL_AREA(#1404);
#1404=FILL_AREA_STYLE('',(#1405));
#1405=FILL_AREA_STYLE_COLOUR('',#1406);
#1406=COLOUR_RGB('',0.749019607843137,0.749019607843137,0.749019607843137);
ENDSEC;
END-ISO-10303-21;
