ISO-10303-21;
HEADER;
/* Generated by software containing ST-Developer
 * from STEP Tools, Inc. (www.steptools.com) 
 */

FILE_DESCRIPTION(
/* description */ (''),
/* implementation_level */ '2;1');

FILE_NAME(
/* name */ 'Drehplatte.stp',
/* time_stamp */ '2026-09-06T18:56:53+02:00',
/* author */ ('bluhm'),
/* organization */ (''),
/* preprocessor_version */ 'ST-DEVELOPER v20.1',
/* originating_system */ 'Autodesk Inventor 2026',
/* authorisation */ '');

FILE_SCHEMA (('AUTOMOTIVE_DESIGN { 1 0 10303 214 3 1 1 }'));
ENDSEC;

DATA;
#10=MECHANICAL_DESIGN_GEOMETRIC_PRESENTATION_REPRESENTATION('',(#13),#1105);
#11=SHAPE_REPRESENTATION_RELATIONSHIP('SRR','None',#1112,#12);
#12=ADVANCED_BREP_SHAPE_REPRESENTATION('',(#14),#1104);
#13=STYLED_ITEM('',(#1121),#14);
#14=MANIFOLD_SOLID_BREP('Volumenk\X\F6rper1',#656);
#15=FACE_BOUND('',#86,.T.);
#16=FACE_BOUND('',#89,.T.);
#17=FACE_BOUND('',#93,.T.);
#18=FACE_BOUND('',#95,.T.);
#19=FACE_BOUND('',#107,.T.);
#20=FACE_BOUND('',#108,.T.);
#21=FACE_BOUND('',#109,.T.);
#22=FACE_BOUND('',#110,.T.);
#23=FACE_BOUND('',#127,.T.);
#24=FACE_BOUND('',#128,.T.);
#25=PLANE('',#682);
#26=PLANE('',#687);
#27=PLANE('',#688);
#28=PLANE('',#689);
#29=PLANE('',#690);
#30=PLANE('',#694);
#31=PLANE('',#698);
#32=PLANE('',#699);
#33=PLANE('',#700);
#34=PLANE('',#703);
#35=PLANE('',#708);
#36=PLANE('',#711);
#37=PLANE('',#712);
#38=PLANE('',#713);
#39=PLANE('',#715);
#40=PLANE('',#717);
#41=PLANE('',#720);
#42=PLANE('',#723);
#43=PLANE('',#726);
#44=PLANE('',#729);
#45=PLANE('',#730);
#46=PLANE('',#731);
#47=PLANE('',#732);
#48=PLANE('',#735);
#49=FACE_OUTER_BOUND('',#84,.T.);
#50=FACE_OUTER_BOUND('',#85,.T.);
#51=FACE_OUTER_BOUND('',#87,.T.);
#52=FACE_OUTER_BOUND('',#88,.T.);
#53=FACE_OUTER_BOUND('',#90,.T.);
#54=FACE_OUTER_BOUND('',#91,.T.);
#55=FACE_OUTER_BOUND('',#92,.T.);
#56=FACE_OUTER_BOUND('',#94,.T.);
#57=FACE_OUTER_BOUND('',#96,.T.);
#58=FACE_OUTER_BOUND('',#97,.T.);
#59=FACE_OUTER_BOUND('',#98,.T.);
#60=FACE_OUTER_BOUND('',#99,.T.);
#61=FACE_OUTER_BOUND('',#100,.T.);
#62=FACE_OUTER_BOUND('',#101,.T.);
#63=FACE_OUTER_BOUND('',#102,.T.);
#64=FACE_OUTER_BOUND('',#103,.T.);
#65=FACE_OUTER_BOUND('',#104,.T.);
#66=FACE_OUTER_BOUND('',#105,.T.);
#67=FACE_OUTER_BOUND('',#106,.T.);
#68=FACE_OUTER_BOUND('',#111,.T.);
#69=FACE_OUTER_BOUND('',#112,.T.);
#70=FACE_OUTER_BOUND('',#113,.T.);
#71=FACE_OUTER_BOUND('',#114,.T.);
#72=FACE_OUTER_BOUND('',#115,.T.);
#73=FACE_OUTER_BOUND('',#116,.T.);
#74=FACE_OUTER_BOUND('',#117,.T.);
#75=FACE_OUTER_BOUND('',#118,.T.);
#76=FACE_OUTER_BOUND('',#119,.T.);
#77=FACE_OUTER_BOUND('',#120,.T.);
#78=FACE_OUTER_BOUND('',#121,.T.);
#79=FACE_OUTER_BOUND('',#122,.T.);
#80=FACE_OUTER_BOUND('',#123,.T.);
#81=FACE_OUTER_BOUND('',#124,.T.);
#82=FACE_OUTER_BOUND('',#125,.T.);
#83=FACE_OUTER_BOUND('',#126,.T.);
#84=EDGE_LOOP('',(#432,#433,#434,#435));
#85=EDGE_LOOP('',(#436));
#86=EDGE_LOOP('',(#437));
#87=EDGE_LOOP('',(#438,#439,#440,#441));
#88=EDGE_LOOP('',(#442,#443,#444,#445));
#89=EDGE_LOOP('',(#446));
#90=EDGE_LOOP('',(#447,#448,#449,#450));
#91=EDGE_LOOP('',(#451,#452,#453,#454,#455,#456));
#92=EDGE_LOOP('',(#457,#458,#459,#460));
#93=EDGE_LOOP('',(#461,#462,#463,#464));
#94=EDGE_LOOP('',(#465,#466,#467,#468));
#95=EDGE_LOOP('',(#469,#470,#471,#472));
#96=EDGE_LOOP('',(#473,#474,#475,#476));
#97=EDGE_LOOP('',(#477,#478,#479,#480,#481,#482));
#98=EDGE_LOOP('',(#483,#484,#485,#486));
#99=EDGE_LOOP('',(#487,#488,#489,#490));
#100=EDGE_LOOP('',(#491,#492,#493,#494));
#101=EDGE_LOOP('',(#495,#496,#497,#498));
#102=EDGE_LOOP('',(#499,#500,#501,#502));
#103=EDGE_LOOP('',(#503,#504,#505,#506));
#104=EDGE_LOOP('',(#507,#508,#509,#510));
#105=EDGE_LOOP('',(#511,#512,#513,#514));
#106=EDGE_LOOP('',(#515));
#107=EDGE_LOOP('',(#516,#517,#518,#519));
#108=EDGE_LOOP('',(#520));
#109=EDGE_LOOP('',(#521,#522,#523,#524));
#110=EDGE_LOOP('',(#525,#526,#527,#528));
#111=EDGE_LOOP('',(#529,#530,#531,#532,#533,#534));
#112=EDGE_LOOP('',(#535,#536,#537,#538,#539,#540));
#113=EDGE_LOOP('',(#541,#542,#543,#544,#545));
#114=EDGE_LOOP('',(#546,#547,#548,#549));
#115=EDGE_LOOP('',(#550,#551,#552,#553,#554));
#116=EDGE_LOOP('',(#555,#556,#557,#558));
#117=EDGE_LOOP('',(#559,#560,#561,#562,#563));
#118=EDGE_LOOP('',(#564,#565,#566,#567));
#119=EDGE_LOOP('',(#568,#569,#570,#571,#572));
#120=EDGE_LOOP('',(#573,#574,#575,#576));
#121=EDGE_LOOP('',(#577,#578,#579,#580));
#122=EDGE_LOOP('',(#581,#582,#583,#584));
#123=EDGE_LOOP('',(#585,#586,#587,#588));
#124=EDGE_LOOP('',(#589,#590,#591,#592));
#125=EDGE_LOOP('',(#593,#594,#595,#596));
#126=EDGE_LOOP('',(#597));
#127=EDGE_LOOP('',(#598,#599,#600,#601));
#128=EDGE_LOOP('',(#602,#603,#604,#605,#606,#607,#608,#609));
#129=LINE('',#924,#196);
#130=LINE('',#933,#197);
#131=LINE('',#938,#198);
#132=LINE('',#940,#199);
#133=LINE('',#942,#200);
#134=LINE('',#943,#201);
#135=LINE('',#946,#202);
#136=LINE('',#948,#203);
#137=LINE('',#949,#204);
#138=LINE('',#952,#205);
#139=LINE('',#954,#206);
#140=LINE('',#956,#207);
#141=LINE('',#957,#208);
#142=LINE('',#960,#209);
#143=LINE('',#962,#210);
#144=LINE('',#968,#211);
#145=LINE('',#971,#212);
#146=LINE('',#975,#213);
#147=LINE('',#979,#214);
#148=LINE('',#980,#215);
#149=LINE('',#983,#216);
#150=LINE('',#987,#217);
#151=LINE('',#991,#218);
#152=LINE('',#992,#219);
#153=LINE('',#994,#220);
#154=LINE('',#995,#221);
#155=LINE('',#998,#222);
#156=LINE('',#1000,#223);
#157=LINE('',#1001,#224);
#158=LINE('',#1005,#225);
#159=LINE('',#1008,#226);
#160=LINE('',#1009,#227);
#161=LINE('',#1014,#228);
#162=LINE('',#1017,#229);
#163=LINE('',#1020,#230);
#164=LINE('',#1021,#231);
#165=LINE('',#1025,#232);
#166=LINE('',#1027,#233);
#167=LINE('',#1031,#234);
#168=LINE('',#1033,#235);
#169=LINE('',#1035,#236);
#170=LINE('',#1036,#237);
#171=LINE('',#1039,#238);
#172=LINE('',#1042,#239);
#173=LINE('',#1045,#240);
#174=LINE('',#1048,#241);
#175=LINE('',#1052,#242);
#176=LINE('',#1053,#243);
#177=LINE('',#1054,#244);
#178=LINE('',#1058,#245);
#179=LINE('',#1061,#246);
#180=LINE('',#1062,#247);
#181=LINE('',#1066,#248);
#182=LINE('',#1069,#249);
#183=LINE('',#1070,#250);
#184=LINE('',#1074,#251);
#185=LINE('',#1077,#252);
#186=LINE('',#1078,#253);
#187=LINE('',#1084,#254);
#188=LINE('',#1085,#255);
#189=LINE('',#1086,#256);
#190=LINE('',#1089,#257);
#191=LINE('',#1090,#258);
#192=LINE('',#1093,#259);
#193=LINE('',#1094,#260);
#194=LINE('',#1096,#261);
#195=LINE('',#1099,#262);
#196=VECTOR('',#742,33.);
#197=VECTOR('',#753,2.5);
#198=VECTOR('',#758,10.);
#199=VECTOR('',#759,10.);
#200=VECTOR('',#760,10.);
#201=VECTOR('',#761,10.);
#202=VECTOR('',#764,10.);
#203=VECTOR('',#765,10.);
#204=VECTOR('',#766,10.);
#205=VECTOR('',#769,10.);
#206=VECTOR('',#770,10.);
#207=VECTOR('',#771,10.);
#208=VECTOR('',#772,10.);
#209=VECTOR('',#775,10.);
#210=VECTOR('',#776,10.);
#211=VECTOR('',#781,10.);
#212=VECTOR('',#784,10.);
#213=VECTOR('',#787,10.);
#214=VECTOR('',#790,10.);
#215=VECTOR('',#791,10.);
#216=VECTOR('',#792,10.);
#217=VECTOR('',#795,10.);
#218=VECTOR('',#800,10.);
#219=VECTOR('',#801,10.);
#220=VECTOR('',#804,10.);
#221=VECTOR('',#805,10.);
#222=VECTOR('',#808,10.);
#223=VECTOR('',#809,10.);
#224=VECTOR('',#810,10.);
#225=VECTOR('',#815,10.);
#226=VECTOR('',#818,10.);
#227=VECTOR('',#819,10.);
#228=VECTOR('',#826,10.);
#229=VECTOR('',#829,10.);
#230=VECTOR('',#832,10.);
#231=VECTOR('',#833,10.);
#232=VECTOR('',#838,10.);
#233=VECTOR('',#841,10.);
#234=VECTOR('',#844,10.);
#235=VECTOR('',#845,10.);
#236=VECTOR('',#846,10.);
#237=VECTOR('',#847,10.);
#238=VECTOR('',#850,10.);
#239=VECTOR('',#853,10.);
#240=VECTOR('',#856,10.);
#241=VECTOR('',#859,10.);
#242=VECTOR('',#862,10.);
#243=VECTOR('',#863,10.);
#244=VECTOR('',#864,10.);
#245=VECTOR('',#869,10.);
#246=VECTOR('',#872,10.);
#247=VECTOR('',#873,10.);
#248=VECTOR('',#878,10.);
#249=VECTOR('',#881,10.);
#250=VECTOR('',#882,10.);
#251=VECTOR('',#887,10.);
#252=VECTOR('',#890,10.);
#253=VECTOR('',#891,10.);
#254=VECTOR('',#898,10.);
#255=VECTOR('',#899,10.);
#256=VECTOR('',#900,10.);
#257=VECTOR('',#903,10.);
#258=VECTOR('',#904,10.);
#259=VECTOR('',#907,10.);
#260=VECTOR('',#908,10.);
#261=VECTOR('',#911,10.);
#262=VECTOR('',#914,29.);
#263=CIRCLE('',#680,33.);
#264=CIRCLE('',#681,33.);
#265=CIRCLE('',#683,29.);
#266=CIRCLE('',#685,2.5);
#267=CIRCLE('',#686,2.5);
#268=CIRCLE('',#691,2.25);
#269=CIRCLE('',#692,1.15);
#270=CIRCLE('',#693,1.15);
#271=CIRCLE('',#695,2.25);
#272=CIRCLE('',#696,1.15);
#273=CIRCLE('',#697,1.15);
#274=CIRCLE('',#702,1.15);
#275=CIRCLE('',#705,1.15);
#276=CIRCLE('',#707,1.15);
#277=CIRCLE('',#710,1.15);
#278=CIRCLE('',#714,3.75);
#279=CIRCLE('',#716,3.75);
#280=CIRCLE('',#719,2.25);
#281=CIRCLE('',#722,3.75);
#282=CIRCLE('',#725,2.25);
#283=CIRCLE('',#728,3.75);
#284=CIRCLE('',#734,29.);
#285=VERTEX_POINT('',#921);
#286=VERTEX_POINT('',#923);
#287=VERTEX_POINT('',#927);
#288=VERTEX_POINT('',#930);
#289=VERTEX_POINT('',#932);
#290=VERTEX_POINT('',#936);
#291=VERTEX_POINT('',#937);
#292=VERTEX_POINT('',#939);
#293=VERTEX_POINT('',#941);
#294=VERTEX_POINT('',#945);
#295=VERTEX_POINT('',#947);
#296=VERTEX_POINT('',#951);
#297=VERTEX_POINT('',#953);
#298=VERTEX_POINT('',#955);
#299=VERTEX_POINT('',#959);
#300=VERTEX_POINT('',#961);
#301=VERTEX_POINT('',#964);
#302=VERTEX_POINT('',#965);
#303=VERTEX_POINT('',#967);
#304=VERTEX_POINT('',#969);
#305=VERTEX_POINT('',#973);
#306=VERTEX_POINT('',#974);
#307=VERTEX_POINT('',#976);
#308=VERTEX_POINT('',#978);
#309=VERTEX_POINT('',#981);
#310=VERTEX_POINT('',#982);
#311=VERTEX_POINT('',#984);
#312=VERTEX_POINT('',#986);
#313=VERTEX_POINT('',#990);
#314=VERTEX_POINT('',#997);
#315=VERTEX_POINT('',#999);
#316=VERTEX_POINT('',#1003);
#317=VERTEX_POINT('',#1007);
#318=VERTEX_POINT('',#1013);
#319=VERTEX_POINT('',#1015);
#320=VERTEX_POINT('',#1019);
#321=VERTEX_POINT('',#1023);
#322=VERTEX_POINT('',#1029);
#323=VERTEX_POINT('',#1030);
#324=VERTEX_POINT('',#1032);
#325=VERTEX_POINT('',#1034);
#326=VERTEX_POINT('',#1038);
#327=VERTEX_POINT('',#1040);
#328=VERTEX_POINT('',#1044);
#329=VERTEX_POINT('',#1046);
#330=VERTEX_POINT('',#1050);
#331=VERTEX_POINT('',#1051);
#332=VERTEX_POINT('',#1056);
#333=VERTEX_POINT('',#1060);
#334=VERTEX_POINT('',#1064);
#335=VERTEX_POINT('',#1068);
#336=VERTEX_POINT('',#1072);
#337=VERTEX_POINT('',#1076);
#338=VERTEX_POINT('',#1082);
#339=VERTEX_POINT('',#1083);
#340=VERTEX_POINT('',#1088);
#341=VERTEX_POINT('',#1092);
#342=VERTEX_POINT('',#1098);
#343=EDGE_CURVE('',#285,#285,#263,.T.);
#344=EDGE_CURVE('',#285,#286,#129,.T.);
#345=EDGE_CURVE('',#286,#286,#264,.T.);
#346=EDGE_CURVE('',#287,#287,#265,.T.);
#347=EDGE_CURVE('',#288,#288,#266,.T.);
#348=EDGE_CURVE('',#288,#289,#130,.T.);
#349=EDGE_CURVE('',#289,#289,#267,.T.);
#350=EDGE_CURVE('',#290,#291,#131,.T.);
#351=EDGE_CURVE('',#292,#290,#132,.T.);
#352=EDGE_CURVE('',#293,#292,#133,.T.);
#353=EDGE_CURVE('',#291,#293,#134,.T.);
#354=EDGE_CURVE('',#294,#292,#135,.T.);
#355=EDGE_CURVE('',#295,#294,#136,.T.);
#356=EDGE_CURVE('',#295,#293,#137,.T.);
#357=EDGE_CURVE('',#296,#290,#138,.T.);
#358=EDGE_CURVE('',#297,#296,#139,.T.);
#359=EDGE_CURVE('',#297,#298,#140,.T.);
#360=EDGE_CURVE('',#294,#298,#141,.T.);
#361=EDGE_CURVE('',#299,#298,#142,.T.);
#362=EDGE_CURVE('',#297,#300,#143,.T.);
#363=EDGE_CURVE('',#300,#299,#268,.T.);
#364=EDGE_CURVE('',#301,#302,#269,.T.);
#365=EDGE_CURVE('',#303,#301,#144,.T.);
#366=EDGE_CURVE('',#304,#303,#270,.T.);
#367=EDGE_CURVE('',#302,#304,#145,.T.);
#368=EDGE_CURVE('',#305,#306,#146,.T.);
#369=EDGE_CURVE('',#306,#307,#271,.T.);
#370=EDGE_CURVE('',#307,#308,#147,.T.);
#371=EDGE_CURVE('',#305,#308,#148,.T.);
#372=EDGE_CURVE('',#309,#310,#149,.T.);
#373=EDGE_CURVE('',#311,#309,#272,.T.);
#374=EDGE_CURVE('',#312,#311,#150,.T.);
#375=EDGE_CURVE('',#310,#312,#273,.T.);
#376=EDGE_CURVE('',#313,#291,#151,.T.);
#377=EDGE_CURVE('',#296,#313,#152,.T.);
#378=EDGE_CURVE('',#305,#295,#153,.T.);
#379=EDGE_CURVE('',#313,#308,#154,.T.);
#380=EDGE_CURVE('',#301,#314,#155,.T.);
#381=EDGE_CURVE('',#315,#314,#156,.T.);
#382=EDGE_CURVE('',#303,#315,#157,.T.);
#383=EDGE_CURVE('',#316,#315,#274,.T.);
#384=EDGE_CURVE('',#304,#316,#158,.T.);
#385=EDGE_CURVE('',#317,#316,#159,.T.);
#386=EDGE_CURVE('',#302,#317,#160,.T.);
#387=EDGE_CURVE('',#314,#317,#275,.T.);
#388=EDGE_CURVE('',#309,#318,#161,.T.);
#389=EDGE_CURVE('',#319,#318,#276,.T.);
#390=EDGE_CURVE('',#311,#319,#162,.T.);
#391=EDGE_CURVE('',#320,#319,#163,.T.);
#392=EDGE_CURVE('',#312,#320,#164,.T.);
#393=EDGE_CURVE('',#321,#320,#277,.T.);
#394=EDGE_CURVE('',#310,#321,#165,.T.);
#395=EDGE_CURVE('',#318,#321,#166,.T.);
#396=EDGE_CURVE('',#322,#323,#167,.T.);
#397=EDGE_CURVE('',#323,#324,#168,.T.);
#398=EDGE_CURVE('',#324,#325,#169,.T.);
#399=EDGE_CURVE('',#325,#322,#170,.T.);
#400=EDGE_CURVE('',#308,#326,#171,.T.);
#401=EDGE_CURVE('',#326,#327,#278,.T.);
#402=EDGE_CURVE('',#327,#297,#172,.T.);
#403=EDGE_CURVE('',#298,#328,#173,.T.);
#404=EDGE_CURVE('',#328,#329,#279,.T.);
#405=EDGE_CURVE('',#329,#305,#174,.T.);
#406=EDGE_CURVE('',#330,#331,#175,.T.);
#407=EDGE_CURVE('',#331,#326,#176,.T.);
#408=EDGE_CURVE('',#330,#307,#177,.T.);
#409=EDGE_CURVE('',#332,#330,#280,.T.);
#410=EDGE_CURVE('',#332,#306,#178,.T.);
#411=EDGE_CURVE('',#333,#332,#179,.T.);
#412=EDGE_CURVE('',#333,#329,#180,.T.);
#413=EDGE_CURVE('',#334,#333,#281,.T.);
#414=EDGE_CURVE('',#334,#328,#181,.T.);
#415=EDGE_CURVE('',#335,#334,#182,.T.);
#416=EDGE_CURVE('',#335,#299,#183,.T.);
#417=EDGE_CURVE('',#336,#335,#282,.T.);
#418=EDGE_CURVE('',#336,#300,#184,.T.);
#419=EDGE_CURVE('',#337,#336,#185,.T.);
#420=EDGE_CURVE('',#337,#327,#186,.T.);
#421=EDGE_CURVE('',#331,#337,#283,.T.);
#422=EDGE_CURVE('',#338,#339,#187,.T.);
#423=EDGE_CURVE('',#339,#323,#188,.T.);
#424=EDGE_CURVE('',#338,#322,#189,.T.);
#425=EDGE_CURVE('',#340,#338,#190,.T.);
#426=EDGE_CURVE('',#340,#325,#191,.T.);
#427=EDGE_CURVE('',#341,#340,#192,.T.);
#428=EDGE_CURVE('',#341,#324,#193,.T.);
#429=EDGE_CURVE('',#339,#341,#194,.T.);
#430=EDGE_CURVE('',#287,#342,#195,.T.);
#431=EDGE_CURVE('',#342,#342,#284,.T.);
#432=ORIENTED_EDGE('',*,*,#343,.F.);
#433=ORIENTED_EDGE('',*,*,#344,.T.);
#434=ORIENTED_EDGE('',*,*,#345,.F.);
#435=ORIENTED_EDGE('',*,*,#344,.F.);
#436=ORIENTED_EDGE('',*,*,#343,.T.);
#437=ORIENTED_EDGE('',*,*,#346,.F.);
#438=ORIENTED_EDGE('',*,*,#347,.F.);
#439=ORIENTED_EDGE('',*,*,#348,.T.);
#440=ORIENTED_EDGE('',*,*,#349,.F.);
#441=ORIENTED_EDGE('',*,*,#348,.F.);
#442=ORIENTED_EDGE('',*,*,#350,.F.);
#443=ORIENTED_EDGE('',*,*,#351,.F.);
#444=ORIENTED_EDGE('',*,*,#352,.F.);
#445=ORIENTED_EDGE('',*,*,#353,.F.);
#446=ORIENTED_EDGE('',*,*,#347,.T.);
#447=ORIENTED_EDGE('',*,*,#352,.T.);
#448=ORIENTED_EDGE('',*,*,#354,.F.);
#449=ORIENTED_EDGE('',*,*,#355,.F.);
#450=ORIENTED_EDGE('',*,*,#356,.T.);
#451=ORIENTED_EDGE('',*,*,#351,.T.);
#452=ORIENTED_EDGE('',*,*,#357,.F.);
#453=ORIENTED_EDGE('',*,*,#358,.F.);
#454=ORIENTED_EDGE('',*,*,#359,.T.);
#455=ORIENTED_EDGE('',*,*,#360,.F.);
#456=ORIENTED_EDGE('',*,*,#354,.T.);
#457=ORIENTED_EDGE('',*,*,#361,.T.);
#458=ORIENTED_EDGE('',*,*,#359,.F.);
#459=ORIENTED_EDGE('',*,*,#362,.T.);
#460=ORIENTED_EDGE('',*,*,#363,.T.);
#461=ORIENTED_EDGE('',*,*,#364,.F.);
#462=ORIENTED_EDGE('',*,*,#365,.F.);
#463=ORIENTED_EDGE('',*,*,#366,.F.);
#464=ORIENTED_EDGE('',*,*,#367,.F.);
#465=ORIENTED_EDGE('',*,*,#368,.T.);
#466=ORIENTED_EDGE('',*,*,#369,.T.);
#467=ORIENTED_EDGE('',*,*,#370,.T.);
#468=ORIENTED_EDGE('',*,*,#371,.F.);
#469=ORIENTED_EDGE('',*,*,#372,.F.);
#470=ORIENTED_EDGE('',*,*,#373,.F.);
#471=ORIENTED_EDGE('',*,*,#374,.F.);
#472=ORIENTED_EDGE('',*,*,#375,.F.);
#473=ORIENTED_EDGE('',*,*,#350,.T.);
#474=ORIENTED_EDGE('',*,*,#376,.F.);
#475=ORIENTED_EDGE('',*,*,#377,.F.);
#476=ORIENTED_EDGE('',*,*,#357,.T.);
#477=ORIENTED_EDGE('',*,*,#353,.T.);
#478=ORIENTED_EDGE('',*,*,#356,.F.);
#479=ORIENTED_EDGE('',*,*,#378,.F.);
#480=ORIENTED_EDGE('',*,*,#371,.T.);
#481=ORIENTED_EDGE('',*,*,#379,.F.);
#482=ORIENTED_EDGE('',*,*,#376,.T.);
#483=ORIENTED_EDGE('',*,*,#365,.T.);
#484=ORIENTED_EDGE('',*,*,#380,.T.);
#485=ORIENTED_EDGE('',*,*,#381,.F.);
#486=ORIENTED_EDGE('',*,*,#382,.F.);
#487=ORIENTED_EDGE('',*,*,#366,.T.);
#488=ORIENTED_EDGE('',*,*,#382,.T.);
#489=ORIENTED_EDGE('',*,*,#383,.F.);
#490=ORIENTED_EDGE('',*,*,#384,.F.);
#491=ORIENTED_EDGE('',*,*,#367,.T.);
#492=ORIENTED_EDGE('',*,*,#384,.T.);
#493=ORIENTED_EDGE('',*,*,#385,.F.);
#494=ORIENTED_EDGE('',*,*,#386,.F.);
#495=ORIENTED_EDGE('',*,*,#364,.T.);
#496=ORIENTED_EDGE('',*,*,#386,.T.);
#497=ORIENTED_EDGE('',*,*,#387,.F.);
#498=ORIENTED_EDGE('',*,*,#380,.F.);
#499=ORIENTED_EDGE('',*,*,#373,.T.);
#500=ORIENTED_EDGE('',*,*,#388,.T.);
#501=ORIENTED_EDGE('',*,*,#389,.F.);
#502=ORIENTED_EDGE('',*,*,#390,.F.);
#503=ORIENTED_EDGE('',*,*,#374,.T.);
#504=ORIENTED_EDGE('',*,*,#390,.T.);
#505=ORIENTED_EDGE('',*,*,#391,.F.);
#506=ORIENTED_EDGE('',*,*,#392,.F.);
#507=ORIENTED_EDGE('',*,*,#375,.T.);
#508=ORIENTED_EDGE('',*,*,#392,.T.);
#509=ORIENTED_EDGE('',*,*,#393,.F.);
#510=ORIENTED_EDGE('',*,*,#394,.F.);
#511=ORIENTED_EDGE('',*,*,#372,.T.);
#512=ORIENTED_EDGE('',*,*,#394,.T.);
#513=ORIENTED_EDGE('',*,*,#395,.F.);
#514=ORIENTED_EDGE('',*,*,#388,.F.);
#515=ORIENTED_EDGE('',*,*,#345,.T.);
#516=ORIENTED_EDGE('',*,*,#396,.T.);
#517=ORIENTED_EDGE('',*,*,#397,.T.);
#518=ORIENTED_EDGE('',*,*,#398,.T.);
#519=ORIENTED_EDGE('',*,*,#399,.T.);
#520=ORIENTED_EDGE('',*,*,#349,.T.);
#521=ORIENTED_EDGE('',*,*,#395,.T.);
#522=ORIENTED_EDGE('',*,*,#393,.T.);
#523=ORIENTED_EDGE('',*,*,#391,.T.);
#524=ORIENTED_EDGE('',*,*,#389,.T.);
#525=ORIENTED_EDGE('',*,*,#387,.T.);
#526=ORIENTED_EDGE('',*,*,#385,.T.);
#527=ORIENTED_EDGE('',*,*,#383,.T.);
#528=ORIENTED_EDGE('',*,*,#381,.T.);
#529=ORIENTED_EDGE('',*,*,#379,.T.);
#530=ORIENTED_EDGE('',*,*,#400,.T.);
#531=ORIENTED_EDGE('',*,*,#401,.T.);
#532=ORIENTED_EDGE('',*,*,#402,.T.);
#533=ORIENTED_EDGE('',*,*,#358,.T.);
#534=ORIENTED_EDGE('',*,*,#377,.T.);
#535=ORIENTED_EDGE('',*,*,#378,.T.);
#536=ORIENTED_EDGE('',*,*,#355,.T.);
#537=ORIENTED_EDGE('',*,*,#360,.T.);
#538=ORIENTED_EDGE('',*,*,#403,.T.);
#539=ORIENTED_EDGE('',*,*,#404,.T.);
#540=ORIENTED_EDGE('',*,*,#405,.T.);
#541=ORIENTED_EDGE('',*,*,#406,.T.);
#542=ORIENTED_EDGE('',*,*,#407,.T.);
#543=ORIENTED_EDGE('',*,*,#400,.F.);
#544=ORIENTED_EDGE('',*,*,#370,.F.);
#545=ORIENTED_EDGE('',*,*,#408,.F.);
#546=ORIENTED_EDGE('',*,*,#409,.T.);
#547=ORIENTED_EDGE('',*,*,#408,.T.);
#548=ORIENTED_EDGE('',*,*,#369,.F.);
#549=ORIENTED_EDGE('',*,*,#410,.F.);
#550=ORIENTED_EDGE('',*,*,#411,.T.);
#551=ORIENTED_EDGE('',*,*,#410,.T.);
#552=ORIENTED_EDGE('',*,*,#368,.F.);
#553=ORIENTED_EDGE('',*,*,#405,.F.);
#554=ORIENTED_EDGE('',*,*,#412,.F.);
#555=ORIENTED_EDGE('',*,*,#413,.T.);
#556=ORIENTED_EDGE('',*,*,#412,.T.);
#557=ORIENTED_EDGE('',*,*,#404,.F.);
#558=ORIENTED_EDGE('',*,*,#414,.F.);
#559=ORIENTED_EDGE('',*,*,#415,.T.);
#560=ORIENTED_EDGE('',*,*,#414,.T.);
#561=ORIENTED_EDGE('',*,*,#403,.F.);
#562=ORIENTED_EDGE('',*,*,#361,.F.);
#563=ORIENTED_EDGE('',*,*,#416,.F.);
#564=ORIENTED_EDGE('',*,*,#417,.T.);
#565=ORIENTED_EDGE('',*,*,#416,.T.);
#566=ORIENTED_EDGE('',*,*,#363,.F.);
#567=ORIENTED_EDGE('',*,*,#418,.F.);
#568=ORIENTED_EDGE('',*,*,#419,.T.);
#569=ORIENTED_EDGE('',*,*,#418,.T.);
#570=ORIENTED_EDGE('',*,*,#362,.F.);
#571=ORIENTED_EDGE('',*,*,#402,.F.);
#572=ORIENTED_EDGE('',*,*,#420,.F.);
#573=ORIENTED_EDGE('',*,*,#421,.T.);
#574=ORIENTED_EDGE('',*,*,#420,.T.);
#575=ORIENTED_EDGE('',*,*,#401,.F.);
#576=ORIENTED_EDGE('',*,*,#407,.F.);
#577=ORIENTED_EDGE('',*,*,#422,.T.);
#578=ORIENTED_EDGE('',*,*,#423,.T.);
#579=ORIENTED_EDGE('',*,*,#396,.F.);
#580=ORIENTED_EDGE('',*,*,#424,.F.);
#581=ORIENTED_EDGE('',*,*,#425,.T.);
#582=ORIENTED_EDGE('',*,*,#424,.T.);
#583=ORIENTED_EDGE('',*,*,#399,.F.);
#584=ORIENTED_EDGE('',*,*,#426,.F.);
#585=ORIENTED_EDGE('',*,*,#427,.T.);
#586=ORIENTED_EDGE('',*,*,#426,.T.);
#587=ORIENTED_EDGE('',*,*,#398,.F.);
#588=ORIENTED_EDGE('',*,*,#428,.F.);
#589=ORIENTED_EDGE('',*,*,#429,.T.);
#590=ORIENTED_EDGE('',*,*,#428,.T.);
#591=ORIENTED_EDGE('',*,*,#397,.F.);
#592=ORIENTED_EDGE('',*,*,#423,.F.);
#593=ORIENTED_EDGE('',*,*,#346,.T.);
#594=ORIENTED_EDGE('',*,*,#430,.T.);
#595=ORIENTED_EDGE('',*,*,#431,.T.);
#596=ORIENTED_EDGE('',*,*,#430,.F.);
#597=ORIENTED_EDGE('',*,*,#431,.F.);
#598=ORIENTED_EDGE('',*,*,#429,.F.);
#599=ORIENTED_EDGE('',*,*,#422,.F.);
#600=ORIENTED_EDGE('',*,*,#425,.F.);
#601=ORIENTED_EDGE('',*,*,#427,.F.);
#602=ORIENTED_EDGE('',*,*,#421,.F.);
#603=ORIENTED_EDGE('',*,*,#406,.F.);
#604=ORIENTED_EDGE('',*,*,#409,.F.);
#605=ORIENTED_EDGE('',*,*,#411,.F.);
#606=ORIENTED_EDGE('',*,*,#413,.F.);
#607=ORIENTED_EDGE('',*,*,#415,.F.);
#608=ORIENTED_EDGE('',*,*,#417,.F.);
#609=ORIENTED_EDGE('',*,*,#419,.F.);
#610=CYLINDRICAL_SURFACE('',#679,33.);
#611=CYLINDRICAL_SURFACE('',#684,2.5);
#612=CYLINDRICAL_SURFACE('',#701,1.15);
#613=CYLINDRICAL_SURFACE('',#704,1.15);
#614=CYLINDRICAL_SURFACE('',#706,1.15);
#615=CYLINDRICAL_SURFACE('',#709,1.15);
#616=CYLINDRICAL_SURFACE('',#718,2.25);
#617=CYLINDRICAL_SURFACE('',#721,3.75);
#618=CYLINDRICAL_SURFACE('',#724,2.25);
#619=CYLINDRICAL_SURFACE('',#727,3.75);
#620=CYLINDRICAL_SURFACE('',#733,29.);
#621=ADVANCED_FACE('',(#49),#610,.T.);
#622=ADVANCED_FACE('',(#50,#15),#25,.F.);
#623=ADVANCED_FACE('',(#51),#611,.F.);
#624=ADVANCED_FACE('',(#52,#16),#26,.F.);
#625=ADVANCED_FACE('',(#53),#27,.T.);
#626=ADVANCED_FACE('',(#54),#28,.T.);
#627=ADVANCED_FACE('',(#55,#17),#29,.F.);
#628=ADVANCED_FACE('',(#56,#18),#30,.F.);
#629=ADVANCED_FACE('',(#57),#31,.T.);
#630=ADVANCED_FACE('',(#58),#32,.T.);
#631=ADVANCED_FACE('',(#59),#33,.T.);
#632=ADVANCED_FACE('',(#60),#612,.F.);
#633=ADVANCED_FACE('',(#61),#34,.T.);
#634=ADVANCED_FACE('',(#62),#613,.F.);
#635=ADVANCED_FACE('',(#63),#614,.F.);
#636=ADVANCED_FACE('',(#64),#35,.T.);
#637=ADVANCED_FACE('',(#65),#615,.F.);
#638=ADVANCED_FACE('',(#66),#36,.T.);
#639=ADVANCED_FACE('',(#67,#19,#20,#21,#22),#37,.T.);
#640=ADVANCED_FACE('',(#68),#38,.T.);
#641=ADVANCED_FACE('',(#69),#39,.T.);
#642=ADVANCED_FACE('',(#70),#40,.T.);
#643=ADVANCED_FACE('',(#71),#616,.F.);
#644=ADVANCED_FACE('',(#72),#41,.T.);
#645=ADVANCED_FACE('',(#73),#617,.F.);
#646=ADVANCED_FACE('',(#74),#42,.T.);
#647=ADVANCED_FACE('',(#75),#618,.F.);
#648=ADVANCED_FACE('',(#76),#43,.T.);
#649=ADVANCED_FACE('',(#77),#619,.F.);
#650=ADVANCED_FACE('',(#78),#44,.T.);
#651=ADVANCED_FACE('',(#79),#45,.T.);
#652=ADVANCED_FACE('',(#80),#46,.T.);
#653=ADVANCED_FACE('',(#81),#47,.T.);
#654=ADVANCED_FACE('',(#82),#620,.T.);
#655=ADVANCED_FACE('',(#83,#23,#24),#48,.F.);
#656=CLOSED_SHELL('',(#621,#622,#623,#624,#625,#626,#627,#628,#629,#630,
#631,#632,#633,#634,#635,#636,#637,#638,#639,#640,#641,#642,#643,#644,#645,
#646,#647,#648,#649,#650,#651,#652,#653,#654,#655));
#657=DERIVED_UNIT_ELEMENT(#660,1.);
#658=DERIVED_UNIT_ELEMENT(#1107,-3.);
#659=DIMENSIONAL_EXPONENTS(0.,1.,0.,0.,0.,0.,0.);
#660=(
CONVERSION_BASED_UNIT('gram',#662)
MASS_UNIT()
NAMED_UNIT(#659)
);
#661=(
MASS_UNIT()
NAMED_UNIT(*)
SI_UNIT(.KILO.,.GRAM.)
);
#662=MASS_MEASURE_WITH_UNIT(MASS_MEASURE(0.001),#661);
#663=DERIVED_UNIT((#657,#658));
#664=MEASURE_REPRESENTATION_ITEM('density measure',
POSITIVE_RATIO_MEASURE(1.),#663);
#665=PROPERTY_DEFINITION_REPRESENTATION(#670,#667);
#666=PROPERTY_DEFINITION_REPRESENTATION(#671,#668);
#667=REPRESENTATION('material name',(#669),#1104);
#668=REPRESENTATION('density',(#664),#1104);
#669=DESCRIPTIVE_REPRESENTATION_ITEM('Generisch','Generisch');
#670=PROPERTY_DEFINITION('material property','material name',#1114);
#671=PROPERTY_DEFINITION('material property','density of part',#1114);
#672=DATE_TIME_ROLE('creation_date');
#673=APPLIED_DATE_AND_TIME_ASSIGNMENT(#674,#672,(#1114));
#674=DATE_AND_TIME(#675,#676);
#675=CALENDAR_DATE(2026,31,3);
#676=LOCAL_TIME(0,0,0.,#677);
#677=COORDINATED_UNIVERSAL_TIME_OFFSET(0,0,.BEHIND.);
#678=AXIS2_PLACEMENT_3D('',#919,#736,#737);
#679=AXIS2_PLACEMENT_3D('',#920,#738,#739);
#680=AXIS2_PLACEMENT_3D('',#922,#740,#741);
#681=AXIS2_PLACEMENT_3D('',#925,#743,#744);
#682=AXIS2_PLACEMENT_3D('',#926,#745,#746);
#683=AXIS2_PLACEMENT_3D('',#928,#747,#748);
#684=AXIS2_PLACEMENT_3D('',#929,#749,#750);
#685=AXIS2_PLACEMENT_3D('',#931,#751,#752);
#686=AXIS2_PLACEMENT_3D('',#934,#754,#755);
#687=AXIS2_PLACEMENT_3D('',#935,#756,#757);
#688=AXIS2_PLACEMENT_3D('',#944,#762,#763);
#689=AXIS2_PLACEMENT_3D('',#950,#767,#768);
#690=AXIS2_PLACEMENT_3D('',#958,#773,#774);
#691=AXIS2_PLACEMENT_3D('',#963,#777,#778);
#692=AXIS2_PLACEMENT_3D('',#966,#779,#780);
#693=AXIS2_PLACEMENT_3D('',#970,#782,#783);
#694=AXIS2_PLACEMENT_3D('',#972,#785,#786);
#695=AXIS2_PLACEMENT_3D('',#977,#788,#789);
#696=AXIS2_PLACEMENT_3D('',#985,#793,#794);
#697=AXIS2_PLACEMENT_3D('',#988,#796,#797);
#698=AXIS2_PLACEMENT_3D('',#989,#798,#799);
#699=AXIS2_PLACEMENT_3D('',#993,#802,#803);
#700=AXIS2_PLACEMENT_3D('',#996,#806,#807);
#701=AXIS2_PLACEMENT_3D('',#1002,#811,#812);
#702=AXIS2_PLACEMENT_3D('',#1004,#813,#814);
#703=AXIS2_PLACEMENT_3D('',#1006,#816,#817);
#704=AXIS2_PLACEMENT_3D('',#1010,#820,#821);
#705=AXIS2_PLACEMENT_3D('',#1011,#822,#823);
#706=AXIS2_PLACEMENT_3D('',#1012,#824,#825);
#707=AXIS2_PLACEMENT_3D('',#1016,#827,#828);
#708=AXIS2_PLACEMENT_3D('',#1018,#830,#831);
#709=AXIS2_PLACEMENT_3D('',#1022,#834,#835);
#710=AXIS2_PLACEMENT_3D('',#1024,#836,#837);
#711=AXIS2_PLACEMENT_3D('',#1026,#839,#840);
#712=AXIS2_PLACEMENT_3D('',#1028,#842,#843);
#713=AXIS2_PLACEMENT_3D('',#1037,#848,#849);
#714=AXIS2_PLACEMENT_3D('',#1041,#851,#852);
#715=AXIS2_PLACEMENT_3D('',#1043,#854,#855);
#716=AXIS2_PLACEMENT_3D('',#1047,#857,#858);
#717=AXIS2_PLACEMENT_3D('',#1049,#860,#861);
#718=AXIS2_PLACEMENT_3D('',#1055,#865,#866);
#719=AXIS2_PLACEMENT_3D('',#1057,#867,#868);
#720=AXIS2_PLACEMENT_3D('',#1059,#870,#871);
#721=AXIS2_PLACEMENT_3D('',#1063,#874,#875);
#722=AXIS2_PLACEMENT_3D('',#1065,#876,#877);
#723=AXIS2_PLACEMENT_3D('',#1067,#879,#880);
#724=AXIS2_PLACEMENT_3D('',#1071,#883,#884);
#725=AXIS2_PLACEMENT_3D('',#1073,#885,#886);
#726=AXIS2_PLACEMENT_3D('',#1075,#888,#889);
#727=AXIS2_PLACEMENT_3D('',#1079,#892,#893);
#728=AXIS2_PLACEMENT_3D('',#1080,#894,#895);
#729=AXIS2_PLACEMENT_3D('',#1081,#896,#897);
#730=AXIS2_PLACEMENT_3D('',#1087,#901,#902);
#731=AXIS2_PLACEMENT_3D('',#1091,#905,#906);
#732=AXIS2_PLACEMENT_3D('',#1095,#909,#910);
#733=AXIS2_PLACEMENT_3D('',#1097,#912,#913);
#734=AXIS2_PLACEMENT_3D('',#1100,#915,#916);
#735=AXIS2_PLACEMENT_3D('',#1101,#917,#918);
#736=DIRECTION('axis',(0.,0.,1.));
#737=DIRECTION('refdir',(1.,0.,0.));
#738=DIRECTION('center_axis',(0.,0.,-1.));
#739=DIRECTION('ref_axis',(1.,0.,0.));
#740=DIRECTION('center_axis',(0.,0.,-1.));
#741=DIRECTION('ref_axis',(1.,0.,0.));
#742=DIRECTION('',(0.,0.,1.));
#743=DIRECTION('center_axis',(0.,0.,1.));
#744=DIRECTION('ref_axis',(1.,0.,0.));
#745=DIRECTION('center_axis',(0.,0.,1.));
#746=DIRECTION('ref_axis',(1.,0.,0.));
#747=DIRECTION('center_axis',(0.,0.,-1.));
#748=DIRECTION('ref_axis',(1.,0.,0.));
#749=DIRECTION('center_axis',(0.,0.,-1.));
#750=DIRECTION('ref_axis',(-1.,0.,0.));
#751=DIRECTION('center_axis',(0.,0.,1.));
#752=DIRECTION('ref_axis',(-1.,0.,0.));
#753=DIRECTION('',(0.,0.,1.));
#754=DIRECTION('center_axis',(0.,0.,-1.));
#755=DIRECTION('ref_axis',(-1.,0.,0.));
#756=DIRECTION('center_axis',(0.,0.,1.));
#757=DIRECTION('ref_axis',(1.,0.,0.));
#758=DIRECTION('',(1.,0.,0.));
#759=DIRECTION('',(0.,-1.,0.));
#760=DIRECTION('',(-1.,0.,0.));
#761=DIRECTION('',(0.,1.,0.));
#762=DIRECTION('center_axis',(0.,-1.,0.));
#763=DIRECTION('ref_axis',(1.,0.,0.));
#764=DIRECTION('',(0.,0.,1.));
#765=DIRECTION('',(-1.,0.,0.));
#766=DIRECTION('',(0.,0.,1.));
#767=DIRECTION('center_axis',(1.,0.,0.));
#768=DIRECTION('ref_axis',(0.,1.,0.));
#769=DIRECTION('',(0.,0.,1.));
#770=DIRECTION('',(0.,-1.,0.));
#771=DIRECTION('',(0.,1.,0.));
#772=DIRECTION('',(0.,-1.,0.));
#773=DIRECTION('center_axis',(0.,0.,1.));
#774=DIRECTION('ref_axis',(1.,0.,0.));
#775=DIRECTION('',(0.995766679017971,0.0919169242170435,0.));
#776=DIRECTION('',(-0.995766679017971,0.0919169242170435,0.));
#777=DIRECTION('center_axis',(0.,0.,-1.));
#778=DIRECTION('ref_axis',(0.,-1.,0.));
#779=DIRECTION('center_axis',(0.,0.,-1.));
#780=DIRECTION('ref_axis',(0.,-1.,0.));
#781=DIRECTION('',(-1.,0.,0.));
#782=DIRECTION('center_axis',(0.,0.,-1.));
#783=DIRECTION('ref_axis',(0.,1.,0.));
#784=DIRECTION('',(1.,0.,0.));
#785=DIRECTION('center_axis',(0.,0.,1.));
#786=DIRECTION('ref_axis',(1.,0.,0.));
#787=DIRECTION('',(0.995766679017971,-0.0919169242170435,0.));
#788=DIRECTION('center_axis',(0.,0.,-1.));
#789=DIRECTION('ref_axis',(0.,1.,0.));
#790=DIRECTION('',(-0.995766679017971,-0.0919169242170435,0.));
#791=DIRECTION('',(0.,-1.,0.));
#792=DIRECTION('',(-1.,0.,0.));
#793=DIRECTION('center_axis',(0.,0.,-1.));
#794=DIRECTION('ref_axis',(0.,1.,0.));
#795=DIRECTION('',(1.,0.,0.));
#796=DIRECTION('center_axis',(0.,0.,-1.));
#797=DIRECTION('ref_axis',(0.,-1.,0.));
#798=DIRECTION('center_axis',(0.,1.,0.));
#799=DIRECTION('ref_axis',(-1.,0.,0.));
#800=DIRECTION('',(0.,0.,1.));
#801=DIRECTION('',(1.,0.,0.));
#802=DIRECTION('center_axis',(-1.,0.,0.));
#803=DIRECTION('ref_axis',(0.,-1.,0.));
#804=DIRECTION('',(0.,1.,0.));
#805=DIRECTION('',(0.,1.,0.));
#806=DIRECTION('center_axis',(0.,1.,0.));
#807=DIRECTION('ref_axis',(-1.,0.,0.));
#808=DIRECTION('',(0.,0.,1.));
#809=DIRECTION('',(-1.,0.,0.));
#810=DIRECTION('',(0.,0.,1.));
#811=DIRECTION('center_axis',(0.,0.,1.));
#812=DIRECTION('ref_axis',(0.,1.,0.));
#813=DIRECTION('center_axis',(0.,0.,-1.));
#814=DIRECTION('ref_axis',(0.,1.,0.));
#815=DIRECTION('',(0.,0.,1.));
#816=DIRECTION('center_axis',(0.,-1.,0.));
#817=DIRECTION('ref_axis',(1.,0.,0.));
#818=DIRECTION('',(1.,0.,0.));
#819=DIRECTION('',(0.,0.,1.));
#820=DIRECTION('center_axis',(0.,0.,1.));
#821=DIRECTION('ref_axis',(0.,-1.,0.));
#822=DIRECTION('center_axis',(0.,0.,-1.));
#823=DIRECTION('ref_axis',(0.,-1.,0.));
#824=DIRECTION('center_axis',(0.,0.,1.));
#825=DIRECTION('ref_axis',(0.,1.,0.));
#826=DIRECTION('',(0.,0.,1.));
#827=DIRECTION('center_axis',(0.,0.,-1.));
#828=DIRECTION('ref_axis',(0.,1.,0.));
#829=DIRECTION('',(0.,0.,1.));
#830=DIRECTION('center_axis',(0.,-1.,0.));
#831=DIRECTION('ref_axis',(1.,0.,0.));
#832=DIRECTION('',(1.,0.,0.));
#833=DIRECTION('',(0.,0.,1.));
#834=DIRECTION('center_axis',(0.,0.,1.));
#835=DIRECTION('ref_axis',(0.,-1.,0.));
#836=DIRECTION('center_axis',(0.,0.,-1.));
#837=DIRECTION('ref_axis',(0.,-1.,0.));
#838=DIRECTION('',(0.,0.,1.));
#839=DIRECTION('center_axis',(0.,1.,0.));
#840=DIRECTION('ref_axis',(-1.,0.,0.));
#841=DIRECTION('',(-1.,0.,0.));
#842=DIRECTION('center_axis',(0.,0.,1.));
#843=DIRECTION('ref_axis',(1.,0.,0.));
#844=DIRECTION('',(0.,1.,0.));
#845=DIRECTION('',(1.,0.,0.));
#846=DIRECTION('',(8.10619929512201E-17,-1.,0.));
#847=DIRECTION('',(-1.,0.,0.));
#848=DIRECTION('center_axis',(0.,0.,1.));
#849=DIRECTION('ref_axis',(1.,0.,0.));
#850=DIRECTION('',(-0.995766679017971,-0.0919169242170435,0.));
#851=DIRECTION('center_axis',(0.,0.,-1.));
#852=DIRECTION('ref_axis',(-1.,0.,0.));
#853=DIRECTION('',(-0.995766679017971,0.0919169242170435,0.));
#854=DIRECTION('center_axis',(0.,0.,1.));
#855=DIRECTION('ref_axis',(1.,0.,0.));
#856=DIRECTION('',(0.995766679017971,0.0919169242170435,0.));
#857=DIRECTION('center_axis',(0.,0.,-1.));
#858=DIRECTION('ref_axis',(-1.,0.,0.));
#859=DIRECTION('',(0.995766679017971,-0.0919169242170435,0.));
#860=DIRECTION('center_axis',(-0.0919169242170435,0.995766679017971,0.));
#861=DIRECTION('ref_axis',(-0.995766679017971,-0.0919169242170435,0.));
#862=DIRECTION('',(-0.995766679017971,-0.0919169242170435,0.));
#863=DIRECTION('',(0.,0.,1.));
#864=DIRECTION('',(0.,0.,1.));
#865=DIRECTION('center_axis',(0.,0.,1.));
#866=DIRECTION('ref_axis',(0.,1.,0.));
#867=DIRECTION('center_axis',(0.,0.,-1.));
#868=DIRECTION('ref_axis',(0.,1.,0.));
#869=DIRECTION('',(0.,0.,1.));
#870=DIRECTION('center_axis',(-0.0919169242170435,-0.995766679017971,0.));
#871=DIRECTION('ref_axis',(0.995766679017971,-0.0919169242170435,0.));
#872=DIRECTION('',(0.995766679017971,-0.0919169242170435,0.));
#873=DIRECTION('',(0.,0.,1.));
#874=DIRECTION('center_axis',(0.,0.,1.));
#875=DIRECTION('ref_axis',(-1.,0.,0.));
#876=DIRECTION('center_axis',(0.,0.,-1.));
#877=DIRECTION('ref_axis',(-1.,0.,0.));
#878=DIRECTION('',(0.,0.,1.));
#879=DIRECTION('center_axis',(0.0919169242170435,-0.995766679017971,0.));
#880=DIRECTION('ref_axis',(0.995766679017971,0.0919169242170435,0.));
#881=DIRECTION('',(0.995766679017971,0.0919169242170435,0.));
#882=DIRECTION('',(0.,0.,1.));
#883=DIRECTION('center_axis',(0.,0.,1.));
#884=DIRECTION('ref_axis',(0.,-1.,0.));
#885=DIRECTION('center_axis',(0.,0.,-1.));
#886=DIRECTION('ref_axis',(0.,-1.,0.));
#887=DIRECTION('',(0.,0.,1.));
#888=DIRECTION('center_axis',(0.0919169242170435,0.995766679017971,0.));
#889=DIRECTION('ref_axis',(-0.995766679017971,0.0919169242170435,0.));
#890=DIRECTION('',(-0.995766679017971,0.0919169242170435,0.));
#891=DIRECTION('',(0.,0.,1.));
#892=DIRECTION('center_axis',(0.,0.,1.));
#893=DIRECTION('ref_axis',(-1.,0.,0.));
#894=DIRECTION('center_axis',(0.,0.,-1.));
#895=DIRECTION('ref_axis',(-1.,0.,0.));
#896=DIRECTION('center_axis',(1.,-6.6511056774779E-17,0.));
#897=DIRECTION('ref_axis',(6.6511056774779E-17,1.,0.));
#898=DIRECTION('',(6.6511056774779E-17,1.,0.));
#899=DIRECTION('',(0.,0.,1.));
#900=DIRECTION('',(0.,0.,1.));
#901=DIRECTION('center_axis',(0.,1.,0.));
#902=DIRECTION('ref_axis',(-1.,0.,0.));
#903=DIRECTION('',(-1.,0.,0.));
#904=DIRECTION('',(0.,0.,1.));
#905=DIRECTION('center_axis',(-1.,0.,0.));
#906=DIRECTION('ref_axis',(0.,-1.,0.));
#907=DIRECTION('',(0.,-1.,0.));
#908=DIRECTION('',(0.,0.,1.));
#909=DIRECTION('center_axis',(0.,-1.,0.));
#910=DIRECTION('ref_axis',(1.,0.,0.));
#911=DIRECTION('',(1.,0.,0.));
#912=DIRECTION('center_axis',(0.,0.,1.));
#913=DIRECTION('ref_axis',(1.,0.,0.));
#914=DIRECTION('',(0.,0.,-1.));
#915=DIRECTION('center_axis',(0.,0.,1.));
#916=DIRECTION('ref_axis',(1.,0.,0.));
#917=DIRECTION('center_axis',(0.,0.,1.));
#918=DIRECTION('ref_axis',(1.,0.,0.));
#919=CARTESIAN_POINT('',(0.,0.,0.));
#920=CARTESIAN_POINT('Origin',(0.,0.,7.));
#921=CARTESIAN_POINT('',(-33.,4.04133443718627E-15,2.));
#922=CARTESIAN_POINT('Origin',(0.,0.,2.));
#923=CARTESIAN_POINT('',(-33.,4.04133443718627E-15,7.));
#924=CARTESIAN_POINT('',(-33.,4.04133443718627E-15,7.));
#925=CARTESIAN_POINT('Origin',(0.,0.,7.));
#926=CARTESIAN_POINT('Origin',(0.,0.,2.));
#927=CARTESIAN_POINT('',(-29.,-3.55147571752732E-15,2.));
#928=CARTESIAN_POINT('Origin',(0.,0.,2.));
#929=CARTESIAN_POINT('Origin',(0.,0.,7.));
#930=CARTESIAN_POINT('',(2.5,5.55111512312578E-16,5.));
#931=CARTESIAN_POINT('Origin',(0.,0.,5.));
#932=CARTESIAN_POINT('',(2.5,3.06161699786838E-16,7.));
#933=CARTESIAN_POINT('',(2.5,-3.06161699786838E-16,7.));
#934=CARTESIAN_POINT('Origin',(0.,0.,7.));
#935=CARTESIAN_POINT('Origin',(0.,0.,5.));
#936=CARTESIAN_POINT('',(-3.9,-4.,5.));
#937=CARTESIAN_POINT('',(3.9,-4.,5.));
#938=CARTESIAN_POINT('',(1.95,-4.,5.));
#939=CARTESIAN_POINT('',(-3.9,4.,5.));
#940=CARTESIAN_POINT('',(-3.9,-2.,5.));
#941=CARTESIAN_POINT('',(3.9,4.,5.));
#942=CARTESIAN_POINT('',(-1.95,4.,5.));
#943=CARTESIAN_POINT('',(3.9,2.,5.));
#944=CARTESIAN_POINT('Origin',(-3.9,4.,4.));
#945=CARTESIAN_POINT('',(-3.9,4.,4.));
#946=CARTESIAN_POINT('',(-3.9,4.,4.));
#947=CARTESIAN_POINT('',(3.9,4.,4.));
#948=CARTESIAN_POINT('',(-1.95,4.,4.));
#949=CARTESIAN_POINT('',(3.9,4.,4.));
#950=CARTESIAN_POINT('Origin',(-3.9,-4.,4.));
#951=CARTESIAN_POINT('',(-3.9,-4.,4.));
#952=CARTESIAN_POINT('',(-3.9,-4.,4.));
#953=CARTESIAN_POINT('',(-3.9,-3.38633274516761,4.));
#954=CARTESIAN_POINT('',(-3.9,-2.,4.));
#955=CARTESIAN_POINT('',(-3.9,3.38633274516762,4.));
#956=CARTESIAN_POINT('',(-3.9,-4.,4.));
#957=CARTESIAN_POINT('',(-3.9,-2.,4.));
#958=CARTESIAN_POINT('Origin',(0.,0.,4.));
#959=CARTESIAN_POINT('',(-16.2102714059825,2.25,4.));
#960=CARTESIAN_POINT('',(-16.2102714059825,2.25,4.));
#961=CARTESIAN_POINT('',(-16.2102714059825,-2.25,4.));
#962=CARTESIAN_POINT('',(0.0397285940175185,-3.75,4.));
#963=CARTESIAN_POINT('Origin',(-16.2102714059825,0.,4.));
#964=CARTESIAN_POINT('',(-12.1602714059825,-1.15,4.));
#965=CARTESIAN_POINT('',(-12.1602714059825,1.15,4.));
#966=CARTESIAN_POINT('Origin',(-12.1602714059825,0.,4.));
#967=CARTESIAN_POINT('',(-9.86027140598248,-1.15,4.));
#968=CARTESIAN_POINT('',(-9.86027140598248,-1.15,4.));
#969=CARTESIAN_POINT('',(-9.86027140598248,1.15,4.));
#970=CARTESIAN_POINT('Origin',(-9.86027140598248,0.,4.));
#971=CARTESIAN_POINT('',(-12.1602714059825,1.15,4.));
#972=CARTESIAN_POINT('Origin',(0.,0.,4.));
#973=CARTESIAN_POINT('',(3.9,3.39,4.));
#974=CARTESIAN_POINT('',(16.25,2.25,4.));
#975=CARTESIAN_POINT('',(0.,3.75,4.));
#976=CARTESIAN_POINT('',(16.25,-2.25,4.));
#977=CARTESIAN_POINT('Origin',(16.25,0.,4.));
#978=CARTESIAN_POINT('',(3.9,-3.39,4.));
#979=CARTESIAN_POINT('',(16.25,-2.25,4.));
#980=CARTESIAN_POINT('',(3.9,4.,4.));
#981=CARTESIAN_POINT('',(12.1602714059825,-1.15,4.));
#982=CARTESIAN_POINT('',(9.86027140598248,-1.15,4.));
#983=CARTESIAN_POINT('',(12.1602714059825,-1.15,4.));
#984=CARTESIAN_POINT('',(12.1602714059825,1.15,4.));
#985=CARTESIAN_POINT('Origin',(12.1602714059825,0.,4.));
#986=CARTESIAN_POINT('',(9.86027140598248,1.15,4.));
#987=CARTESIAN_POINT('',(9.86027140598248,1.15,4.));
#988=CARTESIAN_POINT('Origin',(9.86027140598248,0.,4.));
#989=CARTESIAN_POINT('Origin',(3.9,-4.,4.));
#990=CARTESIAN_POINT('',(3.9,-4.,4.));
#991=CARTESIAN_POINT('',(3.9,-4.,4.));
#992=CARTESIAN_POINT('',(1.95,-4.,4.));
#993=CARTESIAN_POINT('Origin',(3.9,4.,4.));
#994=CARTESIAN_POINT('',(3.9,2.,4.));
#995=CARTESIAN_POINT('',(3.9,2.,4.));
#996=CARTESIAN_POINT('Origin',(-9.86027140598248,-1.15,4.));
#997=CARTESIAN_POINT('',(-12.1602714059825,-1.15,7.));
#998=CARTESIAN_POINT('',(-12.1602714059825,-1.15,4.));
#999=CARTESIAN_POINT('',(-9.86027140598248,-1.15,7.));
#1000=CARTESIAN_POINT('',(-9.86027140598248,-1.15,7.));
#1001=CARTESIAN_POINT('',(-9.86027140598248,-1.15,4.));
#1002=CARTESIAN_POINT('Origin',(-9.86027140598248,0.,4.));
#1003=CARTESIAN_POINT('',(-9.86027140598248,1.15,7.));
#1004=CARTESIAN_POINT('Origin',(-9.86027140598248,0.,7.));
#1005=CARTESIAN_POINT('',(-9.86027140598248,1.15,4.));
#1006=CARTESIAN_POINT('Origin',(-12.1602714059825,1.15,4.));
#1007=CARTESIAN_POINT('',(-12.1602714059825,1.15,7.));
#1008=CARTESIAN_POINT('',(-12.1602714059825,1.15,7.));
#1009=CARTESIAN_POINT('',(-12.1602714059825,1.15,4.));
#1010=CARTESIAN_POINT('Origin',(-12.1602714059825,0.,4.));
#1011=CARTESIAN_POINT('Origin',(-12.1602714059825,0.,7.));
#1012=CARTESIAN_POINT('Origin',(12.1602714059825,0.,4.));
#1013=CARTESIAN_POINT('',(12.1602714059825,-1.15,7.));
#1014=CARTESIAN_POINT('',(12.1602714059825,-1.15,4.));
#1015=CARTESIAN_POINT('',(12.1602714059825,1.15,7.));
#1016=CARTESIAN_POINT('Origin',(12.1602714059825,0.,7.));
#1017=CARTESIAN_POINT('',(12.1602714059825,1.15,4.));
#1018=CARTESIAN_POINT('Origin',(9.86027140598248,1.15,4.));
#1019=CARTESIAN_POINT('',(9.86027140598248,1.15,7.));
#1020=CARTESIAN_POINT('',(9.86027140598248,1.15,7.));
#1021=CARTESIAN_POINT('',(9.86027140598248,1.15,4.));
#1022=CARTESIAN_POINT('Origin',(9.86027140598248,0.,4.));
#1023=CARTESIAN_POINT('',(9.86027140598248,-1.15,7.));
#1024=CARTESIAN_POINT('Origin',(9.86027140598248,0.,7.));
#1025=CARTESIAN_POINT('',(9.86027140598248,-1.15,4.));
#1026=CARTESIAN_POINT('Origin',(12.1602714059825,-1.15,4.));
#1027=CARTESIAN_POINT('',(12.1602714059825,-1.15,7.));
#1028=CARTESIAN_POINT('Origin',(0.,0.,7.));
#1029=CARTESIAN_POINT('',(-7.46027140598248,-19.75,7.));
#1030=CARTESIAN_POINT('',(-7.46027140598248,-6.05402505285992,7.));
#1031=CARTESIAN_POINT('',(-7.46027140598248,-3.02701252642996,7.));
#1032=CARTESIAN_POINT('',(7.53972859401752,-6.05402505285992,7.));
#1033=CARTESIAN_POINT('',(3.76986429700876,-6.05402505285992,7.));
#1034=CARTESIAN_POINT('',(7.53972859401752,-19.75,7.));
#1035=CARTESIAN_POINT('',(7.53972859401752,-9.875,7.));
#1036=CARTESIAN_POINT('',(-3.73013570299124,-19.75,7.));
#1037=CARTESIAN_POINT('Origin',(0.,0.,4.));
#1038=CARTESIAN_POINT('',(0.686458577798343,-3.68663459281864,4.));
#1039=CARTESIAN_POINT('',(16.25,-2.25,4.));
#1040=CARTESIAN_POINT('',(-0.723465232968343,-3.67955133904747,4.));
#1041=CARTESIAN_POINT('Origin',(0.,0.,4.));
#1042=CARTESIAN_POINT('',(0.0397285940175185,-3.75,4.));
#1043=CARTESIAN_POINT('Origin',(0.,0.,4.));
#1044=CARTESIAN_POINT('',(-0.723465232968277,3.67955133904749,4.));
#1045=CARTESIAN_POINT('',(-16.2102714059825,2.25,4.));
#1046=CARTESIAN_POINT('',(0.686458577798268,3.68663459281866,4.));
#1047=CARTESIAN_POINT('Origin',(0.,0.,4.));
#1048=CARTESIAN_POINT('',(0.,3.75,4.));
#1049=CARTESIAN_POINT('Origin',(16.25,-2.25,0.));
#1050=CARTESIAN_POINT('',(16.25,-2.25,0.));
#1051=CARTESIAN_POINT('',(0.686458577798342,-3.68663459281864,0.));
#1052=CARTESIAN_POINT('',(16.25,-2.25,0.));
#1053=CARTESIAN_POINT('',(0.686458577798342,-3.68663459281864,0.));
#1054=CARTESIAN_POINT('',(16.25,-2.25,0.));
#1055=CARTESIAN_POINT('Origin',(16.25,0.,0.));
#1056=CARTESIAN_POINT('',(16.25,2.25,0.));
#1057=CARTESIAN_POINT('Origin',(16.25,0.,0.));
#1058=CARTESIAN_POINT('',(16.25,2.25,0.));
#1059=CARTESIAN_POINT('Origin',(0.686458577798263,3.68663459281862,0.));
#1060=CARTESIAN_POINT('',(0.686458577798266,3.68663459281866,0.));
#1061=CARTESIAN_POINT('',(0.,3.75,0.));
#1062=CARTESIAN_POINT('',(0.686458577798266,3.68663459281866,0.));
#1063=CARTESIAN_POINT('Origin',(0.,0.,0.));
#1064=CARTESIAN_POINT('',(-0.723465232968275,3.67955133904749,0.));
#1065=CARTESIAN_POINT('Origin',(0.,0.,0.));
#1066=CARTESIAN_POINT('',(-0.723465232968275,3.67955133904749,0.));
#1067=CARTESIAN_POINT('Origin',(-16.2102714059825,2.25,0.));
#1068=CARTESIAN_POINT('',(-16.2102714059825,2.25,0.));
#1069=CARTESIAN_POINT('',(-16.2102714059825,2.25,0.));
#1070=CARTESIAN_POINT('',(-16.2102714059825,2.25,0.));
#1071=CARTESIAN_POINT('Origin',(-16.2102714059825,0.,0.));
#1072=CARTESIAN_POINT('',(-16.2102714059825,-2.25,0.));
#1073=CARTESIAN_POINT('Origin',(-16.2102714059825,0.,0.));
#1074=CARTESIAN_POINT('',(-16.2102714059825,-2.25,0.));
#1075=CARTESIAN_POINT('Origin',(-0.723465232968342,-3.67955133904746,0.));
#1076=CARTESIAN_POINT('',(-0.723465232968344,-3.67955133904747,0.));
#1077=CARTESIAN_POINT('',(0.0397285940175185,-3.75,0.));
#1078=CARTESIAN_POINT('',(-0.723465232968344,-3.67955133904747,0.));
#1079=CARTESIAN_POINT('Origin',(0.,0.,0.));
#1080=CARTESIAN_POINT('Origin',(0.,0.,0.));
#1081=CARTESIAN_POINT('Origin',(-7.46027140598248,-19.75,0.));
#1082=CARTESIAN_POINT('',(-7.46027140598248,-19.75,0.));
#1083=CARTESIAN_POINT('',(-7.46027140598248,-6.05402505285992,0.));
#1084=CARTESIAN_POINT('',(-7.46027140598248,-19.75,0.));
#1085=CARTESIAN_POINT('',(-7.46027140598248,-6.05402505285992,0.));
#1086=CARTESIAN_POINT('',(-7.46027140598248,-19.75,0.));
#1087=CARTESIAN_POINT('Origin',(7.53972859401752,-19.75,0.));
#1088=CARTESIAN_POINT('',(7.53972859401752,-19.75,0.));
#1089=CARTESIAN_POINT('',(7.53972859401752,-19.75,0.));
#1090=CARTESIAN_POINT('',(7.53972859401752,-19.75,0.));
#1091=CARTESIAN_POINT('Origin',(7.53972859401752,-6.05402505285992,0.));
#1092=CARTESIAN_POINT('',(7.53972859401752,-6.05402505285992,0.));
#1093=CARTESIAN_POINT('',(7.53972859401752,-3.05402505285992,0.));
#1094=CARTESIAN_POINT('',(7.53972859401752,-6.05402505285992,0.));
#1095=CARTESIAN_POINT('Origin',(-7.46027140598248,-6.05402505285992,0.));
#1096=CARTESIAN_POINT('',(-7.46027140598248,-6.05402505285992,0.));
#1097=CARTESIAN_POINT('Origin',(0.,0.,0.));
#1098=CARTESIAN_POINT('',(-29.,-3.55147571752732E-15,0.));
#1099=CARTESIAN_POINT('',(-29.,-3.55147571752732E-15,0.));
#1100=CARTESIAN_POINT('Origin',(0.,0.,0.));
#1101=CARTESIAN_POINT('Origin',(0.,0.,0.));
#1102=UNCERTAINTY_MEASURE_WITH_UNIT(LENGTH_MEASURE(0.01),#1106,
'DISTANCE_ACCURACY_VALUE',
'Maximum model space distance between geometric entities at asserted c
onnectivities');
#1103=UNCERTAINTY_MEASURE_WITH_UNIT(LENGTH_MEASURE(0.01),#1106,
'DISTANCE_ACCURACY_VALUE',
'Maximum model space distance between geometric entities at asserted c
onnectivities');
#1104=(
GEOMETRIC_REPRESENTATION_CONTEXT(3)
GLOBAL_UNCERTAINTY_ASSIGNED_CONTEXT((#1102))
GLOBAL_UNIT_ASSIGNED_CONTEXT((#1106,#1108,#1109))
REPRESENTATION_CONTEXT('','3D')
);
#1105=(
GEOMETRIC_REPRESENTATION_CONTEXT(3)
GLOBAL_UNCERTAINTY_ASSIGNED_CONTEXT((#1103))
GLOBAL_UNIT_ASSIGNED_CONTEXT((#1106,#1108,#1109))
REPRESENTATION_CONTEXT('','3D')
);
#1106=(
LENGTH_UNIT()
NAMED_UNIT(*)
SI_UNIT(.MILLI.,.METRE.)
);
#1107=(
LENGTH_UNIT()
NAMED_UNIT(*)
SI_UNIT(.CENTI.,.METRE.)
);
#1108=(
NAMED_UNIT(*)
PLANE_ANGLE_UNIT()
SI_UNIT($,.RADIAN.)
);
#1109=(
NAMED_UNIT(*)
SI_UNIT($,.STERADIAN.)
SOLID_ANGLE_UNIT()
);
#1110=SHAPE_DEFINITION_REPRESENTATION(#1111,#1112);
#1111=PRODUCT_DEFINITION_SHAPE('',$,#1114);
#1112=SHAPE_REPRESENTATION('',(#678),#1104);
#1113=PRODUCT_DEFINITION_CONTEXT('part definition',#1118,'design');
#1114=PRODUCT_DEFINITION('Drehplatte','Drehplatte',#1115,#1113);
#1115=PRODUCT_DEFINITION_FORMATION('',$,#1120);
#1116=PRODUCT_RELATED_PRODUCT_CATEGORY('Drehplatte','Drehplatte',(#1120));
#1117=APPLICATION_PROTOCOL_DEFINITION('international standard',
'automotive_design',2009,#1118);
#1118=APPLICATION_CONTEXT(
'Core Data for Automotive Mechanical Design Process');
#1119=PRODUCT_CONTEXT('part definition',#1118,'mechanical');
#1120=PRODUCT('Drehplatte','Drehplatte',$,(#1119));
#1121=PRESENTATION_STYLE_ASSIGNMENT((#1122));
#1122=SURFACE_STYLE_USAGE(.BOTH.,#1125);
#1123=SURFACE_STYLE_RENDERING_WITH_PROPERTIES($,#1129,(#1124));
#1124=SURFACE_STYLE_TRANSPARENT(0.);
#1125=SURFACE_SIDE_STYLE('',(#1126,#1123));
#1126=SURFACE_STYLE_FILL_AREA(#1127);
#1127=FILL_AREA_STYLE('',(#1128));
#1128=FILL_AREA_STYLE_COLOUR('',#1129);
#1129=COLOUR_RGB('',0.749019607843137,0.749019607843137,0.749019607843137);
ENDSEC;
END-ISO-10303-21;
