ISO-10303-21;
HEADER;
/* Generated by software containing ST-Developer
 * from STEP Tools, Inc. (www.steptools.com) 
 */

FILE_DESCRIPTION(
/* description */ (''),
/* implementation_level */ '2;1');

FILE_NAME(
/* name */ 'Fundament.stp',
/* time_stamp */ '2026-09-06T18:55:35+02:00',
/* author */ ('bluhm'),
/* organization */ (''),
/* preprocessor_version */ 'ST-DEVELOPER v20.1',
/* originating_system */ 'Autodesk Inventor 2026',
/* authorisation */ '');

FILE_SCHEMA (('AUTOMOTIVE_DESIGN { 1 0 10303 214 3 1 1 }'));
ENDSEC;

DATA;
#10=MECHANICAL_DESIGN_GEOMETRIC_PRESENTATION_REPRESENTATION('',(#1199,#1200,
#1201,#1202,#1203,#1204,#1205,#1206,#1207,#1208,#1209,#1210,#1211,#1212,
#1213,#1214,#1215,#1216,#1217,#1218,#1219,#1220,#1221,#1222,#1223,#1224,
#1225,#1226,#1227,#1228,#1229,#1230,#1231,#1232,#1233,#1234,#1235,#1236,
#1237,#1238,#1239,#1240,#1241,#1242,#1243,#1244,#1245,#1246,#1247,#1248,
#1249,#1250,#1251,#1252,#1253,#1254,#1255,#1256,#1257,#1258,#1259,#1260,
#1261,#1262,#1263,#1264,#1265,#1266,#1267,#1268,#1269),#2184);
#11=SHAPE_REPRESENTATION_RELATIONSHIP('SRR','None',#2191,#12);
#12=ADVANCED_BREP_SHAPE_REPRESENTATION('',(#13),#2183);
#13=MANIFOLD_SOLID_BREP('Volumenk\X\F6rper2',#1340);
#14=CONICAL_SURFACE('',#1427,0.2958734,1.02974425867665);
#15=FACE_BOUND('',#167,.T.);
#16=FACE_BOUND('',#172,.T.);
#17=FACE_BOUND('',#177,.T.);
#18=FACE_BOUND('',#182,.T.);
#19=FACE_BOUND('',#184,.T.);
#20=FACE_BOUND('',#186,.T.);
#21=FACE_BOUND('',#187,.T.);
#22=FACE_BOUND('',#195,.T.);
#23=FACE_BOUND('',#201,.T.);
#24=FACE_BOUND('',#216,.T.);
#25=FACE_BOUND('',#224,.T.);
#26=FACE_BOUND('',#226,.T.);
#27=FACE_BOUND('',#228,.T.);
#28=CIRCLE('',#1365,1.75);
#29=CIRCLE('',#1366,1.75);
#30=CIRCLE('',#1369,1.75);
#31=CIRCLE('',#1370,1.75);
#32=CIRCLE('',#1372,0.9);
#33=CIRCLE('',#1373,0.9);
#34=CIRCLE('',#1376,0.9);
#35=CIRCLE('',#1377,0.9);
#36=CIRCLE('',#1380,0.9);
#37=CIRCLE('',#1381,0.9);
#38=CIRCLE('',#1384,0.9);
#39=CIRCLE('',#1385,0.9);
#40=CIRCLE('',#1405,25.);
#41=CIRCLE('',#1406,29.);
#42=CIRCLE('',#1407,27.);
#43=CIRCLE('',#1408,27.);
#44=CIRCLE('',#1409,29.);
#45=CIRCLE('',#1411,29.);
#46=CIRCLE('',#1413,29.);
#47=CIRCLE('',#1416,27.);
#48=CIRCLE('',#1417,27.);
#49=CIRCLE('',#1420,29.);
#50=CIRCLE('',#1422,0.5917468);
#51=CIRCLE('',#1425,0.5917468);
#52=CIRCLE('',#1426,0.5917468);
#53=CIRCLE('',#1428,0.5917468);
#54=CIRCLE('',#1446,25.);
#55=CIRCLE('',#1448,29.);
#56=CIRCLE('',#1451,27.);
#57=CIRCLE('',#1452,27.);
#58=CIRCLE('',#1455,31.);
#59=CIRCLE('',#1456,31.);
#60=CIRCLE('',#1460,33.);
#61=CIRCLE('',#1461,29.);
#62=CIRCLE('',#1463,33.);
#63=CIRCLE('',#1466,29.);
#64=CYLINDRICAL_SURFACE('',#1364,1.75);
#65=CYLINDRICAL_SURFACE('',#1368,1.75);
#66=CYLINDRICAL_SURFACE('',#1371,0.9);
#67=CYLINDRICAL_SURFACE('',#1375,0.9);
#68=CYLINDRICAL_SURFACE('',#1379,0.9);
#69=CYLINDRICAL_SURFACE('',#1383,0.9);
#70=CYLINDRICAL_SURFACE('',#1410,29.);
#71=CYLINDRICAL_SURFACE('',#1412,29.);
#72=CYLINDRICAL_SURFACE('',#1415,27.);
#73=CYLINDRICAL_SURFACE('',#1424,0.5917468);
#74=CYLINDRICAL_SURFACE('',#1429,0.5917468);
#75=CYLINDRICAL_SURFACE('',#1445,25.);
#76=CYLINDRICAL_SURFACE('',#1447,29.);
#77=CYLINDRICAL_SURFACE('',#1450,27.);
#78=CYLINDRICAL_SURFACE('',#1454,31.);
#79=CYLINDRICAL_SURFACE('',#1462,33.);
#80=CYLINDRICAL_SURFACE('',#1465,29.);
#81=FACE_OUTER_BOUND('',#151,.T.);
#82=FACE_OUTER_BOUND('',#152,.T.);
#83=FACE_OUTER_BOUND('',#153,.T.);
#84=FACE_OUTER_BOUND('',#154,.T.);
#85=FACE_OUTER_BOUND('',#155,.T.);
#86=FACE_OUTER_BOUND('',#156,.T.);
#87=FACE_OUTER_BOUND('',#157,.T.);
#88=FACE_OUTER_BOUND('',#158,.T.);
#89=FACE_OUTER_BOUND('',#159,.T.);
#90=FACE_OUTER_BOUND('',#160,.T.);
#91=FACE_OUTER_BOUND('',#161,.T.);
#92=FACE_OUTER_BOUND('',#162,.T.);
#93=FACE_OUTER_BOUND('',#163,.T.);
#94=FACE_OUTER_BOUND('',#164,.T.);
#95=FACE_OUTER_BOUND('',#165,.T.);
#96=FACE_OUTER_BOUND('',#166,.T.);
#97=FACE_OUTER_BOUND('',#168,.T.);
#98=FACE_OUTER_BOUND('',#169,.T.);
#99=FACE_OUTER_BOUND('',#170,.T.);
#100=FACE_OUTER_BOUND('',#171,.T.);
#101=FACE_OUTER_BOUND('',#173,.T.);
#102=FACE_OUTER_BOUND('',#174,.T.);
#103=FACE_OUTER_BOUND('',#175,.T.);
#104=FACE_OUTER_BOUND('',#176,.T.);
#105=FACE_OUTER_BOUND('',#178,.T.);
#106=FACE_OUTER_BOUND('',#179,.T.);
#107=FACE_OUTER_BOUND('',#180,.T.);
#108=FACE_OUTER_BOUND('',#181,.T.);
#109=FACE_OUTER_BOUND('',#183,.T.);
#110=FACE_OUTER_BOUND('',#185,.T.);
#111=FACE_OUTER_BOUND('',#188,.T.);
#112=FACE_OUTER_BOUND('',#189,.T.);
#113=FACE_OUTER_BOUND('',#190,.T.);
#114=FACE_OUTER_BOUND('',#191,.T.);
#115=FACE_OUTER_BOUND('',#192,.T.);
#116=FACE_OUTER_BOUND('',#193,.T.);
#117=FACE_OUTER_BOUND('',#194,.T.);
#118=FACE_OUTER_BOUND('',#196,.T.);
#119=FACE_OUTER_BOUND('',#197,.T.);
#120=FACE_OUTER_BOUND('',#198,.T.);
#121=FACE_OUTER_BOUND('',#199,.T.);
#122=FACE_OUTER_BOUND('',#200,.T.);
#123=FACE_OUTER_BOUND('',#202,.T.);
#124=FACE_OUTER_BOUND('',#203,.T.);
#125=FACE_OUTER_BOUND('',#204,.T.);
#126=FACE_OUTER_BOUND('',#205,.T.);
#127=FACE_OUTER_BOUND('',#206,.T.);
#128=FACE_OUTER_BOUND('',#207,.T.);
#129=FACE_OUTER_BOUND('',#208,.T.);
#130=FACE_OUTER_BOUND('',#209,.T.);
#131=FACE_OUTER_BOUND('',#210,.T.);
#132=FACE_OUTER_BOUND('',#211,.T.);
#133=FACE_OUTER_BOUND('',#212,.T.);
#134=FACE_OUTER_BOUND('',#213,.T.);
#135=FACE_OUTER_BOUND('',#214,.T.);
#136=FACE_OUTER_BOUND('',#215,.T.);
#137=FACE_OUTER_BOUND('',#217,.T.);
#138=FACE_OUTER_BOUND('',#218,.T.);
#139=FACE_OUTER_BOUND('',#219,.T.);
#140=FACE_OUTER_BOUND('',#220,.T.);
#141=FACE_OUTER_BOUND('',#221,.T.);
#142=FACE_OUTER_BOUND('',#222,.T.);
#143=FACE_OUTER_BOUND('',#223,.T.);
#144=FACE_OUTER_BOUND('',#225,.T.);
#145=FACE_OUTER_BOUND('',#227,.T.);
#146=FACE_OUTER_BOUND('',#229,.T.);
#147=FACE_OUTER_BOUND('',#230,.T.);
#148=FACE_OUTER_BOUND('',#231,.T.);
#149=FACE_OUTER_BOUND('',#232,.T.);
#150=FACE_OUTER_BOUND('',#233,.T.);
#151=EDGE_LOOP('',(#799,#800,#801,#802));
#152=EDGE_LOOP('',(#803,#804,#805,#806));
#153=EDGE_LOOP('',(#807,#808,#809,#810));
#154=EDGE_LOOP('',(#811,#812,#813,#814));
#155=EDGE_LOOP('',(#815,#816,#817,#818));
#156=EDGE_LOOP('',(#819));
#157=EDGE_LOOP('',(#820,#821,#822,#823));
#158=EDGE_LOOP('',(#824));
#159=EDGE_LOOP('',(#825,#826,#827,#828));
#160=EDGE_LOOP('',(#829));
#161=EDGE_LOOP('',(#830,#831,#832,#833));
#162=EDGE_LOOP('',(#834));
#163=EDGE_LOOP('',(#835,#836,#837,#838));
#164=EDGE_LOOP('',(#839,#840,#841,#842));
#165=EDGE_LOOP('',(#843,#844,#845,#846));
#166=EDGE_LOOP('',(#847,#848,#849,#850));
#167=EDGE_LOOP('',(#851));
#168=EDGE_LOOP('',(#852,#853,#854,#855));
#169=EDGE_LOOP('',(#856,#857,#858,#859));
#170=EDGE_LOOP('',(#860,#861,#862,#863));
#171=EDGE_LOOP('',(#864,#865,#866,#867));
#172=EDGE_LOOP('',(#868));
#173=EDGE_LOOP('',(#869,#870,#871,#872));
#174=EDGE_LOOP('',(#873,#874,#875,#876));
#175=EDGE_LOOP('',(#877,#878,#879,#880));
#176=EDGE_LOOP('',(#881,#882,#883,#884));
#177=EDGE_LOOP('',(#885));
#178=EDGE_LOOP('',(#886,#887,#888,#889));
#179=EDGE_LOOP('',(#890,#891,#892,#893));
#180=EDGE_LOOP('',(#894,#895,#896,#897));
#181=EDGE_LOOP('',(#898,#899,#900,#901));
#182=EDGE_LOOP('',(#902));
#183=EDGE_LOOP('',(#903,#904,#905,#906,#907,#908,#909,#910,#911,#912,#913));
#184=EDGE_LOOP('',(#914,#915,#916,#917));
#185=EDGE_LOOP('',(#918,#919,#920,#921,#922,#923,#924,#925,#926,#927,#928,
#929,#930,#931,#932,#933,#934,#935,#936,#937,#938,#939,#940,#941,#942,#943));
#186=EDGE_LOOP('',(#944,#945,#946,#947));
#187=EDGE_LOOP('',(#948,#949,#950,#951,#952,#953));
#188=EDGE_LOOP('',(#954,#955,#956,#957));
#189=EDGE_LOOP('',(#958,#959,#960,#961));
#190=EDGE_LOOP('',(#962,#963,#964,#965));
#191=EDGE_LOOP('',(#966,#967,#968,#969,#970,#971,#972,#973));
#192=EDGE_LOOP('',(#974,#975,#976,#977));
#193=EDGE_LOOP('',(#978,#979,#980,#981,#982,#983));
#194=EDGE_LOOP('',(#984,#985,#986,#987));
#195=EDGE_LOOP('',(#988));
#196=EDGE_LOOP('',(#989,#990,#991,#992));
#197=EDGE_LOOP('',(#993,#994,#995,#996));
#198=EDGE_LOOP('',(#997,#998,#999));
#199=EDGE_LOOP('',(#1000,#1001,#1002,#1003));
#200=EDGE_LOOP('',(#1004,#1005,#1006,#1007));
#201=EDGE_LOOP('',(#1008));
#202=EDGE_LOOP('',(#1009,#1010,#1011,#1012));
#203=EDGE_LOOP('',(#1013,#1014,#1015,#1016));
#204=EDGE_LOOP('',(#1017,#1018,#1019,#1020,#1021,#1022));
#205=EDGE_LOOP('',(#1023,#1024,#1025,#1026));
#206=EDGE_LOOP('',(#1027,#1028,#1029,#1030));
#207=EDGE_LOOP('',(#1031,#1032,#1033,#1034));
#208=EDGE_LOOP('',(#1035,#1036,#1037,#1038));
#209=EDGE_LOOP('',(#1039,#1040,#1041,#1042));
#210=EDGE_LOOP('',(#1043,#1044,#1045,#1046));
#211=EDGE_LOOP('',(#1047,#1048,#1049,#1050));
#212=EDGE_LOOP('',(#1051,#1052,#1053,#1054));
#213=EDGE_LOOP('',(#1055,#1056,#1057,#1058,#1059,#1060));
#214=EDGE_LOOP('',(#1061,#1062,#1063,#1064));
#215=EDGE_LOOP('',(#1065,#1066,#1067,#1068));
#216=EDGE_LOOP('',(#1069));
#217=EDGE_LOOP('',(#1070,#1071,#1072,#1073,#1074,#1075));
#218=EDGE_LOOP('',(#1076,#1077,#1078,#1079));
#219=EDGE_LOOP('',(#1080,#1081,#1082,#1083,#1084,#1085,#1086,#1087,#1088,
#1089,#1090));
#220=EDGE_LOOP('',(#1091,#1092,#1093,#1094));
#221=EDGE_LOOP('',(#1095,#1096,#1097,#1098));
#222=EDGE_LOOP('',(#1099,#1100,#1101,#1102));
#223=EDGE_LOOP('',(#1103,#1104,#1105,#1106));
#224=EDGE_LOOP('',(#1107,#1108,#1109,#1110));
#225=EDGE_LOOP('',(#1111,#1112,#1113,#1114));
#226=EDGE_LOOP('',(#1115,#1116,#1117,#1118));
#227=EDGE_LOOP('',(#1119,#1120,#1121,#1122));
#228=EDGE_LOOP('',(#1123,#1124,#1125,#1126));
#229=EDGE_LOOP('',(#1127,#1128,#1129,#1130));
#230=EDGE_LOOP('',(#1131,#1132,#1133,#1134));
#231=EDGE_LOOP('',(#1135,#1136,#1137,#1138));
#232=EDGE_LOOP('',(#1139,#1140,#1141,#1142));
#233=EDGE_LOOP('',(#1143,#1144,#1145,#1146));
#234=LINE('',#1825,#372);
#235=LINE('',#1827,#373);
#236=LINE('',#1829,#374);
#237=LINE('',#1830,#375);
#238=LINE('',#1836,#376);
#239=LINE('',#1839,#377);
#240=LINE('',#1841,#378);
#241=LINE('',#1842,#379);
#242=LINE('',#1850,#380);
#243=LINE('',#1857,#381);
#244=LINE('',#1864,#382);
#245=LINE('',#1871,#383);
#246=LINE('',#1877,#384);
#247=LINE('',#1879,#385);
#248=LINE('',#1881,#386);
#249=LINE('',#1882,#387);
#250=LINE('',#1885,#388);
#251=LINE('',#1887,#389);
#252=LINE('',#1888,#390);
#253=LINE('',#1891,#391);
#254=LINE('',#1893,#392);
#255=LINE('',#1894,#393);
#256=LINE('',#1896,#394);
#257=LINE('',#1900,#395);
#258=LINE('',#1902,#396);
#259=LINE('',#1904,#397);
#260=LINE('',#1905,#398);
#261=LINE('',#1909,#399);
#262=LINE('',#1911,#400);
#263=LINE('',#1913,#401);
#264=LINE('',#1914,#402);
#265=LINE('',#1916,#403);
#266=LINE('',#1917,#404);
#267=LINE('',#1919,#405);
#268=LINE('',#1923,#406);
#269=LINE('',#1925,#407);
#270=LINE('',#1927,#408);
#271=LINE('',#1928,#409);
#272=LINE('',#1931,#410);
#273=LINE('',#1933,#411);
#274=LINE('',#1934,#412);
#275=LINE('',#1937,#413);
#276=LINE('',#1939,#414);
#277=LINE('',#1940,#415);
#278=LINE('',#1942,#416);
#279=LINE('',#1946,#417);
#280=LINE('',#1948,#418);
#281=LINE('',#1950,#419);
#282=LINE('',#1951,#420);
#283=LINE('',#1954,#421);
#284=LINE('',#1956,#422);
#285=LINE('',#1957,#423);
#286=LINE('',#1960,#424);
#287=LINE('',#1962,#425);
#288=LINE('',#1963,#426);
#289=LINE('',#1965,#427);
#290=LINE('',#1968,#428);
#291=LINE('',#1970,#429);
#292=LINE('',#1972,#430);
#293=LINE('',#1974,#431);
#294=LINE('',#1975,#432);
#295=LINE('',#1976,#433);
#296=LINE('',#1978,#434);
#297=LINE('',#1983,#435);
#298=LINE('',#1987,#436);
#299=LINE('',#1989,#437);
#300=LINE('',#1991,#438);
#301=LINE('',#1995,#439);
#302=LINE('',#1998,#440);
#303=LINE('',#2001,#441);
#304=LINE('',#2003,#442);
#305=LINE('',#2005,#443);
#306=LINE('',#2006,#444);
#307=LINE('',#2009,#445);
#308=LINE('',#2011,#446);
#309=LINE('',#2013,#447);
#310=LINE('',#2015,#448);
#311=LINE('',#2017,#449);
#312=LINE('',#2018,#450);
#313=LINE('',#2021,#451);
#314=LINE('',#2023,#452);
#315=LINE('',#2028,#453);
#316=LINE('',#2031,#454);
#317=LINE('',#2032,#455);
#318=LINE('',#2035,#456);
#319=LINE('',#2038,#457);
#320=LINE('',#2040,#458);
#321=LINE('',#2043,#459);
#322=LINE('',#2048,#460);
#323=LINE('',#2050,#461);
#324=LINE('',#2051,#462);
#325=LINE('',#2055,#463);
#326=LINE('',#2060,#464);
#327=LINE('',#2066,#465);
#328=LINE('',#2068,#466);
#329=LINE('',#2072,#467);
#330=LINE('',#2074,#468);
#331=LINE('',#2076,#469);
#332=LINE('',#2077,#470);
#333=LINE('',#2079,#471);
#334=LINE('',#2080,#472);
#335=LINE('',#2082,#473);
#336=LINE('',#2085,#474);
#337=LINE('',#2087,#475);
#338=LINE('',#2088,#476);
#339=LINE('',#2091,#477);
#340=LINE('',#2093,#478);
#341=LINE('',#2094,#479);
#342=LINE('',#2097,#480);
#343=LINE('',#2099,#481);
#344=LINE('',#2100,#482);
#345=LINE('',#2103,#483);
#346=LINE('',#2104,#484);
#347=LINE('',#2107,#485);
#348=LINE('',#2108,#486);
#349=LINE('',#2110,#487);
#350=LINE('',#2113,#488);
#351=LINE('',#2116,#489);
#352=LINE('',#2118,#490);
#353=LINE('',#2122,#491);
#354=LINE('',#2127,#492);
#355=LINE('',#2129,#493);
#356=LINE('',#2135,#494);
#357=LINE('',#2138,#495);
#358=LINE('',#2141,#496);
#359=LINE('',#2143,#497);
#360=LINE('',#2144,#498);
#361=LINE('',#2150,#499);
#362=LINE('',#2152,#500);
#363=LINE('',#2153,#501);
#364=LINE('',#2158,#502);
#365=LINE('',#2162,#503);
#366=LINE('',#2166,#504);
#367=LINE('',#2169,#505);
#368=LINE('',#2172,#506);
#369=LINE('',#2173,#507);
#370=LINE('',#2177,#508);
#371=LINE('',#2179,#509);
#372=VECTOR('',#1473,10.);
#373=VECTOR('',#1474,10.);
#374=VECTOR('',#1475,10.);
#375=VECTOR('',#1476,10.);
#376=VECTOR('',#1483,10.);
#377=VECTOR('',#1486,10.);
#378=VECTOR('',#1487,10.);
#379=VECTOR('',#1488,10.);
#380=VECTOR('',#1499,0.9);
#381=VECTOR('',#1508,0.9);
#382=VECTOR('',#1517,0.9);
#383=VECTOR('',#1526,0.9);
#384=VECTOR('',#1533,10.);
#385=VECTOR('',#1534,10.);
#386=VECTOR('',#1535,10.);
#387=VECTOR('',#1536,10.);
#388=VECTOR('',#1539,10.);
#389=VECTOR('',#1540,10.);
#390=VECTOR('',#1541,10.);
#391=VECTOR('',#1544,10.);
#392=VECTOR('',#1545,10.);
#393=VECTOR('',#1546,10.);
#394=VECTOR('',#1549,10.);
#395=VECTOR('',#1552,10.);
#396=VECTOR('',#1553,10.);
#397=VECTOR('',#1554,10.);
#398=VECTOR('',#1555,10.);
#399=VECTOR('',#1558,10.);
#400=VECTOR('',#1559,10.);
#401=VECTOR('',#1560,10.);
#402=VECTOR('',#1561,10.);
#403=VECTOR('',#1564,10.);
#404=VECTOR('',#1565,10.);
#405=VECTOR('',#1568,10.);
#406=VECTOR('',#1571,10.);
#407=VECTOR('',#1572,10.);
#408=VECTOR('',#1573,10.);
#409=VECTOR('',#1574,10.);
#410=VECTOR('',#1577,10.);
#411=VECTOR('',#1578,10.);
#412=VECTOR('',#1579,10.);
#413=VECTOR('',#1582,10.);
#414=VECTOR('',#1583,10.);
#415=VECTOR('',#1584,10.);
#416=VECTOR('',#1587,10.);
#417=VECTOR('',#1590,10.);
#418=VECTOR('',#1591,10.);
#419=VECTOR('',#1592,10.);
#420=VECTOR('',#1593,10.);
#421=VECTOR('',#1596,10.);
#422=VECTOR('',#1597,10.);
#423=VECTOR('',#1598,10.);
#424=VECTOR('',#1601,10.);
#425=VECTOR('',#1602,10.);
#426=VECTOR('',#1603,10.);
#427=VECTOR('',#1606,10.);
#428=VECTOR('',#1609,10.);
#429=VECTOR('',#1610,10.);
#430=VECTOR('',#1611,10.);
#431=VECTOR('',#1612,10.);
#432=VECTOR('',#1613,10.);
#433=VECTOR('',#1614,10.);
#434=VECTOR('',#1617,10.);
#435=VECTOR('',#1622,10.);
#436=VECTOR('',#1625,10.);
#437=VECTOR('',#1626,10.);
#438=VECTOR('',#1627,10.);
#439=VECTOR('',#1630,10.);
#440=VECTOR('',#1633,10.);
#441=VECTOR('',#1634,10.);
#442=VECTOR('',#1635,10.);
#443=VECTOR('',#1636,10.);
#444=VECTOR('',#1637,10.);
#445=VECTOR('',#1638,10.);
#446=VECTOR('',#1639,10.);
#447=VECTOR('',#1640,10.);
#448=VECTOR('',#1641,10.);
#449=VECTOR('',#1642,10.);
#450=VECTOR('',#1643,10.);
#451=VECTOR('',#1646,10.);
#452=VECTOR('',#1647,10.);
#453=VECTOR('',#1654,10.);
#454=VECTOR('',#1657,10.);
#455=VECTOR('',#1658,10.);
#456=VECTOR('',#1661,10.);
#457=VECTOR('',#1664,10.);
#458=VECTOR('',#1665,10.);
#459=VECTOR('',#1670,10.);
#460=VECTOR('',#1677,10.);
#461=VECTOR('',#1678,10.);
#462=VECTOR('',#1679,10.);
#463=VECTOR('',#1684,10.);
#464=VECTOR('',#1689,0.5917468);
#465=VECTOR('',#1696,0.2958734);
#466=VECTOR('',#1699,0.5917468);
#467=VECTOR('',#1702,10.);
#468=VECTOR('',#1703,10.);
#469=VECTOR('',#1704,10.);
#470=VECTOR('',#1705,10.);
#471=VECTOR('',#1708,10.);
#472=VECTOR('',#1709,10.);
#473=VECTOR('',#1712,10.);
#474=VECTOR('',#1715,10.);
#475=VECTOR('',#1716,10.);
#476=VECTOR('',#1717,10.);
#477=VECTOR('',#1720,10.);
#478=VECTOR('',#1721,10.);
#479=VECTOR('',#1722,10.);
#480=VECTOR('',#1725,10.);
#481=VECTOR('',#1726,10.);
#482=VECTOR('',#1727,10.);
#483=VECTOR('',#1730,10.);
#484=VECTOR('',#1731,10.);
#485=VECTOR('',#1734,10.);
#486=VECTOR('',#1735,10.);
#487=VECTOR('',#1738,10.);
#488=VECTOR('',#1743,10.);
#489=VECTOR('',#1748,10.);
#490=VECTOR('',#1751,10.);
#491=VECTOR('',#1756,10.);
#492=VECTOR('',#1763,10.);
#493=VECTOR('',#1766,10.);
#494=VECTOR('',#1771,10.);
#495=VECTOR('',#1774,10.);
#496=VECTOR('',#1777,10.);
#497=VECTOR('',#1778,10.);
#498=VECTOR('',#1779,10.);
#499=VECTOR('',#1786,10.);
#500=VECTOR('',#1789,10.);
#501=VECTOR('',#1790,10.);
#502=VECTOR('',#1795,10.);
#503=VECTOR('',#1798,10.);
#504=VECTOR('',#1803,10.);
#505=VECTOR('',#1806,10.);
#506=VECTOR('',#1809,10.);
#507=VECTOR('',#1810,10.);
#508=VECTOR('',#1815,10.);
#509=VECTOR('',#1818,10.);
#510=VERTEX_POINT('',#1823);
#511=VERTEX_POINT('',#1824);
#512=VERTEX_POINT('',#1826);
#513=VERTEX_POINT('',#1828);
#514=VERTEX_POINT('',#1832);
#515=VERTEX_POINT('',#1834);
#516=VERTEX_POINT('',#1838);
#517=VERTEX_POINT('',#1840);
#518=VERTEX_POINT('',#1847);
#519=VERTEX_POINT('',#1849);
#520=VERTEX_POINT('',#1854);
#521=VERTEX_POINT('',#1856);
#522=VERTEX_POINT('',#1861);
#523=VERTEX_POINT('',#1863);
#524=VERTEX_POINT('',#1868);
#525=VERTEX_POINT('',#1870);
#526=VERTEX_POINT('',#1875);
#527=VERTEX_POINT('',#1876);
#528=VERTEX_POINT('',#1878);
#529=VERTEX_POINT('',#1880);
#530=VERTEX_POINT('',#1884);
#531=VERTEX_POINT('',#1886);
#532=VERTEX_POINT('',#1890);
#533=VERTEX_POINT('',#1892);
#534=VERTEX_POINT('',#1898);
#535=VERTEX_POINT('',#1899);
#536=VERTEX_POINT('',#1901);
#537=VERTEX_POINT('',#1903);
#538=VERTEX_POINT('',#1907);
#539=VERTEX_POINT('',#1908);
#540=VERTEX_POINT('',#1910);
#541=VERTEX_POINT('',#1912);
#542=VERTEX_POINT('',#1921);
#543=VERTEX_POINT('',#1922);
#544=VERTEX_POINT('',#1924);
#545=VERTEX_POINT('',#1926);
#546=VERTEX_POINT('',#1930);
#547=VERTEX_POINT('',#1932);
#548=VERTEX_POINT('',#1936);
#549=VERTEX_POINT('',#1938);
#550=VERTEX_POINT('',#1944);
#551=VERTEX_POINT('',#1945);
#552=VERTEX_POINT('',#1947);
#553=VERTEX_POINT('',#1949);
#554=VERTEX_POINT('',#1953);
#555=VERTEX_POINT('',#1955);
#556=VERTEX_POINT('',#1959);
#557=VERTEX_POINT('',#1961);
#558=VERTEX_POINT('',#1967);
#559=VERTEX_POINT('',#1969);
#560=VERTEX_POINT('',#1971);
#561=VERTEX_POINT('',#1973);
#562=VERTEX_POINT('',#1980);
#563=VERTEX_POINT('',#1982);
#564=VERTEX_POINT('',#1984);
#565=VERTEX_POINT('',#1986);
#566=VERTEX_POINT('',#1988);
#567=VERTEX_POINT('',#1990);
#568=VERTEX_POINT('',#1992);
#569=VERTEX_POINT('',#1994);
#570=VERTEX_POINT('',#1996);
#571=VERTEX_POINT('',#1999);
#572=VERTEX_POINT('',#2000);
#573=VERTEX_POINT('',#2002);
#574=VERTEX_POINT('',#2004);
#575=VERTEX_POINT('',#2007);
#576=VERTEX_POINT('',#2008);
#577=VERTEX_POINT('',#2010);
#578=VERTEX_POINT('',#2012);
#579=VERTEX_POINT('',#2014);
#580=VERTEX_POINT('',#2016);
#581=VERTEX_POINT('',#2020);
#582=VERTEX_POINT('',#2022);
#583=VERTEX_POINT('',#2026);
#584=VERTEX_POINT('',#2030);
#585=VERTEX_POINT('',#2034);
#586=VERTEX_POINT('',#2036);
#587=VERTEX_POINT('',#2039);
#588=VERTEX_POINT('',#2047);
#589=VERTEX_POINT('',#2049);
#590=VERTEX_POINT('',#2052);
#591=VERTEX_POINT('',#2057);
#592=VERTEX_POINT('',#2059);
#593=VERTEX_POINT('',#2063);
#594=VERTEX_POINT('',#2065);
#595=VERTEX_POINT('',#2070);
#596=VERTEX_POINT('',#2071);
#597=VERTEX_POINT('',#2073);
#598=VERTEX_POINT('',#2075);
#599=VERTEX_POINT('',#2084);
#600=VERTEX_POINT('',#2086);
#601=VERTEX_POINT('',#2090);
#602=VERTEX_POINT('',#2092);
#603=VERTEX_POINT('',#2096);
#604=VERTEX_POINT('',#2098);
#605=VERTEX_POINT('',#2102);
#606=VERTEX_POINT('',#2106);
#607=VERTEX_POINT('',#2121);
#608=VERTEX_POINT('',#2125);
#609=VERTEX_POINT('',#2131);
#610=VERTEX_POINT('',#2132);
#611=VERTEX_POINT('',#2134);
#612=VERTEX_POINT('',#2136);
#613=VERTEX_POINT('',#2140);
#614=VERTEX_POINT('',#2142);
#615=VERTEX_POINT('',#2146);
#616=VERTEX_POINT('',#2148);
#617=VERTEX_POINT('',#2156);
#618=VERTEX_POINT('',#2157);
#619=VERTEX_POINT('',#2159);
#620=VERTEX_POINT('',#2161);
#621=VERTEX_POINT('',#2165);
#622=VERTEX_POINT('',#2167);
#623=VERTEX_POINT('',#2171);
#624=VERTEX_POINT('',#2175);
#625=EDGE_CURVE('',#510,#511,#234,.T.);
#626=EDGE_CURVE('',#512,#510,#235,.T.);
#627=EDGE_CURVE('',#513,#512,#236,.T.);
#628=EDGE_CURVE('',#513,#511,#237,.T.);
#629=EDGE_CURVE('',#511,#514,#28,.T.);
#630=EDGE_CURVE('',#515,#513,#29,.T.);
#631=EDGE_CURVE('',#515,#514,#238,.T.);
#632=EDGE_CURVE('',#514,#516,#239,.T.);
#633=EDGE_CURVE('',#517,#515,#240,.T.);
#634=EDGE_CURVE('',#517,#516,#241,.T.);
#635=EDGE_CURVE('',#516,#510,#30,.T.);
#636=EDGE_CURVE('',#512,#517,#31,.T.);
#637=EDGE_CURVE('',#518,#518,#32,.T.);
#638=EDGE_CURVE('',#518,#519,#242,.T.);
#639=EDGE_CURVE('',#519,#519,#33,.T.);
#640=EDGE_CURVE('',#520,#520,#34,.T.);
#641=EDGE_CURVE('',#520,#521,#243,.T.);
#642=EDGE_CURVE('',#521,#521,#35,.T.);
#643=EDGE_CURVE('',#522,#522,#36,.T.);
#644=EDGE_CURVE('',#522,#523,#244,.T.);
#645=EDGE_CURVE('',#523,#523,#37,.T.);
#646=EDGE_CURVE('',#524,#524,#38,.T.);
#647=EDGE_CURVE('',#524,#525,#245,.T.);
#648=EDGE_CURVE('',#525,#525,#39,.T.);
#649=EDGE_CURVE('',#526,#527,#246,.T.);
#650=EDGE_CURVE('',#526,#528,#247,.T.);
#651=EDGE_CURVE('',#529,#528,#248,.T.);
#652=EDGE_CURVE('',#527,#529,#249,.T.);
#653=EDGE_CURVE('',#527,#530,#250,.T.);
#654=EDGE_CURVE('',#531,#529,#251,.T.);
#655=EDGE_CURVE('',#530,#531,#252,.T.);
#656=EDGE_CURVE('',#532,#526,#253,.T.);
#657=EDGE_CURVE('',#533,#532,#254,.T.);
#658=EDGE_CURVE('',#528,#533,#255,.T.);
#659=EDGE_CURVE('',#531,#533,#256,.T.);
#660=EDGE_CURVE('',#534,#535,#257,.T.);
#661=EDGE_CURVE('',#534,#536,#258,.T.);
#662=EDGE_CURVE('',#537,#536,#259,.T.);
#663=EDGE_CURVE('',#535,#537,#260,.T.);
#664=EDGE_CURVE('',#538,#539,#261,.T.);
#665=EDGE_CURVE('',#538,#540,#262,.T.);
#666=EDGE_CURVE('',#541,#540,#263,.T.);
#667=EDGE_CURVE('',#539,#541,#264,.T.);
#668=EDGE_CURVE('',#539,#534,#265,.T.);
#669=EDGE_CURVE('',#536,#541,#266,.T.);
#670=EDGE_CURVE('',#537,#540,#267,.T.);
#671=EDGE_CURVE('',#542,#543,#268,.T.);
#672=EDGE_CURVE('',#542,#544,#269,.T.);
#673=EDGE_CURVE('',#545,#544,#270,.T.);
#674=EDGE_CURVE('',#543,#545,#271,.T.);
#675=EDGE_CURVE('',#543,#546,#272,.T.);
#676=EDGE_CURVE('',#547,#545,#273,.T.);
#677=EDGE_CURVE('',#546,#547,#274,.T.);
#678=EDGE_CURVE('',#548,#542,#275,.T.);
#679=EDGE_CURVE('',#549,#548,#276,.T.);
#680=EDGE_CURVE('',#544,#549,#277,.T.);
#681=EDGE_CURVE('',#547,#549,#278,.T.);
#682=EDGE_CURVE('',#550,#551,#279,.T.);
#683=EDGE_CURVE('',#550,#552,#280,.T.);
#684=EDGE_CURVE('',#553,#552,#281,.T.);
#685=EDGE_CURVE('',#551,#553,#282,.T.);
#686=EDGE_CURVE('',#551,#554,#283,.T.);
#687=EDGE_CURVE('',#555,#553,#284,.T.);
#688=EDGE_CURVE('',#554,#555,#285,.T.);
#689=EDGE_CURVE('',#556,#550,#286,.T.);
#690=EDGE_CURVE('',#557,#556,#287,.T.);
#691=EDGE_CURVE('',#552,#557,#288,.T.);
#692=EDGE_CURVE('',#555,#557,#289,.T.);
#693=EDGE_CURVE('',#540,#558,#290,.T.);
#694=EDGE_CURVE('',#559,#558,#291,.T.);
#695=EDGE_CURVE('',#560,#559,#292,.T.);
#696=EDGE_CURVE('',#561,#560,#293,.T.);
#697=EDGE_CURVE('',#546,#561,#294,.T.);
#698=EDGE_CURVE('',#535,#548,#295,.T.);
#699=EDGE_CURVE('',#530,#556,#296,.T.);
#700=EDGE_CURVE('',#554,#538,#40,.T.);
#701=EDGE_CURVE('',#561,#562,#41,.T.);
#702=EDGE_CURVE('',#562,#563,#297,.T.);
#703=EDGE_CURVE('',#563,#564,#42,.T.);
#704=EDGE_CURVE('',#564,#565,#298,.T.);
#705=EDGE_CURVE('',#565,#566,#299,.T.);
#706=EDGE_CURVE('',#566,#567,#300,.T.);
#707=EDGE_CURVE('',#567,#568,#43,.T.);
#708=EDGE_CURVE('',#568,#569,#301,.T.);
#709=EDGE_CURVE('',#569,#570,#44,.T.);
#710=EDGE_CURVE('',#570,#532,#302,.T.);
#711=EDGE_CURVE('',#571,#572,#303,.T.);
#712=EDGE_CURVE('',#572,#573,#304,.T.);
#713=EDGE_CURVE('',#573,#574,#305,.T.);
#714=EDGE_CURVE('',#574,#571,#306,.T.);
#715=EDGE_CURVE('',#575,#576,#307,.T.);
#716=EDGE_CURVE('',#576,#577,#308,.T.);
#717=EDGE_CURVE('',#577,#578,#309,.T.);
#718=EDGE_CURVE('',#578,#579,#310,.T.);
#719=EDGE_CURVE('',#579,#580,#311,.T.);
#720=EDGE_CURVE('',#580,#575,#312,.T.);
#721=EDGE_CURVE('',#570,#581,#313,.T.);
#722=EDGE_CURVE('',#569,#582,#314,.T.);
#723=EDGE_CURVE('',#581,#582,#45,.T.);
#724=EDGE_CURVE('',#583,#560,#46,.T.);
#725=EDGE_CURVE('',#562,#583,#315,.T.);
#726=EDGE_CURVE('',#584,#583,#316,.T.);
#727=EDGE_CURVE('',#563,#584,#317,.T.);
#728=EDGE_CURVE('',#564,#585,#318,.T.);
#729=EDGE_CURVE('',#586,#584,#47,.T.);
#730=EDGE_CURVE('',#568,#586,#319,.T.);
#731=EDGE_CURVE('',#587,#567,#320,.T.);
#732=EDGE_CURVE('',#585,#587,#48,.T.);
#733=EDGE_CURVE('',#582,#586,#321,.T.);
#734=EDGE_CURVE('',#581,#560,#49,.T.);
#735=EDGE_CURVE('',#587,#588,#322,.T.);
#736=EDGE_CURVE('',#588,#589,#323,.T.);
#737=EDGE_CURVE('',#589,#585,#324,.T.);
#738=EDGE_CURVE('',#590,#590,#50,.T.);
#739=EDGE_CURVE('',#566,#588,#325,.T.);
#740=EDGE_CURVE('',#591,#591,#51,.T.);
#741=EDGE_CURVE('',#591,#592,#326,.T.);
#742=EDGE_CURVE('',#592,#592,#52,.T.);
#743=EDGE_CURVE('',#593,#593,#53,.T.);
#744=EDGE_CURVE('',#593,#594,#327,.T.);
#745=EDGE_CURVE('',#590,#593,#328,.T.);
#746=EDGE_CURVE('',#595,#596,#329,.T.);
#747=EDGE_CURVE('',#597,#595,#330,.T.);
#748=EDGE_CURVE('',#597,#598,#331,.T.);
#749=EDGE_CURVE('',#596,#598,#332,.T.);
#750=EDGE_CURVE('',#596,#576,#333,.T.);
#751=EDGE_CURVE('',#598,#577,#334,.T.);
#752=EDGE_CURVE('',#578,#597,#335,.T.);
#753=EDGE_CURVE('',#595,#599,#336,.T.);
#754=EDGE_CURVE('',#600,#599,#337,.T.);
#755=EDGE_CURVE('',#579,#600,#338,.T.);
#756=EDGE_CURVE('',#580,#601,#339,.T.);
#757=EDGE_CURVE('',#602,#601,#340,.T.);
#758=EDGE_CURVE('',#575,#602,#341,.T.);
#759=EDGE_CURVE('',#571,#603,#342,.T.);
#760=EDGE_CURVE('',#604,#603,#343,.T.);
#761=EDGE_CURVE('',#572,#604,#344,.T.);
#762=EDGE_CURVE('',#605,#604,#345,.T.);
#763=EDGE_CURVE('',#573,#605,#346,.T.);
#764=EDGE_CURVE('',#606,#605,#347,.T.);
#765=EDGE_CURVE('',#574,#606,#348,.T.);
#766=EDGE_CURVE('',#603,#606,#349,.T.);
#767=EDGE_CURVE('',#565,#589,#350,.T.);
#768=EDGE_CURVE('',#599,#602,#351,.T.);
#769=EDGE_CURVE('',#601,#600,#352,.T.);
#770=EDGE_CURVE('',#555,#607,#353,.T.);
#771=EDGE_CURVE('',#558,#607,#54,.T.);
#772=EDGE_CURVE('',#608,#559,#55,.T.);
#773=EDGE_CURVE('',#581,#608,#354,.T.);
#774=EDGE_CURVE('',#607,#608,#355,.T.);
#775=EDGE_CURVE('',#609,#610,#56,.T.);
#776=EDGE_CURVE('',#609,#611,#356,.T.);
#777=EDGE_CURVE('',#612,#611,#57,.T.);
#778=EDGE_CURVE('',#610,#612,#357,.T.);
#779=EDGE_CURVE('',#610,#613,#358,.T.);
#780=EDGE_CURVE('',#614,#612,#359,.T.);
#781=EDGE_CURVE('',#613,#614,#360,.T.);
#782=EDGE_CURVE('',#613,#615,#58,.T.);
#783=EDGE_CURVE('',#616,#614,#59,.T.);
#784=EDGE_CURVE('',#615,#616,#361,.T.);
#785=EDGE_CURVE('',#615,#609,#362,.T.);
#786=EDGE_CURVE('',#611,#616,#363,.T.);
#787=EDGE_CURVE('',#617,#618,#364,.T.);
#788=EDGE_CURVE('',#618,#619,#60,.T.);
#789=EDGE_CURVE('',#619,#620,#365,.T.);
#790=EDGE_CURVE('',#620,#617,#61,.T.);
#791=EDGE_CURVE('',#618,#621,#366,.T.);
#792=EDGE_CURVE('',#622,#621,#62,.T.);
#793=EDGE_CURVE('',#619,#622,#367,.T.);
#794=EDGE_CURVE('',#623,#622,#368,.T.);
#795=EDGE_CURVE('',#620,#623,#369,.T.);
#796=EDGE_CURVE('',#624,#623,#63,.T.);
#797=EDGE_CURVE('',#617,#624,#370,.T.);
#798=EDGE_CURVE('',#621,#624,#371,.T.);
#799=ORIENTED_EDGE('',*,*,#625,.F.);
#800=ORIENTED_EDGE('',*,*,#626,.F.);
#801=ORIENTED_EDGE('',*,*,#627,.F.);
#802=ORIENTED_EDGE('',*,*,#628,.T.);
#803=ORIENTED_EDGE('',*,*,#629,.F.);
#804=ORIENTED_EDGE('',*,*,#628,.F.);
#805=ORIENTED_EDGE('',*,*,#630,.F.);
#806=ORIENTED_EDGE('',*,*,#631,.T.);
#807=ORIENTED_EDGE('',*,*,#632,.F.);
#808=ORIENTED_EDGE('',*,*,#631,.F.);
#809=ORIENTED_EDGE('',*,*,#633,.F.);
#810=ORIENTED_EDGE('',*,*,#634,.T.);
#811=ORIENTED_EDGE('',*,*,#635,.F.);
#812=ORIENTED_EDGE('',*,*,#634,.F.);
#813=ORIENTED_EDGE('',*,*,#636,.F.);
#814=ORIENTED_EDGE('',*,*,#626,.T.);
#815=ORIENTED_EDGE('',*,*,#637,.F.);
#816=ORIENTED_EDGE('',*,*,#638,.T.);
#817=ORIENTED_EDGE('',*,*,#639,.T.);
#818=ORIENTED_EDGE('',*,*,#638,.F.);
#819=ORIENTED_EDGE('',*,*,#639,.F.);
#820=ORIENTED_EDGE('',*,*,#640,.F.);
#821=ORIENTED_EDGE('',*,*,#641,.T.);
#822=ORIENTED_EDGE('',*,*,#642,.T.);
#823=ORIENTED_EDGE('',*,*,#641,.F.);
#824=ORIENTED_EDGE('',*,*,#642,.F.);
#825=ORIENTED_EDGE('',*,*,#643,.F.);
#826=ORIENTED_EDGE('',*,*,#644,.T.);
#827=ORIENTED_EDGE('',*,*,#645,.T.);
#828=ORIENTED_EDGE('',*,*,#644,.F.);
#829=ORIENTED_EDGE('',*,*,#645,.F.);
#830=ORIENTED_EDGE('',*,*,#646,.F.);
#831=ORIENTED_EDGE('',*,*,#647,.T.);
#832=ORIENTED_EDGE('',*,*,#648,.T.);
#833=ORIENTED_EDGE('',*,*,#647,.F.);
#834=ORIENTED_EDGE('',*,*,#648,.F.);
#835=ORIENTED_EDGE('',*,*,#649,.F.);
#836=ORIENTED_EDGE('',*,*,#650,.T.);
#837=ORIENTED_EDGE('',*,*,#651,.F.);
#838=ORIENTED_EDGE('',*,*,#652,.F.);
#839=ORIENTED_EDGE('',*,*,#653,.F.);
#840=ORIENTED_EDGE('',*,*,#652,.T.);
#841=ORIENTED_EDGE('',*,*,#654,.F.);
#842=ORIENTED_EDGE('',*,*,#655,.F.);
#843=ORIENTED_EDGE('',*,*,#656,.F.);
#844=ORIENTED_EDGE('',*,*,#657,.F.);
#845=ORIENTED_EDGE('',*,*,#658,.F.);
#846=ORIENTED_EDGE('',*,*,#650,.F.);
#847=ORIENTED_EDGE('',*,*,#658,.T.);
#848=ORIENTED_EDGE('',*,*,#659,.F.);
#849=ORIENTED_EDGE('',*,*,#654,.T.);
#850=ORIENTED_EDGE('',*,*,#651,.T.);
#851=ORIENTED_EDGE('',*,*,#640,.T.);
#852=ORIENTED_EDGE('',*,*,#660,.F.);
#853=ORIENTED_EDGE('',*,*,#661,.T.);
#854=ORIENTED_EDGE('',*,*,#662,.F.);
#855=ORIENTED_EDGE('',*,*,#663,.F.);
#856=ORIENTED_EDGE('',*,*,#664,.F.);
#857=ORIENTED_EDGE('',*,*,#665,.T.);
#858=ORIENTED_EDGE('',*,*,#666,.F.);
#859=ORIENTED_EDGE('',*,*,#667,.F.);
#860=ORIENTED_EDGE('',*,*,#668,.F.);
#861=ORIENTED_EDGE('',*,*,#667,.T.);
#862=ORIENTED_EDGE('',*,*,#669,.F.);
#863=ORIENTED_EDGE('',*,*,#661,.F.);
#864=ORIENTED_EDGE('',*,*,#669,.T.);
#865=ORIENTED_EDGE('',*,*,#666,.T.);
#866=ORIENTED_EDGE('',*,*,#670,.F.);
#867=ORIENTED_EDGE('',*,*,#662,.T.);
#868=ORIENTED_EDGE('',*,*,#643,.T.);
#869=ORIENTED_EDGE('',*,*,#671,.F.);
#870=ORIENTED_EDGE('',*,*,#672,.T.);
#871=ORIENTED_EDGE('',*,*,#673,.F.);
#872=ORIENTED_EDGE('',*,*,#674,.F.);
#873=ORIENTED_EDGE('',*,*,#675,.F.);
#874=ORIENTED_EDGE('',*,*,#674,.T.);
#875=ORIENTED_EDGE('',*,*,#676,.F.);
#876=ORIENTED_EDGE('',*,*,#677,.F.);
#877=ORIENTED_EDGE('',*,*,#678,.F.);
#878=ORIENTED_EDGE('',*,*,#679,.F.);
#879=ORIENTED_EDGE('',*,*,#680,.F.);
#880=ORIENTED_EDGE('',*,*,#672,.F.);
#881=ORIENTED_EDGE('',*,*,#680,.T.);
#882=ORIENTED_EDGE('',*,*,#681,.F.);
#883=ORIENTED_EDGE('',*,*,#676,.T.);
#884=ORIENTED_EDGE('',*,*,#673,.T.);
#885=ORIENTED_EDGE('',*,*,#637,.T.);
#886=ORIENTED_EDGE('',*,*,#682,.F.);
#887=ORIENTED_EDGE('',*,*,#683,.T.);
#888=ORIENTED_EDGE('',*,*,#684,.F.);
#889=ORIENTED_EDGE('',*,*,#685,.F.);
#890=ORIENTED_EDGE('',*,*,#686,.F.);
#891=ORIENTED_EDGE('',*,*,#685,.T.);
#892=ORIENTED_EDGE('',*,*,#687,.F.);
#893=ORIENTED_EDGE('',*,*,#688,.F.);
#894=ORIENTED_EDGE('',*,*,#689,.F.);
#895=ORIENTED_EDGE('',*,*,#690,.F.);
#896=ORIENTED_EDGE('',*,*,#691,.F.);
#897=ORIENTED_EDGE('',*,*,#683,.F.);
#898=ORIENTED_EDGE('',*,*,#691,.T.);
#899=ORIENTED_EDGE('',*,*,#692,.F.);
#900=ORIENTED_EDGE('',*,*,#687,.T.);
#901=ORIENTED_EDGE('',*,*,#684,.T.);
#902=ORIENTED_EDGE('',*,*,#646,.T.);
#903=ORIENTED_EDGE('',*,*,#663,.T.);
#904=ORIENTED_EDGE('',*,*,#670,.T.);
#905=ORIENTED_EDGE('',*,*,#693,.T.);
#906=ORIENTED_EDGE('',*,*,#694,.F.);
#907=ORIENTED_EDGE('',*,*,#695,.F.);
#908=ORIENTED_EDGE('',*,*,#696,.F.);
#909=ORIENTED_EDGE('',*,*,#697,.F.);
#910=ORIENTED_EDGE('',*,*,#677,.T.);
#911=ORIENTED_EDGE('',*,*,#681,.T.);
#912=ORIENTED_EDGE('',*,*,#679,.T.);
#913=ORIENTED_EDGE('',*,*,#698,.F.);
#914=ORIENTED_EDGE('',*,*,#633,.T.);
#915=ORIENTED_EDGE('',*,*,#630,.T.);
#916=ORIENTED_EDGE('',*,*,#627,.T.);
#917=ORIENTED_EDGE('',*,*,#636,.T.);
#918=ORIENTED_EDGE('',*,*,#656,.T.);
#919=ORIENTED_EDGE('',*,*,#649,.T.);
#920=ORIENTED_EDGE('',*,*,#653,.T.);
#921=ORIENTED_EDGE('',*,*,#699,.T.);
#922=ORIENTED_EDGE('',*,*,#689,.T.);
#923=ORIENTED_EDGE('',*,*,#682,.T.);
#924=ORIENTED_EDGE('',*,*,#686,.T.);
#925=ORIENTED_EDGE('',*,*,#700,.T.);
#926=ORIENTED_EDGE('',*,*,#664,.T.);
#927=ORIENTED_EDGE('',*,*,#668,.T.);
#928=ORIENTED_EDGE('',*,*,#660,.T.);
#929=ORIENTED_EDGE('',*,*,#698,.T.);
#930=ORIENTED_EDGE('',*,*,#678,.T.);
#931=ORIENTED_EDGE('',*,*,#671,.T.);
#932=ORIENTED_EDGE('',*,*,#675,.T.);
#933=ORIENTED_EDGE('',*,*,#697,.T.);
#934=ORIENTED_EDGE('',*,*,#701,.T.);
#935=ORIENTED_EDGE('',*,*,#702,.T.);
#936=ORIENTED_EDGE('',*,*,#703,.T.);
#937=ORIENTED_EDGE('',*,*,#704,.T.);
#938=ORIENTED_EDGE('',*,*,#705,.T.);
#939=ORIENTED_EDGE('',*,*,#706,.T.);
#940=ORIENTED_EDGE('',*,*,#707,.T.);
#941=ORIENTED_EDGE('',*,*,#708,.T.);
#942=ORIENTED_EDGE('',*,*,#709,.T.);
#943=ORIENTED_EDGE('',*,*,#710,.T.);
#944=ORIENTED_EDGE('',*,*,#711,.T.);
#945=ORIENTED_EDGE('',*,*,#712,.T.);
#946=ORIENTED_EDGE('',*,*,#713,.T.);
#947=ORIENTED_EDGE('',*,*,#714,.T.);
#948=ORIENTED_EDGE('',*,*,#715,.T.);
#949=ORIENTED_EDGE('',*,*,#716,.T.);
#950=ORIENTED_EDGE('',*,*,#717,.T.);
#951=ORIENTED_EDGE('',*,*,#718,.T.);
#952=ORIENTED_EDGE('',*,*,#719,.T.);
#953=ORIENTED_EDGE('',*,*,#720,.T.);
#954=ORIENTED_EDGE('',*,*,#721,.F.);
#955=ORIENTED_EDGE('',*,*,#709,.F.);
#956=ORIENTED_EDGE('',*,*,#722,.T.);
#957=ORIENTED_EDGE('',*,*,#723,.F.);
#958=ORIENTED_EDGE('',*,*,#696,.T.);
#959=ORIENTED_EDGE('',*,*,#724,.F.);
#960=ORIENTED_EDGE('',*,*,#725,.F.);
#961=ORIENTED_EDGE('',*,*,#701,.F.);
#962=ORIENTED_EDGE('',*,*,#702,.F.);
#963=ORIENTED_EDGE('',*,*,#725,.T.);
#964=ORIENTED_EDGE('',*,*,#726,.F.);
#965=ORIENTED_EDGE('',*,*,#727,.F.);
#966=ORIENTED_EDGE('',*,*,#728,.F.);
#967=ORIENTED_EDGE('',*,*,#703,.F.);
#968=ORIENTED_EDGE('',*,*,#727,.T.);
#969=ORIENTED_EDGE('',*,*,#729,.F.);
#970=ORIENTED_EDGE('',*,*,#730,.F.);
#971=ORIENTED_EDGE('',*,*,#707,.F.);
#972=ORIENTED_EDGE('',*,*,#731,.F.);
#973=ORIENTED_EDGE('',*,*,#732,.F.);
#974=ORIENTED_EDGE('',*,*,#708,.F.);
#975=ORIENTED_EDGE('',*,*,#730,.T.);
#976=ORIENTED_EDGE('',*,*,#733,.F.);
#977=ORIENTED_EDGE('',*,*,#722,.F.);
#978=ORIENTED_EDGE('',*,*,#724,.T.);
#979=ORIENTED_EDGE('',*,*,#734,.F.);
#980=ORIENTED_EDGE('',*,*,#723,.T.);
#981=ORIENTED_EDGE('',*,*,#733,.T.);
#982=ORIENTED_EDGE('',*,*,#729,.T.);
#983=ORIENTED_EDGE('',*,*,#726,.T.);
#984=ORIENTED_EDGE('',*,*,#732,.T.);
#985=ORIENTED_EDGE('',*,*,#735,.T.);
#986=ORIENTED_EDGE('',*,*,#736,.T.);
#987=ORIENTED_EDGE('',*,*,#737,.T.);
#988=ORIENTED_EDGE('',*,*,#738,.T.);
#989=ORIENTED_EDGE('',*,*,#731,.T.);
#990=ORIENTED_EDGE('',*,*,#706,.F.);
#991=ORIENTED_EDGE('',*,*,#739,.T.);
#992=ORIENTED_EDGE('',*,*,#735,.F.);
#993=ORIENTED_EDGE('',*,*,#740,.F.);
#994=ORIENTED_EDGE('',*,*,#741,.T.);
#995=ORIENTED_EDGE('',*,*,#742,.F.);
#996=ORIENTED_EDGE('',*,*,#741,.F.);
#997=ORIENTED_EDGE('',*,*,#743,.T.);
#998=ORIENTED_EDGE('',*,*,#744,.T.);
#999=ORIENTED_EDGE('',*,*,#744,.F.);
#1000=ORIENTED_EDGE('',*,*,#738,.F.);
#1001=ORIENTED_EDGE('',*,*,#745,.T.);
#1002=ORIENTED_EDGE('',*,*,#743,.F.);
#1003=ORIENTED_EDGE('',*,*,#745,.F.);
#1004=ORIENTED_EDGE('',*,*,#746,.F.);
#1005=ORIENTED_EDGE('',*,*,#747,.F.);
#1006=ORIENTED_EDGE('',*,*,#748,.T.);
#1007=ORIENTED_EDGE('',*,*,#749,.F.);
#1008=ORIENTED_EDGE('',*,*,#742,.T.);
#1009=ORIENTED_EDGE('',*,*,#750,.F.);
#1010=ORIENTED_EDGE('',*,*,#749,.T.);
#1011=ORIENTED_EDGE('',*,*,#751,.T.);
#1012=ORIENTED_EDGE('',*,*,#716,.F.);
#1013=ORIENTED_EDGE('',*,*,#751,.F.);
#1014=ORIENTED_EDGE('',*,*,#748,.F.);
#1015=ORIENTED_EDGE('',*,*,#752,.F.);
#1016=ORIENTED_EDGE('',*,*,#717,.F.);
#1017=ORIENTED_EDGE('',*,*,#752,.T.);
#1018=ORIENTED_EDGE('',*,*,#747,.T.);
#1019=ORIENTED_EDGE('',*,*,#753,.T.);
#1020=ORIENTED_EDGE('',*,*,#754,.F.);
#1021=ORIENTED_EDGE('',*,*,#755,.F.);
#1022=ORIENTED_EDGE('',*,*,#718,.F.);
#1023=ORIENTED_EDGE('',*,*,#720,.F.);
#1024=ORIENTED_EDGE('',*,*,#756,.T.);
#1025=ORIENTED_EDGE('',*,*,#757,.F.);
#1026=ORIENTED_EDGE('',*,*,#758,.F.);
#1027=ORIENTED_EDGE('',*,*,#711,.F.);
#1028=ORIENTED_EDGE('',*,*,#759,.T.);
#1029=ORIENTED_EDGE('',*,*,#760,.F.);
#1030=ORIENTED_EDGE('',*,*,#761,.F.);
#1031=ORIENTED_EDGE('',*,*,#712,.F.);
#1032=ORIENTED_EDGE('',*,*,#761,.T.);
#1033=ORIENTED_EDGE('',*,*,#762,.F.);
#1034=ORIENTED_EDGE('',*,*,#763,.F.);
#1035=ORIENTED_EDGE('',*,*,#713,.F.);
#1036=ORIENTED_EDGE('',*,*,#763,.T.);
#1037=ORIENTED_EDGE('',*,*,#764,.F.);
#1038=ORIENTED_EDGE('',*,*,#765,.F.);
#1039=ORIENTED_EDGE('',*,*,#714,.F.);
#1040=ORIENTED_EDGE('',*,*,#765,.T.);
#1041=ORIENTED_EDGE('',*,*,#766,.F.);
#1042=ORIENTED_EDGE('',*,*,#759,.F.);
#1043=ORIENTED_EDGE('',*,*,#766,.T.);
#1044=ORIENTED_EDGE('',*,*,#764,.T.);
#1045=ORIENTED_EDGE('',*,*,#762,.T.);
#1046=ORIENTED_EDGE('',*,*,#760,.T.);
#1047=ORIENTED_EDGE('',*,*,#728,.T.);
#1048=ORIENTED_EDGE('',*,*,#737,.F.);
#1049=ORIENTED_EDGE('',*,*,#767,.F.);
#1050=ORIENTED_EDGE('',*,*,#704,.F.);
#1051=ORIENTED_EDGE('',*,*,#705,.F.);
#1052=ORIENTED_EDGE('',*,*,#767,.T.);
#1053=ORIENTED_EDGE('',*,*,#736,.F.);
#1054=ORIENTED_EDGE('',*,*,#739,.F.);
#1055=ORIENTED_EDGE('',*,*,#750,.T.);
#1056=ORIENTED_EDGE('',*,*,#715,.F.);
#1057=ORIENTED_EDGE('',*,*,#758,.T.);
#1058=ORIENTED_EDGE('',*,*,#768,.F.);
#1059=ORIENTED_EDGE('',*,*,#753,.F.);
#1060=ORIENTED_EDGE('',*,*,#746,.T.);
#1061=ORIENTED_EDGE('',*,*,#719,.F.);
#1062=ORIENTED_EDGE('',*,*,#755,.T.);
#1063=ORIENTED_EDGE('',*,*,#769,.F.);
#1064=ORIENTED_EDGE('',*,*,#756,.F.);
#1065=ORIENTED_EDGE('',*,*,#769,.T.);
#1066=ORIENTED_EDGE('',*,*,#754,.T.);
#1067=ORIENTED_EDGE('',*,*,#768,.T.);
#1068=ORIENTED_EDGE('',*,*,#757,.T.);
#1069=ORIENTED_EDGE('',*,*,#740,.T.);
#1070=ORIENTED_EDGE('',*,*,#700,.F.);
#1071=ORIENTED_EDGE('',*,*,#688,.T.);
#1072=ORIENTED_EDGE('',*,*,#770,.T.);
#1073=ORIENTED_EDGE('',*,*,#771,.F.);
#1074=ORIENTED_EDGE('',*,*,#693,.F.);
#1075=ORIENTED_EDGE('',*,*,#665,.F.);
#1076=ORIENTED_EDGE('',*,*,#734,.T.);
#1077=ORIENTED_EDGE('',*,*,#695,.T.);
#1078=ORIENTED_EDGE('',*,*,#772,.F.);
#1079=ORIENTED_EDGE('',*,*,#773,.F.);
#1080=ORIENTED_EDGE('',*,*,#657,.T.);
#1081=ORIENTED_EDGE('',*,*,#710,.F.);
#1082=ORIENTED_EDGE('',*,*,#721,.T.);
#1083=ORIENTED_EDGE('',*,*,#773,.T.);
#1084=ORIENTED_EDGE('',*,*,#774,.F.);
#1085=ORIENTED_EDGE('',*,*,#770,.F.);
#1086=ORIENTED_EDGE('',*,*,#692,.T.);
#1087=ORIENTED_EDGE('',*,*,#690,.T.);
#1088=ORIENTED_EDGE('',*,*,#699,.F.);
#1089=ORIENTED_EDGE('',*,*,#655,.T.);
#1090=ORIENTED_EDGE('',*,*,#659,.T.);
#1091=ORIENTED_EDGE('',*,*,#775,.F.);
#1092=ORIENTED_EDGE('',*,*,#776,.T.);
#1093=ORIENTED_EDGE('',*,*,#777,.F.);
#1094=ORIENTED_EDGE('',*,*,#778,.F.);
#1095=ORIENTED_EDGE('',*,*,#779,.F.);
#1096=ORIENTED_EDGE('',*,*,#778,.T.);
#1097=ORIENTED_EDGE('',*,*,#780,.F.);
#1098=ORIENTED_EDGE('',*,*,#781,.F.);
#1099=ORIENTED_EDGE('',*,*,#782,.F.);
#1100=ORIENTED_EDGE('',*,*,#781,.T.);
#1101=ORIENTED_EDGE('',*,*,#783,.F.);
#1102=ORIENTED_EDGE('',*,*,#784,.F.);
#1103=ORIENTED_EDGE('',*,*,#785,.F.);
#1104=ORIENTED_EDGE('',*,*,#784,.T.);
#1105=ORIENTED_EDGE('',*,*,#786,.F.);
#1106=ORIENTED_EDGE('',*,*,#776,.F.);
#1107=ORIENTED_EDGE('',*,*,#632,.T.);
#1108=ORIENTED_EDGE('',*,*,#635,.T.);
#1109=ORIENTED_EDGE('',*,*,#625,.T.);
#1110=ORIENTED_EDGE('',*,*,#629,.T.);
#1111=ORIENTED_EDGE('',*,*,#786,.T.);
#1112=ORIENTED_EDGE('',*,*,#783,.T.);
#1113=ORIENTED_EDGE('',*,*,#780,.T.);
#1114=ORIENTED_EDGE('',*,*,#777,.T.);
#1115=ORIENTED_EDGE('',*,*,#774,.T.);
#1116=ORIENTED_EDGE('',*,*,#772,.T.);
#1117=ORIENTED_EDGE('',*,*,#694,.T.);
#1118=ORIENTED_EDGE('',*,*,#771,.T.);
#1119=ORIENTED_EDGE('',*,*,#787,.T.);
#1120=ORIENTED_EDGE('',*,*,#788,.T.);
#1121=ORIENTED_EDGE('',*,*,#789,.T.);
#1122=ORIENTED_EDGE('',*,*,#790,.T.);
#1123=ORIENTED_EDGE('',*,*,#775,.T.);
#1124=ORIENTED_EDGE('',*,*,#779,.T.);
#1125=ORIENTED_EDGE('',*,*,#782,.T.);
#1126=ORIENTED_EDGE('',*,*,#785,.T.);
#1127=ORIENTED_EDGE('',*,*,#788,.F.);
#1128=ORIENTED_EDGE('',*,*,#791,.T.);
#1129=ORIENTED_EDGE('',*,*,#792,.F.);
#1130=ORIENTED_EDGE('',*,*,#793,.F.);
#1131=ORIENTED_EDGE('',*,*,#789,.F.);
#1132=ORIENTED_EDGE('',*,*,#793,.T.);
#1133=ORIENTED_EDGE('',*,*,#794,.F.);
#1134=ORIENTED_EDGE('',*,*,#795,.F.);
#1135=ORIENTED_EDGE('',*,*,#790,.F.);
#1136=ORIENTED_EDGE('',*,*,#795,.T.);
#1137=ORIENTED_EDGE('',*,*,#796,.F.);
#1138=ORIENTED_EDGE('',*,*,#797,.F.);
#1139=ORIENTED_EDGE('',*,*,#787,.F.);
#1140=ORIENTED_EDGE('',*,*,#797,.T.);
#1141=ORIENTED_EDGE('',*,*,#798,.F.);
#1142=ORIENTED_EDGE('',*,*,#791,.F.);
#1143=ORIENTED_EDGE('',*,*,#798,.T.);
#1144=ORIENTED_EDGE('',*,*,#796,.T.);
#1145=ORIENTED_EDGE('',*,*,#794,.T.);
#1146=ORIENTED_EDGE('',*,*,#792,.T.);
#1147=PLANE('',#1363);
#1148=PLANE('',#1367);
#1149=PLANE('',#1374);
#1150=PLANE('',#1378);
#1151=PLANE('',#1382);
#1152=PLANE('',#1386);
#1153=PLANE('',#1387);
#1154=PLANE('',#1388);
#1155=PLANE('',#1389);
#1156=PLANE('',#1390);
#1157=PLANE('',#1391);
#1158=PLANE('',#1392);
#1159=PLANE('',#1393);
#1160=PLANE('',#1394);
#1161=PLANE('',#1395);
#1162=PLANE('',#1396);
#1163=PLANE('',#1397);
#1164=PLANE('',#1398);
#1165=PLANE('',#1399);
#1166=PLANE('',#1400);
#1167=PLANE('',#1401);
#1168=PLANE('',#1402);
#1169=PLANE('',#1403);
#1170=PLANE('',#1404);
#1171=PLANE('',#1414);
#1172=PLANE('',#1418);
#1173=PLANE('',#1419);
#1174=PLANE('',#1421);
#1175=PLANE('',#1423);
#1176=PLANE('',#1430);
#1177=PLANE('',#1431);
#1178=PLANE('',#1432);
#1179=PLANE('',#1433);
#1180=PLANE('',#1434);
#1181=PLANE('',#1435);
#1182=PLANE('',#1436);
#1183=PLANE('',#1437);
#1184=PLANE('',#1438);
#1185=PLANE('',#1439);
#1186=PLANE('',#1440);
#1187=PLANE('',#1441);
#1188=PLANE('',#1442);
#1189=PLANE('',#1443);
#1190=PLANE('',#1444);
#1191=PLANE('',#1449);
#1192=PLANE('',#1453);
#1193=PLANE('',#1457);
#1194=PLANE('',#1458);
#1195=PLANE('',#1459);
#1196=PLANE('',#1464);
#1197=PLANE('',#1467);
#1198=PLANE('',#1468);
#1199=STYLED_ITEM('',(#2201),#1270);
#1200=STYLED_ITEM('',(#2201),#1271);
#1201=STYLED_ITEM('',(#2201),#1272);
#1202=STYLED_ITEM('',(#2201),#1273);
#1203=STYLED_ITEM('',(#2201),#1274);
#1204=STYLED_ITEM('',(#2201),#1275);
#1205=STYLED_ITEM('',(#2201),#1276);
#1206=STYLED_ITEM('',(#2201),#1277);
#1207=STYLED_ITEM('',(#2201),#1278);
#1208=STYLED_ITEM('',(#2201),#1279);
#1209=STYLED_ITEM('',(#2201),#1280);
#1210=STYLED_ITEM('',(#2201),#1281);
#1211=STYLED_ITEM('',(#2201),#1282);
#1212=STYLED_ITEM('',(#2201),#1283);
#1213=STYLED_ITEM('',(#2201),#1284);
#1214=STYLED_ITEM('',(#2201),#1285);
#1215=STYLED_ITEM('',(#2201),#1286);
#1216=STYLED_ITEM('',(#2201),#1287);
#1217=STYLED_ITEM('',(#2201),#1288);
#1218=STYLED_ITEM('',(#2201),#1289);
#1219=STYLED_ITEM('',(#2201),#1290);
#1220=STYLED_ITEM('',(#2201),#1291);
#1221=STYLED_ITEM('',(#2201),#1292);
#1222=STYLED_ITEM('',(#2201),#1293);
#1223=STYLED_ITEM('',(#2201),#1294);
#1224=STYLED_ITEM('',(#2201),#1295);
#1225=STYLED_ITEM('',(#2201),#1296);
#1226=STYLED_ITEM('',(#2201),#1297);
#1227=STYLED_ITEM('',(#2201),#1298);
#1228=STYLED_ITEM('',(#2201),#1299);
#1229=STYLED_ITEM('',(#2201),#1300);
#1230=STYLED_ITEM('',(#2201),#1301);
#1231=STYLED_ITEM('',(#2201),#1302);
#1232=STYLED_ITEM('',(#2201),#1303);
#1233=STYLED_ITEM('',(#2201),#1304);
#1234=STYLED_ITEM('',(#2201),#1305);
#1235=STYLED_ITEM('',(#2201),#1306);
#1236=STYLED_ITEM('',(#2201),#1307);
#1237=STYLED_ITEM('',(#2201),#1308);
#1238=STYLED_ITEM('',(#2201),#1309);
#1239=STYLED_ITEM('',(#2201),#1310);
#1240=STYLED_ITEM('',(#2201),#1311);
#1241=STYLED_ITEM('',(#2201),#1312);
#1242=STYLED_ITEM('',(#2201),#1313);
#1243=STYLED_ITEM('',(#2201),#1314);
#1244=STYLED_ITEM('',(#2201),#1315);
#1245=STYLED_ITEM('',(#2201),#1316);
#1246=STYLED_ITEM('',(#2201),#1317);
#1247=STYLED_ITEM('',(#2201),#1318);
#1248=STYLED_ITEM('',(#2201),#1319);
#1249=STYLED_ITEM('',(#2201),#1320);
#1250=STYLED_ITEM('',(#2201),#1321);
#1251=STYLED_ITEM('',(#2201),#1322);
#1252=STYLED_ITEM('',(#2201),#1323);
#1253=STYLED_ITEM('',(#2201),#1324);
#1254=STYLED_ITEM('',(#2201),#1325);
#1255=STYLED_ITEM('',(#2201),#1326);
#1256=STYLED_ITEM('',(#2201),#1327);
#1257=STYLED_ITEM('',(#2201),#1328);
#1258=STYLED_ITEM('',(#2201),#1329);
#1259=STYLED_ITEM('',(#2201),#1330);
#1260=STYLED_ITEM('',(#2201),#1331);
#1261=STYLED_ITEM('',(#2201),#1332);
#1262=STYLED_ITEM('',(#2201),#1333);
#1263=STYLED_ITEM('',(#2201),#1334);
#1264=STYLED_ITEM('',(#2201),#1335);
#1265=STYLED_ITEM('',(#2201),#1336);
#1266=STYLED_ITEM('',(#2201),#1337);
#1267=STYLED_ITEM('',(#2201),#1338);
#1268=STYLED_ITEM('',(#2201),#1339);
#1269=STYLED_ITEM('',(#2200),#13);
#1270=ADVANCED_FACE('',(#81),#1147,.F.);
#1271=ADVANCED_FACE('',(#82),#64,.F.);
#1272=ADVANCED_FACE('',(#83),#1148,.F.);
#1273=ADVANCED_FACE('',(#84),#65,.F.);
#1274=ADVANCED_FACE('',(#85),#66,.F.);
#1275=ADVANCED_FACE('',(#86),#1149,.T.);
#1276=ADVANCED_FACE('',(#87),#67,.F.);
#1277=ADVANCED_FACE('',(#88),#1150,.T.);
#1278=ADVANCED_FACE('',(#89),#68,.F.);
#1279=ADVANCED_FACE('',(#90),#1151,.T.);
#1280=ADVANCED_FACE('',(#91),#69,.F.);
#1281=ADVANCED_FACE('',(#92),#1152,.T.);
#1282=ADVANCED_FACE('',(#93),#1153,.T.);
#1283=ADVANCED_FACE('',(#94),#1154,.T.);
#1284=ADVANCED_FACE('',(#95),#1155,.T.);
#1285=ADVANCED_FACE('',(#96,#15),#1156,.T.);
#1286=ADVANCED_FACE('',(#97),#1157,.T.);
#1287=ADVANCED_FACE('',(#98),#1158,.T.);
#1288=ADVANCED_FACE('',(#99),#1159,.T.);
#1289=ADVANCED_FACE('',(#100,#16),#1160,.T.);
#1290=ADVANCED_FACE('',(#101),#1161,.T.);
#1291=ADVANCED_FACE('',(#102),#1162,.T.);
#1292=ADVANCED_FACE('',(#103),#1163,.T.);
#1293=ADVANCED_FACE('',(#104,#17),#1164,.T.);
#1294=ADVANCED_FACE('',(#105),#1165,.T.);
#1295=ADVANCED_FACE('',(#106),#1166,.T.);
#1296=ADVANCED_FACE('',(#107),#1167,.T.);
#1297=ADVANCED_FACE('',(#108,#18),#1168,.T.);
#1298=ADVANCED_FACE('',(#109,#19),#1169,.T.);
#1299=ADVANCED_FACE('',(#110,#20,#21),#1170,.T.);
#1300=ADVANCED_FACE('',(#111),#70,.T.);
#1301=ADVANCED_FACE('',(#112),#71,.T.);
#1302=ADVANCED_FACE('',(#113),#1171,.T.);
#1303=ADVANCED_FACE('',(#114),#72,.F.);
#1304=ADVANCED_FACE('',(#115),#1172,.T.);
#1305=ADVANCED_FACE('',(#116),#1173,.T.);
#1306=ADVANCED_FACE('',(#117,#22),#1174,.T.);
#1307=ADVANCED_FACE('',(#118),#1175,.T.);
#1308=ADVANCED_FACE('',(#119),#73,.F.);
#1309=ADVANCED_FACE('',(#120),#14,.F.);
#1310=ADVANCED_FACE('',(#121),#74,.F.);
#1311=ADVANCED_FACE('',(#122,#23),#1176,.F.);
#1312=ADVANCED_FACE('',(#123),#1177,.F.);
#1313=ADVANCED_FACE('',(#124),#1178,.F.);
#1314=ADVANCED_FACE('',(#125),#1179,.T.);
#1315=ADVANCED_FACE('',(#126),#1180,.T.);
#1316=ADVANCED_FACE('',(#127),#1181,.T.);
#1317=ADVANCED_FACE('',(#128),#1182,.T.);
#1318=ADVANCED_FACE('',(#129),#1183,.T.);
#1319=ADVANCED_FACE('',(#130),#1184,.T.);
#1320=ADVANCED_FACE('',(#131),#1185,.T.);
#1321=ADVANCED_FACE('',(#132),#1186,.T.);
#1322=ADVANCED_FACE('',(#133),#1187,.T.);
#1323=ADVANCED_FACE('',(#134),#1188,.T.);
#1324=ADVANCED_FACE('',(#135),#1189,.T.);
#1325=ADVANCED_FACE('',(#136,#24),#1190,.T.);
#1326=ADVANCED_FACE('',(#137),#75,.F.);
#1327=ADVANCED_FACE('',(#138),#76,.F.);
#1328=ADVANCED_FACE('',(#139),#1191,.T.);
#1329=ADVANCED_FACE('',(#140),#77,.T.);
#1330=ADVANCED_FACE('',(#141),#1192,.T.);
#1331=ADVANCED_FACE('',(#142),#78,.T.);
#1332=ADVANCED_FACE('',(#143,#25),#1193,.T.);
#1333=ADVANCED_FACE('',(#144,#26),#1194,.T.);
#1334=ADVANCED_FACE('',(#145,#27),#1195,.T.);
#1335=ADVANCED_FACE('',(#146),#79,.T.);
#1336=ADVANCED_FACE('',(#147),#1196,.T.);
#1337=ADVANCED_FACE('',(#148),#80,.T.);
#1338=ADVANCED_FACE('',(#149),#1197,.T.);
#1339=ADVANCED_FACE('',(#150),#1198,.F.);
#1340=CLOSED_SHELL('',(#1270,#1271,#1272,#1273,#1274,#1275,#1276,#1277,
#1278,#1279,#1280,#1281,#1282,#1283,#1284,#1285,#1286,#1287,#1288,#1289,
#1290,#1291,#1292,#1293,#1294,#1295,#1296,#1297,#1298,#1299,#1300,#1301,
#1302,#1303,#1304,#1305,#1306,#1307,#1308,#1309,#1310,#1311,#1312,#1313,
#1314,#1315,#1316,#1317,#1318,#1319,#1320,#1321,#1322,#1323,#1324,#1325,
#1326,#1327,#1328,#1329,#1330,#1331,#1332,#1333,#1334,#1335,#1336,#1337,
#1338,#1339));
#1341=DERIVED_UNIT_ELEMENT(#1344,1.);
#1342=DERIVED_UNIT_ELEMENT(#2186,-3.);
#1343=DIMENSIONAL_EXPONENTS(0.,1.,0.,0.,0.,0.,0.);
#1344=(
CONVERSION_BASED_UNIT('gram',#1346)
MASS_UNIT()
NAMED_UNIT(#1343)
);
#1345=(
MASS_UNIT()
NAMED_UNIT(*)
SI_UNIT(.KILO.,.GRAM.)
);
#1346=MASS_MEASURE_WITH_UNIT(MASS_MEASURE(0.001),#1345);
#1347=DERIVED_UNIT((#1341,#1342));
#1348=MEASURE_REPRESENTATION_ITEM('density measure',
POSITIVE_RATIO_MEASURE(1.),#1347);
#1349=PROPERTY_DEFINITION_REPRESENTATION(#1354,#1351);
#1350=PROPERTY_DEFINITION_REPRESENTATION(#1355,#1352);
#1351=REPRESENTATION('material name',(#1353),#2183);
#1352=REPRESENTATION('density',(#1348),#2183);
#1353=DESCRIPTIVE_REPRESENTATION_ITEM('Generisch','Generisch');
#1354=PROPERTY_DEFINITION('material property','material name',#2193);
#1355=PROPERTY_DEFINITION('material property','density of part',#2193);
#1356=DATE_TIME_ROLE('creation_date');
#1357=APPLIED_DATE_AND_TIME_ASSIGNMENT(#1358,#1356,(#2193));
#1358=DATE_AND_TIME(#1359,#1360);
#1359=CALENDAR_DATE(2026,25,3);
#1360=LOCAL_TIME(0,0,0.,#1361);
#1361=COORDINATED_UNIVERSAL_TIME_OFFSET(0,0,.BEHIND.);
#1362=AXIS2_PLACEMENT_3D('',#1821,#1469,#1470);
#1363=AXIS2_PLACEMENT_3D('',#1822,#1471,#1472);
#1364=AXIS2_PLACEMENT_3D('',#1831,#1477,#1478);
#1365=AXIS2_PLACEMENT_3D('',#1833,#1479,#1480);
#1366=AXIS2_PLACEMENT_3D('',#1835,#1481,#1482);
#1367=AXIS2_PLACEMENT_3D('',#1837,#1484,#1485);
#1368=AXIS2_PLACEMENT_3D('',#1843,#1489,#1490);
#1369=AXIS2_PLACEMENT_3D('',#1844,#1491,#1492);
#1370=AXIS2_PLACEMENT_3D('',#1845,#1493,#1494);
#1371=AXIS2_PLACEMENT_3D('',#1846,#1495,#1496);
#1372=AXIS2_PLACEMENT_3D('',#1848,#1497,#1498);
#1373=AXIS2_PLACEMENT_3D('',#1851,#1500,#1501);
#1374=AXIS2_PLACEMENT_3D('',#1852,#1502,#1503);
#1375=AXIS2_PLACEMENT_3D('',#1853,#1504,#1505);
#1376=AXIS2_PLACEMENT_3D('',#1855,#1506,#1507);
#1377=AXIS2_PLACEMENT_3D('',#1858,#1509,#1510);
#1378=AXIS2_PLACEMENT_3D('',#1859,#1511,#1512);
#1379=AXIS2_PLACEMENT_3D('',#1860,#1513,#1514);
#1380=AXIS2_PLACEMENT_3D('',#1862,#1515,#1516);
#1381=AXIS2_PLACEMENT_3D('',#1865,#1518,#1519);
#1382=AXIS2_PLACEMENT_3D('',#1866,#1520,#1521);
#1383=AXIS2_PLACEMENT_3D('',#1867,#1522,#1523);
#1384=AXIS2_PLACEMENT_3D('',#1869,#1524,#1525);
#1385=AXIS2_PLACEMENT_3D('',#1872,#1527,#1528);
#1386=AXIS2_PLACEMENT_3D('',#1873,#1529,#1530);
#1387=AXIS2_PLACEMENT_3D('',#1874,#1531,#1532);
#1388=AXIS2_PLACEMENT_3D('',#1883,#1537,#1538);
#1389=AXIS2_PLACEMENT_3D('',#1889,#1542,#1543);
#1390=AXIS2_PLACEMENT_3D('',#1895,#1547,#1548);
#1391=AXIS2_PLACEMENT_3D('',#1897,#1550,#1551);
#1392=AXIS2_PLACEMENT_3D('',#1906,#1556,#1557);
#1393=AXIS2_PLACEMENT_3D('',#1915,#1562,#1563);
#1394=AXIS2_PLACEMENT_3D('',#1918,#1566,#1567);
#1395=AXIS2_PLACEMENT_3D('',#1920,#1569,#1570);
#1396=AXIS2_PLACEMENT_3D('',#1929,#1575,#1576);
#1397=AXIS2_PLACEMENT_3D('',#1935,#1580,#1581);
#1398=AXIS2_PLACEMENT_3D('',#1941,#1585,#1586);
#1399=AXIS2_PLACEMENT_3D('',#1943,#1588,#1589);
#1400=AXIS2_PLACEMENT_3D('',#1952,#1594,#1595);
#1401=AXIS2_PLACEMENT_3D('',#1958,#1599,#1600);
#1402=AXIS2_PLACEMENT_3D('',#1964,#1604,#1605);
#1403=AXIS2_PLACEMENT_3D('',#1966,#1607,#1608);
#1404=AXIS2_PLACEMENT_3D('',#1977,#1615,#1616);
#1405=AXIS2_PLACEMENT_3D('',#1979,#1618,#1619);
#1406=AXIS2_PLACEMENT_3D('',#1981,#1620,#1621);
#1407=AXIS2_PLACEMENT_3D('',#1985,#1623,#1624);
#1408=AXIS2_PLACEMENT_3D('',#1993,#1628,#1629);
#1409=AXIS2_PLACEMENT_3D('',#1997,#1631,#1632);
#1410=AXIS2_PLACEMENT_3D('',#2019,#1644,#1645);
#1411=AXIS2_PLACEMENT_3D('',#2024,#1648,#1649);
#1412=AXIS2_PLACEMENT_3D('',#2025,#1650,#1651);
#1413=AXIS2_PLACEMENT_3D('',#2027,#1652,#1653);
#1414=AXIS2_PLACEMENT_3D('',#2029,#1655,#1656);
#1415=AXIS2_PLACEMENT_3D('',#2033,#1659,#1660);
#1416=AXIS2_PLACEMENT_3D('',#2037,#1662,#1663);
#1417=AXIS2_PLACEMENT_3D('',#2041,#1666,#1667);
#1418=AXIS2_PLACEMENT_3D('',#2042,#1668,#1669);
#1419=AXIS2_PLACEMENT_3D('',#2044,#1671,#1672);
#1420=AXIS2_PLACEMENT_3D('',#2045,#1673,#1674);
#1421=AXIS2_PLACEMENT_3D('',#2046,#1675,#1676);
#1422=AXIS2_PLACEMENT_3D('',#2053,#1680,#1681);
#1423=AXIS2_PLACEMENT_3D('',#2054,#1682,#1683);
#1424=AXIS2_PLACEMENT_3D('',#2056,#1685,#1686);
#1425=AXIS2_PLACEMENT_3D('',#2058,#1687,#1688);
#1426=AXIS2_PLACEMENT_3D('',#2061,#1690,#1691);
#1427=AXIS2_PLACEMENT_3D('',#2062,#1692,#1693);
#1428=AXIS2_PLACEMENT_3D('',#2064,#1694,#1695);
#1429=AXIS2_PLACEMENT_3D('',#2067,#1697,#1698);
#1430=AXIS2_PLACEMENT_3D('',#2069,#1700,#1701);
#1431=AXIS2_PLACEMENT_3D('',#2078,#1706,#1707);
#1432=AXIS2_PLACEMENT_3D('',#2081,#1710,#1711);
#1433=AXIS2_PLACEMENT_3D('',#2083,#1713,#1714);
#1434=AXIS2_PLACEMENT_3D('',#2089,#1718,#1719);
#1435=AXIS2_PLACEMENT_3D('',#2095,#1723,#1724);
#1436=AXIS2_PLACEMENT_3D('',#2101,#1728,#1729);
#1437=AXIS2_PLACEMENT_3D('',#2105,#1732,#1733);
#1438=AXIS2_PLACEMENT_3D('',#2109,#1736,#1737);
#1439=AXIS2_PLACEMENT_3D('',#2111,#1739,#1740);
#1440=AXIS2_PLACEMENT_3D('',#2112,#1741,#1742);
#1441=AXIS2_PLACEMENT_3D('',#2114,#1744,#1745);
#1442=AXIS2_PLACEMENT_3D('',#2115,#1746,#1747);
#1443=AXIS2_PLACEMENT_3D('',#2117,#1749,#1750);
#1444=AXIS2_PLACEMENT_3D('',#2119,#1752,#1753);
#1445=AXIS2_PLACEMENT_3D('',#2120,#1754,#1755);
#1446=AXIS2_PLACEMENT_3D('',#2123,#1757,#1758);
#1447=AXIS2_PLACEMENT_3D('',#2124,#1759,#1760);
#1448=AXIS2_PLACEMENT_3D('',#2126,#1761,#1762);
#1449=AXIS2_PLACEMENT_3D('',#2128,#1764,#1765);
#1450=AXIS2_PLACEMENT_3D('',#2130,#1767,#1768);
#1451=AXIS2_PLACEMENT_3D('',#2133,#1769,#1770);
#1452=AXIS2_PLACEMENT_3D('',#2137,#1772,#1773);
#1453=AXIS2_PLACEMENT_3D('',#2139,#1775,#1776);
#1454=AXIS2_PLACEMENT_3D('',#2145,#1780,#1781);
#1455=AXIS2_PLACEMENT_3D('',#2147,#1782,#1783);
#1456=AXIS2_PLACEMENT_3D('',#2149,#1784,#1785);
#1457=AXIS2_PLACEMENT_3D('',#2151,#1787,#1788);
#1458=AXIS2_PLACEMENT_3D('',#2154,#1791,#1792);
#1459=AXIS2_PLACEMENT_3D('',#2155,#1793,#1794);
#1460=AXIS2_PLACEMENT_3D('',#2160,#1796,#1797);
#1461=AXIS2_PLACEMENT_3D('',#2163,#1799,#1800);
#1462=AXIS2_PLACEMENT_3D('',#2164,#1801,#1802);
#1463=AXIS2_PLACEMENT_3D('',#2168,#1804,#1805);
#1464=AXIS2_PLACEMENT_3D('',#2170,#1807,#1808);
#1465=AXIS2_PLACEMENT_3D('',#2174,#1811,#1812);
#1466=AXIS2_PLACEMENT_3D('',#2176,#1813,#1814);
#1467=AXIS2_PLACEMENT_3D('',#2178,#1816,#1817);
#1468=AXIS2_PLACEMENT_3D('',#2180,#1819,#1820);
#1469=DIRECTION('axis',(0.,0.,1.));
#1470=DIRECTION('refdir',(1.,0.,0.));
#1471=DIRECTION('center_axis',(4.44089209850063E-16,0.,-1.));
#1472=DIRECTION('ref_axis',(-1.,0.,-4.44089209850063E-16));
#1473=DIRECTION('',(1.,0.,4.44089209850063E-16));
#1474=DIRECTION('',(0.,1.,0.));
#1475=DIRECTION('',(-1.,0.,-4.44089209850063E-16));
#1476=DIRECTION('',(0.,1.,0.));
#1477=DIRECTION('center_axis',(0.,1.,0.));
#1478=DIRECTION('ref_axis',(0.,0.,-1.));
#1479=DIRECTION('center_axis',(0.,-1.,0.));
#1480=DIRECTION('ref_axis',(0.,0.,-1.));
#1481=DIRECTION('center_axis',(0.,1.,0.));
#1482=DIRECTION('ref_axis',(0.,0.,-1.));
#1483=DIRECTION('',(0.,1.,0.));
#1484=DIRECTION('center_axis',(-3.41607084500048E-16,0.,1.));
#1485=DIRECTION('ref_axis',(1.,0.,3.41607084500048E-16));
#1486=DIRECTION('',(-1.,0.,-3.41607084500048E-16));
#1487=DIRECTION('',(1.,0.,3.41607084500048E-16));
#1488=DIRECTION('',(0.,1.,0.));
#1489=DIRECTION('center_axis',(0.,1.,0.));
#1490=DIRECTION('ref_axis',(0.,0.,1.));
#1491=DIRECTION('center_axis',(0.,-1.,0.));
#1492=DIRECTION('ref_axis',(0.,0.,1.));
#1493=DIRECTION('center_axis',(0.,1.,0.));
#1494=DIRECTION('ref_axis',(0.,0.,1.));
#1495=DIRECTION('center_axis',(0.,0.,-1.));
#1496=DIRECTION('ref_axis',(1.,0.,0.));
#1497=DIRECTION('center_axis',(0.,0.,-1.));
#1498=DIRECTION('ref_axis',(1.,0.,0.));
#1499=DIRECTION('',(0.,0.,-1.));
#1500=DIRECTION('center_axis',(0.,0.,-1.));
#1501=DIRECTION('ref_axis',(1.,0.,0.));
#1502=DIRECTION('center_axis',(0.,0.,1.));
#1503=DIRECTION('ref_axis',(1.,0.,0.));
#1504=DIRECTION('center_axis',(0.,0.,-1.));
#1505=DIRECTION('ref_axis',(1.,0.,0.));
#1506=DIRECTION('center_axis',(0.,0.,-1.));
#1507=DIRECTION('ref_axis',(1.,0.,0.));
#1508=DIRECTION('',(0.,0.,-1.));
#1509=DIRECTION('center_axis',(0.,0.,-1.));
#1510=DIRECTION('ref_axis',(1.,0.,0.));
#1511=DIRECTION('center_axis',(0.,0.,1.));
#1512=DIRECTION('ref_axis',(1.,0.,0.));
#1513=DIRECTION('center_axis',(0.,0.,-1.));
#1514=DIRECTION('ref_axis',(1.,0.,0.));
#1515=DIRECTION('center_axis',(0.,0.,-1.));
#1516=DIRECTION('ref_axis',(1.,0.,0.));
#1517=DIRECTION('',(0.,0.,-1.));
#1518=DIRECTION('center_axis',(0.,0.,-1.));
#1519=DIRECTION('ref_axis',(1.,0.,0.));
#1520=DIRECTION('center_axis',(0.,0.,1.));
#1521=DIRECTION('ref_axis',(1.,0.,0.));
#1522=DIRECTION('center_axis',(0.,0.,-1.));
#1523=DIRECTION('ref_axis',(1.,0.,0.));
#1524=DIRECTION('center_axis',(0.,0.,-1.));
#1525=DIRECTION('ref_axis',(1.,0.,0.));
#1526=DIRECTION('',(0.,0.,-1.));
#1527=DIRECTION('center_axis',(0.,0.,-1.));
#1528=DIRECTION('ref_axis',(1.,0.,0.));
#1529=DIRECTION('center_axis',(0.,0.,1.));
#1530=DIRECTION('ref_axis',(1.,0.,0.));
#1531=DIRECTION('center_axis',(0.,1.,0.));
#1532=DIRECTION('ref_axis',(-1.,0.,0.));
#1533=DIRECTION('',(1.,0.,0.));
#1534=DIRECTION('',(0.,0.,1.));
#1535=DIRECTION('',(-1.,0.,0.));
#1536=DIRECTION('',(0.,0.,1.));
#1537=DIRECTION('center_axis',(1.,0.,0.));
#1538=DIRECTION('ref_axis',(0.,1.,0.));
#1539=DIRECTION('',(0.,-1.,0.));
#1540=DIRECTION('',(0.,1.,0.));
#1541=DIRECTION('',(0.,0.,1.));
#1542=DIRECTION('center_axis',(-1.,0.,0.));
#1543=DIRECTION('ref_axis',(0.,-1.,0.));
#1544=DIRECTION('',(0.,1.,0.));
#1545=DIRECTION('',(0.,0.,-1.));
#1546=DIRECTION('',(0.,-1.,0.));
#1547=DIRECTION('center_axis',(0.,0.,1.));
#1548=DIRECTION('ref_axis',(1.,0.,0.));
#1549=DIRECTION('',(-1.,0.,0.));
#1550=DIRECTION('center_axis',(-1.,0.,0.));
#1551=DIRECTION('ref_axis',(0.,-1.,0.));
#1552=DIRECTION('',(0.,1.,0.));
#1553=DIRECTION('',(0.,0.,1.));
#1554=DIRECTION('',(0.,-1.,0.));
#1555=DIRECTION('',(0.,0.,1.));
#1556=DIRECTION('center_axis',(1.,0.,0.));
#1557=DIRECTION('ref_axis',(0.,1.,0.));
#1558=DIRECTION('',(0.,-1.,0.));
#1559=DIRECTION('',(0.,0.,1.));
#1560=DIRECTION('',(0.,1.,0.));
#1561=DIRECTION('',(0.,0.,1.));
#1562=DIRECTION('center_axis',(0.,-1.,0.));
#1563=DIRECTION('ref_axis',(1.,0.,0.));
#1564=DIRECTION('',(-1.,0.,0.));
#1565=DIRECTION('',(1.,0.,0.));
#1566=DIRECTION('center_axis',(0.,0.,1.));
#1567=DIRECTION('ref_axis',(1.,0.,0.));
#1568=DIRECTION('',(1.,0.,0.));
#1569=DIRECTION('center_axis',(0.,-1.,0.));
#1570=DIRECTION('ref_axis',(1.,0.,0.));
#1571=DIRECTION('',(-1.,0.,0.));
#1572=DIRECTION('',(0.,0.,1.));
#1573=DIRECTION('',(1.,0.,0.));
#1574=DIRECTION('',(0.,0.,1.));
#1575=DIRECTION('center_axis',(-1.,0.,0.));
#1576=DIRECTION('ref_axis',(0.,-1.,0.));
#1577=DIRECTION('',(0.,1.,0.));
#1578=DIRECTION('',(0.,-1.,0.));
#1579=DIRECTION('',(0.,0.,1.));
#1580=DIRECTION('center_axis',(1.,0.,0.));
#1581=DIRECTION('ref_axis',(0.,1.,0.));
#1582=DIRECTION('',(0.,-1.,0.));
#1583=DIRECTION('',(0.,0.,-1.));
#1584=DIRECTION('',(0.,1.,0.));
#1585=DIRECTION('center_axis',(0.,0.,1.));
#1586=DIRECTION('ref_axis',(1.,0.,0.));
#1587=DIRECTION('',(1.,0.,0.));
#1588=DIRECTION('center_axis',(0.,1.,0.));
#1589=DIRECTION('ref_axis',(-1.,0.,0.));
#1590=DIRECTION('',(1.,0.,0.));
#1591=DIRECTION('',(0.,0.,1.));
#1592=DIRECTION('',(-1.,0.,0.));
#1593=DIRECTION('',(0.,0.,1.));
#1594=DIRECTION('center_axis',(1.,0.,0.));
#1595=DIRECTION('ref_axis',(0.,1.,0.));
#1596=DIRECTION('',(0.,-1.,0.));
#1597=DIRECTION('',(0.,1.,0.));
#1598=DIRECTION('',(0.,0.,1.));
#1599=DIRECTION('center_axis',(-1.,0.,0.));
#1600=DIRECTION('ref_axis',(0.,-1.,0.));
#1601=DIRECTION('',(0.,1.,0.));
#1602=DIRECTION('',(0.,0.,-1.));
#1603=DIRECTION('',(0.,-1.,0.));
#1604=DIRECTION('center_axis',(0.,0.,1.));
#1605=DIRECTION('ref_axis',(1.,0.,0.));
#1606=DIRECTION('',(-1.,0.,0.));
#1607=DIRECTION('center_axis',(0.,-1.,0.));
#1608=DIRECTION('ref_axis',(1.,0.,0.));
#1609=DIRECTION('',(0.,0.,1.));
#1610=DIRECTION('',(1.,0.,0.));
#1611=DIRECTION('',(0.,0.,1.));
#1612=DIRECTION('',(0.,0.,1.));
#1613=DIRECTION('',(-1.,0.,0.));
#1614=DIRECTION('',(-1.,0.,0.));
#1615=DIRECTION('center_axis',(0.,0.,1.));
#1616=DIRECTION('ref_axis',(1.,0.,0.));
#1617=DIRECTION('',(1.,0.,0.));
#1618=DIRECTION('center_axis',(0.,0.,1.));
#1619=DIRECTION('ref_axis',(0.,1.,0.));
#1620=DIRECTION('center_axis',(0.,0.,-1.));
#1621=DIRECTION('ref_axis',(1.,0.,0.));
#1622=DIRECTION('',(0.,-1.,0.));
#1623=DIRECTION('center_axis',(0.,0.,1.));
#1624=DIRECTION('ref_axis',(-1.,0.,0.));
#1625=DIRECTION('',(0.,1.,0.));
#1626=DIRECTION('',(1.,0.,0.));
#1627=DIRECTION('',(0.,-1.,0.));
#1628=DIRECTION('center_axis',(0.,0.,1.));
#1629=DIRECTION('ref_axis',(-1.,0.,0.));
#1630=DIRECTION('',(0.,-1.,0.));
#1631=DIRECTION('center_axis',(0.,0.,-1.));
#1632=DIRECTION('ref_axis',(1.,0.,0.));
#1633=DIRECTION('',(1.,0.,0.));
#1634=DIRECTION('',(-1.,0.,0.));
#1635=DIRECTION('',(0.,1.,0.));
#1636=DIRECTION('',(1.,0.,0.));
#1637=DIRECTION('',(0.,-1.,0.));
#1638=DIRECTION('',(0.,-1.,0.));
#1639=DIRECTION('',(-1.,0.,0.));
#1640=DIRECTION('',(0.,-1.,0.));
#1641=DIRECTION('',(-1.,0.,0.));
#1642=DIRECTION('',(0.,1.,0.));
#1643=DIRECTION('',(1.,0.,0.));
#1644=DIRECTION('center_axis',(0.,0.,1.));
#1645=DIRECTION('ref_axis',(1.,0.,0.));
#1646=DIRECTION('',(0.,0.,1.));
#1647=DIRECTION('',(0.,0.,1.));
#1648=DIRECTION('center_axis',(0.,0.,1.));
#1649=DIRECTION('ref_axis',(1.,0.,0.));
#1650=DIRECTION('center_axis',(0.,0.,1.));
#1651=DIRECTION('ref_axis',(1.,0.,0.));
#1652=DIRECTION('center_axis',(0.,0.,1.));
#1653=DIRECTION('ref_axis',(1.,0.,0.));
#1654=DIRECTION('',(0.,0.,1.));
#1655=DIRECTION('center_axis',(1.,0.,0.));
#1656=DIRECTION('ref_axis',(0.,1.,0.));
#1657=DIRECTION('',(0.,1.,0.));
#1658=DIRECTION('',(0.,0.,1.));
#1659=DIRECTION('center_axis',(0.,0.,1.));
#1660=DIRECTION('ref_axis',(-1.,0.,0.));
#1661=DIRECTION('',(0.,0.,1.));
#1662=DIRECTION('center_axis',(0.,0.,-1.));
#1663=DIRECTION('ref_axis',(-1.,0.,0.));
#1664=DIRECTION('',(0.,0.,1.));
#1665=DIRECTION('',(0.,0.,-1.));
#1666=DIRECTION('center_axis',(0.,0.,1.));
#1667=DIRECTION('ref_axis',(-1.,0.,0.));
#1668=DIRECTION('center_axis',(1.,0.,0.));
#1669=DIRECTION('ref_axis',(0.,1.,0.));
#1670=DIRECTION('',(0.,1.,0.));
#1671=DIRECTION('center_axis',(0.,0.,1.));
#1672=DIRECTION('ref_axis',(1.,0.,0.));
#1673=DIRECTION('center_axis',(0.,0.,-1.));
#1674=DIRECTION('ref_axis',(-0.506790981265485,-0.862068965517241,0.));
#1675=DIRECTION('center_axis',(0.,0.,1.));
#1676=DIRECTION('ref_axis',(1.,0.,0.));
#1677=DIRECTION('',(0.,1.,0.));
#1678=DIRECTION('',(-1.,0.,0.));
#1679=DIRECTION('',(0.,-1.,0.));
#1680=DIRECTION('center_axis',(0.,0.,-1.));
#1681=DIRECTION('ref_axis',(1.,0.,0.));
#1682=DIRECTION('center_axis',(1.,0.,0.));
#1683=DIRECTION('ref_axis',(0.,1.,0.));
#1684=DIRECTION('',(0.,0.,1.));
#1685=DIRECTION('center_axis',(0.,0.,1.));
#1686=DIRECTION('ref_axis',(1.,0.,0.));
#1687=DIRECTION('center_axis',(0.,0.,-1.));
#1688=DIRECTION('ref_axis',(1.,0.,0.));
#1689=DIRECTION('',(0.,0.,-1.));
#1690=DIRECTION('center_axis',(0.,0.,1.));
#1691=DIRECTION('ref_axis',(1.,0.,0.));
#1692=DIRECTION('center_axis',(0.,0.,1.));
#1693=DIRECTION('ref_axis',(1.,0.,0.));
#1694=DIRECTION('center_axis',(0.,0.,1.));
#1695=DIRECTION('ref_axis',(1.,0.,0.));
#1696=DIRECTION('',(0.857167300702112,1.04972719113862E-16,-0.515038074910054));
#1697=DIRECTION('center_axis',(0.,0.,1.));
#1698=DIRECTION('ref_axis',(1.,0.,0.));
#1699=DIRECTION('',(0.,0.,-1.));
#1700=DIRECTION('center_axis',(0.,0.,1.));
#1701=DIRECTION('ref_axis',(0.,1.,0.));
#1702=DIRECTION('',(0.,1.,0.));
#1703=DIRECTION('',(1.,0.,0.));
#1704=DIRECTION('',(0.,1.,0.));
#1705=DIRECTION('',(-1.,0.,0.));
#1706=DIRECTION('center_axis',(0.,1.,0.));
#1707=DIRECTION('ref_axis',(0.,0.,-1.));
#1708=DIRECTION('',(0.,0.,-1.));
#1709=DIRECTION('',(0.,0.,-1.));
#1710=DIRECTION('center_axis',(-1.,0.,0.));
#1711=DIRECTION('ref_axis',(0.,0.,1.));
#1712=DIRECTION('',(0.,0.,1.));
#1713=DIRECTION('center_axis',(0.,-1.,0.));
#1714=DIRECTION('ref_axis',(1.,0.,0.));
#1715=DIRECTION('',(0.,0.,1.));
#1716=DIRECTION('',(1.,0.,0.));
#1717=DIRECTION('',(0.,0.,1.));
#1718=DIRECTION('center_axis',(0.,1.,0.));
#1719=DIRECTION('ref_axis',(-1.,0.,0.));
#1720=DIRECTION('',(0.,0.,1.));
#1721=DIRECTION('',(-1.,0.,0.));
#1722=DIRECTION('',(0.,0.,1.));
#1723=DIRECTION('center_axis',(0.,-1.,0.));
#1724=DIRECTION('ref_axis',(1.,0.,0.));
#1725=DIRECTION('',(0.,0.,1.));
#1726=DIRECTION('',(1.,0.,0.));
#1727=DIRECTION('',(0.,0.,1.));
#1728=DIRECTION('center_axis',(-1.,0.,0.));
#1729=DIRECTION('ref_axis',(0.,-1.,0.));
#1730=DIRECTION('',(0.,-1.,0.));
#1731=DIRECTION('',(0.,0.,1.));
#1732=DIRECTION('center_axis',(0.,1.,0.));
#1733=DIRECTION('ref_axis',(-1.,0.,0.));
#1734=DIRECTION('',(-1.,0.,0.));
#1735=DIRECTION('',(0.,0.,1.));
#1736=DIRECTION('center_axis',(1.,0.,0.));
#1737=DIRECTION('ref_axis',(0.,1.,0.));
#1738=DIRECTION('',(0.,1.,0.));
#1739=DIRECTION('center_axis',(0.,0.,1.));
#1740=DIRECTION('ref_axis',(1.,0.,0.));
#1741=DIRECTION('center_axis',(-1.,0.,0.));
#1742=DIRECTION('ref_axis',(0.,-1.,0.));
#1743=DIRECTION('',(0.,0.,1.));
#1744=DIRECTION('center_axis',(0.,1.,0.));
#1745=DIRECTION('ref_axis',(-1.,0.,0.));
#1746=DIRECTION('center_axis',(1.,0.,0.));
#1747=DIRECTION('ref_axis',(0.,1.,0.));
#1748=DIRECTION('',(0.,1.,0.));
#1749=DIRECTION('center_axis',(-1.,0.,0.));
#1750=DIRECTION('ref_axis',(0.,-1.,0.));
#1751=DIRECTION('',(0.,-1.,0.));
#1752=DIRECTION('center_axis',(0.,0.,1.));
#1753=DIRECTION('ref_axis',(1.,0.,0.));
#1754=DIRECTION('center_axis',(0.,0.,1.));
#1755=DIRECTION('ref_axis',(0.,1.,0.));
#1756=DIRECTION('',(0.,0.,1.));
#1757=DIRECTION('center_axis',(0.,0.,-1.));
#1758=DIRECTION('ref_axis',(0.,1.,0.));
#1759=DIRECTION('center_axis',(0.,0.,1.));
#1760=DIRECTION('ref_axis',(-0.506790981265485,-0.862068965517241,0.));
#1761=DIRECTION('center_axis',(0.,0.,-1.));
#1762=DIRECTION('ref_axis',(-0.506790981265485,-0.862068965517241,0.));
#1763=DIRECTION('',(0.,0.,1.));
#1764=DIRECTION('center_axis',(0.,1.,0.));
#1765=DIRECTION('ref_axis',(-1.,0.,0.));
#1766=DIRECTION('',(-1.,0.,0.));
#1767=DIRECTION('center_axis',(0.,0.,1.));
#1768=DIRECTION('ref_axis',(0.,-1.,0.));
#1769=DIRECTION('center_axis',(0.,0.,-1.));
#1770=DIRECTION('ref_axis',(0.,-1.,0.));
#1771=DIRECTION('',(0.,0.,1.));
#1772=DIRECTION('center_axis',(0.,0.,1.));
#1773=DIRECTION('ref_axis',(0.,-1.,0.));
#1774=DIRECTION('',(0.,0.,1.));
#1775=DIRECTION('center_axis',(1.18511115443276E-16,-1.,0.));
#1776=DIRECTION('ref_axis',(1.,1.18511115443276E-16,0.));
#1777=DIRECTION('',(-1.,-1.18511115443276E-16,0.));
#1778=DIRECTION('',(1.,1.18511115443276E-16,0.));
#1779=DIRECTION('',(0.,0.,1.));
#1780=DIRECTION('center_axis',(0.,0.,1.));
#1781=DIRECTION('ref_axis',(-1.,-7.16272919113004E-17,0.));
#1782=DIRECTION('center_axis',(0.,0.,-1.));
#1783=DIRECTION('ref_axis',(0.491340200378316,0.870967741935484,0.));
#1784=DIRECTION('center_axis',(0.,0.,1.));
#1785=DIRECTION('ref_axis',(0.491340200378316,0.870967741935484,0.));
#1786=DIRECTION('',(0.,0.,1.));
#1787=DIRECTION('center_axis',(0.,1.,0.));
#1788=DIRECTION('ref_axis',(-1.,0.,0.));
#1789=DIRECTION('',(1.,0.,0.));
#1790=DIRECTION('',(-1.,0.,0.));
#1791=DIRECTION('center_axis',(0.,0.,1.));
#1792=DIRECTION('ref_axis',(1.,0.,0.));
#1793=DIRECTION('center_axis',(0.,0.,1.));
#1794=DIRECTION('ref_axis',(1.,0.,0.));
#1795=DIRECTION('',(-1.,0.,0.));
#1796=DIRECTION('center_axis',(0.,0.,1.));
#1797=DIRECTION('ref_axis',(0.477212598424958,0.878787878787879,0.));
#1798=DIRECTION('',(1.,-1.19333482860709E-16,0.));
#1799=DIRECTION('center_axis',(0.,0.,1.));
#1800=DIRECTION('ref_axis',(0.,-1.,0.));
#1801=DIRECTION('center_axis',(0.,0.,-1.));
#1802=DIRECTION('ref_axis',(-1.,-4.71003707416733E-16,0.));
#1803=DIRECTION('',(0.,0.,-1.));
#1804=DIRECTION('center_axis',(0.,0.,-1.));
#1805=DIRECTION('ref_axis',(0.477212598424958,0.878787878787879,0.));
#1806=DIRECTION('',(0.,0.,-1.));
#1807=DIRECTION('center_axis',(-1.19333482860709E-16,-1.,0.));
#1808=DIRECTION('ref_axis',(-1.,1.19333482860709E-16,0.));
#1809=DIRECTION('',(-1.,1.19333482860709E-16,0.));
#1810=DIRECTION('',(0.,0.,-1.));
#1811=DIRECTION('center_axis',(0.,0.,-1.));
#1812=DIRECTION('ref_axis',(0.,-1.,0.));
#1813=DIRECTION('center_axis',(0.,0.,-1.));
#1814=DIRECTION('ref_axis',(0.,-1.,0.));
#1815=DIRECTION('',(0.,0.,-1.));
#1816=DIRECTION('center_axis',(0.,1.,0.));
#1817=DIRECTION('ref_axis',(1.,0.,0.));
#1818=DIRECTION('',(1.,0.,0.));
#1819=DIRECTION('center_axis',(0.,0.,1.));
#1820=DIRECTION('ref_axis',(1.,0.,0.));
#1821=CARTESIAN_POINT('',(0.,0.,0.));
#1822=CARTESIAN_POINT('Origin',(40.9262816804649,25.,23.8));
#1823=CARTESIAN_POINT('',(34.4262816804649,27.,23.8));
#1824=CARTESIAN_POINT('',(40.9262816804649,27.,23.8));
#1825=CARTESIAN_POINT('',(65.5512816804649,27.,23.8));
#1826=CARTESIAN_POINT('',(34.4262816804649,25.,23.8));
#1827=CARTESIAN_POINT('',(34.4262816804649,25.,23.8));
#1828=CARTESIAN_POINT('',(40.9262816804649,25.,23.8));
#1829=CARTESIAN_POINT('',(27.811610068582,25.,23.8));
#1830=CARTESIAN_POINT('',(40.9262816804649,25.,23.8));
#1831=CARTESIAN_POINT('Origin',(40.9262816804649,25.,25.55));
#1832=CARTESIAN_POINT('',(40.9262816804649,27.,27.3));
#1833=CARTESIAN_POINT('Origin',(40.9262816804649,27.,25.55));
#1834=CARTESIAN_POINT('',(40.9262816804649,25.,27.3));
#1835=CARTESIAN_POINT('Origin',(40.9262816804649,25.,25.55));
#1836=CARTESIAN_POINT('',(40.9262816804649,25.,27.3));
#1837=CARTESIAN_POINT('Origin',(34.4262816804649,25.,27.3));
#1838=CARTESIAN_POINT('',(34.4262816804649,27.,27.3));
#1839=CARTESIAN_POINT('',(62.3012816804649,27.,27.3));
#1840=CARTESIAN_POINT('',(34.4262816804649,25.,27.3));
#1841=CARTESIAN_POINT('',(24.561610068582,25.,27.3));
#1842=CARTESIAN_POINT('',(34.4262816804649,25.,27.3));
#1843=CARTESIAN_POINT('Origin',(34.4262816804649,25.,25.55));
#1844=CARTESIAN_POINT('Origin',(34.4262816804649,27.,25.55));
#1845=CARTESIAN_POINT('Origin',(34.4262816804649,25.,25.55));
#1846=CARTESIAN_POINT('Origin',(22.6762816804649,22.5,10.));
#1847=CARTESIAN_POINT('',(21.7762816804649,22.5,10.));
#1848=CARTESIAN_POINT('Origin',(22.6762816804649,22.5,10.));
#1849=CARTESIAN_POINT('',(21.7762816804649,22.5,5.));
#1850=CARTESIAN_POINT('',(21.7762816804649,22.5,10.));
#1851=CARTESIAN_POINT('Origin',(22.6762816804649,22.5,5.));
#1852=CARTESIAN_POINT('Origin',(22.6762816804649,22.5,5.));
#1853=CARTESIAN_POINT('Origin',(22.6762816804649,-22.5,10.));
#1854=CARTESIAN_POINT('',(21.7762816804649,-22.5,10.));
#1855=CARTESIAN_POINT('Origin',(22.6762816804649,-22.5,10.));
#1856=CARTESIAN_POINT('',(21.7762816804649,-22.5,5.));
#1857=CARTESIAN_POINT('',(21.7762816804649,-22.5,10.));
#1858=CARTESIAN_POINT('Origin',(22.6762816804649,-22.5,5.));
#1859=CARTESIAN_POINT('Origin',(22.6762816804649,-22.5,5.));
#1860=CARTESIAN_POINT('Origin',(87.6762816804649,22.5,10.));
#1861=CARTESIAN_POINT('',(86.7762816804649,22.5,10.));
#1862=CARTESIAN_POINT('Origin',(87.6762816804649,22.5,10.));
#1863=CARTESIAN_POINT('',(86.7762816804649,22.5,5.));
#1864=CARTESIAN_POINT('',(86.7762816804649,22.5,10.));
#1865=CARTESIAN_POINT('Origin',(87.6762816804649,22.5,5.));
#1866=CARTESIAN_POINT('Origin',(87.6762816804649,22.5,5.));
#1867=CARTESIAN_POINT('Origin',(87.6762816804649,-22.5,10.));
#1868=CARTESIAN_POINT('',(86.7762816804649,-22.5,10.));
#1869=CARTESIAN_POINT('Origin',(87.6762816804649,-22.5,10.));
#1870=CARTESIAN_POINT('',(86.7762816804649,-22.5,5.));
#1871=CARTESIAN_POINT('',(86.7762816804649,-22.5,10.));
#1872=CARTESIAN_POINT('Origin',(87.6762816804649,-22.5,5.));
#1873=CARTESIAN_POINT('Origin',(87.6762816804649,-22.5,5.));
#1874=CARTESIAN_POINT('Origin',(25.1762816804649,-20.,0.));
#1875=CARTESIAN_POINT('',(20.1762816804649,-20.,0.));
#1876=CARTESIAN_POINT('',(25.1762816804649,-20.,0.));
#1877=CARTESIAN_POINT('',(34.1322112603487,-20.,0.));
#1878=CARTESIAN_POINT('',(20.1762816804649,-20.,10.));
#1879=CARTESIAN_POINT('',(20.1762816804649,-20.,0.));
#1880=CARTESIAN_POINT('',(25.1762816804649,-20.,10.));
#1881=CARTESIAN_POINT('',(25.1762816804649,-20.,10.));
#1882=CARTESIAN_POINT('',(25.1762816804649,-20.,0.));
#1883=CARTESIAN_POINT('Origin',(25.1762816804649,-25.,0.));
#1884=CARTESIAN_POINT('',(25.1762816804649,-25.,0.));
#1885=CARTESIAN_POINT('',(25.1762816804649,-12.5,0.));
#1886=CARTESIAN_POINT('',(25.1762816804649,-25.,10.));
#1887=CARTESIAN_POINT('',(25.1762816804649,-25.,10.));
#1888=CARTESIAN_POINT('',(25.1762816804649,-25.,0.));
#1889=CARTESIAN_POINT('Origin',(20.1762816804649,-20.,0.));
#1890=CARTESIAN_POINT('',(20.1762816804649,-25.,0.));
#1891=CARTESIAN_POINT('',(20.1762816804649,-10.,0.));
#1892=CARTESIAN_POINT('',(20.1762816804649,-25.,10.));
#1893=CARTESIAN_POINT('',(20.1762816804649,-25.,0.));
#1894=CARTESIAN_POINT('',(20.1762816804649,25.,10.));
#1895=CARTESIAN_POINT('Origin',(22.6762816804649,-22.5,10.));
#1896=CARTESIAN_POINT('',(56.4262816804649,-25.,10.));
#1897=CARTESIAN_POINT('Origin',(85.1762816804649,25.,0.));
#1898=CARTESIAN_POINT('',(85.1762816804649,20.,0.));
#1899=CARTESIAN_POINT('',(85.1762816804649,25.,0.));
#1900=CARTESIAN_POINT('',(85.1762816804649,12.5,0.));
#1901=CARTESIAN_POINT('',(85.1762816804649,20.,10.));
#1902=CARTESIAN_POINT('',(85.1762816804649,20.,0.));
#1903=CARTESIAN_POINT('',(85.1762816804649,25.,10.));
#1904=CARTESIAN_POINT('',(85.1762816804649,25.,10.));
#1905=CARTESIAN_POINT('',(85.1762816804649,25.,0.));
#1906=CARTESIAN_POINT('Origin',(90.1762816804649,20.,0.));
#1907=CARTESIAN_POINT('',(90.1762816804649,25.,0.));
#1908=CARTESIAN_POINT('',(90.1762816804649,20.,0.));
#1909=CARTESIAN_POINT('',(90.1762816804649,10.,0.));
#1910=CARTESIAN_POINT('',(90.1762816804649,25.,10.));
#1911=CARTESIAN_POINT('',(90.1762816804649,25.,0.));
#1912=CARTESIAN_POINT('',(90.1762816804649,20.,10.));
#1913=CARTESIAN_POINT('',(90.1762816804649,-25.,10.));
#1914=CARTESIAN_POINT('',(90.1762816804649,20.,0.));
#1915=CARTESIAN_POINT('Origin',(85.1762816804649,20.,0.));
#1916=CARTESIAN_POINT('',(64.1322112603487,20.,0.));
#1917=CARTESIAN_POINT('',(85.1762816804649,20.,10.));
#1918=CARTESIAN_POINT('Origin',(87.6762816804649,22.5,10.));
#1919=CARTESIAN_POINT('',(51.186610068582,25.,10.));
#1920=CARTESIAN_POINT('Origin',(20.1762816804649,20.,0.));
#1921=CARTESIAN_POINT('',(25.1762816804649,20.,0.));
#1922=CARTESIAN_POINT('',(20.1762816804649,20.,0.));
#1923=CARTESIAN_POINT('',(31.6322112603487,20.,0.));
#1924=CARTESIAN_POINT('',(25.1762816804649,20.,10.));
#1925=CARTESIAN_POINT('',(25.1762816804649,20.,0.));
#1926=CARTESIAN_POINT('',(20.1762816804649,20.,10.));
#1927=CARTESIAN_POINT('',(20.1762816804649,20.,10.));
#1928=CARTESIAN_POINT('',(20.1762816804649,20.,0.));
#1929=CARTESIAN_POINT('Origin',(20.1762816804649,25.,0.));
#1930=CARTESIAN_POINT('',(20.1762816804649,25.,0.));
#1931=CARTESIAN_POINT('',(20.1762816804649,12.5,0.));
#1932=CARTESIAN_POINT('',(20.1762816804649,25.,10.));
#1933=CARTESIAN_POINT('',(20.1762816804649,25.,10.));
#1934=CARTESIAN_POINT('',(20.1762816804649,25.,0.));
#1935=CARTESIAN_POINT('Origin',(25.1762816804649,20.,0.));
#1936=CARTESIAN_POINT('',(25.1762816804649,25.,0.));
#1937=CARTESIAN_POINT('',(25.1762816804649,10.,0.));
#1938=CARTESIAN_POINT('',(25.1762816804649,25.,10.));
#1939=CARTESIAN_POINT('',(25.1762816804649,25.,0.));
#1940=CARTESIAN_POINT('',(25.1762816804649,20.,10.));
#1941=CARTESIAN_POINT('Origin',(22.6762816804649,22.5,10.));
#1942=CARTESIAN_POINT('',(18.686610068582,25.,10.));
#1943=CARTESIAN_POINT('Origin',(90.1762816804649,-20.,0.));
#1944=CARTESIAN_POINT('',(85.1762816804649,-20.,0.));
#1945=CARTESIAN_POINT('',(90.1762816804649,-20.,0.));
#1946=CARTESIAN_POINT('',(66.6322112603487,-20.,0.));
#1947=CARTESIAN_POINT('',(85.1762816804649,-20.,10.));
#1948=CARTESIAN_POINT('',(85.1762816804649,-20.,0.));
#1949=CARTESIAN_POINT('',(90.1762816804649,-20.,10.));
#1950=CARTESIAN_POINT('',(90.1762816804649,-20.,10.));
#1951=CARTESIAN_POINT('',(90.1762816804649,-20.,0.));
#1952=CARTESIAN_POINT('Origin',(90.1762816804649,-25.,0.));
#1953=CARTESIAN_POINT('',(90.1762816804649,-25.,0.));
#1954=CARTESIAN_POINT('',(90.1762816804649,-12.5,0.));
#1955=CARTESIAN_POINT('',(90.1762816804649,-25.,10.));
#1956=CARTESIAN_POINT('',(90.1762816804649,-25.,10.));
#1957=CARTESIAN_POINT('',(90.1762816804649,-25.,0.));
#1958=CARTESIAN_POINT('Origin',(85.1762816804649,-20.,0.));
#1959=CARTESIAN_POINT('',(85.1762816804649,-25.,0.));
#1960=CARTESIAN_POINT('',(85.1762816804649,-10.,0.));
#1961=CARTESIAN_POINT('',(85.1762816804649,-25.,10.));
#1962=CARTESIAN_POINT('',(85.1762816804649,-25.,0.));
#1963=CARTESIAN_POINT('',(85.1762816804649,-20.,10.));
#1964=CARTESIAN_POINT('Origin',(87.6762816804649,-22.5,10.));
#1965=CARTESIAN_POINT('',(88.9262816804649,-25.,10.));
#1966=CARTESIAN_POINT('Origin',(14.6969384566991,25.,0.));
#1967=CARTESIAN_POINT('',(90.1762816804649,25.,33.));
#1968=CARTESIAN_POINT('',(90.1762816804649,25.,0.));
#1969=CARTESIAN_POINT('',(14.6969384566991,25.,33.));
#1970=CARTESIAN_POINT('',(14.6969384566991,25.,33.));
#1971=CARTESIAN_POINT('',(14.6969384566991,25.,31.));
#1972=CARTESIAN_POINT('',(14.6969384566991,25.,0.));
#1973=CARTESIAN_POINT('',(14.6969384566991,25.,0.));
#1974=CARTESIAN_POINT('',(14.6969384566991,25.,0.));
#1975=CARTESIAN_POINT('',(28.8925396484658,25.,0.));
#1976=CARTESIAN_POINT('',(28.8925396484658,25.,0.));
#1977=CARTESIAN_POINT('Origin',(43.0881408402325,0.,0.));
#1978=CARTESIAN_POINT('',(66.6322112603487,-25.,0.));
#1979=CARTESIAN_POINT('Origin',(90.1762816804649,3.78169717762944E-15,0.));
#1980=CARTESIAN_POINT('',(15.2315462117278,24.6779253585062,0.));
#1981=CARTESIAN_POINT('Origin',(0.,0.,0.));
#1982=CARTESIAN_POINT('',(15.2315462117278,22.293496809608,0.));
#1983=CARTESIAN_POINT('',(15.2315462117278,11.146748404804,0.));
#1984=CARTESIAN_POINT('',(-6.,-26.3248931621764,0.));
#1985=CARTESIAN_POINT('Origin',(0.,0.,0.));
#1986=CARTESIAN_POINT('',(-6.,-17.,0.));
#1987=CARTESIAN_POINT('',(-6.,-10.75,0.));
#1988=CARTESIAN_POINT('',(6.,-17.,0.));
#1989=CARTESIAN_POINT('',(24.5440704201162,-17.,0.));
#1990=CARTESIAN_POINT('',(6.,-26.3248931621764,0.));
#1991=CARTESIAN_POINT('',(6.,-14.1862609591111,0.));
#1992=CARTESIAN_POINT('',(15.2315462117278,-22.293496809608,0.));
#1993=CARTESIAN_POINT('Origin',(0.,0.,0.));
#1994=CARTESIAN_POINT('',(15.2315462117278,-24.6779253585062,0.));
#1995=CARTESIAN_POINT('',(15.2315462117278,-12.3389626792531,0.));
#1996=CARTESIAN_POINT('',(14.6969384566991,-25.,0.));
#1997=CARTESIAN_POINT('Origin',(0.,0.,0.));
#1998=CARTESIAN_POINT('',(66.6322112603487,-25.,0.));
#1999=CARTESIAN_POINT('',(-6.,-10.5,0.));
#2000=CARTESIAN_POINT('',(-7.25,-10.5,0.));
#2001=CARTESIAN_POINT('',(17.9190704201162,-10.5,0.));
#2002=CARTESIAN_POINT('',(-7.25,-0.5,0.));
#2003=CARTESIAN_POINT('',(-7.25,-0.25,0.));
#2004=CARTESIAN_POINT('',(-6.,-0.5,0.));
#2005=CARTESIAN_POINT('',(18.5440704201162,-0.5,0.));
#2006=CARTESIAN_POINT('',(-6.,-5.25,0.));
#2007=CARTESIAN_POINT('',(6.,16.5,0.));
#2008=CARTESIAN_POINT('',(6.,9.,0.));
#2009=CARTESIAN_POINT('',(6.,5.25,0.));
#2010=CARTESIAN_POINT('',(-1.,9.,0.));
#2011=CARTESIAN_POINT('',(6.,9.,0.));
#2012=CARTESIAN_POINT('',(-1.,6.,0.));
#2013=CARTESIAN_POINT('',(-1.,6.,0.));
#2014=CARTESIAN_POINT('',(-6.,6.,0.));
#2015=CARTESIAN_POINT('',(18.5440704201162,6.,0.));
#2016=CARTESIAN_POINT('',(-6.,16.5,0.));
#2017=CARTESIAN_POINT('',(-6.,8.25,0.));
#2018=CARTESIAN_POINT('',(24.5440704201162,16.5,0.));
#2019=CARTESIAN_POINT('Origin',(0.,0.,0.));
#2020=CARTESIAN_POINT('',(14.6969384566991,-25.,31.));
#2021=CARTESIAN_POINT('',(14.6969384566991,-25.,0.));
#2022=CARTESIAN_POINT('',(15.2315462117278,-24.6779253585062,31.));
#2023=CARTESIAN_POINT('',(15.2315462117278,-24.6779253585062,0.));
#2024=CARTESIAN_POINT('Origin',(0.,0.,31.));
#2025=CARTESIAN_POINT('Origin',(0.,0.,0.));
#2026=CARTESIAN_POINT('',(15.2315462117278,24.6779253585062,31.));
#2027=CARTESIAN_POINT('Origin',(0.,0.,31.));
#2028=CARTESIAN_POINT('',(15.2315462117278,24.6779253585062,0.));
#2029=CARTESIAN_POINT('Origin',(15.2315462117278,22.293496809608,0.));
#2030=CARTESIAN_POINT('',(15.2315462117278,22.293496809608,31.));
#2031=CARTESIAN_POINT('',(15.2315462117278,-27.,31.));
#2032=CARTESIAN_POINT('',(15.2315462117278,22.293496809608,0.));
#2033=CARTESIAN_POINT('Origin',(0.,0.,0.));
#2034=CARTESIAN_POINT('',(-6.,-26.3248931621764,12.));
#2035=CARTESIAN_POINT('',(-6.,-26.3248931621764,0.));
#2036=CARTESIAN_POINT('',(15.2315462117278,-22.293496809608,31.));
#2037=CARTESIAN_POINT('Origin',(0.,0.,31.));
#2038=CARTESIAN_POINT('',(15.2315462117278,-22.293496809608,0.));
#2039=CARTESIAN_POINT('',(6.,-26.3248931621764,12.));
#2040=CARTESIAN_POINT('',(6.,-26.3248931621764,0.));
#2041=CARTESIAN_POINT('Origin',(0.,0.,12.));
#2042=CARTESIAN_POINT('Origin',(15.2315462117278,-24.6779253585062,0.));
#2043=CARTESIAN_POINT('',(15.2315462117278,-27.,31.));
#2044=CARTESIAN_POINT('Origin',(-6.8842268941361,0.,31.));
#2045=CARTESIAN_POINT('Origin',(0.,0.,31.));
#2046=CARTESIAN_POINT('Origin',(0.,-19.25,12.));
#2047=CARTESIAN_POINT('',(6.,-17.,12.));
#2048=CARTESIAN_POINT('',(6.,-29.1372473323652,12.));
#2049=CARTESIAN_POINT('',(-6.,-17.,12.));
#2050=CARTESIAN_POINT('',(6.,-17.,12.));
#2051=CARTESIAN_POINT('',(-6.,10.5,12.));
#2052=CARTESIAN_POINT('',(-0.5917468,-19.25,12.));
#2053=CARTESIAN_POINT('Origin',(0.,-19.25,12.));
#2054=CARTESIAN_POINT('Origin',(6.,-21.5,0.));
#2055=CARTESIAN_POINT('',(6.,-17.,0.));
#2056=CARTESIAN_POINT('Origin',(0.,8.25,8.));
#2057=CARTESIAN_POINT('',(-0.5917468,8.25,12.));
#2058=CARTESIAN_POINT('Origin',(0.,8.25,12.));
#2059=CARTESIAN_POINT('',(-0.5917468,8.25,4.5));
#2060=CARTESIAN_POINT('',(-0.5917468,8.25,8.));
#2061=CARTESIAN_POINT('Origin',(0.,8.25,4.5));
#2062=CARTESIAN_POINT('Origin',(0.,-19.25,3.82222132572221));
#2063=CARTESIAN_POINT('',(-0.5917468,-19.25,4.));
#2064=CARTESIAN_POINT('Origin',(0.,-19.25,4.));
#2065=CARTESIAN_POINT('',(0.,-19.25,3.64444265144442));
#2066=CARTESIAN_POINT('',(-0.2958734,-19.25,3.82222132572221));
#2067=CARTESIAN_POINT('Origin',(0.,-19.25,8.));
#2068=CARTESIAN_POINT('',(-0.5917468,-19.25,8.));
#2069=CARTESIAN_POINT('Origin',(6.,6.,4.5));
#2070=CARTESIAN_POINT('',(6.,6.,4.5));
#2071=CARTESIAN_POINT('',(6.,9.,4.5));
#2072=CARTESIAN_POINT('',(6.,6.,4.5));
#2073=CARTESIAN_POINT('',(-1.,6.,4.5));
#2074=CARTESIAN_POINT('',(0.,6.,4.5));
#2075=CARTESIAN_POINT('',(-1.,9.,4.5));
#2076=CARTESIAN_POINT('',(-1.,9.,4.5));
#2077=CARTESIAN_POINT('',(6.,9.,4.5));
#2078=CARTESIAN_POINT('Origin',(6.,9.,4.5));
#2079=CARTESIAN_POINT('',(6.,9.,2.25));
#2080=CARTESIAN_POINT('',(-1.,9.,0.));
#2081=CARTESIAN_POINT('Origin',(-1.,7.5,2.25));
#2082=CARTESIAN_POINT('',(-1.,6.,1.125));
#2083=CARTESIAN_POINT('Origin',(-6.,6.,0.));
#2084=CARTESIAN_POINT('',(6.,6.,12.));
#2085=CARTESIAN_POINT('',(6.,6.,0.));
#2086=CARTESIAN_POINT('',(-6.,6.,12.));
#2087=CARTESIAN_POINT('',(-6.,6.,12.));
#2088=CARTESIAN_POINT('',(-6.,6.,0.));
#2089=CARTESIAN_POINT('Origin',(6.,16.5,0.));
#2090=CARTESIAN_POINT('',(-6.,16.5,12.));
#2091=CARTESIAN_POINT('',(-6.,16.5,0.));
#2092=CARTESIAN_POINT('',(6.,16.5,12.));
#2093=CARTESIAN_POINT('',(6.,16.5,12.));
#2094=CARTESIAN_POINT('',(6.,16.5,0.));
#2095=CARTESIAN_POINT('Origin',(-7.25,-10.5,0.));
#2096=CARTESIAN_POINT('',(-6.,-10.5,12.));
#2097=CARTESIAN_POINT('',(-6.,-10.5,0.));
#2098=CARTESIAN_POINT('',(-7.25,-10.5,12.));
#2099=CARTESIAN_POINT('',(-7.25,-10.5,12.));
#2100=CARTESIAN_POINT('',(-7.25,-10.5,0.));
#2101=CARTESIAN_POINT('Origin',(-7.25,-0.5,0.));
#2102=CARTESIAN_POINT('',(-7.25,-0.5,12.));
#2103=CARTESIAN_POINT('',(-7.25,-0.5,12.));
#2104=CARTESIAN_POINT('',(-7.25,-0.5,0.));
#2105=CARTESIAN_POINT('Origin',(-6.,-0.5,0.));
#2106=CARTESIAN_POINT('',(-6.,-0.5,12.));
#2107=CARTESIAN_POINT('',(-6.,-0.5,12.));
#2108=CARTESIAN_POINT('',(-6.,-0.5,0.));
#2109=CARTESIAN_POINT('Origin',(-6.,-10.5,0.));
#2110=CARTESIAN_POINT('',(-6.,-10.5,12.));
#2111=CARTESIAN_POINT('Origin',(-6.625,-5.5,12.));
#2112=CARTESIAN_POINT('Origin',(-6.,-17.,0.));
#2113=CARTESIAN_POINT('',(-6.,-17.,0.));
#2114=CARTESIAN_POINT('Origin',(6.,-17.,0.));
#2115=CARTESIAN_POINT('Origin',(6.,6.,0.));
#2116=CARTESIAN_POINT('',(6.,-21.5,12.));
#2117=CARTESIAN_POINT('Origin',(-6.,10.5,0.));
#2118=CARTESIAN_POINT('',(-6.,16.5,12.));
#2119=CARTESIAN_POINT('Origin',(0.,8.25,12.));
#2120=CARTESIAN_POINT('Origin',(90.1762816804649,3.78169717762944E-15,0.));
#2121=CARTESIAN_POINT('',(90.1762816804649,-25.,33.));
#2122=CARTESIAN_POINT('',(90.1762816804649,-25.,0.));
#2123=CARTESIAN_POINT('Origin',(90.1762816804649,3.78169717762944E-15,33.));
#2124=CARTESIAN_POINT('Origin',(0.,0.,0.));
#2125=CARTESIAN_POINT('',(14.6969384566991,-25.,33.));
#2126=CARTESIAN_POINT('Origin',(0.,0.,33.));
#2127=CARTESIAN_POINT('',(14.6969384566991,-25.,0.));
#2128=CARTESIAN_POINT('Origin',(90.1762816804649,-25.,0.));
#2129=CARTESIAN_POINT('',(90.1762816804649,-25.,33.));
#2130=CARTESIAN_POINT('Origin',(90.1762816804649,3.78169717762944E-15,0.));
#2131=CARTESIAN_POINT('',(90.1762816804649,27.,0.));
#2132=CARTESIAN_POINT('',(90.1762816804649,-27.,0.));
#2133=CARTESIAN_POINT('Origin',(90.1762816804649,3.78169717762944E-15,0.));
#2134=CARTESIAN_POINT('',(90.1762816804649,27.,33.));
#2135=CARTESIAN_POINT('',(90.1762816804649,27.,0.));
#2136=CARTESIAN_POINT('',(90.1762816804649,-27.,33.));
#2137=CARTESIAN_POINT('Origin',(90.1762816804649,3.78169717762944E-15,33.));
#2138=CARTESIAN_POINT('',(90.1762816804649,-27.,0.));
#2139=CARTESIAN_POINT('Origin',(15.2315462117278,-27.,0.));
#2140=CARTESIAN_POINT('',(15.2315462117278,-27.,0.));
#2141=CARTESIAN_POINT('',(29.1598435259801,-27.,0.));
#2142=CARTESIAN_POINT('',(15.2315462117278,-27.,33.));
#2143=CARTESIAN_POINT('',(15.2315462117278,-27.,33.));
#2144=CARTESIAN_POINT('',(15.2315462117278,-27.,0.));
#2145=CARTESIAN_POINT('Origin',(0.,0.,0.));
#2146=CARTESIAN_POINT('',(15.2315462117278,27.,0.));
#2147=CARTESIAN_POINT('Origin',(0.,0.,0.));
#2148=CARTESIAN_POINT('',(15.2315462117278,27.,33.));
#2149=CARTESIAN_POINT('Origin',(0.,0.,33.));
#2150=CARTESIAN_POINT('',(15.2315462117278,27.,0.));
#2151=CARTESIAN_POINT('Origin',(90.1762816804649,27.,0.));
#2152=CARTESIAN_POINT('',(66.6322112603487,27.,0.));
#2153=CARTESIAN_POINT('',(90.1762816804649,27.,33.));
#2154=CARTESIAN_POINT('Origin',(43.0881408402325,2.22044604925031E-15,33.));
#2155=CARTESIAN_POINT('Origin',(43.0881408402325,0.,0.));
#2156=CARTESIAN_POINT('',(90.1762816804649,29.,0.));
#2157=CARTESIAN_POINT('',(15.7480157480236,29.,0.));
#2158=CARTESIAN_POINT('',(90.1762816804649,29.,0.));
#2159=CARTESIAN_POINT('',(15.7480157480236,-29.,0.));
#2160=CARTESIAN_POINT('Origin',(0.,0.,0.));
#2161=CARTESIAN_POINT('',(90.1762816804649,-29.,0.));
#2162=CARTESIAN_POINT('',(15.7480157480236,-29.,0.));
#2163=CARTESIAN_POINT('Origin',(90.1762816804649,3.78169717762944E-15,0.));
#2164=CARTESIAN_POINT('Origin',(0.,0.,0.));
#2165=CARTESIAN_POINT('',(15.7480157480236,29.,-2.));
#2166=CARTESIAN_POINT('',(15.7480157480236,29.,0.));
#2167=CARTESIAN_POINT('',(15.7480157480236,-29.,-2.));
#2168=CARTESIAN_POINT('Origin',(0.,0.,-2.));
#2169=CARTESIAN_POINT('',(15.7480157480236,-29.,0.));
#2170=CARTESIAN_POINT('Origin',(90.1762816804649,-29.,0.));
#2171=CARTESIAN_POINT('',(90.1762816804649,-29.,-2.));
#2172=CARTESIAN_POINT('',(15.7480157480236,-29.,-2.));
#2173=CARTESIAN_POINT('',(90.1762816804649,-29.,0.));
#2174=CARTESIAN_POINT('Origin',(90.1762816804649,3.78169717762944E-15,0.));
#2175=CARTESIAN_POINT('',(90.1762816804649,29.,-2.));
#2176=CARTESIAN_POINT('Origin',(90.1762816804649,3.78169717762944E-15,-2.));
#2177=CARTESIAN_POINT('',(90.1762816804649,29.,0.));
#2178=CARTESIAN_POINT('Origin',(15.7480157480236,29.,0.));
#2179=CARTESIAN_POINT('',(90.1762816804649,29.,-2.));
#2180=CARTESIAN_POINT('Origin',(43.0881408402325,0.,-2.));
#2181=UNCERTAINTY_MEASURE_WITH_UNIT(LENGTH_MEASURE(0.01),#2185,
'DISTANCE_ACCURACY_VALUE',
'Maximum model space distance between geometric entities at asserted c
onnectivities');
#2182=UNCERTAINTY_MEASURE_WITH_UNIT(LENGTH_MEASURE(0.01),#2185,
'DISTANCE_ACCURACY_VALUE',
'Maximum model space distance between geometric entities at asserted c
onnectivities');
#2183=(
GEOMETRIC_REPRESENTATION_CONTEXT(3)
GLOBAL_UNCERTAINTY_ASSIGNED_CONTEXT((#2181))
GLOBAL_UNIT_ASSIGNED_CONTEXT((#2185,#2187,#2188))
REPRESENTATION_CONTEXT('','3D')
);
#2184=(
GEOMETRIC_REPRESENTATION_CONTEXT(3)
GLOBAL_UNCERTAINTY_ASSIGNED_CONTEXT((#2182))
GLOBAL_UNIT_ASSIGNED_CONTEXT((#2185,#2187,#2188))
REPRESENTATION_CONTEXT('','3D')
);
#2185=(
LENGTH_UNIT()
NAMED_UNIT(*)
SI_UNIT(.MILLI.,.METRE.)
);
#2186=(
LENGTH_UNIT()
NAMED_UNIT(*)
SI_UNIT(.CENTI.,.METRE.)
);
#2187=(
NAMED_UNIT(*)
PLANE_ANGLE_UNIT()
SI_UNIT($,.RADIAN.)
);
#2188=(
NAMED_UNIT(*)
SI_UNIT($,.STERADIAN.)
SOLID_ANGLE_UNIT()
);
#2189=SHAPE_DEFINITION_REPRESENTATION(#2190,#2191);
#2190=PRODUCT_DEFINITION_SHAPE('',$,#2193);
#2191=SHAPE_REPRESENTATION('',(#1362),#2183);
#2192=PRODUCT_DEFINITION_CONTEXT('part definition',#2197,'design');
#2193=PRODUCT_DEFINITION('Fundament','Fundament',#2194,#2192);
#2194=PRODUCT_DEFINITION_FORMATION('',$,#2199);
#2195=PRODUCT_RELATED_PRODUCT_CATEGORY('Fundament','Fundament',(#2199));
#2196=APPLICATION_PROTOCOL_DEFINITION('international standard',
'automotive_design',2009,#2197);
#2197=APPLICATION_CONTEXT(
'Core Data for Automotive Mechanical Design Process');
#2198=PRODUCT_CONTEXT('part definition',#2197,'mechanical');
#2199=PRODUCT('Fundament','Fundament',$,(#2198));
#2200=PRESENTATION_STYLE_ASSIGNMENT((#2202));
#2201=PRESENTATION_STYLE_ASSIGNMENT((#2203));
#2202=SURFACE_STYLE_USAGE(.BOTH.,#2208);
#2203=SURFACE_STYLE_USAGE(.BOTH.,#2209);
#2204=SURFACE_STYLE_RENDERING_WITH_PROPERTIES($,#2216,(#2206));
#2205=SURFACE_STYLE_RENDERING_WITH_PROPERTIES($,#2217,(#2207));
#2206=SURFACE_STYLE_TRANSPARENT(0.);
#2207=SURFACE_STYLE_TRANSPARENT(0.);
#2208=SURFACE_SIDE_STYLE('',(#2210,#2204));
#2209=SURFACE_SIDE_STYLE('',(#2211,#2205));
#2210=SURFACE_STYLE_FILL_AREA(#2212);
#2211=SURFACE_STYLE_FILL_AREA(#2213);
#2212=FILL_AREA_STYLE('',(#2214));
#2213=FILL_AREA_STYLE('',(#2215));
#2214=FILL_AREA_STYLE_COLOUR('',#2216);
#2215=FILL_AREA_STYLE_COLOUR('',#2217);
#2216=COLOUR_RGB('',0.749019607843137,0.749019607843137,0.749019607843137);
#2217=COLOUR_RGB('',0.129411764705882,0.541176470588235,0.129411764705882);
ENDSEC;
END-ISO-10303-21;
