ISO-10303-21;
HEADER;
/* Generated by software containing ST-Developer
 * from STEP Tools, Inc. (www.steptools.com) 
 */

FILE_DESCRIPTION(
/* description */ ('ESP32_S2_mini'),
/* implementation_level */ '2;1');

FILE_NAME(
/* name */ 'ESP32_S2_mini.stp',
/* time_stamp */ '2026-09-06T19:01:27+02:00',
/* author */ ('bluhm'),
/* organization */ (''),
/* preprocessor_version */ 'ST-DEVELOPER v20.1',
/* originating_system */ 'Autodesk Inventor 2026',
/* authorisation */ '');

FILE_SCHEMA (('AUTOMOTIVE_DESIGN { 1 0 10303 214 3 1 1 }'));
ENDSEC;

DATA;
#10=MECHANICAL_DESIGN_GEOMETRIC_PRESENTATION_REPRESENTATION('',(#253,#254,
#255,#256,#257,#258,#259,#260,#261,#262,#263,#264,#265,#266,#267,#268),
#493);
#11=SHAPE_REPRESENTATION_RELATIONSHIP('SRR','None',#500,#12);
#12=ADVANCED_BREP_SHAPE_REPRESENTATION('',(#13),#492);
#13=MANIFOLD_SOLID_BREP('Volumenk\X\F6rper1',#284);
#14=FACE_BOUND('',#62,.T.);
#15=CIRCLE('',#309,1.5);
#16=CIRCLE('',#310,1.5);
#17=CIRCLE('',#313,1.5);
#18=CIRCLE('',#314,1.5);
#19=CIRCLE('',#317,1.5);
#20=CIRCLE('',#318,1.5);
#21=CIRCLE('',#321,1.5);
#22=CIRCLE('',#322,1.5);
#23=CIRCLE('',#323,1.5);
#24=CIRCLE('',#325,1.5);
#25=CIRCLE('',#328,1.5);
#26=CIRCLE('',#330,1.5);
#27=CYLINDRICAL_SURFACE('',#308,1.5);
#28=CYLINDRICAL_SURFACE('',#312,1.5);
#29=CYLINDRICAL_SURFACE('',#316,1.5);
#30=CYLINDRICAL_SURFACE('',#324,1.5);
#31=CYLINDRICAL_SURFACE('',#327,1.5);
#32=CYLINDRICAL_SURFACE('',#329,1.5);
#33=FACE_OUTER_BOUND('',#48,.T.);
#34=FACE_OUTER_BOUND('',#49,.T.);
#35=FACE_OUTER_BOUND('',#50,.T.);
#36=FACE_OUTER_BOUND('',#51,.T.);
#37=FACE_OUTER_BOUND('',#52,.T.);
#38=FACE_OUTER_BOUND('',#53,.T.);
#39=FACE_OUTER_BOUND('',#54,.T.);
#40=FACE_OUTER_BOUND('',#55,.T.);
#41=FACE_OUTER_BOUND('',#56,.T.);
#42=FACE_OUTER_BOUND('',#57,.T.);
#43=FACE_OUTER_BOUND('',#58,.T.);
#44=FACE_OUTER_BOUND('',#59,.T.);
#45=FACE_OUTER_BOUND('',#60,.T.);
#46=FACE_OUTER_BOUND('',#61,.T.);
#47=FACE_OUTER_BOUND('',#63,.T.);
#48=EDGE_LOOP('',(#172,#173,#174,#175));
#49=EDGE_LOOP('',(#176,#177,#178,#179));
#50=EDGE_LOOP('',(#180,#181,#182,#183));
#51=EDGE_LOOP('',(#184,#185,#186,#187));
#52=EDGE_LOOP('',(#188,#189,#190,#191));
#53=EDGE_LOOP('',(#192,#193,#194,#195));
#54=EDGE_LOOP('',(#196,#197,#198,#199));
#55=EDGE_LOOP('',(#200,#201,#202,#203,#204,#205,#206,#207));
#56=EDGE_LOOP('',(#208,#209,#210,#211));
#57=EDGE_LOOP('',(#212,#213,#214,#215));
#58=EDGE_LOOP('',(#216,#217,#218,#219));
#59=EDGE_LOOP('',(#220,#221,#222,#223));
#60=EDGE_LOOP('',(#224,#225,#226,#227));
#61=EDGE_LOOP('',(#228,#229,#230,#231));
#62=EDGE_LOOP('',(#232,#233,#234,#235));
#63=EDGE_LOOP('',(#236,#237,#238,#239,#240,#241,#242,#243));
#64=LINE('',#418,#88);
#65=LINE('',#420,#89);
#66=LINE('',#422,#90);
#67=LINE('',#423,#91);
#68=LINE('',#428,#92);
#69=LINE('',#432,#93);
#70=LINE('',#434,#94);
#71=LINE('',#435,#95);
#72=LINE('',#445,#96);
#73=LINE('',#448,#97);
#74=LINE('',#451,#98);
#75=LINE('',#453,#99);
#76=LINE('',#454,#100);
#77=LINE('',#457,#101);
#78=LINE('',#461,#102);
#79=LINE('',#465,#103);
#80=LINE('',#471,#104);
#81=LINE('',#472,#105);
#82=LINE('',#475,#106);
#83=LINE('',#476,#107);
#84=LINE('',#480,#108);
#85=LINE('',#484,#109);
#86=LINE('',#486,#110);
#87=LINE('',#488,#111);
#88=VECTOR('',#338,10.);
#89=VECTOR('',#339,10.);
#90=VECTOR('',#340,10.);
#91=VECTOR('',#341,10.);
#92=VECTOR('',#346,10.);
#93=VECTOR('',#351,10.);
#94=VECTOR('',#352,10.);
#95=VECTOR('',#353,10.);
#96=VECTOR('',#366,10.);
#97=VECTOR('',#369,10.);
#98=VECTOR('',#372,10.);
#99=VECTOR('',#373,10.);
#100=VECTOR('',#374,10.);
#101=VECTOR('',#377,10.);
#102=VECTOR('',#380,10.);
#103=VECTOR('',#383,10.);
#104=VECTOR('',#390,10.);
#105=VECTOR('',#391,10.);
#106=VECTOR('',#394,10.);
#107=VECTOR('',#395,10.);
#108=VECTOR('',#400,10.);
#109=VECTOR('',#405,10.);
#110=VECTOR('',#408,10.);
#111=VECTOR('',#411,10.);
#112=VERTEX_POINT('',#416);
#113=VERTEX_POINT('',#417);
#114=VERTEX_POINT('',#419);
#115=VERTEX_POINT('',#421);
#116=VERTEX_POINT('',#425);
#117=VERTEX_POINT('',#427);
#118=VERTEX_POINT('',#431);
#119=VERTEX_POINT('',#433);
#120=VERTEX_POINT('',#441);
#121=VERTEX_POINT('',#442);
#122=VERTEX_POINT('',#444);
#123=VERTEX_POINT('',#446);
#124=VERTEX_POINT('',#450);
#125=VERTEX_POINT('',#452);
#126=VERTEX_POINT('',#456);
#127=VERTEX_POINT('',#458);
#128=VERTEX_POINT('',#460);
#129=VERTEX_POINT('',#462);
#130=VERTEX_POINT('',#464);
#131=VERTEX_POINT('',#468);
#132=VERTEX_POINT('',#469);
#133=VERTEX_POINT('',#474);
#134=VERTEX_POINT('',#478);
#135=VERTEX_POINT('',#482);
#136=EDGE_CURVE('',#112,#113,#64,.T.);
#137=EDGE_CURVE('',#112,#114,#65,.T.);
#138=EDGE_CURVE('',#114,#115,#66,.T.);
#139=EDGE_CURVE('',#113,#115,#67,.T.);
#140=EDGE_CURVE('',#116,#112,#15,.T.);
#141=EDGE_CURVE('',#116,#117,#68,.T.);
#142=EDGE_CURVE('',#117,#114,#16,.T.);
#143=EDGE_CURVE('',#118,#116,#69,.T.);
#144=EDGE_CURVE('',#118,#119,#70,.T.);
#145=EDGE_CURVE('',#119,#117,#71,.T.);
#146=EDGE_CURVE('',#113,#118,#17,.T.);
#147=EDGE_CURVE('',#115,#119,#18,.T.);
#148=EDGE_CURVE('',#120,#121,#19,.T.);
#149=EDGE_CURVE('',#121,#122,#72,.T.);
#150=EDGE_CURVE('',#122,#123,#20,.T.);
#151=EDGE_CURVE('',#123,#120,#73,.T.);
#152=EDGE_CURVE('',#123,#124,#74,.T.);
#153=EDGE_CURVE('',#125,#124,#75,.T.);
#154=EDGE_CURVE('',#120,#125,#76,.T.);
#155=EDGE_CURVE('',#126,#122,#77,.T.);
#156=EDGE_CURVE('',#127,#126,#21,.T.);
#157=EDGE_CURVE('',#128,#127,#78,.T.);
#158=EDGE_CURVE('',#129,#128,#22,.T.);
#159=EDGE_CURVE('',#130,#129,#79,.T.);
#160=EDGE_CURVE('',#124,#130,#23,.T.);
#161=EDGE_CURVE('',#131,#132,#24,.T.);
#162=EDGE_CURVE('',#132,#127,#80,.T.);
#163=EDGE_CURVE('',#126,#131,#81,.T.);
#164=EDGE_CURVE('',#133,#132,#82,.T.);
#165=EDGE_CURVE('',#128,#133,#83,.T.);
#166=EDGE_CURVE('',#133,#134,#25,.T.);
#167=EDGE_CURVE('',#134,#129,#84,.T.);
#168=EDGE_CURVE('',#135,#125,#26,.T.);
#169=EDGE_CURVE('',#130,#135,#85,.T.);
#170=EDGE_CURVE('',#135,#134,#86,.T.);
#171=EDGE_CURVE('',#131,#121,#87,.T.);
#172=ORIENTED_EDGE('',*,*,#136,.F.);
#173=ORIENTED_EDGE('',*,*,#137,.T.);
#174=ORIENTED_EDGE('',*,*,#138,.T.);
#175=ORIENTED_EDGE('',*,*,#139,.F.);
#176=ORIENTED_EDGE('',*,*,#140,.F.);
#177=ORIENTED_EDGE('',*,*,#141,.T.);
#178=ORIENTED_EDGE('',*,*,#142,.T.);
#179=ORIENTED_EDGE('',*,*,#137,.F.);
#180=ORIENTED_EDGE('',*,*,#143,.F.);
#181=ORIENTED_EDGE('',*,*,#144,.T.);
#182=ORIENTED_EDGE('',*,*,#145,.T.);
#183=ORIENTED_EDGE('',*,*,#141,.F.);
#184=ORIENTED_EDGE('',*,*,#146,.F.);
#185=ORIENTED_EDGE('',*,*,#139,.T.);
#186=ORIENTED_EDGE('',*,*,#147,.T.);
#187=ORIENTED_EDGE('',*,*,#144,.F.);
#188=ORIENTED_EDGE('',*,*,#147,.F.);
#189=ORIENTED_EDGE('',*,*,#138,.F.);
#190=ORIENTED_EDGE('',*,*,#142,.F.);
#191=ORIENTED_EDGE('',*,*,#145,.F.);
#192=ORIENTED_EDGE('',*,*,#148,.T.);
#193=ORIENTED_EDGE('',*,*,#149,.T.);
#194=ORIENTED_EDGE('',*,*,#150,.T.);
#195=ORIENTED_EDGE('',*,*,#151,.T.);
#196=ORIENTED_EDGE('',*,*,#151,.F.);
#197=ORIENTED_EDGE('',*,*,#152,.T.);
#198=ORIENTED_EDGE('',*,*,#153,.F.);
#199=ORIENTED_EDGE('',*,*,#154,.F.);
#200=ORIENTED_EDGE('',*,*,#150,.F.);
#201=ORIENTED_EDGE('',*,*,#155,.F.);
#202=ORIENTED_EDGE('',*,*,#156,.F.);
#203=ORIENTED_EDGE('',*,*,#157,.F.);
#204=ORIENTED_EDGE('',*,*,#158,.F.);
#205=ORIENTED_EDGE('',*,*,#159,.F.);
#206=ORIENTED_EDGE('',*,*,#160,.F.);
#207=ORIENTED_EDGE('',*,*,#152,.F.);
#208=ORIENTED_EDGE('',*,*,#161,.T.);
#209=ORIENTED_EDGE('',*,*,#162,.T.);
#210=ORIENTED_EDGE('',*,*,#156,.T.);
#211=ORIENTED_EDGE('',*,*,#163,.T.);
#212=ORIENTED_EDGE('',*,*,#162,.F.);
#213=ORIENTED_EDGE('',*,*,#164,.F.);
#214=ORIENTED_EDGE('',*,*,#165,.F.);
#215=ORIENTED_EDGE('',*,*,#157,.T.);
#216=ORIENTED_EDGE('',*,*,#166,.T.);
#217=ORIENTED_EDGE('',*,*,#167,.T.);
#218=ORIENTED_EDGE('',*,*,#158,.T.);
#219=ORIENTED_EDGE('',*,*,#165,.T.);
#220=ORIENTED_EDGE('',*,*,#168,.T.);
#221=ORIENTED_EDGE('',*,*,#153,.T.);
#222=ORIENTED_EDGE('',*,*,#160,.T.);
#223=ORIENTED_EDGE('',*,*,#169,.T.);
#224=ORIENTED_EDGE('',*,*,#167,.F.);
#225=ORIENTED_EDGE('',*,*,#170,.F.);
#226=ORIENTED_EDGE('',*,*,#169,.F.);
#227=ORIENTED_EDGE('',*,*,#159,.T.);
#228=ORIENTED_EDGE('',*,*,#149,.F.);
#229=ORIENTED_EDGE('',*,*,#171,.F.);
#230=ORIENTED_EDGE('',*,*,#163,.F.);
#231=ORIENTED_EDGE('',*,*,#155,.T.);
#232=ORIENTED_EDGE('',*,*,#136,.T.);
#233=ORIENTED_EDGE('',*,*,#146,.T.);
#234=ORIENTED_EDGE('',*,*,#143,.T.);
#235=ORIENTED_EDGE('',*,*,#140,.T.);
#236=ORIENTED_EDGE('',*,*,#148,.F.);
#237=ORIENTED_EDGE('',*,*,#154,.T.);
#238=ORIENTED_EDGE('',*,*,#168,.F.);
#239=ORIENTED_EDGE('',*,*,#170,.T.);
#240=ORIENTED_EDGE('',*,*,#166,.F.);
#241=ORIENTED_EDGE('',*,*,#164,.T.);
#242=ORIENTED_EDGE('',*,*,#161,.F.);
#243=ORIENTED_EDGE('',*,*,#171,.T.);
#244=PLANE('',#307);
#245=PLANE('',#311);
#246=PLANE('',#315);
#247=PLANE('',#319);
#248=PLANE('',#320);
#249=PLANE('',#326);
#250=PLANE('',#331);
#251=PLANE('',#332);
#252=PLANE('',#333);
#253=STYLED_ITEM('',(#510),#269);
#254=STYLED_ITEM('',(#510),#270);
#255=STYLED_ITEM('',(#510),#271);
#256=STYLED_ITEM('',(#510),#272);
#257=STYLED_ITEM('',(#510),#273);
#258=STYLED_ITEM('',(#510),#274);
#259=STYLED_ITEM('',(#510),#275);
#260=STYLED_ITEM('',(#510),#276);
#261=STYLED_ITEM('',(#510),#277);
#262=STYLED_ITEM('',(#510),#278);
#263=STYLED_ITEM('',(#510),#279);
#264=STYLED_ITEM('',(#510),#280);
#265=STYLED_ITEM('',(#510),#281);
#266=STYLED_ITEM('',(#510),#282);
#267=STYLED_ITEM('',(#510),#283);
#268=STYLED_ITEM('',(#509),#13);
#269=ADVANCED_FACE('',(#33),#244,.F.);
#270=ADVANCED_FACE('',(#34),#27,.F.);
#271=ADVANCED_FACE('',(#35),#245,.F.);
#272=ADVANCED_FACE('',(#36),#28,.F.);
#273=ADVANCED_FACE('',(#37),#246,.T.);
#274=ADVANCED_FACE('',(#38),#29,.T.);
#275=ADVANCED_FACE('',(#39),#247,.T.);
#276=ADVANCED_FACE('',(#40),#248,.F.);
#277=ADVANCED_FACE('',(#41),#30,.T.);
#278=ADVANCED_FACE('',(#42),#249,.T.);
#279=ADVANCED_FACE('',(#43),#31,.T.);
#280=ADVANCED_FACE('',(#44),#32,.T.);
#281=ADVANCED_FACE('',(#45),#250,.T.);
#282=ADVANCED_FACE('',(#46,#14),#251,.T.);
#283=ADVANCED_FACE('',(#47),#252,.T.);
#284=CLOSED_SHELL('',(#269,#270,#271,#272,#273,#274,#275,#276,#277,#278,
#279,#280,#281,#282,#283));
#285=DERIVED_UNIT_ELEMENT(#288,1.);
#286=DERIVED_UNIT_ELEMENT(#495,-3.);
#287=DIMENSIONAL_EXPONENTS(0.,1.,0.,0.,0.,0.,0.);
#288=(
CONVERSION_BASED_UNIT('gram',#290)
MASS_UNIT()
NAMED_UNIT(#287)
);
#289=(
MASS_UNIT()
NAMED_UNIT(*)
SI_UNIT(.KILO.,.GRAM.)
);
#290=MASS_MEASURE_WITH_UNIT(MASS_MEASURE(0.001),#289);
#291=DERIVED_UNIT((#285,#286));
#292=MEASURE_REPRESENTATION_ITEM('density measure',
POSITIVE_RATIO_MEASURE(1.),#291);
#293=PROPERTY_DEFINITION_REPRESENTATION(#298,#295);
#294=PROPERTY_DEFINITION_REPRESENTATION(#299,#296);
#295=REPRESENTATION('material name',(#297),#492);
#296=REPRESENTATION('density',(#292),#492);
#297=DESCRIPTIVE_REPRESENTATION_ITEM('Generisch','Generisch');
#298=PROPERTY_DEFINITION('material property','material name',#502);
#299=PROPERTY_DEFINITION('material property','density of part',#502);
#300=DATE_TIME_ROLE('creation_date');
#301=APPLIED_DATE_AND_TIME_ASSIGNMENT(#302,#300,(#502));
#302=DATE_AND_TIME(#303,#304);
#303=CALENDAR_DATE(2026,14,3);
#304=LOCAL_TIME(0,0,0.,#305);
#305=COORDINATED_UNIVERSAL_TIME_OFFSET(0,0,.BEHIND.);
#306=AXIS2_PLACEMENT_3D('',#414,#334,#335);
#307=AXIS2_PLACEMENT_3D('',#415,#336,#337);
#308=AXIS2_PLACEMENT_3D('',#424,#342,#343);
#309=AXIS2_PLACEMENT_3D('',#426,#344,#345);
#310=AXIS2_PLACEMENT_3D('',#429,#347,#348);
#311=AXIS2_PLACEMENT_3D('',#430,#349,#350);
#312=AXIS2_PLACEMENT_3D('',#436,#354,#355);
#313=AXIS2_PLACEMENT_3D('',#437,#356,#357);
#314=AXIS2_PLACEMENT_3D('',#438,#358,#359);
#315=AXIS2_PLACEMENT_3D('',#439,#360,#361);
#316=AXIS2_PLACEMENT_3D('',#440,#362,#363);
#317=AXIS2_PLACEMENT_3D('',#443,#364,#365);
#318=AXIS2_PLACEMENT_3D('',#447,#367,#368);
#319=AXIS2_PLACEMENT_3D('',#449,#370,#371);
#320=AXIS2_PLACEMENT_3D('',#455,#375,#376);
#321=AXIS2_PLACEMENT_3D('',#459,#378,#379);
#322=AXIS2_PLACEMENT_3D('',#463,#381,#382);
#323=AXIS2_PLACEMENT_3D('',#466,#384,#385);
#324=AXIS2_PLACEMENT_3D('',#467,#386,#387);
#325=AXIS2_PLACEMENT_3D('',#470,#388,#389);
#326=AXIS2_PLACEMENT_3D('',#473,#392,#393);
#327=AXIS2_PLACEMENT_3D('',#477,#396,#397);
#328=AXIS2_PLACEMENT_3D('',#479,#398,#399);
#329=AXIS2_PLACEMENT_3D('',#481,#401,#402);
#330=AXIS2_PLACEMENT_3D('',#483,#403,#404);
#331=AXIS2_PLACEMENT_3D('',#485,#406,#407);
#332=AXIS2_PLACEMENT_3D('',#487,#409,#410);
#333=AXIS2_PLACEMENT_3D('',#489,#412,#413);
#334=DIRECTION('axis',(0.,0.,1.));
#335=DIRECTION('refdir',(1.,0.,0.));
#336=DIRECTION('center_axis',(0.,0.,-1.));
#337=DIRECTION('ref_axis',(1.77635683940025E-16,-1.,0.));
#338=DIRECTION('',(1.77635683940025E-16,-1.,0.));
#339=DIRECTION('',(-1.,-1.52085345839063E-16,0.));
#340=DIRECTION('',(1.77635683940025E-16,-1.,0.));
#341=DIRECTION('',(-1.,-1.52085345839063E-16,0.));
#342=DIRECTION('center_axis',(-1.,-1.52085345839063E-16,0.));
#343=DIRECTION('ref_axis',(0.,0.,-1.));
#344=DIRECTION('center_axis',(-1.,-1.77635683940025E-16,0.));
#345=DIRECTION('ref_axis',(0.,0.,-1.));
#346=DIRECTION('',(-1.,-1.52085345839063E-16,0.));
#347=DIRECTION('center_axis',(-1.,-1.77635683940025E-16,0.));
#348=DIRECTION('ref_axis',(0.,0.,-1.));
#349=DIRECTION('center_axis',(0.,0.,1.));
#350=DIRECTION('ref_axis',(-1.77635683940025E-16,1.,0.));
#351=DIRECTION('',(-1.77635683940025E-16,1.,0.));
#352=DIRECTION('',(-1.,-1.52085345839063E-16,0.));
#353=DIRECTION('',(-1.77635683940025E-16,1.,0.));
#354=DIRECTION('center_axis',(-1.,-1.52085345839063E-16,0.));
#355=DIRECTION('ref_axis',(0.,0.,1.));
#356=DIRECTION('center_axis',(-1.,-1.77635683940025E-16,0.));
#357=DIRECTION('ref_axis',(0.,0.,1.));
#358=DIRECTION('center_axis',(-1.,-1.77635683940025E-16,0.));
#359=DIRECTION('ref_axis',(0.,0.,1.));
#360=DIRECTION('center_axis',(1.,1.77635683940025E-16,0.));
#361=DIRECTION('ref_axis',(0.,0.,-1.));
#362=DIRECTION('center_axis',(0.,0.,1.));
#363=DIRECTION('ref_axis',(0.707106781186547,0.707106781186547,0.));
#364=DIRECTION('center_axis',(0.,0.,-1.));
#365=DIRECTION('ref_axis',(0.707106781186547,0.707106781186547,0.));
#366=DIRECTION('',(0.,0.,-1.));
#367=DIRECTION('center_axis',(0.,0.,1.));
#368=DIRECTION('ref_axis',(0.707106781186547,0.707106781186547,0.));
#369=DIRECTION('',(0.,0.,1.));
#370=DIRECTION('center_axis',(0.,1.,0.));
#371=DIRECTION('ref_axis',(-1.,0.,0.));
#372=DIRECTION('',(-1.,0.,0.));
#373=DIRECTION('',(0.,0.,-1.));
#374=DIRECTION('',(-1.,0.,0.));
#375=DIRECTION('center_axis',(0.,0.,1.));
#376=DIRECTION('ref_axis',(1.,0.,0.));
#377=DIRECTION('',(-1.77635683940025E-16,1.,0.));
#378=DIRECTION('center_axis',(0.,0.,1.));
#379=DIRECTION('ref_axis',(0.707106781186547,-0.707106781186547,0.));
#380=DIRECTION('',(1.,0.,0.));
#381=DIRECTION('center_axis',(0.,0.,1.));
#382=DIRECTION('ref_axis',(-0.707106781186547,-0.707106781186547,0.));
#383=DIRECTION('',(0.,-1.,0.));
#384=DIRECTION('center_axis',(0.,0.,1.));
#385=DIRECTION('ref_axis',(-0.707106781186547,0.707106781186547,0.));
#386=DIRECTION('center_axis',(0.,0.,1.));
#387=DIRECTION('ref_axis',(0.707106781186547,-0.707106781186547,0.));
#388=DIRECTION('center_axis',(0.,0.,-1.));
#389=DIRECTION('ref_axis',(0.707106781186547,-0.707106781186547,0.));
#390=DIRECTION('',(0.,0.,-1.));
#391=DIRECTION('',(0.,0.,1.));
#392=DIRECTION('center_axis',(0.,-1.,0.));
#393=DIRECTION('ref_axis',(1.,0.,0.));
#394=DIRECTION('',(1.,0.,0.));
#395=DIRECTION('',(0.,0.,1.));
#396=DIRECTION('center_axis',(0.,0.,1.));
#397=DIRECTION('ref_axis',(-0.707106781186547,-0.707106781186547,0.));
#398=DIRECTION('center_axis',(0.,0.,-1.));
#399=DIRECTION('ref_axis',(-0.707106781186547,-0.707106781186547,0.));
#400=DIRECTION('',(0.,0.,-1.));
#401=DIRECTION('center_axis',(0.,0.,1.));
#402=DIRECTION('ref_axis',(-0.707106781186547,0.707106781186547,0.));
#403=DIRECTION('center_axis',(0.,0.,-1.));
#404=DIRECTION('ref_axis',(-0.707106781186547,0.707106781186547,0.));
#405=DIRECTION('',(0.,0.,1.));
#406=DIRECTION('center_axis',(-1.,0.,0.));
#407=DIRECTION('ref_axis',(0.,-1.,0.));
#408=DIRECTION('',(0.,-1.,0.));
#409=DIRECTION('center_axis',(1.,1.77635683940025E-16,0.));
#410=DIRECTION('ref_axis',(-1.77635683940025E-16,1.,0.));
#411=DIRECTION('',(-1.77635683940025E-16,1.,0.));
#412=DIRECTION('center_axis',(0.,0.,1.));
#413=DIRECTION('ref_axis',(1.,0.,0.));
#414=CARTESIAN_POINT('',(0.,0.,0.));
#415=CARTESIAN_POINT('Origin',(17.25,4.5,0.5));
#416=CARTESIAN_POINT('',(17.25,4.5,0.5));
#417=CARTESIAN_POINT('',(17.25,-4.5,0.5));
#418=CARTESIAN_POINT('',(17.25,-4.,0.5));
#419=CARTESIAN_POINT('',(9.95,4.5,0.5));
#420=CARTESIAN_POINT('',(17.25,4.5,0.5));
#421=CARTESIAN_POINT('',(9.95,-4.5,0.5));
#422=CARTESIAN_POINT('',(9.95,-4.5,0.5));
#423=CARTESIAN_POINT('',(17.25,-4.5,0.5));
#424=CARTESIAN_POINT('Origin',(17.25,4.5,2.));
#425=CARTESIAN_POINT('',(17.25,4.5,3.5));
#426=CARTESIAN_POINT('Origin',(17.25,4.5,2.));
#427=CARTESIAN_POINT('',(9.95,4.5,3.5));
#428=CARTESIAN_POINT('',(17.25,4.5,3.5));
#429=CARTESIAN_POINT('Origin',(9.95,4.5,2.));
#430=CARTESIAN_POINT('Origin',(17.25,-4.5,3.5));
#431=CARTESIAN_POINT('',(17.25,-4.5,3.5));
#432=CARTESIAN_POINT('',(17.25,-8.5,3.5));
#433=CARTESIAN_POINT('',(9.95,-4.5,3.5));
#434=CARTESIAN_POINT('',(17.25,-4.5,3.5));
#435=CARTESIAN_POINT('',(9.95,4.5,3.5));
#436=CARTESIAN_POINT('Origin',(17.25,-4.5,2.));
#437=CARTESIAN_POINT('Origin',(17.25,-4.5,2.));
#438=CARTESIAN_POINT('Origin',(9.95,-4.5,2.));
#439=CARTESIAN_POINT('Origin',(9.95,1.11022302462516E-15,2.));
#440=CARTESIAN_POINT('Origin',(15.75,11.,0.));
#441=CARTESIAN_POINT('',(15.75,12.5,4.));
#442=CARTESIAN_POINT('',(17.25,11.,4.));
#443=CARTESIAN_POINT('Origin',(15.75,11.,4.));
#444=CARTESIAN_POINT('',(17.25,11.,0.));
#445=CARTESIAN_POINT('',(17.25,11.,0.));
#446=CARTESIAN_POINT('',(15.75,12.5,0.));
#447=CARTESIAN_POINT('Origin',(15.75,11.,0.));
#448=CARTESIAN_POINT('',(15.75,12.5,0.));
#449=CARTESIAN_POINT('Origin',(17.25,12.5,0.));
#450=CARTESIAN_POINT('',(-15.75,12.5,0.));
#451=CARTESIAN_POINT('',(17.25,12.5,0.));
#452=CARTESIAN_POINT('',(-15.75,12.5,4.));
#453=CARTESIAN_POINT('',(-15.75,12.5,0.));
#454=CARTESIAN_POINT('',(17.25,12.5,4.));
#455=CARTESIAN_POINT('Origin',(2.22044604925031E-15,0.,0.));
#456=CARTESIAN_POINT('',(17.25,-11.,0.));
#457=CARTESIAN_POINT('',(17.25,-12.5,0.));
#458=CARTESIAN_POINT('',(15.75,-12.5,0.));
#459=CARTESIAN_POINT('Origin',(15.75,-11.,0.));
#460=CARTESIAN_POINT('',(-15.75,-12.5,0.));
#461=CARTESIAN_POINT('',(-17.25,-12.5,0.));
#462=CARTESIAN_POINT('',(-17.25,-11.,0.));
#463=CARTESIAN_POINT('Origin',(-15.75,-11.,0.));
#464=CARTESIAN_POINT('',(-17.25,11.,0.));
#465=CARTESIAN_POINT('',(-17.25,12.5,0.));
#466=CARTESIAN_POINT('Origin',(-15.75,11.,0.));
#467=CARTESIAN_POINT('Origin',(15.75,-11.,0.));
#468=CARTESIAN_POINT('',(17.25,-11.,4.));
#469=CARTESIAN_POINT('',(15.75,-12.5,4.));
#470=CARTESIAN_POINT('Origin',(15.75,-11.,4.));
#471=CARTESIAN_POINT('',(15.75,-12.5,0.));
#472=CARTESIAN_POINT('',(17.25,-11.,0.));
#473=CARTESIAN_POINT('Origin',(-17.25,-12.5,0.));
#474=CARTESIAN_POINT('',(-15.75,-12.5,4.));
#475=CARTESIAN_POINT('',(-17.25,-12.5,4.));
#476=CARTESIAN_POINT('',(-15.75,-12.5,0.));
#477=CARTESIAN_POINT('Origin',(-15.75,-11.,0.));
#478=CARTESIAN_POINT('',(-17.25,-11.,4.));
#479=CARTESIAN_POINT('Origin',(-15.75,-11.,4.));
#480=CARTESIAN_POINT('',(-17.25,-11.,0.));
#481=CARTESIAN_POINT('Origin',(-15.75,11.,0.));
#482=CARTESIAN_POINT('',(-17.25,11.,4.));
#483=CARTESIAN_POINT('Origin',(-15.75,11.,4.));
#484=CARTESIAN_POINT('',(-17.25,11.,0.));
#485=CARTESIAN_POINT('Origin',(-17.25,12.5,0.));
#486=CARTESIAN_POINT('',(-17.25,12.5,4.));
#487=CARTESIAN_POINT('Origin',(17.25,-12.5,0.));
#488=CARTESIAN_POINT('',(17.25,-12.5,4.));
#489=CARTESIAN_POINT('Origin',(2.22044604925031E-15,0.,4.));
#490=UNCERTAINTY_MEASURE_WITH_UNIT(LENGTH_MEASURE(0.01),#494,
'DISTANCE_ACCURACY_VALUE',
'Maximum model space distance between geometric entities at asserted c
onnectivities');
#491=UNCERTAINTY_MEASURE_WITH_UNIT(LENGTH_MEASURE(0.01),#494,
'DISTANCE_ACCURACY_VALUE',
'Maximum model space distance between geometric entities at asserted c
onnectivities');
#492=(
GEOMETRIC_REPRESENTATION_CONTEXT(3)
GLOBAL_UNCERTAINTY_ASSIGNED_CONTEXT((#490))
GLOBAL_UNIT_ASSIGNED_CONTEXT((#494,#496,#497))
REPRESENTATION_CONTEXT('','3D')
);
#493=(
GEOMETRIC_REPRESENTATION_CONTEXT(3)
GLOBAL_UNCERTAINTY_ASSIGNED_CONTEXT((#491))
GLOBAL_UNIT_ASSIGNED_CONTEXT((#494,#496,#497))
REPRESENTATION_CONTEXT('','3D')
);
#494=(
LENGTH_UNIT()
NAMED_UNIT(*)
SI_UNIT(.MILLI.,.METRE.)
);
#495=(
LENGTH_UNIT()
NAMED_UNIT(*)
SI_UNIT(.CENTI.,.METRE.)
);
#496=(
NAMED_UNIT(*)
PLANE_ANGLE_UNIT()
SI_UNIT($,.RADIAN.)
);
#497=(
NAMED_UNIT(*)
SI_UNIT($,.STERADIAN.)
SOLID_ANGLE_UNIT()
);
#498=SHAPE_DEFINITION_REPRESENTATION(#499,#500);
#499=PRODUCT_DEFINITION_SHAPE('',$,#502);
#500=SHAPE_REPRESENTATION('',(#306),#492);
#501=PRODUCT_DEFINITION_CONTEXT('part definition',#506,'design');
#502=PRODUCT_DEFINITION('002','ESP32_S2_mini',#503,#501);
#503=PRODUCT_DEFINITION_FORMATION('',$,#508);
#504=PRODUCT_RELATED_PRODUCT_CATEGORY('ESP32_S2_mini','ESP32_S2_mini',(#508));
#505=APPLICATION_PROTOCOL_DEFINITION('international standard',
'automotive_design',2009,#506);
#506=APPLICATION_CONTEXT(
'Core Data for Automotive Mechanical Design Process');
#507=PRODUCT_CONTEXT('part definition',#506,'mechanical');
#508=PRODUCT('002','ESP32_S2_mini','ESP32_S2_mini',(#507));
#509=PRESENTATION_STYLE_ASSIGNMENT((#511));
#510=PRESENTATION_STYLE_ASSIGNMENT((#512));
#511=SURFACE_STYLE_USAGE(.BOTH.,#517);
#512=SURFACE_STYLE_USAGE(.BOTH.,#518);
#513=SURFACE_STYLE_RENDERING_WITH_PROPERTIES($,#525,(#515));
#514=SURFACE_STYLE_RENDERING_WITH_PROPERTIES($,#526,(#516));
#515=SURFACE_STYLE_TRANSPARENT(0.);
#516=SURFACE_STYLE_TRANSPARENT(0.);
#517=SURFACE_SIDE_STYLE('',(#519,#513));
#518=SURFACE_SIDE_STYLE('',(#520,#514));
#519=SURFACE_STYLE_FILL_AREA(#521);
#520=SURFACE_STYLE_FILL_AREA(#522);
#521=FILL_AREA_STYLE('',(#523));
#522=FILL_AREA_STYLE('',(#524));
#523=FILL_AREA_STYLE_COLOUR('',#525);
#524=FILL_AREA_STYLE_COLOUR('',#526);
#525=COLOUR_RGB('',0.749019607843137,0.749019607843137,0.749019607843137);
#526=COLOUR_RGB('',0.368627450980392,0.0666666666666667,0.247058823529412);
ENDSEC;
END-ISO-10303-21;
