ISO-10303-21;
HEADER;
/* Generated by software containing ST-Developer
 * from STEP Tools, Inc. (www.steptools.com) 
 */

FILE_DESCRIPTION(
/* description */ ('SG90_9g_Micro_Servo'),
/* implementation_level */ '2;1');

FILE_NAME(
/* name */ 'SG90_9g_Micro_Servo.stp',
/* time_stamp */ '2026-09-06T18:58:45+02:00',
/* author */ ('bluhm'),
/* organization */ (''),
/* preprocessor_version */ 'ST-DEVELOPER v20.1',
/* originating_system */ 'Autodesk Inventor 2026',
/* authorisation */ '');

FILE_SCHEMA (('AUTOMOTIVE_DESIGN { 1 0 10303 214 3 1 1 }'));
ENDSEC;

DATA;
#10=MECHANICAL_DESIGN_GEOMETRIC_PRESENTATION_REPRESENTATION('',(#37,#38,
#39,#40,#41,#42,#43,#44,#45,#46,#47,#48,#49,#50,#51,#52,#53,#54,#55,#56,
#57,#58),#745);
#11=SHAPE_REPRESENTATION_RELATIONSHIP('SRR','None',#752,#12);
#12=ADVANCED_BREP_SHAPE_REPRESENTATION('',(#13),#744);
#13=MANIFOLD_SOLID_BREP('Volumenk\X\F6rper1',#447);
#14=FACE_BOUND('',#89,.T.);
#15=FACE_BOUND('',#96,.T.);
#16=FACE_BOUND('',#98,.T.);
#17=FACE_BOUND('',#100,.T.);
#18=FACE_BOUND('',#102,.T.);
#19=PLANE('',#479);
#20=PLANE('',#489);
#21=PLANE('',#490);
#22=PLANE('',#491);
#23=PLANE('',#492);
#24=PLANE('',#493);
#25=PLANE('',#494);
#26=PLANE('',#495);
#27=PLANE('',#496);
#28=PLANE('',#497);
#29=PLANE('',#498);
#30=PLANE('',#499);
#31=PLANE('',#500);
#32=PLANE('',#501);
#33=PLANE('',#502);
#34=PLANE('',#503);
#35=PLANE('',#504);
#36=PLANE('',#505);
#37=STYLED_ITEM('',(#762),#426);
#38=STYLED_ITEM('',(#763),#427);
#39=STYLED_ITEM('',(#764),#428);
#40=STYLED_ITEM('',(#764),#429);
#41=STYLED_ITEM('',(#764),#430);
#42=STYLED_ITEM('',(#764),#431);
#43=STYLED_ITEM('',(#764),#432);
#44=STYLED_ITEM('',(#764),#433);
#45=STYLED_ITEM('',(#764),#434);
#46=STYLED_ITEM('',(#764),#435);
#47=STYLED_ITEM('',(#764),#436);
#48=STYLED_ITEM('',(#764),#437);
#49=STYLED_ITEM('',(#764),#438);
#50=STYLED_ITEM('',(#764),#439);
#51=STYLED_ITEM('',(#764),#440);
#52=STYLED_ITEM('',(#764),#441);
#53=STYLED_ITEM('',(#764),#442);
#54=STYLED_ITEM('',(#764),#443);
#55=STYLED_ITEM('',(#764),#444);
#56=STYLED_ITEM('',(#764),#445);
#57=STYLED_ITEM('',(#764),#446);
#58=STYLED_ITEM('',(#761),#13);
#59=FACE_OUTER_BOUND('',#82,.T.);
#60=FACE_OUTER_BOUND('',#83,.T.);
#61=FACE_OUTER_BOUND('',#84,.T.);
#62=FACE_OUTER_BOUND('',#85,.T.);
#63=FACE_OUTER_BOUND('',#86,.T.);
#64=FACE_OUTER_BOUND('',#87,.T.);
#65=FACE_OUTER_BOUND('',#88,.T.);
#66=FACE_OUTER_BOUND('',#90,.T.);
#67=FACE_OUTER_BOUND('',#91,.T.);
#68=FACE_OUTER_BOUND('',#92,.T.);
#69=FACE_OUTER_BOUND('',#93,.T.);
#70=FACE_OUTER_BOUND('',#94,.T.);
#71=FACE_OUTER_BOUND('',#95,.T.);
#72=FACE_OUTER_BOUND('',#97,.T.);
#73=FACE_OUTER_BOUND('',#99,.T.);
#74=FACE_OUTER_BOUND('',#101,.T.);
#75=FACE_OUTER_BOUND('',#103,.T.);
#76=FACE_OUTER_BOUND('',#104,.T.);
#77=FACE_OUTER_BOUND('',#105,.T.);
#78=FACE_OUTER_BOUND('',#106,.T.);
#79=FACE_OUTER_BOUND('',#107,.T.);
#80=FACE_OUTER_BOUND('',#108,.T.);
#81=FACE_OUTER_BOUND('',#109,.T.);
#82=EDGE_LOOP('',(#305,#306,#307,#308));
#83=EDGE_LOOP('',(#309,#310,#311,#312));
#84=EDGE_LOOP('',(#313,#314,#315,#316));
#85=EDGE_LOOP('',(#317));
#86=EDGE_LOOP('',(#318,#319,#320,#321));
#87=EDGE_LOOP('',(#322,#323,#324,#325,#326,#327,#328));
#88=EDGE_LOOP('',(#329,#330));
#89=EDGE_LOOP('',(#331));
#90=EDGE_LOOP('',(#332,#333,#334,#335,#336,#337));
#91=EDGE_LOOP('',(#338,#339,#340));
#92=EDGE_LOOP('',(#341,#342,#343));
#93=EDGE_LOOP('',(#344,#345,#346,#347,#348));
#94=EDGE_LOOP('',(#349,#350,#351,#352));
#95=EDGE_LOOP('',(#353,#354,#355,#356));
#96=EDGE_LOOP('',(#357));
#97=EDGE_LOOP('',(#358,#359,#360,#361));
#98=EDGE_LOOP('',(#362));
#99=EDGE_LOOP('',(#363,#364,#365,#366));
#100=EDGE_LOOP('',(#367));
#101=EDGE_LOOP('',(#368,#369,#370,#371));
#102=EDGE_LOOP('',(#372));
#103=EDGE_LOOP('',(#373,#374,#375,#376));
#104=EDGE_LOOP('',(#377,#378,#379,#380));
#105=EDGE_LOOP('',(#381,#382,#383,#384));
#106=EDGE_LOOP('',(#385,#386,#387,#388,#389,#390,#391,#392,#393,#394,#395,
#396,#397));
#107=EDGE_LOOP('',(#398,#399,#400,#401));
#108=EDGE_LOOP('',(#402,#403,#404,#405,#406,#407,#408,#409,#410,#411,#412,
#413,#414));
#109=EDGE_LOOP('',(#415,#416,#417,#418));
#110=LINE('',#629,#154);
#111=LINE('',#635,#155);
#112=LINE('',#641,#156);
#113=LINE('',#649,#157);
#114=LINE('',#652,#158);
#115=LINE('',#665,#159);
#116=LINE('',#667,#160);
#117=LINE('',#668,#161);
#118=LINE('',#671,#162);
#119=LINE('',#672,#163);
#120=LINE('',#675,#164);
#121=LINE('',#676,#165);
#122=LINE('',#680,#166);
#123=LINE('',#681,#167);
#124=LINE('',#682,#168);
#125=LINE('',#686,#169);
#126=LINE('',#687,#170);
#127=LINE('',#688,#171);
#128=LINE('',#691,#172);
#129=LINE('',#693,#173);
#130=LINE('',#694,#174);
#131=LINE('',#697,#175);
#132=LINE('',#699,#176);
#133=LINE('',#700,#177);
#134=LINE('',#704,#178);
#135=LINE('',#706,#179);
#136=LINE('',#708,#180);
#137=LINE('',#709,#181);
#138=LINE('',#713,#182);
#139=LINE('',#715,#183);
#140=LINE('',#717,#184);
#141=LINE('',#718,#185);
#142=LINE('',#720,#186);
#143=LINE('',#721,#187);
#144=LINE('',#723,#188);
#145=LINE('',#724,#189);
#146=LINE('',#728,#190);
#147=LINE('',#729,#191);
#148=LINE('',#730,#192);
#149=LINE('',#733,#193);
#150=LINE('',#734,#194);
#151=LINE('',#737,#195);
#152=LINE('',#738,#196);
#153=LINE('',#740,#197);
#154=VECTOR('',#512,0.889);
#155=VECTOR('',#519,0.889);
#156=VECTOR('',#526,2.5);
#157=VECTOR('',#535,10.);
#158=VECTOR('',#538,10.);
#159=VECTOR('',#555,10.);
#160=VECTOR('',#556,10.);
#161=VECTOR('',#557,10.);
#162=VECTOR('',#560,10.);
#163=VECTOR('',#561,10.);
#164=VECTOR('',#564,10.);
#165=VECTOR('',#565,10.);
#166=VECTOR('',#568,10.);
#167=VECTOR('',#569,10.);
#168=VECTOR('',#570,10.);
#169=VECTOR('',#573,10.);
#170=VECTOR('',#574,10.);
#171=VECTOR('',#575,10.);
#172=VECTOR('',#578,10.);
#173=VECTOR('',#579,10.);
#174=VECTOR('',#580,10.);
#175=VECTOR('',#583,10.);
#176=VECTOR('',#584,10.);
#177=VECTOR('',#585,10.);
#178=VECTOR('',#588,10.);
#179=VECTOR('',#589,10.);
#180=VECTOR('',#590,10.);
#181=VECTOR('',#591,10.);
#182=VECTOR('',#594,10.);
#183=VECTOR('',#595,10.);
#184=VECTOR('',#596,10.);
#185=VECTOR('',#597,10.);
#186=VECTOR('',#600,10.);
#187=VECTOR('',#601,10.);
#188=VECTOR('',#604,10.);
#189=VECTOR('',#605,10.);
#190=VECTOR('',#608,10.);
#191=VECTOR('',#609,10.);
#192=VECTOR('',#610,10.);
#193=VECTOR('',#613,10.);
#194=VECTOR('',#614,10.);
#195=VECTOR('',#617,10.);
#196=VECTOR('',#618,10.);
#197=VECTOR('',#621,10.);
#198=CIRCLE('',#471,0.889);
#199=CIRCLE('',#472,0.889);
#200=CIRCLE('',#474,0.889);
#201=CIRCLE('',#475,0.889);
#202=CIRCLE('',#477,2.5);
#203=CIRCLE('',#478,2.5);
#204=CIRCLE('',#481,2.75);
#205=CIRCLE('',#482,2.75);
#206=CIRCLE('',#484,6.);
#207=CIRCLE('',#485,6.);
#208=CIRCLE('',#486,6.);
#209=CIRCLE('',#487,6.);
#210=CIRCLE('',#488,6.);
#211=VERTEX_POINT('',#626);
#212=VERTEX_POINT('',#628);
#213=VERTEX_POINT('',#632);
#214=VERTEX_POINT('',#634);
#215=VERTEX_POINT('',#638);
#216=VERTEX_POINT('',#640);
#217=VERTEX_POINT('',#645);
#218=VERTEX_POINT('',#646);
#219=VERTEX_POINT('',#648);
#220=VERTEX_POINT('',#650);
#221=VERTEX_POINT('',#654);
#222=VERTEX_POINT('',#656);
#223=VERTEX_POINT('',#658);
#224=VERTEX_POINT('',#664);
#225=VERTEX_POINT('',#666);
#226=VERTEX_POINT('',#670);
#227=VERTEX_POINT('',#674);
#228=VERTEX_POINT('',#678);
#229=VERTEX_POINT('',#679);
#230=VERTEX_POINT('',#684);
#231=VERTEX_POINT('',#685);
#232=VERTEX_POINT('',#690);
#233=VERTEX_POINT('',#692);
#234=VERTEX_POINT('',#696);
#235=VERTEX_POINT('',#698);
#236=VERTEX_POINT('',#702);
#237=VERTEX_POINT('',#703);
#238=VERTEX_POINT('',#705);
#239=VERTEX_POINT('',#707);
#240=VERTEX_POINT('',#711);
#241=VERTEX_POINT('',#712);
#242=VERTEX_POINT('',#714);
#243=VERTEX_POINT('',#716);
#244=VERTEX_POINT('',#726);
#245=VERTEX_POINT('',#727);
#246=VERTEX_POINT('',#732);
#247=VERTEX_POINT('',#736);
#248=EDGE_CURVE('',#211,#211,#198,.T.);
#249=EDGE_CURVE('',#211,#212,#110,.T.);
#250=EDGE_CURVE('',#212,#212,#199,.T.);
#251=EDGE_CURVE('',#213,#213,#200,.T.);
#252=EDGE_CURVE('',#213,#214,#111,.T.);
#253=EDGE_CURVE('',#214,#214,#201,.T.);
#254=EDGE_CURVE('',#215,#215,#202,.T.);
#255=EDGE_CURVE('',#215,#216,#112,.T.);
#256=EDGE_CURVE('',#216,#216,#203,.T.);
#257=EDGE_CURVE('',#217,#218,#204,.T.);
#258=EDGE_CURVE('',#217,#219,#113,.T.);
#259=EDGE_CURVE('',#220,#219,#205,.T.);
#260=EDGE_CURVE('',#218,#220,#114,.T.);
#261=EDGE_CURVE('',#221,#217,#206,.T.);
#262=EDGE_CURVE('',#222,#221,#207,.T.);
#263=EDGE_CURVE('',#223,#222,#208,.T.);
#264=EDGE_CURVE('',#218,#223,#209,.T.);
#265=EDGE_CURVE('',#219,#220,#210,.T.);
#266=EDGE_CURVE('',#223,#224,#115,.T.);
#267=EDGE_CURVE('',#224,#225,#116,.T.);
#268=EDGE_CURVE('',#225,#221,#117,.T.);
#269=EDGE_CURVE('',#222,#226,#118,.T.);
#270=EDGE_CURVE('',#226,#223,#119,.T.);
#271=EDGE_CURVE('',#221,#227,#120,.T.);
#272=EDGE_CURVE('',#227,#222,#121,.T.);
#273=EDGE_CURVE('',#228,#229,#122,.T.);
#274=EDGE_CURVE('',#228,#226,#123,.T.);
#275=EDGE_CURVE('',#229,#227,#124,.T.);
#276=EDGE_CURVE('',#230,#231,#125,.T.);
#277=EDGE_CURVE('',#230,#225,#126,.T.);
#278=EDGE_CURVE('',#231,#224,#127,.T.);
#279=EDGE_CURVE('',#229,#232,#128,.T.);
#280=EDGE_CURVE('',#232,#233,#129,.T.);
#281=EDGE_CURVE('',#233,#228,#130,.T.);
#282=EDGE_CURVE('',#231,#234,#131,.T.);
#283=EDGE_CURVE('',#234,#235,#132,.T.);
#284=EDGE_CURVE('',#235,#230,#133,.T.);
#285=EDGE_CURVE('',#236,#237,#134,.T.);
#286=EDGE_CURVE('',#238,#237,#135,.T.);
#287=EDGE_CURVE('',#239,#238,#136,.T.);
#288=EDGE_CURVE('',#236,#239,#137,.T.);
#289=EDGE_CURVE('',#240,#241,#138,.T.);
#290=EDGE_CURVE('',#242,#241,#139,.T.);
#291=EDGE_CURVE('',#243,#242,#140,.T.);
#292=EDGE_CURVE('',#240,#243,#141,.T.);
#293=EDGE_CURVE('',#242,#233,#142,.T.);
#294=EDGE_CURVE('',#243,#232,#143,.T.);
#295=EDGE_CURVE('',#238,#235,#144,.T.);
#296=EDGE_CURVE('',#239,#234,#145,.T.);
#297=EDGE_CURVE('',#244,#245,#146,.T.);
#298=EDGE_CURVE('',#245,#241,#147,.T.);
#299=EDGE_CURVE('',#244,#240,#148,.T.);
#300=EDGE_CURVE('',#246,#244,#149,.T.);
#301=EDGE_CURVE('',#246,#237,#150,.T.);
#302=EDGE_CURVE('',#247,#246,#151,.T.);
#303=EDGE_CURVE('',#247,#236,#152,.T.);
#304=EDGE_CURVE('',#245,#247,#153,.T.);
#305=ORIENTED_EDGE('',*,*,#248,.F.);
#306=ORIENTED_EDGE('',*,*,#249,.T.);
#307=ORIENTED_EDGE('',*,*,#250,.F.);
#308=ORIENTED_EDGE('',*,*,#249,.F.);
#309=ORIENTED_EDGE('',*,*,#251,.F.);
#310=ORIENTED_EDGE('',*,*,#252,.T.);
#311=ORIENTED_EDGE('',*,*,#253,.F.);
#312=ORIENTED_EDGE('',*,*,#252,.F.);
#313=ORIENTED_EDGE('',*,*,#254,.F.);
#314=ORIENTED_EDGE('',*,*,#255,.T.);
#315=ORIENTED_EDGE('',*,*,#256,.F.);
#316=ORIENTED_EDGE('',*,*,#255,.F.);
#317=ORIENTED_EDGE('',*,*,#254,.T.);
#318=ORIENTED_EDGE('',*,*,#257,.F.);
#319=ORIENTED_EDGE('',*,*,#258,.T.);
#320=ORIENTED_EDGE('',*,*,#259,.F.);
#321=ORIENTED_EDGE('',*,*,#260,.F.);
#322=ORIENTED_EDGE('',*,*,#261,.F.);
#323=ORIENTED_EDGE('',*,*,#262,.F.);
#324=ORIENTED_EDGE('',*,*,#263,.F.);
#325=ORIENTED_EDGE('',*,*,#264,.F.);
#326=ORIENTED_EDGE('',*,*,#260,.T.);
#327=ORIENTED_EDGE('',*,*,#265,.F.);
#328=ORIENTED_EDGE('',*,*,#258,.F.);
#329=ORIENTED_EDGE('',*,*,#265,.T.);
#330=ORIENTED_EDGE('',*,*,#259,.T.);
#331=ORIENTED_EDGE('',*,*,#256,.T.);
#332=ORIENTED_EDGE('',*,*,#264,.T.);
#333=ORIENTED_EDGE('',*,*,#266,.T.);
#334=ORIENTED_EDGE('',*,*,#267,.T.);
#335=ORIENTED_EDGE('',*,*,#268,.T.);
#336=ORIENTED_EDGE('',*,*,#261,.T.);
#337=ORIENTED_EDGE('',*,*,#257,.T.);
#338=ORIENTED_EDGE('',*,*,#263,.T.);
#339=ORIENTED_EDGE('',*,*,#269,.T.);
#340=ORIENTED_EDGE('',*,*,#270,.T.);
#341=ORIENTED_EDGE('',*,*,#262,.T.);
#342=ORIENTED_EDGE('',*,*,#271,.T.);
#343=ORIENTED_EDGE('',*,*,#272,.T.);
#344=ORIENTED_EDGE('',*,*,#273,.F.);
#345=ORIENTED_EDGE('',*,*,#274,.T.);
#346=ORIENTED_EDGE('',*,*,#269,.F.);
#347=ORIENTED_EDGE('',*,*,#272,.F.);
#348=ORIENTED_EDGE('',*,*,#275,.F.);
#349=ORIENTED_EDGE('',*,*,#276,.F.);
#350=ORIENTED_EDGE('',*,*,#277,.T.);
#351=ORIENTED_EDGE('',*,*,#267,.F.);
#352=ORIENTED_EDGE('',*,*,#278,.F.);
#353=ORIENTED_EDGE('',*,*,#273,.T.);
#354=ORIENTED_EDGE('',*,*,#279,.T.);
#355=ORIENTED_EDGE('',*,*,#280,.T.);
#356=ORIENTED_EDGE('',*,*,#281,.T.);
#357=ORIENTED_EDGE('',*,*,#248,.T.);
#358=ORIENTED_EDGE('',*,*,#276,.T.);
#359=ORIENTED_EDGE('',*,*,#282,.T.);
#360=ORIENTED_EDGE('',*,*,#283,.T.);
#361=ORIENTED_EDGE('',*,*,#284,.T.);
#362=ORIENTED_EDGE('',*,*,#251,.T.);
#363=ORIENTED_EDGE('',*,*,#285,.T.);
#364=ORIENTED_EDGE('',*,*,#286,.F.);
#365=ORIENTED_EDGE('',*,*,#287,.F.);
#366=ORIENTED_EDGE('',*,*,#288,.F.);
#367=ORIENTED_EDGE('',*,*,#253,.T.);
#368=ORIENTED_EDGE('',*,*,#289,.T.);
#369=ORIENTED_EDGE('',*,*,#290,.F.);
#370=ORIENTED_EDGE('',*,*,#291,.F.);
#371=ORIENTED_EDGE('',*,*,#292,.F.);
#372=ORIENTED_EDGE('',*,*,#250,.T.);
#373=ORIENTED_EDGE('',*,*,#291,.T.);
#374=ORIENTED_EDGE('',*,*,#293,.T.);
#375=ORIENTED_EDGE('',*,*,#280,.F.);
#376=ORIENTED_EDGE('',*,*,#294,.F.);
#377=ORIENTED_EDGE('',*,*,#287,.T.);
#378=ORIENTED_EDGE('',*,*,#295,.T.);
#379=ORIENTED_EDGE('',*,*,#283,.F.);
#380=ORIENTED_EDGE('',*,*,#296,.F.);
#381=ORIENTED_EDGE('',*,*,#297,.T.);
#382=ORIENTED_EDGE('',*,*,#298,.T.);
#383=ORIENTED_EDGE('',*,*,#289,.F.);
#384=ORIENTED_EDGE('',*,*,#299,.F.);
#385=ORIENTED_EDGE('',*,*,#300,.T.);
#386=ORIENTED_EDGE('',*,*,#299,.T.);
#387=ORIENTED_EDGE('',*,*,#292,.T.);
#388=ORIENTED_EDGE('',*,*,#294,.T.);
#389=ORIENTED_EDGE('',*,*,#279,.F.);
#390=ORIENTED_EDGE('',*,*,#275,.T.);
#391=ORIENTED_EDGE('',*,*,#271,.F.);
#392=ORIENTED_EDGE('',*,*,#268,.F.);
#393=ORIENTED_EDGE('',*,*,#277,.F.);
#394=ORIENTED_EDGE('',*,*,#284,.F.);
#395=ORIENTED_EDGE('',*,*,#295,.F.);
#396=ORIENTED_EDGE('',*,*,#286,.T.);
#397=ORIENTED_EDGE('',*,*,#301,.F.);
#398=ORIENTED_EDGE('',*,*,#302,.T.);
#399=ORIENTED_EDGE('',*,*,#301,.T.);
#400=ORIENTED_EDGE('',*,*,#285,.F.);
#401=ORIENTED_EDGE('',*,*,#303,.F.);
#402=ORIENTED_EDGE('',*,*,#304,.T.);
#403=ORIENTED_EDGE('',*,*,#303,.T.);
#404=ORIENTED_EDGE('',*,*,#288,.T.);
#405=ORIENTED_EDGE('',*,*,#296,.T.);
#406=ORIENTED_EDGE('',*,*,#282,.F.);
#407=ORIENTED_EDGE('',*,*,#278,.T.);
#408=ORIENTED_EDGE('',*,*,#266,.F.);
#409=ORIENTED_EDGE('',*,*,#270,.F.);
#410=ORIENTED_EDGE('',*,*,#274,.F.);
#411=ORIENTED_EDGE('',*,*,#281,.F.);
#412=ORIENTED_EDGE('',*,*,#293,.F.);
#413=ORIENTED_EDGE('',*,*,#290,.T.);
#414=ORIENTED_EDGE('',*,*,#298,.F.);
#415=ORIENTED_EDGE('',*,*,#304,.F.);
#416=ORIENTED_EDGE('',*,*,#297,.F.);
#417=ORIENTED_EDGE('',*,*,#300,.F.);
#418=ORIENTED_EDGE('',*,*,#302,.F.);
#419=CYLINDRICAL_SURFACE('',#470,0.889);
#420=CYLINDRICAL_SURFACE('',#473,0.889);
#421=CYLINDRICAL_SURFACE('',#476,2.5);
#422=CYLINDRICAL_SURFACE('',#480,2.75);
#423=CYLINDRICAL_SURFACE('',#483,6.);
#424=ADVANCED_FACE('',(#59),#419,.F.);
#425=ADVANCED_FACE('',(#60),#420,.F.);
#426=ADVANCED_FACE('',(#61),#421,.T.);
#427=ADVANCED_FACE('',(#62),#19,.T.);
#428=ADVANCED_FACE('',(#63),#422,.T.);
#429=ADVANCED_FACE('',(#64),#423,.T.);
#430=ADVANCED_FACE('',(#65,#14),#20,.T.);
#431=ADVANCED_FACE('',(#66),#21,.T.);
#432=ADVANCED_FACE('',(#67),#22,.T.);
#433=ADVANCED_FACE('',(#68),#23,.T.);
#434=ADVANCED_FACE('',(#69),#24,.T.);
#435=ADVANCED_FACE('',(#70),#25,.T.);
#436=ADVANCED_FACE('',(#71,#15),#26,.T.);
#437=ADVANCED_FACE('',(#72,#16),#27,.T.);
#438=ADVANCED_FACE('',(#73,#17),#28,.F.);
#439=ADVANCED_FACE('',(#74,#18),#29,.F.);
#440=ADVANCED_FACE('',(#75),#30,.T.);
#441=ADVANCED_FACE('',(#76),#31,.T.);
#442=ADVANCED_FACE('',(#77),#32,.T.);
#443=ADVANCED_FACE('',(#78),#33,.T.);
#444=ADVANCED_FACE('',(#79),#34,.T.);
#445=ADVANCED_FACE('',(#80),#35,.T.);
#446=ADVANCED_FACE('',(#81),#36,.F.);
#447=CLOSED_SHELL('',(#424,#425,#426,#427,#428,#429,#430,#431,#432,#433,
#434,#435,#436,#437,#438,#439,#440,#441,#442,#443,#444,#445,#446));
#448=DERIVED_UNIT_ELEMENT(#451,1.);
#449=DERIVED_UNIT_ELEMENT(#747,-3.);
#450=DIMENSIONAL_EXPONENTS(0.,1.,0.,0.,0.,0.,0.);
#451=(
CONVERSION_BASED_UNIT('gram',#453)
MASS_UNIT()
NAMED_UNIT(#450)
);
#452=(
MASS_UNIT()
NAMED_UNIT(*)
SI_UNIT(.KILO.,.GRAM.)
);
#453=MASS_MEASURE_WITH_UNIT(MASS_MEASURE(0.001),#452);
#454=DERIVED_UNIT((#448,#449));
#455=MEASURE_REPRESENTATION_ITEM('density measure',
POSITIVE_RATIO_MEASURE(2.7),#454);
#456=PROPERTY_DEFINITION_REPRESENTATION(#461,#458);
#457=PROPERTY_DEFINITION_REPRESENTATION(#462,#459);
#458=REPRESENTATION('material name',(#460),#744);
#459=REPRESENTATION('density',(#455),#744);
#460=DESCRIPTIVE_REPRESENTATION_ITEM('Aluminium','Aluminium');
#461=PROPERTY_DEFINITION('material property','material name',#754);
#462=PROPERTY_DEFINITION('material property','density of part',#754);
#463=DATE_TIME_ROLE('creation_date');
#464=APPLIED_DATE_AND_TIME_ASSIGNMENT(#465,#463,(#754));
#465=DATE_AND_TIME(#466,#467);
#466=CALENDAR_DATE(2026,14,3);
#467=LOCAL_TIME(0,0,0.,#468);
#468=COORDINATED_UNIVERSAL_TIME_OFFSET(0,0,.BEHIND.);
#469=AXIS2_PLACEMENT_3D('',#624,#506,#507);
#470=AXIS2_PLACEMENT_3D('',#625,#508,#509);
#471=AXIS2_PLACEMENT_3D('',#627,#510,#511);
#472=AXIS2_PLACEMENT_3D('',#630,#513,#514);
#473=AXIS2_PLACEMENT_3D('',#631,#515,#516);
#474=AXIS2_PLACEMENT_3D('',#633,#517,#518);
#475=AXIS2_PLACEMENT_3D('',#636,#520,#521);
#476=AXIS2_PLACEMENT_3D('',#637,#522,#523);
#477=AXIS2_PLACEMENT_3D('',#639,#524,#525);
#478=AXIS2_PLACEMENT_3D('',#642,#527,#528);
#479=AXIS2_PLACEMENT_3D('',#643,#529,#530);
#480=AXIS2_PLACEMENT_3D('',#644,#531,#532);
#481=AXIS2_PLACEMENT_3D('',#647,#533,#534);
#482=AXIS2_PLACEMENT_3D('',#651,#536,#537);
#483=AXIS2_PLACEMENT_3D('',#653,#539,#540);
#484=AXIS2_PLACEMENT_3D('',#655,#541,#542);
#485=AXIS2_PLACEMENT_3D('',#657,#543,#544);
#486=AXIS2_PLACEMENT_3D('',#659,#545,#546);
#487=AXIS2_PLACEMENT_3D('',#660,#547,#548);
#488=AXIS2_PLACEMENT_3D('',#661,#549,#550);
#489=AXIS2_PLACEMENT_3D('',#662,#551,#552);
#490=AXIS2_PLACEMENT_3D('',#663,#553,#554);
#491=AXIS2_PLACEMENT_3D('',#669,#558,#559);
#492=AXIS2_PLACEMENT_3D('',#673,#562,#563);
#493=AXIS2_PLACEMENT_3D('',#677,#566,#567);
#494=AXIS2_PLACEMENT_3D('',#683,#571,#572);
#495=AXIS2_PLACEMENT_3D('',#689,#576,#577);
#496=AXIS2_PLACEMENT_3D('',#695,#581,#582);
#497=AXIS2_PLACEMENT_3D('',#701,#586,#587);
#498=AXIS2_PLACEMENT_3D('',#710,#592,#593);
#499=AXIS2_PLACEMENT_3D('',#719,#598,#599);
#500=AXIS2_PLACEMENT_3D('',#722,#602,#603);
#501=AXIS2_PLACEMENT_3D('',#725,#606,#607);
#502=AXIS2_PLACEMENT_3D('',#731,#611,#612);
#503=AXIS2_PLACEMENT_3D('',#735,#615,#616);
#504=AXIS2_PLACEMENT_3D('',#739,#619,#620);
#505=AXIS2_PLACEMENT_3D('',#741,#622,#623);
#506=DIRECTION('axis',(0.,0.,1.));
#507=DIRECTION('refdir',(1.,0.,0.));
#508=DIRECTION('center_axis',(0.,1.,0.));
#509=DIRECTION('ref_axis',(1.,0.,0.));
#510=DIRECTION('center_axis',(0.,-1.,0.));
#511=DIRECTION('ref_axis',(1.,0.,0.));
#512=DIRECTION('',(0.,-1.,0.));
#513=DIRECTION('center_axis',(0.,1.,0.));
#514=DIRECTION('ref_axis',(1.,0.,0.));
#515=DIRECTION('center_axis',(0.,1.,0.));
#516=DIRECTION('ref_axis',(1.,0.,0.));
#517=DIRECTION('center_axis',(0.,-1.,0.));
#518=DIRECTION('ref_axis',(1.,0.,0.));
#519=DIRECTION('',(0.,-1.,0.));
#520=DIRECTION('center_axis',(0.,1.,0.));
#521=DIRECTION('ref_axis',(1.,0.,0.));
#522=DIRECTION('center_axis',(0.,1.,0.));
#523=DIRECTION('ref_axis',(1.,0.,0.));
#524=DIRECTION('center_axis',(0.,1.,0.));
#525=DIRECTION('ref_axis',(1.,0.,0.));
#526=DIRECTION('',(0.,-1.,0.));
#527=DIRECTION('center_axis',(0.,-1.,0.));
#528=DIRECTION('ref_axis',(1.,0.,0.));
#529=DIRECTION('center_axis',(0.,1.,0.));
#530=DIRECTION('ref_axis',(0.,0.,1.));
#531=DIRECTION('center_axis',(0.,1.,0.));
#532=DIRECTION('ref_axis',(1.,0.,0.));
#533=DIRECTION('center_axis',(0.,-1.,0.));
#534=DIRECTION('ref_axis',(1.,0.,0.));
#535=DIRECTION('',(0.,1.,0.));
#536=DIRECTION('center_axis',(0.,1.,0.));
#537=DIRECTION('ref_axis',(1.,0.,0.));
#538=DIRECTION('',(0.,1.,0.));
#539=DIRECTION('center_axis',(0.,1.,0.));
#540=DIRECTION('ref_axis',(-1.,0.,-1.22464679914735E-16));
#541=DIRECTION('center_axis',(0.,-1.,0.));
#542=DIRECTION('ref_axis',(1.,0.,0.));
#543=DIRECTION('center_axis',(0.,-1.,0.));
#544=DIRECTION('ref_axis',(1.,0.,0.));
#545=DIRECTION('center_axis',(0.,-1.,0.));
#546=DIRECTION('ref_axis',(1.,0.,0.));
#547=DIRECTION('center_axis',(0.,-1.,0.));
#548=DIRECTION('ref_axis',(1.,0.,0.));
#549=DIRECTION('center_axis',(0.,1.,0.));
#550=DIRECTION('ref_axis',(1.,0.,0.));
#551=DIRECTION('center_axis',(0.,1.,0.));
#552=DIRECTION('ref_axis',(0.,0.,1.));
#553=DIRECTION('center_axis',(0.,1.,0.));
#554=DIRECTION('ref_axis',(0.,0.,1.));
#555=DIRECTION('',(1.,0.,-1.44811698864151E-16));
#556=DIRECTION('',(1.85037170770859E-16,0.,-1.));
#557=DIRECTION('',(-1.,0.,-1.44811698864151E-16));
#558=DIRECTION('center_axis',(0.,1.,0.));
#559=DIRECTION('ref_axis',(0.,0.,1.));
#560=DIRECTION('',(0.,0.,1.));
#561=DIRECTION('',(1.,0.,-1.44811698864151E-16));
#562=DIRECTION('center_axis',(0.,1.,0.));
#563=DIRECTION('ref_axis',(0.,0.,1.));
#564=DIRECTION('',(-1.,0.,-1.44811698864151E-16));
#565=DIRECTION('',(0.,0.,1.));
#566=DIRECTION('center_axis',(-1.,0.,0.));
#567=DIRECTION('ref_axis',(0.,0.,1.));
#568=DIRECTION('',(0.,0.,-1.));
#569=DIRECTION('',(0.,1.,0.));
#570=DIRECTION('',(0.,1.,0.));
#571=DIRECTION('center_axis',(1.,0.,1.85037170770859E-16));
#572=DIRECTION('ref_axis',(1.85037170770859E-16,0.,-1.));
#573=DIRECTION('',(-1.85037170770859E-16,0.,1.));
#574=DIRECTION('',(0.,1.,0.));
#575=DIRECTION('',(0.,1.,0.));
#576=DIRECTION('center_axis',(0.,1.,0.));
#577=DIRECTION('ref_axis',(0.,0.,1.));
#578=DIRECTION('',(-1.,0.,-2.08166817117217E-16));
#579=DIRECTION('',(0.,0.,1.));
#580=DIRECTION('',(1.,0.,-2.08166817117217E-16));
#581=DIRECTION('center_axis',(0.,1.,0.));
#582=DIRECTION('ref_axis',(0.,0.,1.));
#583=DIRECTION('',(1.,0.,-2.08166817117217E-16));
#584=DIRECTION('',(0.,0.,-1.));
#585=DIRECTION('',(-1.,0.,-2.08166817117217E-16));
#586=DIRECTION('center_axis',(0.,1.,0.));
#587=DIRECTION('ref_axis',(0.,0.,1.));
#588=DIRECTION('',(0.,0.,-1.));
#589=DIRECTION('',(-1.,0.,-2.08166817117217E-16));
#590=DIRECTION('',(0.,0.,-1.));
#591=DIRECTION('',(1.,0.,-2.08166817117217E-16));
#592=DIRECTION('center_axis',(0.,1.,0.));
#593=DIRECTION('ref_axis',(0.,0.,1.));
#594=DIRECTION('',(0.,0.,1.));
#595=DIRECTION('',(1.,0.,-2.08166817117217E-16));
#596=DIRECTION('',(0.,0.,1.));
#597=DIRECTION('',(-1.,0.,-2.08166817117217E-16));
#598=DIRECTION('center_axis',(-1.,0.,0.));
#599=DIRECTION('ref_axis',(0.,0.,1.));
#600=DIRECTION('',(0.,1.,0.));
#601=DIRECTION('',(0.,1.,0.));
#602=DIRECTION('center_axis',(1.,0.,0.));
#603=DIRECTION('ref_axis',(0.,0.,-1.));
#604=DIRECTION('',(0.,1.,0.));
#605=DIRECTION('',(0.,1.,0.));
#606=DIRECTION('center_axis',(-1.,0.,0.));
#607=DIRECTION('ref_axis',(0.,0.,1.));
#608=DIRECTION('',(0.,0.,1.));
#609=DIRECTION('',(0.,1.,0.));
#610=DIRECTION('',(0.,1.,0.));
#611=DIRECTION('center_axis',(-4.82705662880503E-17,0.,-1.));
#612=DIRECTION('ref_axis',(-1.,0.,4.82705662880503E-17));
#613=DIRECTION('',(-1.,0.,4.82705662880503E-17));
#614=DIRECTION('',(0.,1.,0.));
#615=DIRECTION('center_axis',(1.,0.,0.));
#616=DIRECTION('ref_axis',(0.,0.,-1.));
#617=DIRECTION('',(0.,0.,-1.));
#618=DIRECTION('',(0.,1.,0.));
#619=DIRECTION('center_axis',(-4.82705662880503E-17,0.,1.));
#620=DIRECTION('ref_axis',(1.,0.,4.82705662880503E-17));
#621=DIRECTION('',(1.,0.,4.82705662880503E-17));
#622=DIRECTION('center_axis',(0.,1.,0.));
#623=DIRECTION('ref_axis',(0.,0.,1.));
#624=CARTESIAN_POINT('',(0.,0.,0.));
#625=CARTESIAN_POINT('Origin',(-13.,16.6,-1.11022302462516E-15));
#626=CARTESIAN_POINT('',(-13.889,21.,-1.00135192418096E-15));
#627=CARTESIAN_POINT('Origin',(-13.,21.,-1.11022302462516E-15));
#628=CARTESIAN_POINT('',(-13.889,17.,-1.00135192418096E-15));
#629=CARTESIAN_POINT('',(-13.889,16.6,-1.00135192418096E-15));
#630=CARTESIAN_POINT('Origin',(-13.,17.,-1.11022302462516E-15));
#631=CARTESIAN_POINT('Origin',(13.,16.6,0.));
#632=CARTESIAN_POINT('',(12.111,21.,1.088711004442E-16));
#633=CARTESIAN_POINT('Origin',(13.,21.,0.));
#634=CARTESIAN_POINT('',(12.111,17.,1.088711004442E-16));
#635=CARTESIAN_POINT('',(12.111,16.6,1.088711004442E-16));
#636=CARTESIAN_POINT('Origin',(13.,17.,0.));
#637=CARTESIAN_POINT('Origin',(-5.5,27.5,-1.11022302462516E-15));
#638=CARTESIAN_POINT('',(-8.,31.,-8.04061324838318E-16));
#639=CARTESIAN_POINT('Origin',(-5.5,31.,-1.11022302462516E-15));
#640=CARTESIAN_POINT('',(-8.,27.5,-8.04061324838318E-16));
#641=CARTESIAN_POINT('',(-8.,27.5,-8.04061324838318E-16));
#642=CARTESIAN_POINT('Origin',(-5.5,27.5,-1.11022302462516E-15));
#643=CARTESIAN_POINT('Origin',(-5.5,31.,-1.11022302462516E-15));
#644=CARTESIAN_POINT('Origin',(0.500000000000008,24.,-1.11022302462516E-15));
#645=CARTESIAN_POINT('',(-0.130208333333325,24.,-2.67681479684293));
#646=CARTESIAN_POINT('',(-0.130208333333326,24.,2.67681479684292));
#647=CARTESIAN_POINT('Origin',(0.500000000000008,24.,-1.11022302462516E-15));
#648=CARTESIAN_POINT('',(-0.130208333333325,27.5,-2.67681479684293));
#649=CARTESIAN_POINT('',(-0.130208333333325,24.,-2.67681479684293));
#650=CARTESIAN_POINT('',(-0.130208333333326,27.5,2.67681479684292));
#651=CARTESIAN_POINT('Origin',(0.500000000000008,27.5,-1.11022302462516E-15));
#652=CARTESIAN_POINT('',(-0.130208333333326,24.,2.67681479684292));
#653=CARTESIAN_POINT('Origin',(-5.5,24.,-1.11022302462516E-15));
#654=CARTESIAN_POINT('',(-5.49999999999999,24.,-6.));
#655=CARTESIAN_POINT('Origin',(-5.5,24.,-1.11022302462516E-15));
#656=CARTESIAN_POINT('',(-11.5,24.,-1.11022302462516E-15));
#657=CARTESIAN_POINT('Origin',(-5.5,24.,-1.11022302462516E-15));
#658=CARTESIAN_POINT('',(-5.49999999999999,24.,6.));
#659=CARTESIAN_POINT('Origin',(-5.5,24.,-1.11022302462516E-15));
#660=CARTESIAN_POINT('Origin',(-5.5,24.,-1.11022302462516E-15));
#661=CARTESIAN_POINT('Origin',(-5.5,27.5,-1.11022302462516E-15));
#662=CARTESIAN_POINT('Origin',(-4.125,27.5,-1.11022302462516E-15));
#663=CARTESIAN_POINT('Origin',(2.22044604925031E-15,24.,0.));
#664=CARTESIAN_POINT('',(11.5,24.,6.));
#665=CARTESIAN_POINT('',(-11.5,24.,6.));
#666=CARTESIAN_POINT('',(11.5,24.,-6.));
#667=CARTESIAN_POINT('',(11.5,24.,6.));
#668=CARTESIAN_POINT('',(11.5,24.,-6.));
#669=CARTESIAN_POINT('Origin',(2.22044604925031E-15,24.,0.));
#670=CARTESIAN_POINT('',(-11.5,24.,6.));
#671=CARTESIAN_POINT('',(-11.5,24.,-6.));
#672=CARTESIAN_POINT('',(-11.5,24.,6.));
#673=CARTESIAN_POINT('Origin',(2.22044604925031E-15,24.,0.));
#674=CARTESIAN_POINT('',(-11.5,24.,-6.));
#675=CARTESIAN_POINT('',(11.5,24.,-6.));
#676=CARTESIAN_POINT('',(-11.5,24.,-6.));
#677=CARTESIAN_POINT('Origin',(-11.5,21.,-6.));
#678=CARTESIAN_POINT('',(-11.5,21.,6.));
#679=CARTESIAN_POINT('',(-11.5,21.,-6.));
#680=CARTESIAN_POINT('',(-11.5,21.,-3.));
#681=CARTESIAN_POINT('',(-11.5,21.,6.));
#682=CARTESIAN_POINT('',(-11.5,21.,-6.));
#683=CARTESIAN_POINT('Origin',(11.5,21.,6.));
#684=CARTESIAN_POINT('',(11.5,21.,-6.));
#685=CARTESIAN_POINT('',(11.5,21.,6.));
#686=CARTESIAN_POINT('',(11.5,21.,3.));
#687=CARTESIAN_POINT('',(11.5,21.,-6.));
#688=CARTESIAN_POINT('',(11.5,21.,6.));
#689=CARTESIAN_POINT('Origin',(2.22044604925031E-15,21.,0.));
#690=CARTESIAN_POINT('',(-16.,21.,-6.00000000000001));
#691=CARTESIAN_POINT('',(16.,21.,-6.));
#692=CARTESIAN_POINT('',(-16.,21.,6.00000000000001));
#693=CARTESIAN_POINT('',(-16.,21.,-6.00000000000001));
#694=CARTESIAN_POINT('',(-16.,21.,6.00000000000001));
#695=CARTESIAN_POINT('Origin',(2.22044604925031E-15,21.,0.));
#696=CARTESIAN_POINT('',(16.,21.,6.));
#697=CARTESIAN_POINT('',(-16.,21.,6.00000000000001));
#698=CARTESIAN_POINT('',(16.,21.,-6.));
#699=CARTESIAN_POINT('',(16.,21.,6.));
#700=CARTESIAN_POINT('',(16.,21.,-6.));
#701=CARTESIAN_POINT('Origin',(2.22044604925031E-15,17.,0.));
#702=CARTESIAN_POINT('',(11.5,17.,6.));
#703=CARTESIAN_POINT('',(11.5,17.,-6.));
#704=CARTESIAN_POINT('',(11.5,17.,6.));
#705=CARTESIAN_POINT('',(16.,17.,-6.));
#706=CARTESIAN_POINT('',(16.,17.,-6.));
#707=CARTESIAN_POINT('',(16.,17.,6.));
#708=CARTESIAN_POINT('',(16.,17.,6.));
#709=CARTESIAN_POINT('',(-16.,17.,6.00000000000001));
#710=CARTESIAN_POINT('Origin',(2.22044604925031E-15,17.,0.));
#711=CARTESIAN_POINT('',(-11.5,17.,-6.));
#712=CARTESIAN_POINT('',(-11.5,17.,6.));
#713=CARTESIAN_POINT('',(-11.5,17.,-6.));
#714=CARTESIAN_POINT('',(-16.,17.,6.00000000000001));
#715=CARTESIAN_POINT('',(-16.,17.,6.00000000000001));
#716=CARTESIAN_POINT('',(-16.,17.,-6.00000000000001));
#717=CARTESIAN_POINT('',(-16.,17.,-6.00000000000001));
#718=CARTESIAN_POINT('',(16.,17.,-6.));
#719=CARTESIAN_POINT('Origin',(-16.,17.,-6.00000000000001));
#720=CARTESIAN_POINT('',(-16.,17.,6.00000000000001));
#721=CARTESIAN_POINT('',(-16.,17.,-6.00000000000001));
#722=CARTESIAN_POINT('Origin',(16.,17.,6.));
#723=CARTESIAN_POINT('',(16.,17.,-6.));
#724=CARTESIAN_POINT('',(16.,17.,6.));
#725=CARTESIAN_POINT('Origin',(-11.5,0.,-6.));
#726=CARTESIAN_POINT('',(-11.5,0.,-6.));
#727=CARTESIAN_POINT('',(-11.5,0.,6.));
#728=CARTESIAN_POINT('',(-11.5,0.,-6.));
#729=CARTESIAN_POINT('',(-11.5,0.,6.));
#730=CARTESIAN_POINT('',(-11.5,0.,-6.));
#731=CARTESIAN_POINT('Origin',(11.5,0.,-6.));
#732=CARTESIAN_POINT('',(11.5,0.,-6.));
#733=CARTESIAN_POINT('',(11.5,0.,-6.));
#734=CARTESIAN_POINT('',(11.5,0.,-6.));
#735=CARTESIAN_POINT('Origin',(11.5,0.,6.));
#736=CARTESIAN_POINT('',(11.5,0.,6.));
#737=CARTESIAN_POINT('',(11.5,0.,6.));
#738=CARTESIAN_POINT('',(11.5,0.,6.));
#739=CARTESIAN_POINT('Origin',(-11.5,0.,6.));
#740=CARTESIAN_POINT('',(-11.5,0.,6.));
#741=CARTESIAN_POINT('Origin',(0.,0.,0.));
#742=UNCERTAINTY_MEASURE_WITH_UNIT(LENGTH_MEASURE(0.01),#746,
'DISTANCE_ACCURACY_VALUE',
'Maximum model space distance between geometric entities at asserted c
onnectivities');
#743=UNCERTAINTY_MEASURE_WITH_UNIT(LENGTH_MEASURE(0.01),#746,
'DISTANCE_ACCURACY_VALUE',
'Maximum model space distance between geometric entities at asserted c
onnectivities');
#744=(
GEOMETRIC_REPRESENTATION_CONTEXT(3)
GLOBAL_UNCERTAINTY_ASSIGNED_CONTEXT((#742))
GLOBAL_UNIT_ASSIGNED_CONTEXT((#746,#748,#749))
REPRESENTATION_CONTEXT('','3D')
);
#745=(
GEOMETRIC_REPRESENTATION_CONTEXT(3)
GLOBAL_UNCERTAINTY_ASSIGNED_CONTEXT((#743))
GLOBAL_UNIT_ASSIGNED_CONTEXT((#746,#748,#749))
REPRESENTATION_CONTEXT('','3D')
);
#746=(
LENGTH_UNIT()
NAMED_UNIT(*)
SI_UNIT(.MILLI.,.METRE.)
);
#747=(
LENGTH_UNIT()
NAMED_UNIT(*)
SI_UNIT(.CENTI.,.METRE.)
);
#748=(
NAMED_UNIT(*)
PLANE_ANGLE_UNIT()
SI_UNIT($,.RADIAN.)
);
#749=(
NAMED_UNIT(*)
SI_UNIT($,.STERADIAN.)
SOLID_ANGLE_UNIT()
);
#750=SHAPE_DEFINITION_REPRESENTATION(#751,#752);
#751=PRODUCT_DEFINITION_SHAPE('',$,#754);
#752=SHAPE_REPRESENTATION('',(#469),#744);
#753=PRODUCT_DEFINITION_CONTEXT('part definition',#758,'design');
#754=PRODUCT_DEFINITION('001','SG90_9g_Micro_Servo',#755,#753);
#755=PRODUCT_DEFINITION_FORMATION('',$,#760);
#756=PRODUCT_RELATED_PRODUCT_CATEGORY('SG90_9g_Micro_Servo',
'SG90_9g_Micro_Servo',(#760));
#757=APPLICATION_PROTOCOL_DEFINITION('international standard',
'automotive_design',2009,#758);
#758=APPLICATION_CONTEXT(
'Core Data for Automotive Mechanical Design Process');
#759=PRODUCT_CONTEXT('part definition',#758,'mechanical');
#760=PRODUCT('001','SG90_9g_Micro_Servo','SG90_9g_Micro_Servo',(#759));
#761=PRESENTATION_STYLE_ASSIGNMENT((#765));
#762=PRESENTATION_STYLE_ASSIGNMENT((#766));
#763=PRESENTATION_STYLE_ASSIGNMENT((#767));
#764=PRESENTATION_STYLE_ASSIGNMENT((#768));
#765=SURFACE_STYLE_USAGE(.BOTH.,#777);
#766=SURFACE_STYLE_USAGE(.BOTH.,#778);
#767=SURFACE_STYLE_USAGE(.BOTH.,#779);
#768=SURFACE_STYLE_USAGE(.BOTH.,#780);
#769=SURFACE_STYLE_RENDERING_WITH_PROPERTIES($,#793,(#773));
#770=SURFACE_STYLE_RENDERING_WITH_PROPERTIES($,#794,(#774));
#771=SURFACE_STYLE_RENDERING_WITH_PROPERTIES($,#795,(#775));
#772=SURFACE_STYLE_RENDERING_WITH_PROPERTIES($,#796,(#776));
#773=SURFACE_STYLE_TRANSPARENT(0.);
#774=SURFACE_STYLE_TRANSPARENT(0.);
#775=SURFACE_STYLE_TRANSPARENT(0.53999999165535);
#776=SURFACE_STYLE_TRANSPARENT(0.);
#777=SURFACE_SIDE_STYLE('',(#781,#769));
#778=SURFACE_SIDE_STYLE('',(#782,#770));
#779=SURFACE_SIDE_STYLE('',(#783,#771));
#780=SURFACE_SIDE_STYLE('',(#784,#772));
#781=SURFACE_STYLE_FILL_AREA(#785);
#782=SURFACE_STYLE_FILL_AREA(#786);
#783=SURFACE_STYLE_FILL_AREA(#787);
#784=SURFACE_STYLE_FILL_AREA(#788);
#785=FILL_AREA_STYLE('',(#789));
#786=FILL_AREA_STYLE('',(#790));
#787=FILL_AREA_STYLE('',(#791));
#788=FILL_AREA_STYLE('',(#792));
#789=FILL_AREA_STYLE_COLOUR('',#793);
#790=FILL_AREA_STYLE_COLOUR('',#794);
#791=FILL_AREA_STYLE_COLOUR('',#795);
#792=FILL_AREA_STYLE_COLOUR('',#796);
#793=COLOUR_RGB('',0.956862745098039,0.956862745098039,0.956862745098039);
#794=COLOUR_RGB('',0.956862745098039,0.956862745098039,0.956862745098039);
#795=COLOUR_RGB('',0.8,0.8,0.8);
#796=COLOUR_RGB('',0.270588235294118,0.270588235294118,0.270588235294118);
ENDSEC;
END-ISO-10303-21;
